<?xml version="1.0" encoding="iso-8859-1"?>
<!-- Generator: Adobe Illustrator 19.0.0, SVG Export Plug-In . SVG Version: 6.00 Build 0)  -->
<svg version="1.1" id="Capa_1" xmlns="http://www.w3.org/2000/svg" xmlns:xlink="http://www.w3.org/1999/xlink" x="0px" y="0px"
	 viewBox="0 0 480 480" style="enable-background:new 0 0 480 480;" xml:space="preserve">
<g>
	<path style="fill:#EE6352;" d="M83.336,320c18.2,65.168,56.432,120,100.664,120c16.936,0,32.984-8.04,47.376-21.624
		c18.264-17.24,46.992-17.24,65.256,0C311.016,431.96,327.064,440,344,440c44.232,0,82.464-54.832,100.664-120H83.336z"/>
	<path style="fill:#EE6352;" d="M80,184l-5.232,20.936C73.008,215.744,72,227.376,72,240c0,5.296,0.184,10.632,0.504,16h382.992
		c0.32-5.368,0.504-10.704,0.504-16c0-92.784-50.144-136-112-136c-31.36,0-59.672,11.16-80,34.2c-20.328-23.04-48.64-34.2-80-34.2
		c-47.664,0-88.264,25.784-104.432,80H80z"/>
</g>
<path style="fill:#50D4E3;" d="M455.496,256H72.504H60c-11.048,0-20-8.952-20-20s8.952-20,20-20h12l2.768-11.064L80,184h-0.432H56
	c-26.512,0-48,21.488-48,48v40c0,26.512,21.488,48,48,48h416v-64H455.496z"/>
<g>
	<path style="fill:#0F272A;" d="M472,248h-8.248c0.08-2.664,0.248-5.352,0.248-8c0-106.168-61.992-144-120-144
		c-27.04,0-50.912,7.712-70.216,22.344C281.976,78.256,317.52,48,360,48V32c-52.136,0-95.32,38.616-102.752,88.72
		C237.44,104.528,212.472,96,184,96c-53.008,0-92.832,29.104-110.184,80H56c-30.872,0-56,25.128-56,56v40c0,30.872,25.128,56,56,56
		h21.408C99.264,401.064,140.688,448,184,448c18.344,0,36.136-8.008,52.864-23.816c15.216-14.36,39.048-14.368,54.264,0.008
		C307.864,439.992,325.656,448,344,448c43.312,0,84.736-46.936,106.592-120H472c4.424,0,8-3.576,8-8v-64
		C480,251.576,476.424,248,472,248z M184,112c30.232,0,55.824,10.888,74,31.496c3.048,3.456,8.952,3.456,12,0
		C288.176,122.888,313.768,112,344,112c65.128,0,104,47.848,104,128c0,2.656-0.048,5.32-0.136,8H80.136
		c-0.088-2.68-0.136-5.344-0.136-8c0-11.552,0.896-22.92,2.52-33.128l5.232-20.936c0.16-0.632,0.208-1.272,0.192-1.904
		c0-0.04,0.016-0.072,0.008-0.112C102.504,138.168,137.392,112,184,112z M60,248c-6.616,0-12-5.384-12-12s5.384-12,12-12h4.624
		C64.264,229.288,64,234.616,64,240c0,2.648,0.168,5.336,0.248,8H60z M344,432c-14.128,0-28.216-6.536-41.88-19.44
		c-10.688-10.104-24.4-15.144-38.12-15.144c-13.712,0-27.432,5.048-38.12,15.136C212.216,425.464,198.128,432,184,432
		c-34.688,0-70.128-41.368-89.936-104h339.872C414.128,390.632,378.688,432,344,432z M464,312h-19.336H83.336H56
		c-22.056,0-40-17.944-40-40v-40c0-22.056,17.944-40,40-40h13.752l-4,16H60c-15.44,0-28,12.56-28,28s12.56,28,28,28h4v32h16v-32h24
		v24h16v-24h24v24h16v-24h24v24h16v-24h24v32h16v-32h24v24h16v-24h24v24h16v-24h24v24h16v-24h24v32h16v-32h24v24h16v-24h15.504H464
		V312z"/>
	<rect x="408" y="216" style="fill:#0F272A;" width="16" height="16"/>
	<rect x="376" y="216" style="fill:#0F272A;" width="16" height="16"/>
	<rect x="344" y="216" style="fill:#0F272A;" width="16" height="16"/>
</g>
<g>
</g>
<g>
</g>
<g>
</g>
<g>
</g>
<g>
</g>
<g>
</g>
<g>
</g>
<g>
</g>
<g>
</g>
<g>
</g>
<g>
</g>
<g>
</g>
<g>
</g>
<g>
</g>
<g>
</g>
</svg>
