<?xml version="1.0" encoding="iso-8859-1"?>
<!-- Generator: Adobe Illustrator 19.0.0, SVG Export Plug-In . SVG Version: 6.00 Build 0)  -->
<svg version="1.1" id="Capa_1" xmlns="http://www.w3.org/2000/svg" xmlns:xlink="http://www.w3.org/1999/xlink" x="0px" y="0px"
	 viewBox="0 0 512 512" style="enable-background:new 0 0 512 512;" xml:space="preserve">
<path style="fill:#303C42;" d="M458.667,362.667c-3.884,0-7.132,2.177-8.996,5.276c-14.878-14.448-39.882-33.471-77.766-47.943
	h38.512c46.604,0,58.917-43.219,58.917-66.073c0-28.844-31.292-48.729-104.646-66.5c-49.221-11.932-81.938-33.018-103.401-55.418
	l0.026-0.02c-2.833-3.76-7.313-18.052-5.5-71.656c0.104-3.198,0.188-5.625,0.188-7c0-15.25-16.75-32-32-32
	c-9.652,0-37.736,3.497-58.626,18.255c-23.293-3.615-34.988-9.717-40.603-15.182C117.229,17.073,97.25,0,74.667,0
	C68.771,0,64,4.771,64,10.667v149.698c0,24.365-6.083,40.031-11.958,55.177c-4.833,12.417-9.375,24.135-9.375,38.385
	c0,42.604,20.917,66.073,58.917,66.073h22.406c-31.965,13.444-52.053,30.861-64.118,45.111c-1.822-1.449-4.027-2.444-6.538-2.444
	c-5.896,0-10.667,4.771-10.667,10.667v42.771c0,5.896,4.771,10.667,10.667,10.667c3.911,0,7.181-2.204,9.038-5.339
	c2.115,2.052,4.488,4.195,7.017,6.408c0.018,1.22,0.112,2.297,0.112,3.608c-0.021,9.479-0.042,21.292,9.021,27.771
	c3.063,2.188,6.417,2.99,9.875,2.99c5.104,0,10.417-1.74,15.333-3.354c2.73-0.902,5.699-1.936,8.06-2.279
	c0.296,0.155,0.628,0.302,0.924,0.458c0.646,1.895,1.297,4.25,1.828,6.383c2.167,8.729,4.875,19.615,14.458,23.583
	c2.083,0.865,4.167,1.24,6.25,1.24c6.542,0,12.875-3.708,18.646-7.083c2.223-1.301,5.579-3.24,7.635-4.105
	c1.102,1.811,2.477,4.706,3.385,6.647c3.792,7.969,8.479,17.885,18.375,19.99c9.313,1.969,16.854-4.542,23.604-10.302
	c1.917-1.656,4.896-4.188,6.854-5.427c2.313,2.229,5.771,6.979,7.792,9.75c5.813,7.979,10.396,14.292,18,14.292
	c9.063,0,15.479-7.479,21.125-14.073c1.764-2.053,4.401-5.128,5.466-6.518c1.632,1.605,3.862,4.392,5.346,6.247
	c5.375,6.719,11.438,14.344,20.438,14.344c9.146,0,14.521-8.344,19.708-16.406c1.229-1.917,3.021-4.719,4.5-6.656
	c1.75,1.365,3.938,3.396,5.458,4.802c6.417,5.958,13.75,12.708,22.813,10.75c9.896-2.073,14.188-12.146,17.625-20.229
	c0.745-1.734,1.691-3.964,2.311-5.479c2.049,0.957,4.663,2.464,6.605,3.667c5.625,3.458,11.813,7.281,18.229,7.281
	c2.042,0,4.104-0.396,6.188-1.302c9.521-4.188,11.479-15.24,13.042-24.115c0.328-1.833,0.73-3.871,1.15-5.633
	c0.077-0.044,0.151-0.087,0.228-0.13c2.124,0.438,5.204,1.195,7.497,1.867c4.646,1.385,9.625,2.875,14.354,2.875
	c3.792,0,7.417-0.948,10.604-3.635c8.542-7.219,6.813-18.948,5.438-28.375c-0.09-0.617-0.122-1.129-0.208-1.729
	c1.733-1.837,3.186-3.577,4.671-5.329c1.822,1.448,4.027,2.444,6.538,2.444c5.896,0,10.667-4.771,10.667-10.667v-42.667
	C469.333,367.438,464.563,362.667,458.667,362.667z M173.88,326.945c7.303,20.792,26.895,35.826,50.12,35.826h64
	c21.577,0,40.095-12.953,48.486-31.456c51.268,13.741,82.53,36.967,98.788,52.685H71.911
	C84.499,366.98,113.512,339.651,173.88,326.945z M266.667,469.333c-108.154,0-165.671-40.526-189.945-64h363.367
	C423.29,428.046,377.561,469.333,266.667,469.333z"/>
<path style="fill:#3D82C4;" d="M245.333,320c26.139,0,49.199,2.444,69.68,6.372c-5.672,9.017-15.621,15.065-27.013,15.065h-64
	c-12.646,0-23.499-7.458-28.693-18.165C210.349,321.251,226.84,320,245.333,320z"/>
<g>
	<path style="fill:#775CA7;" d="M311.661,191.763c6.432,2.889,13.21,5.574,20.302,8.066c-10.958,16.357-33.189,43.659-64.422,52.921
		c-2.771,0.875-5.667,0.313-7.958-1.427c-2.271-1.688-3.583-4.271-3.583-7.083v-3.771c0-4.656,3.854-7.594,7.438-8.771
		C285.19,224.536,301.643,206.007,311.661,191.763z"/>
	<path style="fill:#775CA7;" d="M235.079,134.38c4.536,5.647,9.703,11.194,15.311,16.624c-9.966,11.31-33.245,30.632-68.182,40.986
		c-2.75,0.844-5.667,0.313-7.958-1.427c-2.271-1.688-3.583-4.271-3.583-7.083v-3.771c0-4.656,3.854-7.594,7.438-8.771
		C197.064,164.693,220.965,148.22,235.079,134.38z"/>
	<path style="fill:#775CA7;" d="M234.667,53.333l-0.167,6.281c-0.382,11.35-0.56,22.544-0.357,33.108
		C226.704,76.639,224,62.4,224,53.438c0-4.932-3.408-8.896-7.952-10.12c3.176-0.417,5.98-0.651,7.952-0.651
		C227.583,42.667,234.667,49.74,234.667,53.333z"/>
</g>
<path style="fill:#44B3E6;" d="M101.583,298.667c-17.5,0-37.583-5.083-37.583-44.74c0-10.26,3.5-19.26,7.917-30.667
	c5.979-15.385,13.417-34.542,13.417-62.896c0-36.708,0-108,0-136.938c9.021,3.281,18.042,9.927,24.563,16.271
	C125.667,55.052,156.292,63.031,203.333,64c1.898,15.806,8.117,34.178,19.349,52.615c-9.714,10.444-32.357,27.836-51.245,34.052
	c-13.438,4.427-22.104,15.823-22.104,29.042v3.771c0,9.604,4.438,18.427,12.167,24.188c5.333,3.99,11.646,6.052,18.063,6.052
	c2.917,0,5.833-0.417,8.729-1.271c36.273-10.763,64.227-31.487,78.194-47.461c7.802,6.047,16.385,11.798,25.837,17.13
	c-7.893,10.637-20.439,24.331-35.552,29.31c-13.438,4.427-22.104,15.823-22.104,29.042v3.771c0,9.604,4.438,18.427,12.167,24.188
	c5.333,3.99,11.646,6.052,18.063,6.052c2.917,0,5.833-0.417,8.729-1.271c41.186-12.216,67.99-48.203,79.538-66.854
	c2.188,0.582,4.24,1.258,6.483,1.802C418.271,222.365,448,237.76,448,253.927c0,1.823-0.438,44.74-37.583,44.74H101.583z"/>
<path style="opacity:0.1;fill:#010101;enable-background:new    ;" d="M435.408,236.03c-3.212,13.134-11.891,30.637-35.658,30.637
	H290.083c-5.224,2.547-10.661,4.823-16.458,6.542c-2.896,0.854-5.813,1.271-8.729,1.271c-6.417,0-12.729-2.063-18.063-6.052
	c-0.701-0.522-1.225-1.19-1.87-1.76H90.917c-9.328,0-19.301-1.641-26.664-8.996c1.336,35.951,20.447,40.996,37.331,40.996h308.833
	c37.146,0,37.583-42.917,37.583-44.74C448,247.845,443.779,241.871,435.408,236.03z"/>
<linearGradient id="SVGID_1_" gradientUnits="userSpaceOnUse" x1="-47.1537" y1="638.6962" x2="-24.1845" y2="627.9852" gradientTransform="matrix(21.3333 0 0 -21.3333 996.3334 13791.667)">
	<stop  offset="0" style="stop-color:#FFFFFF;stop-opacity:0.2"/>
	<stop  offset="1" style="stop-color:#FFFFFF;stop-opacity:0"/>
</linearGradient>
<path style="fill:url(#SVGID_1_);" d="M458.667,362.667c-3.884,0-7.132,2.177-8.996,5.276
	c-14.878-14.448-39.882-33.471-77.766-47.943h38.512c46.604,0,58.917-43.219,58.917-66.073c0-28.844-31.292-48.729-104.646-66.5
	c-49.221-11.932-81.938-33.018-103.401-55.418l0.026-0.02c-2.833-3.76-7.313-18.052-5.5-71.656c0.104-3.198,0.188-5.625,0.188-7
	c0-15.25-16.75-32-32-32c-9.652,0-37.736,3.497-58.626,18.255c-23.293-3.615-34.988-9.717-40.603-15.182
	C117.229,17.073,97.25,0,74.667,0C68.771,0,64,4.771,64,10.667v149.698c0,24.365-6.083,40.031-11.958,55.177
	c-4.833,12.417-9.375,24.135-9.375,38.385c0,42.604,20.917,66.073,58.917,66.073h22.406c-31.965,13.444-52.053,30.861-64.118,45.111
	c-1.822-1.449-4.027-2.444-6.538-2.444c-5.896,0-10.667,4.771-10.667,10.667v42.771c0,5.896,4.771,10.667,10.667,10.667
	c3.911,0,7.181-2.204,9.038-5.339c2.115,2.052,4.488,4.195,7.017,6.408c0.018,1.22,0.112,2.297,0.112,3.608
	c-0.021,9.479-0.042,21.292,9.021,27.771c3.063,2.188,6.417,2.99,9.875,2.99c5.104,0,10.417-1.74,15.333-3.354
	c2.73-0.902,5.699-1.936,8.06-2.279c0.296,0.155,0.628,0.302,0.924,0.458c0.646,1.895,1.297,4.25,1.828,6.383
	c2.167,8.729,4.875,19.615,14.458,23.583c2.083,0.865,4.167,1.24,6.25,1.24c6.542,0,12.875-3.708,18.646-7.083
	c2.223-1.301,5.579-3.24,7.635-4.105c1.102,1.811,2.477,4.706,3.385,6.647c3.792,7.969,8.479,17.885,18.375,19.99
	c9.313,1.969,16.854-4.542,23.604-10.302c1.917-1.656,4.896-4.188,6.854-5.427c2.313,2.229,5.771,6.979,7.792,9.75
	c5.813,7.979,10.396,14.292,18,14.292c9.063,0,15.479-7.479,21.125-14.073c1.764-2.053,4.401-5.128,5.466-6.518
	c1.632,1.605,3.862,4.392,5.346,6.247c5.375,6.719,11.438,14.344,20.438,14.344c9.146,0,14.521-8.344,19.708-16.406
	c1.229-1.917,3.021-4.719,4.5-6.656c1.75,1.365,3.938,3.396,5.458,4.802c6.417,5.958,13.75,12.708,22.813,10.75
	c9.896-2.073,14.188-12.146,17.625-20.229c0.745-1.734,1.691-3.964,2.311-5.479c2.049,0.957,4.663,2.464,6.605,3.667
	c5.625,3.458,11.813,7.281,18.229,7.281c2.042,0,4.104-0.396,6.188-1.302c9.521-4.188,11.479-15.24,13.042-24.115
	c0.328-1.833,0.73-3.871,1.15-5.633c0.077-0.044,0.151-0.087,0.228-0.13c2.124,0.438,5.204,1.195,7.497,1.867
	c4.646,1.385,9.625,2.875,14.354,2.875c3.792,0,7.417-0.948,10.604-3.635c8.542-7.219,6.813-18.948,5.438-28.375
	c-0.09-0.617-0.122-1.129-0.208-1.729c1.733-1.837,3.186-3.577,4.671-5.329c1.822,1.448,4.027,2.444,6.538,2.444
	c5.896,0,10.667-4.771,10.667-10.667v-42.667C469.333,367.438,464.563,362.667,458.667,362.667z M173.88,326.945
	c7.303,20.792,26.895,35.826,50.12,35.826h64c21.577,0,40.095-12.953,48.486-31.456c51.268,13.741,82.53,36.967,98.788,52.685
	H71.911C84.499,366.98,113.512,339.651,173.88,326.945z M266.667,469.333c-108.154,0-165.671-40.526-189.945-64h363.367
	C423.29,428.046,377.561,469.333,266.667,469.333z"/>
<g>
</g>
<g>
</g>
<g>
</g>
<g>
</g>
<g>
</g>
<g>
</g>
<g>
</g>
<g>
</g>
<g>
</g>
<g>
</g>
<g>
</g>
<g>
</g>
<g>
</g>
<g>
</g>
<g>
</g>
</svg>
