<?xml version="1.0" encoding="iso-8859-1"?>
<!-- Generator: Adobe Illustrator 19.0.0, SVG Export Plug-In . SVG Version: 6.00 Build 0)  -->
<svg version="1.1" id="Capa_1" xmlns="http://www.w3.org/2000/svg" xmlns:xlink="http://www.w3.org/1999/xlink" x="0px" y="0px"
	 viewBox="0 0 512 512" style="enable-background:new 0 0 512 512;" xml:space="preserve">
<path style="fill:#303C42;" d="M467.174,270.31C454.613,165.155,381.638,64,256,64C130.375,64,57.402,165.133,44.829,270.277
	C15.176,284.354,0,301.081,0,320.094v42.667C0,418.125,131.896,448,256,448s256-29.875,256-85.24v-42.667
	C512,301.077,496.792,284.37,467.174,270.31z"/>
<path style="fill:#2D98D4;" d="M256,85.333c42.841,0,78.73,13.427,107.618,35.059c-55.952,8.401-122.518,9.988-182.014,4.16
	c-5.688-0.469-11.083,3.708-11.667,9.573c-0.563,5.865,3.729,11.083,9.583,11.656c24.646,2.417,50.375,3.646,76.479,3.646
	c45.568,0,89.759-3.861,128.54-11c41.281,42.004,63.047,103.255,63.46,162.646c-9.604,10.844-87.271,40.26-192,40.26
	s-182.396-29.417-192-40.26c0.115-16.471,2.059-33.052,5.414-49.363c47.723,16.352,114.609,25.717,186.586,25.717
	c50.875,0,99.813-4.646,141.563-13.438c5.75-1.219,9.438-6.875,8.229-12.635c-1.229-5.76-6.854-9.479-12.646-8.24
	c-40.292,8.49-87.729,12.979-137.146,12.979c-70.663,0-135.839-9.18-181.388-25.171c3.789-12.803,8.591-25.245,14.4-37.173
	c46.044,12.667,104.792,19.677,166.988,19.677c5.896,0,10.667-4.771,10.667-10.667s-4.771-10.667-10.667-10.667
	c-58.159,0-112.987-6.243-156.469-17.574C131.361,122.725,184.049,85.333,256,85.333z"/>
<path style="opacity:0.1;fill:#010101;enable-background:new    ;" d="M397.15,152.811c14.471,26.646,23.788,56.467,27.57,86.753
	c2.436,19.509-9.474,37.828-27.98,44.465c-33.487,12.009-91.664,25.305-162.073,25.305c-76.038,0-137.654-15.492-169.467-28.138
	c-0.609,6.628-1.154,13.262-1.199,19.878c9.604,10.844,87.271,40.26,192,40.26s182.396-29.417,192-40.26
	C447.632,248.111,430.174,193.764,397.15,152.811z"/>
<path style="fill:#989898;" d="M42.966,295.315c-0.069,2.484-0.299,4.977-0.299,7.456c0,31.698,119.292,59.896,213.333,59.896
	s213.333-28.198,213.333-59.896c0-2.493-0.232-5-0.301-7.499c13.926,8.259,21.634,16.962,21.634,24.822
	C490.667,346.781,401.396,384,256,384S21.333,346.781,21.333,320.094C21.333,312.273,29.095,303.563,42.966,295.315z"/>
<path style="fill:#818181;" d="M256,426.667c-145.396,0-234.667-37.219-234.667-63.906v-7.039
	C63.526,388.137,161.936,405.333,256,405.333s192.474-17.197,234.667-49.612v7.039C490.667,389.448,401.396,426.667,256,426.667z"/>
<linearGradient id="SVGID_1_" gradientUnits="userSpaceOnUse" x1="-43.9181" y1="637.8183" x2="-23.1607" y2="628.1386" gradientTransform="matrix(21.3333 0 0 -21.3333 996.3334 13791.667)">
	<stop  offset="0" style="stop-color:#FFFFFF;stop-opacity:0.2"/>
	<stop  offset="1" style="stop-color:#FFFFFF;stop-opacity:0"/>
</linearGradient>
<path style="fill:url(#SVGID_1_);" d="M467.174,270.31C454.613,165.155,381.638,64,256,64C130.375,64,57.402,165.133,44.829,270.277
	C15.176,284.354,0,301.081,0,320.094v42.667C0,418.125,131.896,448,256,448s256-29.875,256-85.24v-42.667
	C512,301.077,496.792,284.37,467.174,270.31z"/>
<g>
</g>
<g>
</g>
<g>
</g>
<g>
</g>
<g>
</g>
<g>
</g>
<g>
</g>
<g>
</g>
<g>
</g>
<g>
</g>
<g>
</g>
<g>
</g>
<g>
</g>
<g>
</g>
<g>
</g>
</svg>
