<?xml version="1.0" encoding="iso-8859-1"?>
<!-- Generator: Adobe Illustrator 19.0.0, SVG Export Plug-In . SVG Version: 6.00 Build 0)  -->
<svg version="1.1" id="Capa_1" xmlns="http://www.w3.org/2000/svg" xmlns:xlink="http://www.w3.org/1999/xlink" x="0px" y="0px"
	 viewBox="0 0 480 480" style="enable-background:new 0 0 480 480;" xml:space="preserve">
<path style="fill:#FFFFFF;" d="M376,40h64c17.672,0,32,14.328,32,32v368c0,17.672-14.328,32-32,32H40c-17.672,0-32-14.328-32-32V72
	c0-17.672,14.328-32,32-32h64"/>
<path style="fill:#EE6352;" d="M8,168V72c0-17.672,14.328-32,32-32h400c17.672,0,32,14.328,32,32v96H8z"/>
<g>
	<path style="fill:#FFFFFF;" d="M104,80h-4c-15.464,0-28,12.536-28,28l0,0c0,15.464,12.536,28,28,28h40c15.464,0,28-12.536,28-28
		l0,0c0-15.464-12.536-28-28-28h-4"/>
	<path style="fill:#FFFFFF;" d="M344,80h-4c-15.464,0-28,12.536-28,28l0,0c0,15.464,12.536,28,28,28h40c15.464,0,28-12.536,28-28
		l0,0c0-15.464-12.536-28-28-28h-4"/>
</g>
<g>
	<path style="fill:#FAC05E;" d="M120,104L120,104c-8.84,0-16-7.16-16-16V24c0-8.84,7.16-16,16-16l0,0c8.84,0,16,7.16,16,16v64
		C136,96.84,128.84,104,120,104z"/>
	<path style="fill:#FAC05E;" d="M360,104L360,104c-8.84,0-16-7.16-16-16V24c0-8.84,7.16-16,16-16l0,0c8.84,0,16,7.16,16,16v64
		C376,96.84,368.84,104,360,104z"/>
	<rect x="144" y="320" style="fill:#FAC05E;" width="192" height="32"/>
</g>
<g>
	<rect x="336" y="248" style="fill:#50D4E3;" width="48" height="176"/>
	<rect x="384" y="272" style="fill:#50D4E3;" width="48" height="128"/>
	<rect x="96" y="248" style="fill:#50D4E3;" width="48" height="176"/>
	<rect x="48" y="272" style="fill:#50D4E3;" width="48" height="128"/>
</g>
<g>
	<path style="fill:#0F272A;" d="M440,32h-56v-8c0-13.232-10.768-24-24-24s-24,10.768-24,24v8H144v-8c0-13.232-10.768-24-24-24
		S96,10.768,96,24v8H40C17.944,32,0,49.944,0,72v368c0,22.056,17.944,40,40,40h400c22.056,0,40-17.944,40-40V72
		C480,49.944,462.056,32,440,32z M336.04,88.4c0.224,13.048,10.864,23.6,23.96,23.6s23.736-10.552,23.96-23.6
		C393.096,90.24,400,98.328,400,108c0,11.032-8.968,20-20,20h-40c-11.032,0-20-8.968-20-20C320,98.328,326.904,90.24,336.04,88.4z
		 M352,24c0-4.416,3.584-8,8-8s8,3.584,8,8v64c0,4.416-3.584,8-8,8s-8-3.584-8-8V24z M96.04,88.4
		C96.264,101.448,106.904,112,120,112s23.736-10.552,23.96-23.6C153.096,90.24,160,98.328,160,108c0,11.032-8.968,20-20,20h-40
		c-11.032,0-20-8.968-20-20C80,98.328,86.904,90.24,96.04,88.4z M112,24c0-4.416,3.584-8,8-8s8,3.584,8,8v64c0,4.416-3.584,8-8,8
		s-8-3.584-8-8V24z M40,48h56v24.408C78.048,74.424,64,89.52,64,108c0,19.848,16.152,36,36,36h40c19.848,0,36-16.152,36-36
		c0-18.48-14.048-33.576-32-35.592V48h192v24.408C318.048,74.424,304,89.52,304,108c0,19.848,16.152,36,36,36h40
		c19.848,0,36-16.152,36-36c0-18.48-14.048-33.576-32-35.592V48h56c13.232,0,24,10.768,24,24v88H16V72C16,58.768,26.768,48,40,48z
		 M440,464H40c-13.232,0-24-10.768-24-24V176h448v264C464,453.232,453.232,464,440,464z"/>
	<rect x="432" y="192" style="fill:#0F272A;" width="16" height="16"/>
	<rect x="400" y="192" style="fill:#0F272A;" width="16" height="16"/>
	<rect x="368" y="192" style="fill:#0F272A;" width="16" height="16"/>
	<path style="fill:#0F272A;" d="M432,264h-40v-16c0-4.424-3.576-8-8-8h-48c-4.424,0-8,3.576-8,8v64H152v-64c0-4.424-3.576-8-8-8H96
		c-4.424,0-8,3.576-8,8v16H48c-4.424,0-8,3.576-8,8v128c0,4.424,3.576,8,8,8h40v16c0,4.424,3.576,8,8,8h48c4.424,0,8-3.576,8-8v-64
		h176v64c0,4.424,3.576,8,8,8h48c4.424,0,8-3.576,8-8v-16h40c4.424,0,8-3.576,8-8V272C440,267.576,436.424,264,432,264z M56,392V280
		h32v112H56z M136,416h-32v-16V272v-16h32v64v32V416z M152,344v-16h176v16H152z M376,416h-32v-64v-32v-64h32v16v128V416z M424,392
		h-32V280h32V392z"/>
</g>
<g>
</g>
<g>
</g>
<g>
</g>
<g>
</g>
<g>
</g>
<g>
</g>
<g>
</g>
<g>
</g>
<g>
</g>
<g>
</g>
<g>
</g>
<g>
</g>
<g>
</g>
<g>
</g>
<g>
</g>
</svg>
