<?xml version="1.0" encoding="iso-8859-1"?>
<!-- Generator: Adobe Illustrator 19.0.0, SVG Export Plug-In . SVG Version: 6.00 Build 0)  -->
<svg version="1.1" id="Capa_1" xmlns="http://www.w3.org/2000/svg" xmlns:xlink="http://www.w3.org/1999/xlink" x="0px" y="0px"
	 viewBox="0 0 512 512" style="enable-background:new 0 0 512 512;" xml:space="preserve">
<path style="fill:#303C42;" d="M384,320c-8.137,0-15.171,1.811-21.333,3.913V96c0-2.833-1.125-5.542-3.125-7.542L274.208,3.125
	c-2-2-4.708-3.125-7.542-3.125h-160C83.146,0,64,19.135,64,42.667v320c0,23.531,19.146,42.667,42.667,42.667h128.615
	C240.008,451.77,274.103,512,320,512c8.604,0,12.979-1.49,17.063-3.156c1.875-0.76,2.563-1.042,3.896-1.125
	c2.083,0.083,2.771,0.365,4.646,1.125c4.083,1.667,8.458,3.156,17.063,3.156c49.5,0,85.333-70.083,85.333-117.333
	C448,348.615,423.479,320,384,320z"/>
<path style="fill:#7CB342;" d="M319.811,323.853c-10.796-7.122-17.799-18.9-20.207-34.061c13.641,4.302,25.848,16.556,29.694,37.473
	c-0.48-0.177-0.859-0.245-1.361-0.441C325.454,325.848,322.698,324.831,319.811,323.853z"/>
<path style="fill:#E6E6E5;" d="M277.333,36.417l48.917,48.917h-27.583c-11.771,0-21.333-9.573-21.333-21.333V36.417z"/>
<path style="fill:#FFFFFF;" d="M235.401,384H106.667c-11.771,0-21.333-9.573-21.333-21.333v-320c0-11.76,9.563-21.333,21.333-21.333
	H256V64c0,23.531,19.146,42.667,42.667,42.667h42.667v191.918c-12.065-20.957-32.701-31.918-53.333-31.918
	c-5.896,0-10.667,4.771-10.667,10.667c0,16.734,4.337,31.419,11.624,43.576C258.29,324.947,238.663,348.072,235.401,384z"/>
<path style="fill:#EF4438;" d="M362.667,490.667c-5.146,0-6.771-0.667-9.021-1.583c-2.563-1.042-6.063-2.469-12.688-2.677
	c-5.875,0.208-9.375,1.635-11.938,2.677c-2.25,0.917-3.875,1.583-9.021,1.583c-34.708,0-64-58.969-64-96
	c0-34.396,15.146-53.333,42.667-53.333c7.833,0,14.458,2.604,21.5,5.354c6.667,2.615,13.583,5.313,21.167,5.313
	s14.5-2.698,21.167-5.313c7.042-2.75,13.667-5.354,21.5-5.354c27.521,0,42.667,18.938,42.667,53.333
	C426.667,431.698,397.375,490.667,362.667,490.667z"/>
<path style="opacity:0.1;fill:#010101;enable-background:new    ;" d="M408.223,348.332c2.406,7.22,3.777,15.624,3.777,25.445
	c0,37.031-29.291,96-64,96c-5.146,0-6.771-0.667-9.021-1.583c-2.563-1.042-6.063-2.469-12.688-2.677
	c-5.875,0.208-9.375,1.635-11.938,2.677c-2.25,0.917-3.875,1.583-9.021,1.583c-11.919,0-23.16-7.046-32.834-17.677
	c11.818,21.499,28.853,38.566,47.501,38.566c5.146,0,6.771-0.667,9.021-1.583c2.563-1.042,6.063-2.469,11.938-2.677
	c6.625,0.208,10.125,1.635,12.688,2.677c2.25,0.917,3.875,1.583,9.021,1.583c34.708,0,64-58.969,64-96
	C426.667,372.363,420.204,356.688,408.223,348.332z"/>
<linearGradient id="SVGID_1_" gradientUnits="userSpaceOnUse" x1="-33.4063" y1="642.7736" x2="-29.9965" y2="639.3648" gradientTransform="matrix(21.3333 0 0 -21.3333 996.3334 13791.667)">
	<stop  offset="0" style="stop-color:#010101;stop-opacity:0.1"/>
	<stop  offset="1" style="stop-color:#010101;stop-opacity:0"/>
</linearGradient>
<path style="fill:url(#SVGID_1_);" d="M268.603,94.232l72.73,72.73v-60.296h-42.667C286.948,106.667,276.323,101.909,268.603,94.232
	z"/>
<linearGradient id="SVGID_2_" gradientUnits="userSpaceOnUse" x1="-45.823" y1="640.3815" x2="-24.046" y2="630.2265" gradientTransform="matrix(21.3333 0 0 -21.3333 996.3334 13791.667)">
	<stop  offset="0" style="stop-color:#FFFFFF;stop-opacity:0.2"/>
	<stop  offset="1" style="stop-color:#FFFFFF;stop-opacity:0"/>
</linearGradient>
<path style="fill:url(#SVGID_2_);" d="M384,320c-8.137,0-15.171,1.811-21.333,3.913V96c0-2.833-1.125-5.542-3.125-7.542
	L274.208,3.125c-2-2-4.708-3.125-7.542-3.125h-160C83.146,0,64,19.135,64,42.667v320c0,23.531,19.146,42.667,42.667,42.667h128.615
	C240.008,451.77,274.103,512,320,512c8.604,0,12.979-1.49,17.063-3.156c1.875-0.76,2.563-1.042,3.896-1.125
	c2.083,0.083,2.771,0.365,4.646,1.125c4.083,1.667,8.458,3.156,17.063,3.156c49.5,0,85.333-70.083,85.333-117.333
	C448,348.615,423.479,320,384,320z"/>
<g>
</g>
<g>
</g>
<g>
</g>
<g>
</g>
<g>
</g>
<g>
</g>
<g>
</g>
<g>
</g>
<g>
</g>
<g>
</g>
<g>
</g>
<g>
</g>
<g>
</g>
<g>
</g>
<g>
</g>
</svg>
