<?xml version="1.0" encoding="iso-8859-1"?>
<!-- Generator: Adobe Illustrator 19.0.0, SVG Export Plug-In . SVG Version: 6.00 Build 0)  -->
<svg version="1.1" id="Capa_1" xmlns="http://www.w3.org/2000/svg" xmlns:xlink="http://www.w3.org/1999/xlink" x="0px" y="0px"
	 viewBox="0 0 512 512" style="enable-background:new 0 0 512 512;" xml:space="preserve">
<path style="fill:#303C42;" d="M405.333,138.667c0-13.888-8.944-25.617-21.333-30.035V10.667C384,4.771,379.229,0,373.333,0h-42.667
	C324.771,0,320,4.771,320,10.667v3.633C301.487,5.142,279.814,0,256,0c-70.895,0-123.083,45.133-127.561,108.495
	c-12.615,4.293-21.772,16.122-21.772,30.172c0,14.095,9.219,25.954,21.898,30.211l19.831,297.508
	c0.792,11.813,5.833,22.927,14.208,31.302c9.229,9.229,21.5,14.313,34.552,14.313h117.688c13.052,0,25.323-5.083,34.552-14.313
	c8.375-8.375,13.417-19.49,14.208-31.302l19.831-297.508C396.115,164.621,405.333,152.762,405.333,138.667z"/>
<path style="fill:#FAA629;" d="M341.333,21.333h21.333v28.51c-5.997-8.257-13.201-15.608-21.333-22.036V21.333z"/>
<g>
	<path style="fill:#68B345;" d="M256,21.333c57.702,0,100.137,35.393,105.579,85.333H150.421
		C155.863,56.727,198.298,21.333,256,21.333z"/>
	<path style="fill:#68B345;" d="M334.313,482.604c-5.198,5.198-12.115,8.063-19.469,8.063H197.156
		c-7.354,0-14.271-2.865-19.469-8.063c-4.719-4.719-7.563-10.979-8-17.635L150.07,170.667H361.93l-2.844,42.667h-49.753
		c-5.896,0-10.667,4.771-10.667,10.667c0,5.896,4.771,10.667,10.667,10.667h48.329l-2.844,42.667h-24.152
		c-5.896,0-10.667,4.771-10.667,10.667c0,5.896,4.771,10.667,10.667,10.667h22.73l-2.844,42.667h-41.22
		c-5.896,0-10.667,4.771-10.667,10.667c0,5.896,4.771,10.667,10.667,10.667h39.798l-2.844,42.667h-15.621
		c-5.896,0-10.667,4.771-10.667,10.667c0,5.896,4.771,10.667,10.667,10.667h14.199l-2.553,38.302
		C341.875,471.625,339.031,477.885,334.313,482.604z"/>
</g>
<path style="opacity:0.2;fill:#FFFFFF;enable-background:new    ;" d="M150.421,106.667h31.16
	c3.836-49.94,33.747-85.333,74.419-85.333C198.298,21.333,155.863,56.727,150.421,106.667z"/>
<path style="opacity:0.1;fill:#010101;enable-background:new    ;" d="M256,21.333c40.672,0,70.583,35.393,74.419,85.333h31.16
	C356.137,56.727,313.702,21.333,256,21.333z"/>
<path style="opacity:0.2;fill:#FFFFFF;enable-background:new    ;" d="M195.161,464.969l-13.828-294.302H150.07l19.617,294.302
	c0.438,6.656,3.281,12.917,8,17.635c5.198,5.198,12.115,8.063,19.469,8.063h17.367c-5.185,0-10.06-2.865-13.724-8.063
	C197.474,477.885,195.469,471.625,195.161,464.969z"/>
<g>
	<path style="opacity:0.1;fill:#010101;enable-background:new    ;" d="M342.313,464.969l2.553-38.302h-14.199
		c-5.896,0-10.667-4.771-10.667-10.667c0-5.896,4.771-10.667,10.667-10.667h15.621l2.844-42.667h-26.749l-4.807,102.302
		c-0.307,6.656-2.313,12.917-5.638,17.635c-3.664,5.198-8.539,8.063-13.724,8.063h16.63c7.354,0,14.271-2.865,19.469-8.063
		C339.031,477.885,341.875,471.625,342.313,464.969z"/>
	<path style="opacity:0.1;fill:#010101;enable-background:new    ;" d="M353.397,298.667h-22.73c-1.931,0-3.643-0.65-5.204-1.546
		l-2.078,44.212h27.169L353.397,298.667z"/>
	<path style="opacity:0.1;fill:#010101;enable-background:new    ;" d="M354.819,277.333l2.844-42.667h-29.266l-2.049,43.616
		c1.326-0.59,2.773-0.949,4.319-0.949H354.819z"/>
	<polygon style="opacity:0.1;fill:#010101;enable-background:new    ;" points="359.086,213.333 361.93,170.667 331.404,170.667 
		329.398,213.333 	"/>
</g>
<path style="fill:#FAA629;" d="M373.333,149.333H138.667c-5.885,0-10.667-4.781-10.667-10.667S132.781,128,138.667,128h234.667
	c5.885,0,10.667,4.781,10.667,10.667S379.219,149.333,373.333,149.333z"/>
<path style="opacity:0.2;fill:#FFFFFF;enable-background:new    ;" d="M160,138.667c0-5.885,3.586-10.667,8-10.667h-29.333
	c-5.885,0-10.667,4.781-10.667,10.667s4.781,10.667,10.667,10.667H168C163.586,149.333,160,144.552,160,138.667z"/>
<path style="opacity:0.1;fill:#010101;enable-background:new    ;" d="M373.333,128H344c4.414,0,8,4.781,8,10.667
	s-3.586,10.667-8,10.667h29.333c5.885,0,10.667-4.781,10.667-10.667S379.219,128,373.333,128z"/>
<linearGradient id="SVGID_1_" gradientUnits="userSpaceOnUse" x1="-42.4764" y1="638.6553" x2="-26.4334" y2="631.1743" gradientTransform="matrix(21.3333 0 0 -21.3333 996.3334 13791.667)">
	<stop  offset="0" style="stop-color:#FFFFFF;stop-opacity:0.2"/>
	<stop  offset="1" style="stop-color:#FFFFFF;stop-opacity:0"/>
</linearGradient>
<path style="fill:url(#SVGID_1_);" d="M405.333,138.667c0-13.888-8.944-25.617-21.333-30.035V10.667C384,4.771,379.229,0,373.333,0
	h-42.667C324.771,0,320,4.771,320,10.667v3.633C301.487,5.142,279.814,0,256,0c-70.895,0-123.083,45.133-127.561,108.495
	c-12.615,4.293-21.772,16.122-21.772,30.172c0,14.095,9.219,25.954,21.898,30.211l19.831,297.508
	c0.792,11.813,5.833,22.927,14.208,31.302c9.229,9.229,21.5,14.313,34.552,14.313h117.688c13.052,0,25.323-5.083,34.552-14.313
	c8.375-8.375,13.417-19.49,14.208-31.302l19.831-297.508C396.115,164.621,405.333,152.762,405.333,138.667z"/>
<g>
</g>
<g>
</g>
<g>
</g>
<g>
</g>
<g>
</g>
<g>
</g>
<g>
</g>
<g>
</g>
<g>
</g>
<g>
</g>
<g>
</g>
<g>
</g>
<g>
</g>
<g>
</g>
<g>
</g>
</svg>
