<?xml version="1.0" encoding="iso-8859-1"?>
<!-- Generator: Adobe Illustrator 19.0.0, SVG Export Plug-In . SVG Version: 6.00 Build 0)  -->
<svg version="1.1" id="Capa_1" xmlns="http://www.w3.org/2000/svg" xmlns:xlink="http://www.w3.org/1999/xlink" x="0px" y="0px"
	 viewBox="0 0 512 512" style="enable-background:new 0 0 512 512;" xml:space="preserve">
<path style="fill:#303C42;" d="M501.327,230.162L281.836,10.673c-14.251-14.23-37.42-14.23-51.672,0L10.673,230.162
	c-14.231,14.251-14.231,37.42,0,51.671l219.491,219.489C237.29,508.437,246.645,512,256,512c9.355,0,18.71-3.563,25.836-10.678
	l219.491-219.489C515.558,267.582,515.558,244.413,501.327,230.162z"/>
<path style="fill:#2D98D4;" d="M486.242,266.748L266.751,486.237c-5.917,5.917-15.585,5.917-21.502,0L25.758,266.748
	c-5.917-5.928-5.917-15.574,0-21.502L245.249,25.758c5.917-5.917,15.585-5.917,21.502,0l219.491,219.489
	C492.159,251.174,492.159,260.821,486.242,266.748z"/>
<path style="fill:#303C42;" d="M416.016,245.33h-10.668v-10.668c0-11.761-9.574-21.335-21.335-21.335h-21.335
	c0-11.761-9.574-21.335-21.336-21.335h-21.335c-11.762,0-21.336,9.574-21.336,21.335v32.003h-85.342v-32.003
	c0-11.761-9.574-21.335-21.336-21.335h-21.336c-11.762,0-21.336,9.574-21.336,21.335h-21.335c-11.762,0-21.336,9.574-21.336,21.335
	v10.668H95.984c-5.896,0-10.668,4.771-10.668,10.668c0,5.896,4.771,10.668,10.668,10.668h10.668v10.668
	c0,11.761,9.574,21.335,21.336,21.335h21.335c0,11.762,9.574,21.335,21.336,21.335h21.336c11.762,0,21.336-9.574,21.336-21.335
	v-32.003h85.342v32.003c0,11.762,9.574,21.335,21.336,21.335h21.335c11.762,0,21.336-9.574,21.336-21.335h21.335
	c11.762,0,21.335-9.574,21.335-21.335v-10.668h10.668c5.896,0,10.668-4.771,10.668-10.668
	C426.684,250.101,421.913,245.33,416.016,245.33z"/>
<g>
	<rect x="127.979" y="234.667" style="fill:#BDDDF4;" width="21.333" height="42.667"/>
	<polygon style="fill:#BDDDF4;" points="191.993,298.668 170.658,298.668 170.658,213.327 191.993,213.327 191.993,298.668 
		192.014,298.668 	"/>
	<polygon style="fill:#BDDDF4;" points="341.342,298.668 320.007,298.668 320.007,213.327 319.986,213.327 320.007,213.327 
		341.342,213.327 	"/>
	<rect x="362.667" y="234.667" style="fill:#BDDDF4;" width="21.333" height="42.667"/>
</g>
<linearGradient id="SVGID_1_" gradientUnits="userSpaceOnUse" x1="-44.7057" y1="639.1494" x2="-24.7006" y2="629.8195" gradientTransform="matrix(21.3333 0 0 -21.3333 996.3334 13791.667)">
	<stop  offset="0" style="stop-color:#FFFFFF;stop-opacity:0.2"/>
	<stop  offset="1" style="stop-color:#FFFFFF;stop-opacity:0"/>
</linearGradient>
<path style="fill:url(#SVGID_1_);" d="M501.327,230.162L281.836,10.673c-14.251-14.23-37.42-14.23-51.672,0L10.673,230.162
	c-14.231,14.251-14.231,37.42,0,51.671l219.491,219.489C237.29,508.437,246.645,512,256,512c9.355,0,18.71-3.563,25.836-10.678
	l219.491-219.489C515.558,267.582,515.558,244.413,501.327,230.162z"/>
<linearGradient id="SVGID_2_" gradientUnits="userSpaceOnUse" x1="-38.3953" y1="638.1685" x2="-29.0582" y2="628.8324" gradientTransform="matrix(21.3333 0 0 -21.3333 996.3334 13791.667)">
	<stop  offset="0" style="stop-color:#010101;stop-opacity:0.1"/>
	<stop  offset="1" style="stop-color:#010101;stop-opacity:0"/>
</linearGradient>
<path style="fill:url(#SVGID_2_);" d="M106.651,266.665H95.984c-2.255,0-4.231-0.856-5.952-2.048l17.611,17.611
	c-0.393-1.616-0.991-3.16-0.991-4.895V266.665z M213.329,245.33h40.732l-46.556-46.556l-0.059,0.031
	c3.589,3.819,5.882,8.882,5.882,14.522V245.33z M400.873,221.705l-0.206,0.214c2.757,3.595,4.681,7.874,4.681,12.743v10.668h10.668
	c5.896,0,10.668,4.771,10.668,10.668c0,5.896-4.771,10.668-10.668,10.668h-10.668v10.668c0,11.761-9.574,21.335-21.335,21.335
	h-21.335c0,11.762-9.574,21.335-21.336,21.335h-21.335c-11.762,0-21.336-9.574-21.336-21.335v-32.003h-85.342v32.003
	c0,11.762-9.574,21.335-21.336,21.335h-21.336c-11.762,0-21.336-9.574-21.336-21.335h-21.335c-5.795,0-11.03-2.358-14.879-6.123
	v0.042l173.648,173.646L466.08,286.91L400.873,221.705z"/>
<g>
</g>
<g>
</g>
<g>
</g>
<g>
</g>
<g>
</g>
<g>
</g>
<g>
</g>
<g>
</g>
<g>
</g>
<g>
</g>
<g>
</g>
<g>
</g>
<g>
</g>
<g>
</g>
<g>
</g>
</svg>
