<?xml version="1.0" encoding="iso-8859-1"?>
<!-- Generator: Adobe Illustrator 19.0.0, SVG Export Plug-In . SVG Version: 6.00 Build 0)  -->
<svg version="1.1" id="Capa_1" xmlns="http://www.w3.org/2000/svg" xmlns:xlink="http://www.w3.org/1999/xlink" x="0px" y="0px"
	 viewBox="0 0 512 512" style="enable-background:new 0 0 512 512;" xml:space="preserve">
<path style="fill:#303C42;" d="M384,0H128c-23.521,0-42.667,19.135-42.667,42.667v426.667C85.333,492.865,104.479,512,128,512h256
	c23.521,0,42.667-19.135,42.667-42.667V42.667C426.667,19.135,407.521,0,384,0z"/>
<path style="fill:#E2F4FD;" d="M128,21.333h256c11.771,0,21.333,9.573,21.333,21.333v362.667H106.667V42.667
	C106.667,30.906,116.229,21.333,128,21.333z"/>
<linearGradient id="SVGID_1_" gradientUnits="userSpaceOnUse" x1="-43.6714" y1="640.4843" x2="-25.5757" y2="632.0473" gradientTransform="matrix(21.3333 0 0 -21.3333 996.3334 13791.667)">
	<stop  offset="0" style="stop-color:#FFFFFF;stop-opacity:0.2"/>
	<stop  offset="1" style="stop-color:#FFFFFF;stop-opacity:0"/>
</linearGradient>
<path style="fill:url(#SVGID_1_);" d="M128,21.333h256c11.771,0,21.333,9.573,21.333,21.333v362.667H106.667V42.667
	C106.667,30.906,116.229,21.333,128,21.333z"/>
<path style="fill:#F3F3F3;" d="M384,490.667H128c-11.771,0-21.333-9.573-21.333-21.333v-42.667h298.667v42.667
	C405.333,481.094,395.771,490.667,384,490.667z"/>
<g>
	<path style="fill:#303C42;" d="M245.333,64h21.333c5.896,0,10.667-4.771,10.667-10.667s-4.771-10.667-10.667-10.667h-21.333
		c-5.896,0-10.667,4.771-10.667,10.667S239.438,64,245.333,64z"/>
	<path style="fill:#303C42;" d="M288,448h-64c-5.896,0-10.667,4.771-10.667,10.667c0,5.896,4.771,10.667,10.667,10.667h64
		c5.896,0,10.667-4.771,10.667-10.667C298.667,452.771,293.896,448,288,448z"/>
	<circle style="fill:#303C42;" cx="373.333" cy="53.333" r="10.667"/>
</g>
<path style="fill:#EF4438;" d="M160,256h14.729l18.375,36.781c1.979,3.99,6.083,6.354,10.708,5.844
	c4.438-0.49,8.104-3.688,9.188-8.021l20.875-83.438l22.354,104.406c1.042,4.844,5.292,8.344,10.25,8.427c0.063,0,0.125,0,0.188,0
	c4.896,0,9.167-3.323,10.354-8.083l19.563-78.24l2.229,13.406c0.854,5.146,5.313,8.917,10.521,8.917H352
	c5.896,0,10.667-4.771,10.667-10.667c0-5.896-4.771-10.667-10.667-10.667h-33.625l-9.188-55.083
	c-0.833-4.99-5.042-8.708-10.104-8.906c-4.167-0.49-9.563,3.156-10.771,8.073l-20.854,83.406L245.104,157.76
	c-1.042-4.844-5.292-8.344-10.25-8.427c-5.479-0.531-9.354,3.26-10.542,8.083l-25.021,100.021l-8.417-16.865
	c-1.813-3.625-5.5-5.906-9.542-5.906H160c-5.896,0-10.667,4.771-10.667,10.667C149.333,251.229,154.104,256,160,256z"/>
<linearGradient id="SVGID_2_" gradientUnits="userSpaceOnUse" x1="-45.2742" y1="639.4139" x2="-24.132" y2="629.5548" gradientTransform="matrix(21.3333 0 0 -21.3333 996.3334 13791.667)">
	<stop  offset="0" style="stop-color:#FFFFFF;stop-opacity:0.2"/>
	<stop  offset="1" style="stop-color:#FFFFFF;stop-opacity:0"/>
</linearGradient>
<path style="fill:url(#SVGID_2_);" d="M384,0H128c-23.521,0-42.667,19.135-42.667,42.667v426.667
	C85.333,492.865,104.479,512,128,512h256c23.521,0,42.667-19.135,42.667-42.667V42.667C426.667,19.135,407.521,0,384,0z"/>
<g>
</g>
<g>
</g>
<g>
</g>
<g>
</g>
<g>
</g>
<g>
</g>
<g>
</g>
<g>
</g>
<g>
</g>
<g>
</g>
<g>
</g>
<g>
</g>
<g>
</g>
<g>
</g>
<g>
</g>
</svg>
