<?xml version="1.0" encoding="iso-8859-1"?>
<!-- Generator: Adobe Illustrator 19.0.0, SVG Export Plug-In . SVG Version: 6.00 Build 0)  -->
<svg version="1.1" id="Capa_1" xmlns="http://www.w3.org/2000/svg" xmlns:xlink="http://www.w3.org/1999/xlink" x="0px" y="0px"
	 viewBox="0 0 480 480" style="enable-background:new 0 0 480 480;" xml:space="preserve">
<rect x="156" y="344" style="fill:#50D4E3;" width="224" height="128"/>
<rect x="156" y="376" style="fill:#FAC05E;" width="128" height="64"/>
<path style="fill:#EE6352;" d="M156,64h-48c-17.672,0-32,14.328-32,32v136l96,96v16h192v-16l40-40V40c0-17.672-14.328-32-32-32H188
	c-17.672,0-32,14.328-32,32v104c0,17.672,14.328,32,32,32h136l24-24"/>
<g>
	<path style="fill:#0F272A;" d="M68,96v136c0,2.12,0.84,4.16,2.344,5.656L164,331.312V336h-8c-4.424,0-8,3.584-8,8v32v64v32
		c0,4.416,3.576,8,8,8h224c4.424,0,8-3.584,8-8V344c0-4.416-3.576-8-8-8h-8v-4.688l37.656-37.656C411.16,292.16,412,290.12,412,288
		V40c0-22.056-17.944-40-40-40H188c-22.056,0-40,17.944-40,40v16h-40C85.944,56,68,73.944,68,96z M164,384h112v48H164V384z M372,464
		H164v-16h120c4.424,0,8-3.584,8-8v-64c0-4.416-3.576-8-8-8H164v-16h8h192h8V464z M84,96c0-13.232,10.768-24,24-24h40v72
		c0,22.056,17.944,40,40,40h136c2.128,0,4.16-0.84,5.656-2.344l24-24l-11.312-11.312L320.688,168H188c-13.232,0-24-10.768-24-24V40
		c0-13.232,10.768-24,24-24h184c13.232,0,24,10.768,24,24v244.688l-37.656,37.656C356.84,323.84,356,325.88,356,328v8H180v-8
		c0-2.12-0.84-4.16-2.344-5.656L84,228.688V96z"/>
	<rect x="340" y="368" style="fill:#0F272A;" width="16" height="16"/>
	<rect x="340" y="400" style="fill:#0F272A;" width="16" height="16"/>
	<rect x="340" y="432" style="fill:#0F272A;" width="16" height="16"/>
</g>
<g>
</g>
<g>
</g>
<g>
</g>
<g>
</g>
<g>
</g>
<g>
</g>
<g>
</g>
<g>
</g>
<g>
</g>
<g>
</g>
<g>
</g>
<g>
</g>
<g>
</g>
<g>
</g>
<g>
</g>
</svg>
