<?xml version="1.0" encoding="iso-8859-1"?>
<!-- Generator: Adobe Illustrator 19.0.0, SVG Export Plug-In . SVG Version: 6.00 Build 0)  -->
<svg version="1.1" id="Capa_1" xmlns="http://www.w3.org/2000/svg" xmlns:xlink="http://www.w3.org/1999/xlink" x="0px" y="0px"
	 viewBox="0 0 512 512" style="enable-background:new 0 0 512 512;" xml:space="preserve">
<path style="fill:#303C42;" d="M426.667,256c-14.802,0-26.063,3.667-35.115,6.604c-0.686,0.223-1.271,0.301-1.938,0.501
	c4.061-5.242,9.682-9.904,15.396-14.408c2.625-2.083,5.135-4.073,7.354-6.01c4.427-3.875,4.875-10.615,0.99-15.052
	c-3.865-4.427-10.615-4.865-15.052-0.99c-1.958,1.708-4.188,3.469-6.51,5.302c-4.366,3.445-9.289,7.378-13.844,11.975
	c-10.767-27.142-34.426-41.257-57.948-41.257c-5.896,0-10.667,4.771-10.667,10.667c0,17.189,4.117,31.328,10.63,42.671
	c-10.876,0.004-20.667,1.935-29.728,4.954l7.926-134.767C310.81,121.917,320,110.073,320,96c0-17.646-14.354-32-32-32H154.454
	l-5.173-54.344C148.76,4.177,144.167,0,138.667,0h-128C4.771,0,0,4.771,0,10.667s4.771,10.667,10.667,10.667h118.302L133.033,64
	H53.333c-17.646,0-32,14.354-32,32c0,14.073,9.19,25.917,21.839,30.191l20.005,340.017c0.688,11.906,5.719,23.104,14.156,31.542
	C86.521,506.938,98.74,512,111.729,512h117.875c12.99,0,25.208-5.063,34.396-14.25c6.579-6.579,11.004-14.857,12.997-23.82
	c17.533,22.572,39.52,38.07,64.336,38.07c12.583,0,19.729-4.385,24.938-7.583c3.396-2.083,5-3,6.688-3.094
	c2.438,0.094,4.042,1.01,7.438,3.094c5.208,3.198,12.354,7.583,24.938,7.583C467.208,512,512,416.427,512,352
	C512,292.781,479.302,256,426.667,256z"/>
<path style="fill:#7CB342;" d="M361.559,264.272c-0.763-0.178-1.559-0.396-2.342-0.607c-12.965-5.107-24.368-17.237-27.612-37.874
	C345.482,230.163,357.952,242.685,361.559,264.272z"/>
<g>
	<path style="fill:#FAA629;" d="M53.333,85.333H288c5.885,0,10.667,4.781,10.667,10.667c0,5.885-4.781,10.667-10.667,10.667H53.333
		c-5.885,0-10.667-4.781-10.667-10.667C42.667,90.115,47.448,85.333,53.333,85.333z"/>
	<path style="fill:#FAA629;" d="M256.865,464.958c-0.396,6.688-3.219,12.969-7.948,17.708c-5.156,5.156-12.021,8-19.313,8H111.729
		c-7.292,0-14.156-2.844-19.313-8c-4.729-4.74-7.552-11.021-7.948-17.708L64.646,128h212.042l-8.482,144.257
		c-21.31,16.191-33.539,43.736-33.539,79.743c0,28.21,8.59,62.389,23.439,91.905L256.865,464.958z"/>
</g>
<path style="opacity:0.2;fill:#FFFFFF;enable-background:new    ;" d="M109.961,464.958L96,128H64.646l19.823,336.958
	c0.396,6.688,3.219,12.969,7.948,17.708c5.156,5.156,12.021,8,19.313,8h17.43c-5.135,0-9.97-2.844-13.6-8
	C112.228,477.927,110.24,471.646,109.961,464.958z"/>
<g>
	<path style="opacity:0.1;fill:#010101;enable-background:new    ;" d="M268.206,272.257L276.688,128h-31.354l-8.198,197.871
		C241.669,302.564,252.406,284.26,268.206,272.257z"/>
	<path style="opacity:0.1;fill:#010101;enable-background:new    ;" d="M248.917,482.667c4.729-4.74,7.552-11.021,7.948-17.708
		l1.241-21.053c-12.783-25.409-20.544-54.063-22.563-79.6l-4.171,100.654c-0.279,6.688-2.267,12.969-5.598,17.708
		c-3.63,5.156-8.465,8-13.6,8h17.43C236.896,490.667,243.76,487.823,248.917,482.667z"/>
</g>
<path style="fill:#D32E2E;" d="M405.333,490.667c-6.563,0-9.594-1.854-13.781-4.427c-4.313-2.646-9.677-5.938-18.594-6.229
	c-8.167,0.292-13.531,3.583-17.844,6.229c-4.188,2.573-7.219,4.427-13.781,4.427C294.229,490.667,256,406.76,256,352
	c0-47.448,23.323-74.667,64-74.667c11.417,0,20.104,2.823,28.51,5.563c2.138,0.695,18.656,5.104,24.823,5.104
	c9.125,0,17.104-2.594,24.823-5.104c8.406-2.74,17.094-5.563,28.51-5.563c40.677,0,64,27.219,64,74.667
	C490.667,406.76,452.438,490.667,405.333,490.667z"/>
<path style="opacity:0.1;fill:#010101;enable-background:new    ;" d="M475.892,299.781c2.674,9.048,4.108,19.342,4.108,30.885
	c0,54.76-38.229,138.667-85.333,138.667c-6.563,0-9.594-1.854-13.781-4.427c-4.313-2.646-9.677-5.938-18.594-6.229
	c-8.167,0.292-13.531,3.583-17.844,6.229c-4.188,2.573-7.219,4.427-13.781,4.427c-22.645,0-43.182-19.467-58.464-45.69
	c15.505,36.337,40.663,67.023,69.13,67.023c6.563,0,9.594-1.854,13.781-4.427c4.313-2.646,9.677-5.938,17.844-6.229
	c8.917,0.292,14.281,3.583,18.594,6.229c4.188,2.573,7.219,4.427,13.781,4.427c47.104,0,85.333-83.906,85.333-138.667
	C490.667,329.895,485.411,312.398,475.892,299.781z"/>
<path style="opacity:0.2;fill:#FFFFFF;enable-background:new    ;" d="M74.667,96c0-5.885,3.586-10.667,8-10.667H53.333
	c-5.885,0-10.667,4.781-10.667,10.667c0,5.885,4.781,10.667,10.667,10.667h29.333C78.253,106.667,74.667,101.885,74.667,96z"/>
<path style="opacity:0.1;fill:#010101;enable-background:new    ;" d="M288,85.333h-29.333c4.414,0,8,4.781,8,10.667
	c0,5.885-3.586,10.667-8,10.667H288c5.885,0,10.667-4.781,10.667-10.667C298.667,90.115,293.885,85.333,288,85.333z"/>
<linearGradient id="SVGID_1_" gradientUnits="userSpaceOnUse" x1="-50.0673" y1="638.8791" x2="-23.4305" y2="626.4618" gradientTransform="matrix(21.3333 0 0 -21.3333 996.3334 13791.667)">
	<stop  offset="0" style="stop-color:#FFFFFF;stop-opacity:0.2"/>
	<stop  offset="1" style="stop-color:#FFFFFF;stop-opacity:0"/>
</linearGradient>
<path style="fill:url(#SVGID_1_);" d="M426.667,256c-14.802,0-26.063,3.667-35.115,6.604c-0.686,0.223-1.271,0.301-1.938,0.501
	c4.061-5.242,9.682-9.904,15.396-14.408c2.625-2.083,5.135-4.073,7.354-6.01c4.427-3.875,4.875-10.615,0.99-15.052
	c-3.865-4.427-10.615-4.865-15.052-0.99c-1.958,1.708-4.188,3.469-6.51,5.302c-4.366,3.445-9.289,7.378-13.844,11.975
	c-10.767-27.142-34.426-41.257-57.948-41.257c-5.896,0-10.667,4.771-10.667,10.667c0,17.189,4.117,31.328,10.63,42.671
	c-10.876,0.004-20.667,1.935-29.728,4.954l7.926-134.767C310.81,121.917,320,110.073,320,96c0-17.646-14.354-32-32-32H154.454
	l-5.173-54.344C148.76,4.177,144.167,0,138.667,0h-128C4.771,0,0,4.771,0,10.667s4.771,10.667,10.667,10.667h118.302L133.033,64
	H53.333c-17.646,0-32,14.354-32,32c0,14.073,9.19,25.917,21.839,30.191l20.005,340.017c0.688,11.906,5.719,23.104,14.156,31.542
	C86.521,506.938,98.74,512,111.729,512h117.875c12.99,0,25.208-5.063,34.396-14.25c6.579-6.579,11.004-14.857,12.997-23.82
	c17.533,22.572,39.52,38.07,64.336,38.07c12.583,0,19.729-4.385,24.938-7.583c3.396-2.083,5-3,6.688-3.094
	c2.438,0.094,4.042,1.01,7.438,3.094c5.208,3.198,12.354,7.583,24.938,7.583C467.208,512,512,416.427,512,352
	C512,292.781,479.302,256,426.667,256z"/>
<g>
</g>
<g>
</g>
<g>
</g>
<g>
</g>
<g>
</g>
<g>
</g>
<g>
</g>
<g>
</g>
<g>
</g>
<g>
</g>
<g>
</g>
<g>
</g>
<g>
</g>
<g>
</g>
<g>
</g>
</svg>
