<?xml version="1.0" encoding="iso-8859-1"?>
<!-- Generator: Adobe Illustrator 19.0.0, SVG Export Plug-In . SVG Version: 6.00 Build 0)  -->
<svg version="1.1" id="Capa_1" xmlns="http://www.w3.org/2000/svg" xmlns:xlink="http://www.w3.org/1999/xlink" x="0px" y="0px"
	 viewBox="0 0 512 512" style="enable-background:new 0 0 512 512;" xml:space="preserve">
<path style="fill:#303C42;" d="M437.333,306.99V288c0-17.646-14.354-32-32-32V87.854C405.333,39.406,365.927,0,317.479,0h-3.115
	c-28.979,0-55.427,13.938-71.729,37.104c-14.125-10.135-31.323-15.771-48.802-15.771h-3.667c-46.042,0-83.5,37.458-83.5,83.5V256
	c-17.646,0-32,14.354-32,32v18.99C68.168,312.852,64,321.246,64,330.667v128C64,488.073,87.927,512,117.333,512
	s53.333-23.927,53.333-53.333v-128c0-9.421-4.168-17.815-10.667-23.677V288c0-17.646-14.354-32-32-32V104.833
	c0-34.281,27.885-62.167,62.167-62.167h3.667c12.115,0,24.018,3.673,34.091,10.258C203.21,71.93,149.333,118.143,149.333,160
	c0,47.448,34.99,74.667,96,74.667s96-27.219,96-74.667c0-43.901-59.194-92.53-81.917-109.594
	c12.284-18.112,32.609-29.073,54.948-29.073h3.115c36.677,0,66.521,29.844,66.521,66.521V256c-17.646,0-32,14.354-32,32v18.99
	c-6.499,5.862-10.667,14.257-10.667,23.677v128c0,29.406,23.927,53.333,53.333,53.333S448,488.073,448,458.667v-128
	C448,321.246,443.832,312.852,437.333,306.99z M320,160c0,35.385-25.125,53.333-74.667,53.333S170.667,195.385,170.667,160
	c0-31.281,49.26-74.521,74.667-93.5C270.75,85.458,320,128.667,320,160z"/>
<g>
	<path style="fill:#8351A1;" d="M149.333,458.667c0,17.646-14.354,32-32,32s-32-14.354-32-32v-128C85.333,324.781,90.115,320,96,320
		h42.667c5.885,0,10.667,4.781,10.667,10.667V458.667z"/>
	<path style="fill:#8351A1;" d="M138.667,288v10.667H96V288c0-5.885,4.781-10.667,10.667-10.667H128
		C133.885,277.333,138.667,282.115,138.667,288z"/>
	<path style="fill:#8351A1;" d="M373.333,288c0-5.885,4.781-10.667,10.667-10.667h21.333c5.885,0,10.667,4.781,10.667,10.667v10.667
		h-42.667V288z"/>
</g>
<path style="opacity:0.1;fill:#010101;enable-background:new    ;" d="M405.333,277.333h-5.522v21.333H416V288
	C416,282.115,411.219,277.333,405.333,277.333z"/>
<path style="fill:#8351A1;" d="M426.667,458.667c0,17.646-14.354,32-32,32c-17.646,0-32-14.354-32-32v-128
	c0-5.885,4.781-10.667,10.667-10.667H416c5.885,0,10.667,4.781,10.667,10.667V458.667z"/>
<g>
	<path style="opacity:0.1;fill:#010101;enable-background:new    ;" d="M416,320h-10.667v117.333c0,17.646-14.354,32-32,32
		c-3.207,0-6.245-0.617-9.168-1.499c3.971,13.161,16.063,22.832,30.501,22.832c17.646,0,32-14.354,32-32v-128
		C426.667,324.781,421.885,320,416,320z"/>
	<path style="opacity:0.1;fill:#010101;enable-background:new    ;" d="M128,277.333h-5.522v21.333h16.188V288
		C138.667,282.115,133.885,277.333,128,277.333z"/>
	<path style="opacity:0.1;fill:#010101;enable-background:new    ;" d="M138.667,320H128v117.333c0,17.646-14.354,32-32,32
		c-3.207,0-6.245-0.617-9.168-1.499c3.971,13.161,16.063,22.832,30.501,22.832c17.646,0,32-14.354,32-32v-128
		C149.333,324.781,144.552,320,138.667,320z"/>
</g>
<linearGradient id="SVGID_1_" gradientUnits="userSpaceOnUse" x1="-43.7902" y1="637.9617" x2="-23.7508" y2="628.6175" gradientTransform="matrix(21.3333 0 0 -21.3333 996.3334 13791.667)">
	<stop  offset="0" style="stop-color:#FFFFFF;stop-opacity:0.2"/>
	<stop  offset="1" style="stop-color:#FFFFFF;stop-opacity:0"/>
</linearGradient>
<path style="fill:url(#SVGID_1_);" d="M437.333,306.99V288c0-17.646-14.354-32-32-32V87.854C405.333,39.406,365.927,0,317.479,0
	h-3.115c-28.979,0-55.427,13.938-71.729,37.104c-14.125-10.135-31.323-15.771-48.802-15.771h-3.667c-46.042,0-83.5,37.458-83.5,83.5
	V256c-17.646,0-32,14.354-32,32v18.99C68.168,312.852,64,321.246,64,330.667v128C64,488.073,87.927,512,117.333,512
	s53.333-23.927,53.333-53.333v-128c0-9.421-4.168-17.815-10.667-23.677V288c0-17.646-14.354-32-32-32V104.833
	c0-34.281,27.885-62.167,62.167-62.167h3.667c12.115,0,24.018,3.673,34.091,10.258C203.21,71.93,149.333,118.143,149.333,160
	c0,47.448,34.99,74.667,96,74.667s96-27.219,96-74.667c0-43.901-59.194-92.53-81.917-109.594
	c12.284-18.112,32.609-29.073,54.948-29.073h3.115c36.677,0,66.521,29.844,66.521,66.521V256c-17.646,0-32,14.354-32,32v18.99
	c-6.499,5.862-10.667,14.257-10.667,23.677v128c0,29.406,23.927,53.333,53.333,53.333S448,488.073,448,458.667v-128
	C448,321.246,443.832,312.852,437.333,306.99z M320,160c0,35.385-25.125,53.333-74.667,53.333S170.667,195.385,170.667,160
	c0-31.281,49.26-74.521,74.667-93.5C270.75,85.458,320,128.667,320,160z"/>
<g>
</g>
<g>
</g>
<g>
</g>
<g>
</g>
<g>
</g>
<g>
</g>
<g>
</g>
<g>
</g>
<g>
</g>
<g>
</g>
<g>
</g>
<g>
</g>
<g>
</g>
<g>
</g>
<g>
</g>
</svg>
