<?xml version="1.0" encoding="iso-8859-1"?>
<!-- Generator: Adobe Illustrator 19.0.0, SVG Export Plug-In . SVG Version: 6.00 Build 0)  -->
<svg version="1.1" id="Capa_1" xmlns="http://www.w3.org/2000/svg" xmlns:xlink="http://www.w3.org/1999/xlink" x="0px" y="0px"
	 viewBox="0 0 512 512" style="enable-background:new 0 0 512 512;" xml:space="preserve">
<path style="fill:#303C42;" d="M469.333,85.361H191.406c-2.594-23.051-13.51-44.612-30.833-60.371
	C140.313,6.564,113.938-2.227,86.604,0.481C38.042,5.117,0,48.697,0,99.694v316.313h0.021c0.031,21.697,7.229,42.685,20.885,59.809
	C39.24,498.813,66.615,512,96,512h373.333C492.865,512,512,492.866,512,469.336V128.025C512,104.495,492.865,85.361,469.333,85.361z
	"/>
<path style="fill:#775CA7;" d="M21.333,99.694c0-40.122,29.563-74.37,67.292-77.984c21.396-1.937,41.844,4.739,57.594,19.061
	c15.531,14.134,24.448,34.269,24.448,55.257l0.365,260.098c-18.542-23.217-46.052-36.091-75.135-36.091
	c-7.396,0-14.896,0.833-22.375,2.542c-20.823,4.75-39.094,16.488-52.188,32.581V99.694z"/>
<path style="opacity:0.2;fill:#FFFFFF;enable-background:new    ;" d="M42.302,116.911c0-40.122,29.563-74.37,67.292-77.984
	c15.234-1.38,29.909,1.801,42.828,8.807c-2.018-2.364-3.882-4.85-6.203-6.963c-15.75-14.322-36.198-20.999-57.594-19.061
	c-37.729,3.614-67.292,37.862-67.292,77.984v255.462c5.961-7.326,13.109-13.602,20.969-18.875V116.911z"/>
<path style="fill:#775CA7;" d="M490.667,469.336c0,11.76-9.573,21.332-21.333,21.332H96c-22.854,0-44.146-10.26-58.417-28.154
	c-14.271-17.895-19.458-41.31-14.229-64.235c6.104-26.738,28.177-48.809,54.917-54.913c5.865-1.333,11.74-1.989,17.542-1.989
	c22.698,0,44.135,10.01,58.552,28.071c5.573,6.947,14.635,9.499,23.135,6.52c8.677-3.041,14.5-11.197,14.5-20.29v-84.578
	l195.125,195.112c2.083,2.083,4.813,3.125,7.542,3.125c2.729,0,5.458-1.042,7.542-3.125c4.167-4.166,4.167-10.916,0-15.082
	L192,240.934V106.693h277.333c11.76,0,21.333,9.572,21.333,21.332V469.336z"/>
<linearGradient id="SVGID_1_" gradientUnits="userSpaceOnUse" x1="-40.3368" y1="638.8498" x2="-24.6315" y2="623.1425" gradientTransform="matrix(21.3333 0 0 -21.3333 996.3334 13791.667)">
	<stop  offset="0" style="stop-color:#010101;stop-opacity:0.1"/>
	<stop  offset="1" style="stop-color:#010101;stop-opacity:0"/>
</linearGradient>
<path style="fill:url(#SVGID_1_);" d="M490.667,469.336c0,11.76-9.573,21.332-21.333,21.332H96
	c-22.854,0-44.146-10.26-58.417-28.154c-14.271-17.895-19.458-41.31-14.229-64.235c6.104-26.738,28.177-48.809,54.917-54.913
	c5.865-1.333,11.74-1.989,17.542-1.989c22.698,0,44.135,10.01,58.552,28.071c5.573,6.947,14.635,9.499,23.135,6.52
	c8.677-3.041,14.5-11.197,14.5-20.29v-84.578l195.125,195.112c2.083,2.083,4.813,3.125,7.542,3.125c2.729,0,5.458-1.042,7.542-3.125
	c4.167-4.166,4.167-10.916,0-15.082L192,240.934V106.693h277.333c11.76,0,21.333,9.572,21.333,21.332V469.336z"/>
<path style="opacity:0.1;fill:#010101;enable-background:new    ;" d="M469.333,106.693v341.311c0,11.76-9.573,21.332-21.333,21.332
	H74.667c-14.775,0-28.668-4.678-40.661-12.545c1.24,1.887,2.156,3.94,3.578,5.722C51.854,480.408,73.146,490.668,96,490.668h373.333
	c11.76,0,21.333-9.572,21.333-21.332V128.025C490.667,116.266,481.094,106.693,469.333,106.693z"/>
<g>
	<path style="fill:#303C42;" d="M423.542,131.15c-4.167-4.166-10.917-4.166-15.083,0c-4.167,4.166-4.167,10.916,0,15.082
		l42.667,42.664c2.083,2.083,4.813,3.125,7.542,3.125c2.729,0,5.458-1.042,7.542-3.125c4.167-4.166,4.167-10.916,0-15.082
		L423.542,131.15z"/>
	<path style="fill:#303C42;" d="M252.875,131.15c-4.167-4.166-10.917-4.166-15.083,0c-4.167,4.166-4.167,10.916,0,15.082
		l213.333,213.319c2.083,2.083,4.813,3.125,7.542,3.125c2.729,0,5.458-1.042,7.542-3.125c4.167-4.166,4.167-10.916,0-15.082
		L252.875,131.15z"/>
</g>
<linearGradient id="SVGID_2_" gradientUnits="userSpaceOnUse" x1="-48.3651" y1="639.3073" x2="-21.4395" y2="626.7506" gradientTransform="matrix(21.3333 0 0 -21.3333 996.3334 13791.667)">
	<stop  offset="0" style="stop-color:#FFFFFF;stop-opacity:0.2"/>
	<stop  offset="1" style="stop-color:#FFFFFF;stop-opacity:0"/>
</linearGradient>
<path style="fill:url(#SVGID_2_);" d="M469.333,85.361H191.406c-2.594-23.051-13.51-44.612-30.833-60.371
	C140.313,6.564,113.938-2.227,86.604,0.481C38.042,5.117,0,48.697,0,99.694v316.313h0.021c0.031,21.697,7.229,42.685,20.885,59.809
	C39.24,498.813,66.615,512,96,512h373.333C492.865,512,512,492.866,512,469.336V128.025C512,104.495,492.865,85.361,469.333,85.361z
	"/>
<g>
</g>
<g>
</g>
<g>
</g>
<g>
</g>
<g>
</g>
<g>
</g>
<g>
</g>
<g>
</g>
<g>
</g>
<g>
</g>
<g>
</g>
<g>
</g>
<g>
</g>
<g>
</g>
<g>
</g>
</svg>
