<?xml version="1.0" encoding="iso-8859-1"?>
<!-- Generator: Adobe Illustrator 19.0.0, SVG Export Plug-In . SVG Version: 6.00 Build 0)  -->
<svg version="1.1" id="Capa_1" xmlns="http://www.w3.org/2000/svg" xmlns:xlink="http://www.w3.org/1999/xlink" x="0px" y="0px"
	 viewBox="0 0 480 480" style="enable-background:new 0 0 480 480;" xml:space="preserve">
<g>
	<path style="fill:#50D4E3;" d="M8,80v360c0,17.672,14.328,32,32,32h192V80"/>
	<rect x="232" y="80" style="fill:#50D4E3;" width="240" height="392"/>
	<ellipse style="fill:#50D4E3;" cx="120" cy="80" rx="112" ry="72"/>
	<ellipse style="fill:#50D4E3;" cx="120" cy="80" rx="80" ry="40"/>
</g>
<g>
	<path style="fill:#59CD90;" d="M440,232c0,30.928-14.328,40-32,40s-32-9.072-32-40s32-72,32-72S440,201.072,440,232z"/>
	<path style="fill:#59CD90;" d="M376,312c0-30.928,14.328-40,32-40s32,9.072,32,40s-32,72-32,72S376,342.928,376,312z"/>
	<path style="fill:#59CD90;" d="M344,240c30.928,0,40,14.328,40,32s-9.072,32-40,32s-72-32-72-32S313.072,240,344,240z"/>
</g>
<g>
	<path style="fill:#0F272A;" d="M472,72H239.392C233.352,31.632,182.12,0,120,0C53.832,0,0,35.888,0,80v360
		c0,22.056,17.944,40,40,40h192h240c4.416,0,8-3.576,8-8V80C480,75.576,476.416,72,472,72z M120,16c57.344,0,104,28.712,104,64
		s-46.656,64-104,64S16,115.288,16,80S62.656,16,120,16z M16,440V119.736C36.728,143.752,75.536,160,120,160
		s83.272-16.248,104-40.264V464H40C26.768,464,16,453.232,16,440z M464,464H240V88h224V464z"/>
	<path style="fill:#0F272A;" d="M120,128c49.344,0,88-21.088,88-48s-38.656-48-88-48S32,53.088,32,80S70.656,128,120,128z M120,48
		c42.432,0,72,16.864,72,32s-29.568,32-72,32S48,95.136,48,80S77.568,48,120,48z"/>
	<path style="fill:#0F272A;" d="M120,96c31.848,0,48-5.384,48-16s-16.152-16-48-16s-48,5.384-48,16S88.152,96,120,96z"/>
	<path style="fill:#0F272A;" d="M344,312c9.952,0,17.832-1.456,24.144-3.824c-0.048,1.272-0.144,2.48-0.144,3.824
		c0,33.296,32.312,75.152,33.688,76.912c1.52,1.944,3.848,3.088,6.312,3.088s4.792-1.144,6.312-3.088
		C415.688,387.152,448,345.296,448,312c0-21.264-6.504-33.288-14.856-40c8.352-6.712,14.856-18.736,14.856-40
		c0-33.296-32.312-75.152-33.688-76.912c-3.04-3.888-9.584-3.888-12.624,0C400.312,156.848,368,198.704,368,232
		c0,1.344,0.096,2.552,0.144,3.824C361.832,233.456,353.952,232,344,232c-33.296,0-75.152,32.312-76.92,33.688
		c-1.944,1.512-3.08,3.84-3.08,6.312s1.136,4.8,3.08,6.312C268.848,279.688,310.704,312,344,312z M432,312
		c0,19.728-15.12,45.048-24,58.224c-8.88-13.176-24-38.496-24-58.224c0-8.688,1.216-15.04,3.208-19.696
		c0.448-0.816,0.856-1.648,1.232-2.48C393.152,281.496,400.904,280,408,280C419.176,280,432,283.64,432,312z M408,173.776
		c8.88,13.176,24,38.496,24,58.224c0,28.36-12.824,32-24,32c-7.096,0-14.848-1.496-19.568-9.832
		c-0.376-0.832-0.784-1.656-1.232-2.48c-1.984-4.648-3.2-11-3.2-19.688C384,212.272,399.12,186.952,408,173.776z M344,248
		c17.224,0,25.304,4.744,29.016,10.96c0.456,1.008,0.912,2.024,1.416,2.944C375.656,265.16,376,268.648,376,272
		s-0.344,6.84-1.568,10.096c-0.512,0.912-0.96,1.936-1.424,2.944C369.304,291.256,361.224,296,344,296
		c-19.72,0-45.048-15.12-58.224-24C298.952,263.12,324.28,248,344,248z"/>
	<rect x="256" y="432" style="fill:#0F272A;" width="16" height="16"/>
	<rect x="256" y="400" style="fill:#0F272A;" width="16" height="16"/>
	<rect x="288" y="432" style="fill:#0F272A;" width="16" height="16"/>
	<rect x="320" y="432" style="fill:#0F272A;" width="16" height="16"/>
</g>
<g>
</g>
<g>
</g>
<g>
</g>
<g>
</g>
<g>
</g>
<g>
</g>
<g>
</g>
<g>
</g>
<g>
</g>
<g>
</g>
<g>
</g>
<g>
</g>
<g>
</g>
<g>
</g>
<g>
</g>
</svg>
