<?xml version="1.0" encoding="iso-8859-1"?>
<!-- Generator: Adobe Illustrator 19.0.0, SVG Export Plug-In . SVG Version: 6.00 Build 0)  -->
<svg version="1.1" id="Capa_1" xmlns="http://www.w3.org/2000/svg" xmlns:xlink="http://www.w3.org/1999/xlink" x="0px" y="0px"
	 viewBox="0 0 480 480" style="enable-background:new 0 0 480 480;" xml:space="preserve">
<circle style="fill:#EE6352;" cx="80" cy="80" r="40"/>
<g>
	<path style="fill:#FAC05E;" d="M56,472H8V288c0-13.256,10.744-24,24-24l0,0c13.256,0,24,10.744,24,24V472z"/>
	<path style="fill:#FAC05E;" d="M248,472h-48V288c0-13.256,10.744-24,24-24l0,0c13.256,0,24,10.744,24,24V472z"/>
	<path style="fill:#FAC05E;" d="M152,472h-48V184c0-13.256,10.744-24,24-24l0,0c13.256,0,24,10.744,24,24V472z"/>
	<path style="fill:#FAC05E;" d="M344,472h-48V184c0-13.256,10.744-24,24-24l0,0c13.256,0,24,10.744,24,24V472z"/>
</g>
<path style="fill:#59CD90;" d="M472,256c0,97.2-21.488,104-48,104s-48-6.8-48-104S424,8,424,8S472,158.8,472,256z"/>
<path style="fill:#FFFFFF;" d="M328,56c-0.072,0-0.136,0.016-0.2,0.024C325.76,29.168,303.376,8,276,8s-49.76,21.168-51.8,48.024
	C224.136,56.016,224.072,56,224,56c-17.672,0-32,14.328-32,32s14.328,32,32,32h104c17.672,0,32-14.328,32-32S345.672,56,328,56z"/>
<g>
	<path style="fill:#0F272A;" d="M128,80c0-26.472-21.528-48-48-48S32,53.528,32,80s21.528,48,48,48S128,106.472,128,80z M80,112
		c-17.648,0-32-14.352-32-32s14.352-32,32-32s32,14.352,32,32S97.648,112,80,112z"/>
	<path style="fill:#0F272A;" d="M8,480h48c4.416,0,8-3.576,8-8V312h32v160c0,4.424,3.584,8,8,8h48c4.416,0,8-3.576,8-8V312h32v160
		c0,4.424,3.584,8,8,8h48c4.416,0,8-3.576,8-8V288c0-17.648-14.352-32-32-32s-32,14.352-32,32v8h-32v-88h128v264
		c0,4.424,3.584,8,8,8h48c4.416,0,8-3.576,8-8V184c0-17.648-14.352-32-32-32s-32,14.352-32,32v8H160v-8c0-17.648-14.352-32-32-32
		s-32,14.352-32,32v112H64v-8c0-17.648-14.352-32-32-32S0,270.352,0,288v184C0,476.424,3.584,480,8,480z M208,288
		c0-8.824,7.176-16,16-16s16,7.176,16,16v176h-32V288z M304,184c0-8.824,7.176-16,16-16s16,7.176,16,16v280h-32V184z M144,464h-32
		V312h32V464z M112,184c0-8.824,7.176-16,16-16s16,7.176,16,16v8h-16v16h16v88h-32V184z M16,288c0-8.824,7.176-16,16-16
		s16,7.176,16,16v8H32v16h16v152H16V288z"/>
	<rect x="72" style="fill:#0F272A;" width="16" height="16"/>
	<rect x="72" y="144" style="fill:#0F272A;" width="16" height="16"/>
	<rect x="144" y="72" style="fill:#0F272A;" width="16" height="16"/>
	<rect y="72" style="fill:#0F272A;" width="16" height="16"/>
	
		<rect x="122.907" y="122.923" transform="matrix(-0.707 0.7072 -0.7072 -0.707 316.0484 130.9075)" style="fill:#0F272A;" width="16" height="16"/>
	
		<rect x="21.092" y="21.087" transform="matrix(-0.707 0.7072 -0.7072 -0.707 70.2298 29.078)" style="fill:#0F272A;" width="16" height="16"/>
	
		<rect x="21.089" y="122.907" transform="matrix(-0.7072 0.707 -0.707 -0.7072 142.2131 202.9191)" style="fill:#0F272A;" width="16" height="16"/>
	
		<rect x="122.909" y="21.084" transform="matrix(-0.7072 0.707 -0.707 -0.7072 244.0516 -42.9024)" style="fill:#0F272A;" width="16" height="16"/>
	<path style="fill:#0F272A;" d="M424,0c-3.488,0-6.568,2.256-7.624,5.568C414.4,11.784,368,158.672,368,256
		c0,86.952,16.824,108.776,48,111.616V480h16V367.616c31.176-2.832,48-24.664,48-111.616c0-97.328-46.4-244.216-48.376-250.432
		C430.568,2.256,427.488,0,424,0z M432,351.752v-52.44l21.656-21.656l-11.312-11.312L432,276.688V200h-16v44.688l-10.344-10.344
		l-11.312,11.312L416,267.312v84.44c-16.816-1.536-32-12.8-32-95.752c0-71.16,26.544-172.952,40-219.968
		C437.456,83.048,464,184.848,464,256C464,338.952,448.816,350.216,432,351.752z"/>
	<path style="fill:#0F272A;" d="M276,0c-28.832,0-53.472,20.84-58.856,48.584C198.344,51.848,184,68.28,184,88
		c0,22.056,17.944,40,40,40h104c22.056,0,40-17.944,40-40c0-19.72-14.344-36.152-33.144-39.416C329.472,20.84,304.832,0,276,0z
		 M352,88c0,13.232-10.768,24-24,24H224c-13.232,0-24-10.768-24-24s10.768-24,23.32-24.024c2.144,0.224,4.32-0.416,5.992-1.8
		s2.704-3.392,2.872-5.544C233.912,33.84,253.16,16,276,16s42.088,17.84,43.824,40.632c0.168,2.216,1.296,4.264,3.048,5.656
		c1.528,1.216,3.528,1.84,5.416,1.712C341.392,64.16,352,74.856,352,88z"/>
</g>
<g>
</g>
<g>
</g>
<g>
</g>
<g>
</g>
<g>
</g>
<g>
</g>
<g>
</g>
<g>
</g>
<g>
</g>
<g>
</g>
<g>
</g>
<g>
</g>
<g>
</g>
<g>
</g>
<g>
</g>
</svg>
