<?xml version="1.0" encoding="iso-8859-1"?>
<!-- Generator: Adobe Illustrator 19.0.0, SVG Export Plug-In . SVG Version: 6.00 Build 0)  -->
<svg version="1.1" id="Capa_1" xmlns="http://www.w3.org/2000/svg" xmlns:xlink="http://www.w3.org/1999/xlink" x="0px" y="0px"
	 viewBox="0 0 512 512" style="enable-background:new 0 0 512 512;" xml:space="preserve">
<path style="fill:#303C42;" d="M426.667,106.667v-64C426.667,19.135,407.531,0,384,0H128c-23.531,0-42.667,19.135-42.667,42.667v64
	c0,19.013,12.577,34.965,29.786,40.464l-7.911,7.911c-14.104,14.104-21.875,32.854-21.875,52.802v261.49
	C85.333,492.865,104.469,512,128,512h256c23.531,0,42.667-19.135,42.667-42.667v-261.49c0-19.948-7.771-38.698-21.875-52.802
	l-7.911-7.911C414.09,141.632,426.667,125.68,426.667,106.667z"/>
<rect x="106.667" y="234.667" style="fill:#F3F3F3;" width="298.667" height="170.667"/>
<rect x="373.333" y="234.667" style="opacity:0.1;fill:#010101;enable-background:new    ;" width="32" height="170.667"/>
<rect x="106.667" y="234.667" style="opacity:0.2;fill:#FFFFFF;enable-background:new    ;" width="32" height="170.667"/>
<path style="fill:#303C42;" d="M352,309.333h-10.667V288c0-5.896-4.771-10.667-10.667-10.667c-5.896,0-10.667,4.771-10.667,10.667
	v-10.667c0-5.896-4.771-10.667-10.667-10.667s-10.667,4.771-10.667,10.667v32h-85.333v-32c0-5.896-4.771-10.667-10.667-10.667
	S192,271.438,192,277.333V288c0-5.896-4.771-10.667-10.667-10.667c-5.896,0-10.667,4.771-10.667,10.667v21.333H160
	c-5.896,0-10.667,4.771-10.667,10.667c0,5.896,4.771,10.667,10.667,10.667h10.667V352c0,5.896,4.771,10.667,10.667,10.667
	c5.896,0,10.667-4.771,10.667-10.667v10.667c0,5.896,4.771,10.667,10.667,10.667s10.667-4.771,10.667-10.667v-32h85.333v32
	c0,5.896,4.771,10.667,10.667,10.667S320,368.563,320,362.667V352c0,5.896,4.771,10.667,10.667,10.667
	c5.896,0,10.667-4.771,10.667-10.667v-21.333H352c5.896,0,10.667-4.771,10.667-10.667C362.667,314.104,357.896,309.333,352,309.333z
	"/>
<g>
	<rect x="298.667" y="21.333" style="fill:#F78C1E;" width="42.667" height="106.667"/>
	<rect x="170.667" y="21.333" style="fill:#F78C1E;" width="42.667" height="106.667"/>
	<rect x="234.667" y="21.333" style="fill:#F78C1E;" width="42.667" height="106.667"/>
</g>
<g>
	<rect x="298.667" y="74.667" style="opacity:0.1;fill:#010101;enable-background:new    ;" width="42.667" height="53.333"/>
	<rect x="170.667" y="74.667" style="opacity:0.1;fill:#010101;enable-background:new    ;" width="42.667" height="53.333"/>
	<rect x="234.667" y="74.667" style="opacity:0.1;fill:#010101;enable-background:new    ;" width="42.667" height="53.333"/>
</g>
<path style="fill:#F78C1E;" d="M106.667,106.667v-64c0-11.76,9.573-21.333,21.333-21.333h21.333V128H128
	C116.24,128,106.667,118.427,106.667,106.667z"/>
<g>
	<path style="fill:#BF6B29;" d="M384,490.667H128c-11.76,0-21.333-9.573-21.333-21.333v-42.667h298.667v42.667
		C405.333,481.094,395.76,490.667,384,490.667z"/>
	<path style="fill:#BF6B29;" d="M405.333,207.844v5.49H106.667v-5.49c0-14.25,5.552-27.646,15.625-37.719l20.792-20.792h225.833
		l20.792,20.792C399.781,180.198,405.333,193.594,405.333,207.844z"/>
</g>
<path style="opacity:0.2;fill:#FFFFFF;enable-background:new    ;" d="M138.667,469.333v-42.667h-32v42.667
	c0,11.76,9.573,21.333,21.333,21.333h27.428C146.189,490.667,138.667,481.094,138.667,469.333z"/>
<path style="opacity:0.1;fill:#010101;enable-background:new    ;" d="M373.333,426.667v42.667c0,11.76-7.522,21.333-16.762,21.333
	H384c11.76,0,21.333-9.573,21.333-21.333v-42.667H373.333z"/>
<path style="opacity:0.2;fill:#FFFFFF;enable-background:new    ;" d="M150.944,170.125l16.336-20.792h-24.197l-20.792,20.792
	c-10.073,10.073-15.625,23.469-15.625,37.719v5.49h32v-5.49C138.667,193.594,143.029,180.198,150.944,170.125z"/>
<path style="opacity:0.1;fill:#010101;enable-background:new    ;" d="M389.708,170.125l-20.792-20.792H344.72l16.336,20.792
	c7.915,10.073,12.277,23.469,12.277,37.719v5.49h32v-5.49C405.333,193.594,399.781,180.198,389.708,170.125z"/>
<path style="fill:#F78C1E;" d="M405.333,106.667c0,11.76-9.573,21.333-21.333,21.333h-21.333V21.333H384
	c11.76,0,21.333,9.573,21.333,21.333V106.667z"/>
<g>
	<path style="opacity:0.1;fill:#010101;enable-background:new    ;" d="M106.667,106.667c0,11.76,9.573,21.333,21.333,21.333h21.333
		V74.667h-42.667V106.667z"/>
	<path style="opacity:0.1;fill:#010101;enable-background:new    ;" d="M362.667,128H384c11.76,0,21.333-9.573,21.333-21.333v-32
		h-42.667V128z"/>
</g>
<linearGradient id="SVGID_1_" gradientUnits="userSpaceOnUse" x1="-45.2743" y1="639.4139" x2="-24.1319" y2="629.5548" gradientTransform="matrix(21.3333 0 0 -21.3333 996.3334 13791.667)">
	<stop  offset="0" style="stop-color:#FFFFFF;stop-opacity:0.2"/>
	<stop  offset="1" style="stop-color:#FFFFFF;stop-opacity:0"/>
</linearGradient>
<path style="fill:url(#SVGID_1_);" d="M426.667,106.667v-64C426.667,19.135,407.531,0,384,0H128
	c-23.531,0-42.667,19.135-42.667,42.667v64c0,19.013,12.577,34.965,29.786,40.464l-7.911,7.911
	c-14.104,14.104-21.875,32.854-21.875,52.802v261.49C85.333,492.865,104.469,512,128,512h256c23.531,0,42.667-19.135,42.667-42.667
	v-261.49c0-19.948-7.771-38.698-21.875-52.802l-7.911-7.911C414.09,141.632,426.667,125.68,426.667,106.667z"/>
<g>
</g>
<g>
</g>
<g>
</g>
<g>
</g>
<g>
</g>
<g>
</g>
<g>
</g>
<g>
</g>
<g>
</g>
<g>
</g>
<g>
</g>
<g>
</g>
<g>
</g>
<g>
</g>
<g>
</g>
</svg>
