<?xml version="1.0" encoding="iso-8859-1"?>
<!-- Generator: Adobe Illustrator 19.0.0, SVG Export Plug-In . SVG Version: 6.00 Build 0)  -->
<svg version="1.1" id="Capa_1" xmlns="http://www.w3.org/2000/svg" xmlns:xlink="http://www.w3.org/1999/xlink" x="0px" y="0px"
	 viewBox="0 0 512 512" style="enable-background:new 0 0 512 512;" xml:space="preserve">
<path style="fill:#303C42;" d="M288,149.333c5.896,0,10.667-4.771,10.667-10.667S293.896,128,288,128h-21.333v-23.298
	C279.056,100.284,288,88.555,288,74.667c0-3.758-0.77-7.314-1.965-10.667h44.632c25.763,0,47.299-18.353,52.255-42.667h11.745
	c5.896,0,10.667-4.771,10.667-10.667S400.563,0,394.667,0H117.333c-5.896,0-10.667,4.771-10.667,10.667s4.771,10.667,10.667,10.667
	h11.745C134.034,45.647,155.57,64,181.333,64h44.632C224.77,67.353,224,70.909,224,74.667c0,13.888,8.944,25.617,21.333,30.035V128
	H224c-5.896,0-10.667,4.771-10.667,10.667s4.771,10.667,10.667,10.667h7.979c-37.286,42.31-125.313,148.975-125.313,213.333
	C106.667,445.01,173.667,512,256,512s149.333-66.99,149.333-149.333c0-64.358-88.026-171.023-125.313-213.333H288z"/>
<path style="fill:#934721;" d="M256,490.667c-17.813,0-42.667-48.698-42.667-128c0-53.479,27.375-144.354,42.667-190.938
	c15.292,46.573,42.667,137.438,42.667,190.938C298.667,441.969,273.813,490.667,256,490.667z"/>
<path style="fill:#BF6B29;" d="M128,362.667c0-48.146,60.872-128.931,101.103-177.089C213.247,236.063,192,312.94,192,362.667
	c0,45.875,9.038,93.507,26.215,122.297C166.023,468.805,128,420.1,128,362.667z"/>
<path style="fill:#793518;" d="M293.785,484.964C310.962,456.173,320,408.542,320,362.667c0-49.727-21.247-126.604-37.103-177.089
	C323.128,233.736,384,314.521,384,362.667C384,420.1,345.977,468.805,293.785,484.964z"/>
<path style="fill:#BDBDBD;" d="M151.298,21.333h209.404c-4.418,12.389-16.147,21.333-30.035,21.333H181.333
	C167.445,42.667,155.716,33.723,151.298,21.333z"/>
<path style="opacity:0.1;fill:#010101;enable-background:new    ;" d="M341.326,21.333C335.507,27.742,327.368,32,318.035,32
	H168.702c-4.91,0-9.366-1.432-13.509-3.426c5.74,8.426,15.19,14.092,26.141,14.092h149.333c13.888,0,25.617-8.944,30.035-21.333
	H341.326z"/>
<circle style="fill:#BDBDBD;" cx="256" cy="74.667" r="10.667"/>
<g>
	<path style="opacity:0.1;fill:#010101;enable-background:new    ;" d="M220.896,432.165c8.729,37.056,23.376,58.501,35.104,58.501
		c13.844,0,31.793-29.688,39.171-80.022c-20.366,13.676-44.848,21.678-71.171,21.678
		C222.952,432.323,221.938,432.19,220.896,432.165z"/>
	<path style="opacity:0.1;fill:#010101;enable-background:new    ;" d="M132.12,393.24c10.775,43.56,43.526,78.544,86.095,91.724
		c-8.648-14.495-15.223-33.776-19.629-55.193C172.759,424.547,149.784,411.487,132.12,393.24z"/>
	<path style="opacity:0.1;fill:#010101;enable-background:new    ;" d="M340.629,261.911C347.802,278.577,352,293.135,352,304.323
		c0,32.96-12.626,62.949-33.16,85.661c-2.845,36.685-11.284,71.898-25.055,94.979C345.977,468.805,384,420.1,384,362.667
		C384,335.548,364.686,298.077,340.629,261.911z"/>
</g>
<linearGradient id="SVGID_1_" gradientUnits="userSpaceOnUse" x1="-44.4483" y1="640.2084" x2="-25.9923" y2="631.6024" gradientTransform="matrix(21.3333 0 0 -21.3333 996.3334 13791.667)">
	<stop  offset="0" style="stop-color:#FFFFFF;stop-opacity:0.2"/>
	<stop  offset="1" style="stop-color:#FFFFFF;stop-opacity:0"/>
</linearGradient>
<path style="fill:url(#SVGID_1_);" d="M288,149.333c5.896,0,10.667-4.771,10.667-10.667S293.896,128,288,128h-21.333v-23.298
	C279.056,100.284,288,88.555,288,74.667c0-3.758-0.77-7.314-1.965-10.667h44.632c25.763,0,47.299-18.353,52.255-42.667h11.745
	c5.896,0,10.667-4.771,10.667-10.667S400.563,0,394.667,0H117.333c-5.896,0-10.667,4.771-10.667,10.667s4.771,10.667,10.667,10.667
	h11.745C134.034,45.647,155.57,64,181.333,64h44.632C224.77,67.353,224,70.909,224,74.667c0,13.888,8.944,25.617,21.333,30.035V128
	H224c-5.896,0-10.667,4.771-10.667,10.667s4.771,10.667,10.667,10.667h7.979c-37.286,42.31-125.313,148.975-125.313,213.333
	C106.667,445.01,173.667,512,256,512s149.333-66.99,149.333-149.333c0-64.358-88.026-171.023-125.313-213.333H288z"/>
<g>
</g>
<g>
</g>
<g>
</g>
<g>
</g>
<g>
</g>
<g>
</g>
<g>
</g>
<g>
</g>
<g>
</g>
<g>
</g>
<g>
</g>
<g>
</g>
<g>
</g>
<g>
</g>
<g>
</g>
</svg>
