<?xml version="1.0" encoding="iso-8859-1"?>
<!-- Generator: Adobe Illustrator 19.0.0, SVG Export Plug-In . SVG Version: 6.00 Build 0)  -->
<svg version="1.1" id="Capa_1" xmlns="http://www.w3.org/2000/svg" xmlns:xlink="http://www.w3.org/1999/xlink" x="0px" y="0px"
	 viewBox="0 0 469.333 469.333" style="enable-background:new 0 0 469.333 469.333;" xml:space="preserve">
<path style="fill:#303C42;" d="M466.208,451.125l-56.458-56.458l6.25-6.25c8.313-8.313,8.313-21.854,0-30.156l-19.941-19.98
	c19.281-29.927,30.608-65.444,30.608-103.613c0-105.865-86.125-192-192-192c-38.174,0-73.693,11.328-103.621,30.612l-19.962-19.945
	c-8.333-8.313-21.833-8.313-30.167,0l-6.25,6.25L18.208,3.125c-4.167-4.167-10.917-4.167-15.083,0s-4.167,10.917,0,15.083
	l56.458,56.458l-6.25,6.25c-8.313,8.313-8.313,21.854-0.021,30.156l19.941,20.014c-19.268,29.921-30.587,65.423-30.587,103.579
	c0,105.865,86.125,192,192,192c38.18,0,73.702-11.331,103.632-30.618L358.25,416c4.167,4.156,9.625,6.24,15.083,6.24
	s10.917-2.083,15.083-6.24l6.25-6.25l56.458,56.458c2.083,2.083,4.813,3.125,7.542,3.125c2.729,0,5.458-1.042,7.542-3.125
	C470.375,462.042,470.375,455.292,466.208,451.125z"/>
<path style="fill:#934721;" d="M114.208,114.208c5-5.01,12.792-7.5,22.688-7.5c32.875,0,88.979,27.594,143.563,82.167
	c70.979,70.99,96.333,144.594,74.667,166.25c-21.646,21.646-95.229-3.677-166.25-74.667
	C117.896,209.469,92.542,135.865,114.208,114.208z"/>
<path style="fill:#BF6B29;" d="M405.333,234.667c0,30.885-8.372,59.799-22.78,84.819c-5.77-41.148-36.927-95.609-87.012-145.694
	c-50.095-50.082-104.546-81.247-145.697-87.01C174.866,72.372,203.78,64,234.667,64C328.771,64,405.333,140.563,405.333,234.667z"/>
<path style="fill:#994822;" d="M68.417,96L96,68.417l17.496,17.482c-10.113,8.253-19.363,17.508-27.615,27.622L68.417,96z"/>
<path style="fill:#793518;" d="M64,234.667c0-30.885,8.372-59.799,22.78-84.819c5.77,41.148,36.927,95.609,87.012,145.694
	c50.148,50.139,104.629,81.232,145.792,86.952c-25.043,14.443-53.99,22.84-84.917,22.84C140.563,405.333,64,328.771,64,234.667z"/>
<path style="fill:#994822;" d="M355.845,383.428c10.107-8.247,19.352-17.496,27.599-27.603l17.473,17.508l-27.583,27.583
	L355.845,383.428z"/>
<linearGradient id="SVGID_1_" gradientUnits="userSpaceOnUse" x1="-69.136" y1="619.2598" x2="-42.9369" y2="607.0422" gradientTransform="matrix(21.3333 0 0 -21.3333 1430.1112 13315.2227)">
	<stop  offset="0" style="stop-color:#FFFFFF;stop-opacity:0.2"/>
	<stop  offset="1" style="stop-color:#FFFFFF;stop-opacity:0"/>
</linearGradient>
<path style="fill:url(#SVGID_1_);" d="M466.208,451.125l-56.458-56.458l6.25-6.25c8.313-8.313,8.313-21.854,0-30.156l-19.941-19.98
	c19.281-29.927,30.608-65.444,30.608-103.613c0-105.865-86.125-192-192-192c-38.174,0-73.693,11.328-103.621,30.612l-19.962-19.945
	c-8.333-8.313-21.833-8.313-30.167,0l-6.25,6.25L18.208,3.125c-4.167-4.167-10.917-4.167-15.083,0s-4.167,10.917,0,15.083
	l56.458,56.458l-6.25,6.25c-8.313,8.313-8.313,21.854-0.021,30.156l19.941,20.014c-19.268,29.921-30.587,65.423-30.587,103.579
	c0,105.865,86.125,192,192,192c38.18,0,73.702-11.331,103.632-30.618L358.25,416c4.167,4.156,9.625,6.24,15.083,6.24
	s10.917-2.083,15.083-6.24l6.25-6.25l56.458,56.458c2.083,2.083,4.813,3.125,7.542,3.125c2.729,0,5.458-1.042,7.542-3.125
	C470.375,462.042,470.375,455.292,466.208,451.125z"/>
<g>
</g>
<g>
</g>
<g>
</g>
<g>
</g>
<g>
</g>
<g>
</g>
<g>
</g>
<g>
</g>
<g>
</g>
<g>
</g>
<g>
</g>
<g>
</g>
<g>
</g>
<g>
</g>
<g>
</g>
</svg>
