<?xml version="1.0" encoding="iso-8859-1"?>
<!-- Generator: Adobe Illustrator 19.0.0, SVG Export Plug-In . SVG Version: 6.00 Build 0)  -->
<svg version="1.1" id="Capa_1" xmlns="http://www.w3.org/2000/svg" xmlns:xlink="http://www.w3.org/1999/xlink" x="0px" y="0px"
	 viewBox="0 0 512 512" style="enable-background:new 0 0 512 512;" xml:space="preserve">
<path style="fill:#303C42;" d="M479.438,307.667c-10.993-10.936-27.988-11.388-40.039-2.34c-2.779-4.786-3.642-9.374-4.503-15.014
	c-1.438-9.469-3.25-21.26-15.979-33.99c-12.75-12.74-24.542-14.552-34.021-16c-8.333-1.271-14.354-2.188-22.146-9.99
	c-7.792-7.802-8.729-13.823-10-22.167c-1.458-9.479-3.25-21.271-16-34.01c-12.75-12.75-24.542-14.563-34.021-16.01
	c-8.333-1.281-14.354-2.208-22.167-10c-7.813-7.823-8.75-13.854-10.042-22.208c-1.458-9.49-3.292-21.292-16.042-34.042
	c-12.75-12.76-24.563-14.583-34.042-16.042c-5.036-0.779-9.234-1.612-13.483-3.716c8.707-12.034,8.184-28.741-2.642-39.576
	c-43.417-43.417-114.083-43.417-157.5,0l-14.25,14.24c-43.417,43.427-43.417,114.073,0,157.51c6.021,5.99,13.896,8.99,21.792,8.99
	c6.436,0,12.609-2.517,18.025-6.499c2.406,4.497,3.268,8.884,4.079,14.207c1.438,9.469,3.229,21.25,15.958,33.99
	c12.75,12.74,24.542,14.552,34,16c8.354,1.281,14.375,2.198,22.167,10c7.813,7.802,8.729,13.823,10,22.156
	c1.458,9.479,3.271,21.271,16.021,34.021c12.75,12.74,24.521,14.552,34,16c8.333,1.281,14.354,2.208,22.167,10.01
	c7.833,7.823,8.75,13.854,10.042,22.208c1.458,9.479,3.292,21.281,16.042,34.042c12.75,12.76,24.563,14.583,34.042,16.042
	c5.355,0.828,9.766,1.701,14.296,4.142c-8.876,12.047-8.395,28.896,2.496,39.796c21.708,21.708,50.229,32.563,78.75,32.563
	c28.521,0,57.042-10.854,78.75-32.563l14.25-14.24C522.854,421.75,522.854,351.104,479.438,307.667z M62.104,131.188
	c-1.729-14.833,3.208-29.979,14.042-40.823l14.229-14.24c9.417-9.406,22.063-14.365,34.958-14.365c1.958,0,3.917,0.115,5.875,0.344
	L62.104,131.188z M319.902,423.638c-9.553-6.573-18.374-8.107-25.757-9.242c-8.354-1.292-14.375-2.219-22.208-10.042
	c-7.833-7.823-8.75-13.854-10.042-22.208c-1.458-9.479-3.292-21.281-16.042-34.042c-12.75-12.75-24.542-14.563-34.021-16.01
	c-8.333-1.281-14.354-2.198-22.146-10c-7.813-7.802-8.729-13.833-10-22.167c-1.458-9.479-3.271-21.271-16.021-34.01
	c-12.75-12.74-24.542-14.552-34-16c-8.354-1.281-14.375-2.198-22.167-10c-7.771-7.781-8.688-13.792-9.958-22.125
	c-1.118-7.37-2.638-16.168-9.182-25.704l39.736-39.74c9.555,6.572,18.376,8.102,25.759,9.246
	c8.354,1.281,14.375,2.208,22.208,10.031c7.833,7.823,8.75,13.854,10.042,22.208c1.458,9.479,3.292,21.281,16.042,34.042
	c12.75,12.75,24.542,14.563,34.021,16.01c8.333,1.281,14.354,2.198,22.146,10c7.792,7.802,8.729,13.823,10,22.156
	c1.458,9.479,3.271,21.281,16.021,34.021c12.729,12.74,24.521,14.552,34,16c8.333,1.281,14.354,2.198,22.146,10
	c7.792,7.781,8.708,13.802,9.979,22.125c1.118,7.371,2.642,16.172,9.188,25.704L319.902,423.638z M371.542,354.969
	c-1.438-9.469-3.25-21.26-15.979-33.99c-12.729-12.74-24.521-14.552-34-16c-8.333-1.281-14.354-2.198-22.146-10
	c-7.813-7.802-8.729-13.833-10.021-22.167c-1.458-9.479-3.271-21.271-16-34.01c-12.75-12.74-24.521-14.552-34-16
	c-8.333-1.281-14.354-2.208-22.167-10.01c-7.833-7.823-8.75-13.854-10.042-22.208c-1.458-9.479-3.292-21.281-16.042-34.042
	s-24.563-14.573-34.042-16.042c-5.029-0.771-9.223-1.6-13.465-3.697l48.513-48.517c9.281,6.161,17.835,7.543,25.035,8.651
	c8.354,1.292,14.375,2.219,22.208,10.042c7.833,7.823,8.75,13.854,10.042,22.208c1.458,9.479,3.292,21.281,16.042,34.042
	c12.75,12.74,24.542,14.552,34.021,16c8.333,1.281,14.354,2.208,22.167,10.01c7.792,7.802,8.729,13.823,10,22.156
	c1.458,9.479,3.25,21.271,16,34.021c12.75,12.74,24.542,14.552,34.021,16c8.333,1.271,14.354,2.188,22.146,9.99
	c7.792,7.792,8.708,13.802,9.979,22.135c1.146,7.549,2.801,16.611,9.767,26.411l-48.389,48.393
	C373.122,364.134,372.303,359.961,371.542,354.969z M435.854,421.615l-14.229,14.24c-10.854,10.833-26,15.698-40.833,14.021
	l69.104-69.083C451.625,395.625,446.688,410.771,435.854,421.615z"/>
<g>
	<path style="fill:#44B3E6;" d="M464.354,322.76c-3.708-3.688-9.708-3.698-13.417,0.01L322.771,450.938
		c-3.688,3.688-3.688,9.698,0,13.396c35.125,35.083,92.208,35.083,127.333,0l14.25-14.24
		C499.458,414.99,499.458,357.865,464.354,322.76z M450.938,436.698l-14.229,14.24c-13.5,13.49-31.625,20.615-50.063,20.615
		c-10.375,0-20.854-2.26-30.625-6.906c-3.146-1.49-5.354-4.406-5.958-7.823c-0.583-3.417,0.521-6.906,2.979-9.354l94.438-94.438
		c2.458-2.448,5.958-3.573,9.354-2.969c3.417,0.594,6.333,2.802,7.833,5.938C477.542,383.167,472.042,415.594,450.938,436.698z"/>
	<path style="fill:#44B3E6;" d="M189.229,47.646c-17.563-17.552-40.604-26.323-63.667-26.323s-46.104,8.771-63.667,26.323
		l-14.25,14.24c-35.104,35.104-35.104,92.229,0,127.333c3.708,3.688,9.708,3.698,13.417-0.01L189.229,61.042
		C192.917,57.354,192.917,51.333,189.229,47.646z M158.958,64.51l-94.438,94.438c-2.021,2.021-4.729,3.125-7.542,3.125
		c-0.604,0-1.208-0.052-1.813-0.156c-3.417-0.594-6.333-2.802-7.833-5.938c-12.875-27.167-7.375-59.604,13.729-80.698l14.229-14.24
		c21.083-21.083,53.542-26.615,80.688-13.708c3.146,1.49,5.354,4.406,5.958,7.823C162.521,58.573,161.417,62.063,158.958,64.51z"/>
</g>
<linearGradient id="SVGID_1_" gradientUnits="userSpaceOnUse" x1="-47.3475" y1="640.3806" x2="-22.0588" y2="628.5882" gradientTransform="matrix(21.3333 0 0 -21.3333 996.3334 13791.667)">
	<stop  offset="0" style="stop-color:#FFFFFF;stop-opacity:0.2"/>
	<stop  offset="1" style="stop-color:#FFFFFF;stop-opacity:0"/>
</linearGradient>
<path style="fill:url(#SVGID_1_);" d="M479.438,307.679c-10.993-10.937-27.988-11.388-40.039-2.34
	c-2.779-4.787-3.642-9.374-4.503-15.015c-1.438-9.469-3.25-21.261-15.979-33.991c-12.75-12.74-24.542-14.553-34.021-16.001
	c-8.333-1.271-14.354-2.188-22.146-9.99c-7.792-7.802-8.729-13.823-10-22.168c-1.458-9.48-3.25-21.272-16-34.012
	c-12.75-12.751-24.542-14.563-34.021-16.011c-8.333-1.281-14.354-2.208-22.167-10c-7.813-7.823-8.75-13.855-10.042-22.209
	c-1.458-9.49-3.292-21.293-16.042-34.043c-12.75-12.761-24.563-14.584-34.042-16.042c-5.036-0.779-9.234-1.612-13.483-3.716
	c8.707-12.034,8.184-28.742-2.642-39.577c-43.417-43.418-114.083-43.418-157.5,0l-14.25,14.24
	c-43.417,43.429-43.417,114.078,0,157.517c6.021,5.99,13.896,8.99,21.792,8.99c6.436,0,12.609-2.517,18.025-6.499
	c2.406,4.498,3.268,8.884,4.079,14.208c1.438,9.469,3.229,21.251,15.958,33.991c12.75,12.74,24.542,14.553,34,16.001
	c8.354,1.281,14.375,2.198,22.167,10c7.813,7.802,8.729,13.823,10,22.157c1.458,9.48,3.271,21.272,16.021,34.022
	c12.75,12.74,24.521,14.553,34,16.001c8.333,1.281,14.354,2.208,22.167,10.011c7.833,7.823,8.75,13.855,10.042,22.209
	c1.458,9.48,3.292,21.282,16.042,34.043c12.75,12.761,24.563,14.584,34.042,16.042c5.355,0.828,9.766,1.701,14.296,4.142
	c-8.876,12.047-8.395,28.897,2.496,39.797C329.396,501.145,357.917,512,386.438,512c28.521,0,57.042-10.855,78.75-32.564
	l14.25-14.24C522.854,421.767,522.854,351.118,479.438,307.679z M62.104,131.193c-1.729-14.834,3.208-29.98,14.042-40.825
	l14.229-14.24c9.417-9.407,22.063-14.365,34.958-14.365c1.958,0,3.917,0.115,5.875,0.344L62.104,131.193z M319.902,423.655
	c-9.553-6.573-18.374-8.107-25.757-9.243c-8.354-1.292-14.375-2.219-22.208-10.042c-7.833-7.823-8.75-13.855-10.042-22.209
	c-1.458-9.48-3.292-21.282-16.042-34.043c-12.75-12.751-24.542-14.563-34.021-16.011c-8.333-1.281-14.354-2.198-22.146-10
	c-7.813-7.802-8.729-13.834-10-22.168c-1.458-9.48-3.271-21.272-16.021-34.012s-24.542-14.553-34-16.001
	c-8.354-1.281-14.375-2.198-22.167-10c-7.771-7.782-8.688-13.792-9.958-22.126c-1.118-7.37-2.638-16.169-9.182-25.705l39.736-39.741
	c9.555,6.572,18.376,8.102,25.759,9.246c8.354,1.281,14.375,2.208,22.208,10.032c7.833,7.823,8.75,13.855,10.042,22.209
	c1.458,9.48,3.292,21.282,16.042,34.043c12.75,12.751,24.542,14.563,34.021,16.011c8.333,1.281,14.354,2.198,22.146,10
	c7.792,7.802,8.729,13.823,10,22.157c1.458,9.48,3.271,21.282,16.021,34.022c12.729,12.74,24.521,14.553,34,16.001
	c8.333,1.281,14.354,2.198,22.146,10c7.792,7.782,8.708,13.803,9.979,22.126c1.118,7.371,2.642,16.173,9.188,25.705L319.902,423.655
	z M371.542,354.983c-1.438-9.469-3.25-21.261-15.979-33.991c-12.729-12.74-24.521-14.553-34-16.001
	c-8.333-1.281-14.354-2.198-22.146-10c-7.813-7.802-8.729-13.834-10.021-22.168c-1.458-9.48-3.271-21.272-16-34.012
	c-12.75-12.74-24.521-14.553-34-16.001c-8.333-1.281-14.354-2.208-22.167-10.011c-7.833-7.823-8.75-13.855-10.042-22.209
	c-1.458-9.48-3.292-21.282-16.042-34.043c-12.75-12.761-24.563-14.574-34.042-16.042c-5.029-0.771-9.223-1.6-13.465-3.697
	l48.513-48.519c9.281,6.162,17.835,7.543,25.035,8.651c8.354,1.292,14.375,2.219,22.208,10.042
	c7.833,7.823,8.75,13.855,10.042,22.209c1.458,9.48,3.292,21.282,16.042,34.043c12.75,12.74,24.542,14.553,34.021,16.001
	c8.333,1.281,14.354,2.208,22.167,10.011c7.792,7.802,8.729,13.823,10,22.157c1.458,9.48,3.25,21.272,16,34.022
	c12.75,12.74,24.542,14.553,34.021,16.001c8.333,1.271,14.354,2.188,22.146,9.99c7.792,7.792,8.708,13.803,9.979,22.136
	c1.146,7.55,2.801,16.611,9.767,26.413l-48.389,48.395C373.122,364.149,372.303,359.976,371.542,354.983z M435.854,421.632
	l-14.229,14.24c-10.854,10.834-26,15.699-40.833,14.021l69.104-69.086C451.625,395.641,446.688,410.788,435.854,421.632z"/>
<g>
</g>
<g>
</g>
<g>
</g>
<g>
</g>
<g>
</g>
<g>
</g>
<g>
</g>
<g>
</g>
<g>
</g>
<g>
</g>
<g>
</g>
<g>
</g>
<g>
</g>
<g>
</g>
<g>
</g>
</svg>
