<?xml version="1.0" encoding="iso-8859-1"?>
<!-- Generator: Adobe Illustrator 19.0.0, SVG Export Plug-In . SVG Version: 6.00 Build 0)  -->
<svg version="1.1" id="Capa_1" xmlns="http://www.w3.org/2000/svg" xmlns:xlink="http://www.w3.org/1999/xlink" x="0px" y="0px"
	 viewBox="0 0 480 480" style="enable-background:new 0 0 480 480;" xml:space="preserve">
<g>
	<path style="fill:#59CD90;" d="M376,472L376,472c-53.016,0-96-42.984-96-96V272.968c0-10.864-4.32-21.288-12-28.968l0,0
		c-7.68-7.68-12-18.104-12-28.968V80c0-39.768,32.232-72,72-72l0,0c79.528,0,144,64.472,144,144v224
		C472,429.016,429.016,472,376,472z"/>
	<path style="fill:#59CD90;" d="M224,215.032V80c0-39.768-32.232-72-72-72l0,0C72.472,8,8,72.472,8,152v224
		c0,53.016,42.984,96,96,96l0,0c53.016,0,96-42.984,96-96V272.968c0-10.864,4.32-21.288,12-28.968l0,0
		C219.68,236.32,224,225.896,224,215.032z"/>
</g>
<g>
	<path style="fill:#FAC05E;" d="M376,440L376,440c-35.344,0-64-28.656-64-64v-96l16,16h96l16-16v96C440,411.344,411.344,440,376,440
		z"/>
	<path style="fill:#FAC05E;" d="M104,440L104,440c-35.344,0-64-28.656-64-64v-96l16,16h96l16-16v96C168,411.344,139.344,440,104,440
		z"/>
</g>
<g>
	<path style="fill:#0F272A;" d="M328,0c-44.112,0-80,35.888-80,80v135.032c0,13.072,5.096,25.368,14.344,34.624
		c6.136,6.144,9.656,14.64,9.656,23.312V376c0,57.344,46.656,104,104,104s104-46.656,104-104V152C480,68.184,411.816,0,328,0z
		 M464,376c0,48.52-39.48,88-88,88s-88-39.48-88-88V272.968c0-13.072-5.096-25.368-14.344-34.624
		C267.52,232.2,264,223.704,264,215.032V80c0-35.288,28.712-64,64-64c74.992,0,136,61.008,136,136V376z"/>
	<path style="fill:#0F272A;" d="M104,480c57.344,0,104-46.656,104-104V272.968c0-8.808,3.432-17.088,9.656-23.312
		c9.248-9.24,14.344-21.536,14.344-34.624V80c0-44.112-35.888-80-80-80C68.184,0,0,68.184,0,152v224C0,433.344,46.656,480,104,480z
		 M16,152C16,77.008,77.008,16,152,16c35.288,0,64,28.712,64,64v135.032c0,8.808-3.432,17.088-9.656,23.312
		C197.096,247.584,192,259.88,192,272.968V376c0,48.52-39.48,88-88,88s-88-39.48-88-88V152z"/>
	<path style="fill:#0F272A;" d="M440,176v-16h-16v-24c0-4.416-3.576-8-8-8h-80c-4.424,0-8,3.584-8,8v24h-16v16h16v16h-16v16h16v16
		h-16v16h11.056l-18.216,36.424l0.072,0.04C304.376,277.552,304,278.728,304,280v96c0,39.696,32.296,72,72,72s72-32.304,72-72v-96
		c0-1.272-0.376-2.448-0.92-3.544l0.072-0.04L428.944,240H440v-16h-16v-16h16v-16h-16v-16H440z M344,144h64v16h-64V144z M432,376
		c0,30.88-25.128,56-56,56s-56-25.12-56-56v-76.688l2.344,2.344C323.84,303.16,325.872,304,328,304h96
		c2.128,0,4.16-0.84,5.656-2.344l2.344-2.344V376z M430.264,278.424L420.688,288h-89.376l-9.576-9.576L340.944,240h70.112
		L430.264,278.424z M408,224h-64v-16h64V224z M408,192h-64v-16h64V192z"/>
	<path style="fill:#0F272A;" d="M384,344v-16h-32c-2.848,0-5.488,1.52-6.92,3.984c-1.432,2.464-1.44,5.504-0.024,7.984l32,56
		l13.888-7.936L365.792,344H384z"/>
	<path style="fill:#0F272A;" d="M104,448c39.704,0,72-32.304,72-72v-96c0-1.272-0.376-2.448-0.92-3.544l0.072-0.04L156.944,240H168
		v-16h-16v-16h16v-16h-16v-16h16v-16h-16v-24c0-4.416-3.576-8-8-8H64c-4.424,0-8,3.584-8,8v24H40v16h16v16H40v16h16v16H40v16h11.056
		L32.84,276.424l0.072,0.04C32.376,277.552,32,278.728,32,280v96C32,415.696,64.296,448,104,448z M72,144h64v16H72V144z M72,176h64
		v16H72V176z M72,208h64v16H72V208z M139.056,240l19.208,38.424L148.688,288H59.312l-9.576-9.576L68.944,240H139.056z M48,299.312
		l2.344,2.344C51.84,303.16,53.872,304,56,304h96c2.128,0,4.16-0.84,5.656-2.344l2.344-2.344V376c0,30.88-25.128,56-56,56
		s-56-25.12-56-56V299.312z"/>
	<path style="fill:#0F272A;" d="M105.056,395.968l13.888-7.936L93.792,344H112v-16H80c-2.848,0-5.488,1.52-6.92,3.984
		c-1.432,2.464-1.44,5.504-0.024,7.984L105.056,395.968z"/>
</g>
<g>
</g>
<g>
</g>
<g>
</g>
<g>
</g>
<g>
</g>
<g>
</g>
<g>
</g>
<g>
</g>
<g>
</g>
<g>
</g>
<g>
</g>
<g>
</g>
<g>
</g>
<g>
</g>
<g>
</g>
</svg>
