<?xml version="1.0" encoding="iso-8859-1"?>
<!-- Generator: Adobe Illustrator 19.0.0, SVG Export Plug-In . SVG Version: 6.00 Build 0)  -->
<svg version="1.1" id="Capa_1" xmlns="http://www.w3.org/2000/svg" xmlns:xlink="http://www.w3.org/1999/xlink" x="0px" y="0px"
	 viewBox="0 0 480 480" style="enable-background:new 0 0 480 480;" xml:space="preserve">
<path style="fill:#50D4E3;" d="M440,472H40c-17.672,0-32-14.328-32-32V40C8,22.328,22.328,8,40,8h400c17.672,0,32,14.328,32,32v400
	C472,457.672,457.672,472,440,472z"/>
<rect x="120" y="48" style="fill:#FAC05E;" width="240" height="112"/>
<g>
	<path style="fill:#0F272A;" d="M440,0H40C17.944,0,0,17.944,0,40v400c0,22.056,17.944,40,40,40h400c22.056,0,40-17.944,40-40V40
		C480,17.944,462.056,0,440,0z M40,16h400c13.232,0,24,10.768,24,24v56h-96V48c0-4.424-3.584-8-8-8H120c-4.416,0-8,3.576-8,8v48H16
		V40C16,26.768,26.768,16,40,16z M352,56v96H128V56H352z M440,464H40c-13.232,0-24-10.768-24-24V112h96v48c0,4.424,3.584,8,8,8h240
		c4.416,0,8-3.576,8-8v-48h96v328C464,453.232,453.232,464,440,464z"/>
	<path style="fill:#0F272A;" d="M152,136h32c4.416,0,8-3.576,8-8V80c0-4.424-3.584-8-8-8h-32c-4.416,0-8,3.576-8,8v48
		C144,132.424,147.584,136,152,136z M160,88h16v32h-16V88z"/>
	<path style="fill:#0F272A;" d="M216,136h32c4.416,0,8-3.576,8-8V80c0-4.424-3.584-8-8-8h-32c-4.416,0-8,3.576-8,8v48
		C208,132.424,211.584,136,216,136z M224,88h16v32h-16V88z"/>
	<path style="fill:#0F272A;" d="M296,136h32c4.416,0,8-3.576,8-8V80c0-4.424-3.584-8-8-8h-32c-4.416,0-8,3.576-8,8v48
		C288,132.424,291.584,136,296,136z M304,88h16v32h-16V88z"/>
	<rect x="48" y="208" style="fill:#0F272A;" width="16" height="16"/>
	<rect x="80" y="208" style="fill:#0F272A;" width="16" height="16"/>
	<rect x="112" y="208" style="fill:#0F272A;" width="16" height="16"/>
	<rect x="144" y="208" style="fill:#0F272A;" width="16" height="16"/>
	<rect x="176" y="208" style="fill:#0F272A;" width="16" height="16"/>
	<rect x="208" y="208" style="fill:#0F272A;" width="16" height="16"/>
	<rect x="64" y="224" style="fill:#0F272A;" width="16" height="16"/>
	<rect x="96" y="224" style="fill:#0F272A;" width="16" height="16"/>
	<rect x="128" y="224" style="fill:#0F272A;" width="16" height="16"/>
	<rect x="160" y="224" style="fill:#0F272A;" width="16" height="16"/>
	<rect x="192" y="224" style="fill:#0F272A;" width="16" height="16"/>
	<rect x="48" y="240" style="fill:#0F272A;" width="16" height="16"/>
	<rect x="80" y="240" style="fill:#0F272A;" width="16" height="16"/>
	<rect x="112" y="240" style="fill:#0F272A;" width="16" height="16"/>
	<rect x="144" y="240" style="fill:#0F272A;" width="16" height="16"/>
	<rect x="176" y="240" style="fill:#0F272A;" width="16" height="16"/>
	<rect x="208" y="240" style="fill:#0F272A;" width="16" height="16"/>
	<rect x="64" y="256" style="fill:#0F272A;" width="16" height="16"/>
	<rect x="96" y="256" style="fill:#0F272A;" width="16" height="16"/>
	<rect x="128" y="256" style="fill:#0F272A;" width="16" height="16"/>
	<rect x="160" y="256" style="fill:#0F272A;" width="16" height="16"/>
	<rect x="192" y="256" style="fill:#0F272A;" width="16" height="16"/>
	<rect x="48" y="272" style="fill:#0F272A;" width="16" height="16"/>
	<rect x="80" y="272" style="fill:#0F272A;" width="16" height="16"/>
	<rect x="112" y="272" style="fill:#0F272A;" width="16" height="16"/>
	<rect x="144" y="272" style="fill:#0F272A;" width="16" height="16"/>
	<rect x="176" y="272" style="fill:#0F272A;" width="16" height="16"/>
	<rect x="208" y="272" style="fill:#0F272A;" width="16" height="16"/>
	<rect x="64" y="288" style="fill:#0F272A;" width="16" height="16"/>
	<rect x="96" y="288" style="fill:#0F272A;" width="16" height="16"/>
	<rect x="128" y="288" style="fill:#0F272A;" width="16" height="16"/>
	<rect x="160" y="288" style="fill:#0F272A;" width="16" height="16"/>
	<rect x="192" y="288" style="fill:#0F272A;" width="16" height="16"/>
	<rect x="48" y="304" style="fill:#0F272A;" width="16" height="16"/>
	<rect x="80" y="304" style="fill:#0F272A;" width="16" height="16"/>
	<rect x="112" y="304" style="fill:#0F272A;" width="16" height="16"/>
	<rect x="144" y="304" style="fill:#0F272A;" width="16" height="16"/>
	<rect x="176" y="304" style="fill:#0F272A;" width="16" height="16"/>
	<rect x="208" y="304" style="fill:#0F272A;" width="16" height="16"/>
	<rect x="64" y="320" style="fill:#0F272A;" width="16" height="16"/>
	<rect x="96" y="320" style="fill:#0F272A;" width="16" height="16"/>
	<rect x="128" y="320" style="fill:#0F272A;" width="16" height="16"/>
	<rect x="160" y="320" style="fill:#0F272A;" width="16" height="16"/>
	<rect x="192" y="320" style="fill:#0F272A;" width="16" height="16"/>
	<rect x="48" y="336" style="fill:#0F272A;" width="16" height="16"/>
	<rect x="80" y="336" style="fill:#0F272A;" width="16" height="16"/>
	<rect x="112" y="336" style="fill:#0F272A;" width="16" height="16"/>
	<rect x="144" y="336" style="fill:#0F272A;" width="16" height="16"/>
	<rect x="176" y="336" style="fill:#0F272A;" width="16" height="16"/>
	<rect x="208" y="336" style="fill:#0F272A;" width="16" height="16"/>
	<rect x="64" y="352" style="fill:#0F272A;" width="16" height="16"/>
	<rect x="96" y="352" style="fill:#0F272A;" width="16" height="16"/>
	<rect x="128" y="352" style="fill:#0F272A;" width="16" height="16"/>
	<rect x="160" y="352" style="fill:#0F272A;" width="16" height="16"/>
	<rect x="192" y="352" style="fill:#0F272A;" width="16" height="16"/>
	<rect x="48" y="368" style="fill:#0F272A;" width="16" height="16"/>
	<rect x="80" y="368" style="fill:#0F272A;" width="16" height="16"/>
	<rect x="112" y="368" style="fill:#0F272A;" width="16" height="16"/>
	<rect x="144" y="368" style="fill:#0F272A;" width="16" height="16"/>
	<rect x="176" y="368" style="fill:#0F272A;" width="16" height="16"/>
	<rect x="208" y="368" style="fill:#0F272A;" width="16" height="16"/>
	<rect x="64" y="384" style="fill:#0F272A;" width="16" height="16"/>
	<rect x="96" y="384" style="fill:#0F272A;" width="16" height="16"/>
	<rect x="128" y="384" style="fill:#0F272A;" width="16" height="16"/>
	<rect x="160" y="384" style="fill:#0F272A;" width="16" height="16"/>
	<rect x="192" y="384" style="fill:#0F272A;" width="16" height="16"/>
	<rect x="48" y="400" style="fill:#0F272A;" width="16" height="16"/>
	<rect x="80" y="400" style="fill:#0F272A;" width="16" height="16"/>
	<rect x="112" y="400" style="fill:#0F272A;" width="16" height="16"/>
	<rect x="144" y="400" style="fill:#0F272A;" width="16" height="16"/>
	<rect x="176" y="400" style="fill:#0F272A;" width="16" height="16"/>
	<rect x="208" y="400" style="fill:#0F272A;" width="16" height="16"/>
	<rect x="256" y="208" style="fill:#0F272A;" width="16" height="16"/>
	<rect x="288" y="208" style="fill:#0F272A;" width="16" height="16"/>
	<rect x="320" y="208" style="fill:#0F272A;" width="16" height="16"/>
	<rect x="352" y="208" style="fill:#0F272A;" width="16" height="16"/>
	<rect x="384" y="208" style="fill:#0F272A;" width="16" height="16"/>
	<rect x="416" y="208" style="fill:#0F272A;" width="16" height="16"/>
	<rect x="272" y="224" style="fill:#0F272A;" width="16" height="16"/>
	<rect x="304" y="224" style="fill:#0F272A;" width="16" height="16"/>
	<rect x="336" y="224" style="fill:#0F272A;" width="16" height="16"/>
	<rect x="368" y="224" style="fill:#0F272A;" width="16" height="16"/>
	<rect x="400" y="224" style="fill:#0F272A;" width="16" height="16"/>
	<rect x="256" y="240" style="fill:#0F272A;" width="16" height="16"/>
	<rect x="288" y="240" style="fill:#0F272A;" width="16" height="16"/>
	<rect x="320" y="240" style="fill:#0F272A;" width="16" height="16"/>
	<rect x="352" y="240" style="fill:#0F272A;" width="16" height="16"/>
	<rect x="384" y="240" style="fill:#0F272A;" width="16" height="16"/>
	<rect x="416" y="240" style="fill:#0F272A;" width="16" height="16"/>
	<rect x="272" y="256" style="fill:#0F272A;" width="16" height="16"/>
	<rect x="304" y="256" style="fill:#0F272A;" width="16" height="16"/>
	<rect x="336" y="256" style="fill:#0F272A;" width="16" height="16"/>
	<rect x="368" y="256" style="fill:#0F272A;" width="16" height="16"/>
	<rect x="400" y="256" style="fill:#0F272A;" width="16" height="16"/>
	<rect x="256" y="272" style="fill:#0F272A;" width="16" height="16"/>
	<rect x="288" y="272" style="fill:#0F272A;" width="16" height="16"/>
	<rect x="320" y="272" style="fill:#0F272A;" width="16" height="16"/>
	<rect x="352" y="272" style="fill:#0F272A;" width="16" height="16"/>
	<rect x="384" y="272" style="fill:#0F272A;" width="16" height="16"/>
	<rect x="416" y="272" style="fill:#0F272A;" width="16" height="16"/>
	<rect x="272" y="288" style="fill:#0F272A;" width="16" height="16"/>
	<rect x="304" y="288" style="fill:#0F272A;" width="16" height="16"/>
	<rect x="336" y="288" style="fill:#0F272A;" width="16" height="16"/>
	<rect x="368" y="288" style="fill:#0F272A;" width="16" height="16"/>
	<rect x="400" y="288" style="fill:#0F272A;" width="16" height="16"/>
	<rect x="256" y="304" style="fill:#0F272A;" width="16" height="16"/>
	<rect x="288" y="304" style="fill:#0F272A;" width="16" height="16"/>
	<rect x="320" y="304" style="fill:#0F272A;" width="16" height="16"/>
	<rect x="352" y="304" style="fill:#0F272A;" width="16" height="16"/>
	<rect x="384" y="304" style="fill:#0F272A;" width="16" height="16"/>
	<rect x="416" y="304" style="fill:#0F272A;" width="16" height="16"/>
	<rect x="272" y="320" style="fill:#0F272A;" width="16" height="16"/>
	<rect x="304" y="320" style="fill:#0F272A;" width="16" height="16"/>
	<rect x="336" y="320" style="fill:#0F272A;" width="16" height="16"/>
	<rect x="368" y="320" style="fill:#0F272A;" width="16" height="16"/>
	<rect x="400" y="320" style="fill:#0F272A;" width="16" height="16"/>
	<rect x="256" y="336" style="fill:#0F272A;" width="16" height="16"/>
	<rect x="288" y="336" style="fill:#0F272A;" width="16" height="16"/>
	<rect x="320" y="336" style="fill:#0F272A;" width="16" height="16"/>
	<rect x="352" y="336" style="fill:#0F272A;" width="16" height="16"/>
	<rect x="384" y="336" style="fill:#0F272A;" width="16" height="16"/>
	<rect x="416" y="336" style="fill:#0F272A;" width="16" height="16"/>
	<rect x="272" y="352" style="fill:#0F272A;" width="16" height="16"/>
	<rect x="304" y="352" style="fill:#0F272A;" width="16" height="16"/>
	<rect x="336" y="352" style="fill:#0F272A;" width="16" height="16"/>
	<rect x="368" y="352" style="fill:#0F272A;" width="16" height="16"/>
	<rect x="400" y="352" style="fill:#0F272A;" width="16" height="16"/>
	<rect x="256" y="368" style="fill:#0F272A;" width="16" height="16"/>
	<rect x="288" y="368" style="fill:#0F272A;" width="16" height="16"/>
	<rect x="320" y="368" style="fill:#0F272A;" width="16" height="16"/>
	<rect x="352" y="368" style="fill:#0F272A;" width="16" height="16"/>
	<rect x="384" y="368" style="fill:#0F272A;" width="16" height="16"/>
	<rect x="416" y="368" style="fill:#0F272A;" width="16" height="16"/>
	<rect x="272" y="384" style="fill:#0F272A;" width="16" height="16"/>
	<rect x="304" y="384" style="fill:#0F272A;" width="16" height="16"/>
	<rect x="336" y="384" style="fill:#0F272A;" width="16" height="16"/>
	<rect x="368" y="384" style="fill:#0F272A;" width="16" height="16"/>
	<rect x="400" y="384" style="fill:#0F272A;" width="16" height="16"/>
	<rect x="256" y="400" style="fill:#0F272A;" width="16" height="16"/>
	<rect x="288" y="400" style="fill:#0F272A;" width="16" height="16"/>
	<rect x="320" y="400" style="fill:#0F272A;" width="16" height="16"/>
	<rect x="352" y="400" style="fill:#0F272A;" width="16" height="16"/>
	<rect x="384" y="400" style="fill:#0F272A;" width="16" height="16"/>
	<rect x="416" y="400" style="fill:#0F272A;" width="16" height="16"/>
</g>
<g>
</g>
<g>
</g>
<g>
</g>
<g>
</g>
<g>
</g>
<g>
</g>
<g>
</g>
<g>
</g>
<g>
</g>
<g>
</g>
<g>
</g>
<g>
</g>
<g>
</g>
<g>
</g>
<g>
</g>
</svg>
