<?xml version="1.0" encoding="iso-8859-1"?>
<!-- Generator: Adobe Illustrator 19.0.0, SVG Export Plug-In . SVG Version: 6.00 Build 0)  -->
<svg version="1.1" id="Capa_1" xmlns="http://www.w3.org/2000/svg" xmlns:xlink="http://www.w3.org/1999/xlink" x="0px" y="0px"
	 viewBox="0 0 480 480" style="enable-background:new 0 0 480 480;" xml:space="preserve">
<g>
	<rect x="8" y="8" style="fill:#59CD90;" width="240" height="96"/>
	<rect x="232" y="376" style="fill:#59CD90;" width="240" height="96"/>
</g>
<path style="fill:#0F272A;" d="M424,328H52c-28.672,0-52,23.328-52,52s23.328,52,52,52h172v40c0,4.424,3.576,8,8,8h240
	c4.424,0,8-3.576,8-8v-96c0-4.424-3.576-8-8-8H232c-4.424,0-8,3.576-8,8v40H52c-19.848,0-36-16.152-36-36s16.152-36,36-36h372
	c30.872,0,56-25.128,56-56s-25.128-56-56-56H56c-22.056,0-40-17.944-40-40s17.944-40,40-40h372c28.672,0,52-23.328,52-52
	s-23.328-52-52-52H256V8c0-4.424-3.576-8-8-8H8C3.576,0,0,3.576,0,8v96c0,4.424,3.576,8,8,8h240c4.424,0,8-3.576,8-8V64h172
	c19.848,0,36,16.152,36,36s-16.152,36-36,36H56c-30.872,0-56,25.128-56,56s25.128,56,56,56h368c22.056,0,40,17.944,40,40
	S446.056,328,424,328z M464,464H280v-80h184V464z M240,384h24v80h-24V384z M16,16h184v80H16V16z M240,96h-24V16h24V96z"/>
<g>
</g>
<g>
</g>
<g>
</g>
<g>
</g>
<g>
</g>
<g>
</g>
<g>
</g>
<g>
</g>
<g>
</g>
<g>
</g>
<g>
</g>
<g>
</g>
<g>
</g>
<g>
</g>
<g>
</g>
</svg>
