<?xml version="1.0" encoding="iso-8859-1"?>
<!-- Generator: Adobe Illustrator 19.0.0, SVG Export Plug-In . SVG Version: 6.00 Build 0)  -->
<svg version="1.1" id="Capa_1" xmlns="http://www.w3.org/2000/svg" xmlns:xlink="http://www.w3.org/1999/xlink" x="0px" y="0px"
	 viewBox="0 0 512 512" style="enable-background:new 0 0 512 512;" xml:space="preserve">
<path style="fill:#303C42;" d="M394.667,170.667H384v-21.333c0-23.531-19.146-42.667-42.667-42.667h-1.023l-9.706-97.063
	C330.063,4.156,325.479,0,320,0H170.667c-5.479,0-10.063,4.156-10.604,9.604l-9.706,97.063h-1.023
	c-23.521,0-42.667,19.135-42.667,42.667v213.333c0,23.531,19.146,42.667,42.667,42.667h1.023l9.706,97.063
	c0.542,5.448,5.125,9.604,10.604,9.604H320c5.479,0,10.063-4.156,10.604-9.604l9.706-97.063h1.023
	c23.521,0,42.667-19.135,42.667-42.667c5.896,0,10.667-4.771,10.667-10.667v-64c0-5.896-4.771-10.667-10.667-10.667v-42.667h10.667
	c5.896,0,10.667-4.771,10.667-10.667v-42.667C405.333,175.438,400.563,170.667,394.667,170.667z"/>
<polygon style="fill:#BF6B29;" points="180.313,21.333 310.354,21.333 318.889,106.667 171.777,106.667 "/>
<path style="opacity:0.2;fill:#FFFFFF;enable-background:new    ;" d="M198.253,65.492c1.296-12.958,12.199-22.826,25.223-22.826
	h89.013l-2.134-21.333H180.313l-8.535,85.333h22.357L198.253,65.492z"/>
<polygon style="fill:#BF6B29;" points="310.354,490.667 180.313,490.667 171.777,405.333 318.889,405.333 "/>
<path style="opacity:0.1;fill:#010101;enable-background:new    ;" d="M295.466,405.333l-1.954,19.544
	c-1.919,19.182-18.06,33.789-37.337,33.789h-79.063l3.201,32h130.042l8.535-85.333H295.466z"/>
<path style="fill:#5C6771;" d="M362.667,362.667c0,11.76-9.563,21.333-21.333,21.333h-192C137.563,384,128,374.427,128,362.667
	V149.333c0-11.76,9.563-21.333,21.333-21.333h192c11.771,0,21.333,9.573,21.333,21.333v32V224V362.667z"/>
<path style="fill:#E57373;" d="M330.667,256h-22.958l-9.188-55.083c-0.833-4.99-5.042-8.708-10.104-8.906
	c-4.375-0.313-9.542,3.167-10.771,8.073l-20.854,83.406l-22.354-104.396c-1.042-4.844-5.292-8.344-10.25-8.427
	c-5.667-0.375-9.333,3.26-10.542,8.083l-25.021,100.021l-8.417-16.865c-1.813-3.625-5.5-5.906-9.542-5.906H160
	c-5.896,0-10.667,4.771-10.667,10.667c0,5.896,4.771,10.667,10.667,10.667h4.063l18.375,36.781c1.979,3.99,6.125,6.385,10.708,5.844
	c4.438-0.49,8.104-3.688,9.188-8.021l20.875-83.438l22.354,104.406c1.042,4.844,5.292,8.344,10.25,8.427c0.063,0,0.125,0,0.188,0
	c4.896,0,9.167-3.323,10.354-8.083l19.563-78.24l2.229,13.406c0.854,5.146,5.313,8.917,10.521,8.917h32
	c5.896,0,10.667-4.771,10.667-10.667C341.333,260.771,336.563,256,330.667,256z"/>
<linearGradient id="SVGID_1_" gradientUnits="userSpaceOnUse" x1="-41.7208" y1="637.5233" x2="-28.6854" y2="631.4455" gradientTransform="matrix(21.3333 0 0 -21.3333 996.3334 13791.667)">
	<stop  offset="0" style="stop-color:#FFFFFF;stop-opacity:0.2"/>
	<stop  offset="1" style="stop-color:#FFFFFF;stop-opacity:0"/>
</linearGradient>
<path style="fill:url(#SVGID_1_);" d="M362.667,362.667c0,11.76-9.563,21.333-21.333,21.333h-192
	C137.563,384,128,374.427,128,362.667V149.333c0-11.76,9.563-21.333,21.333-21.333h192c11.771,0,21.333,9.573,21.333,21.333v32V224
	V362.667z"/>
<linearGradient id="SVGID_2_" gradientUnits="userSpaceOnUse" x1="-36.9258" y1="629.2083" x2="-31.6804" y2="623.9589" gradientTransform="matrix(21.3333 0 0 -21.3333 996.3334 13791.667)">
	<stop  offset="0" style="stop-color:#010101;stop-opacity:0.1"/>
	<stop  offset="1" style="stop-color:#010101;stop-opacity:0"/>
</linearGradient>
<polygon style="fill:url(#SVGID_2_);" points="310.354,490.667 318.889,405.333 171.777,405.333 257.112,490.667 "/>
<linearGradient id="SVGID_3_" gradientUnits="userSpaceOnUse" x1="-42.9357" y1="638.0902" x2="-27.4705" y2="630.8785" gradientTransform="matrix(21.3333 0 0 -21.3333 996.3334 13791.667)">
	<stop  offset="0" style="stop-color:#FFFFFF;stop-opacity:0.2"/>
	<stop  offset="1" style="stop-color:#FFFFFF;stop-opacity:0"/>
</linearGradient>
<path style="fill:url(#SVGID_3_);" d="M394.667,170.667H384v-21.333c0-23.531-19.146-42.667-42.667-42.667h-1.023l-9.706-97.063
	C330.063,4.156,325.479,0,320,0H170.667c-5.479,0-10.063,4.156-10.604,9.604l-9.706,97.063h-1.023
	c-23.521,0-42.667,19.135-42.667,42.667v213.333c0,23.531,19.146,42.667,42.667,42.667h1.023l9.706,97.063
	c0.542,5.448,5.125,9.604,10.604,9.604H320c5.479,0,10.063-4.156,10.604-9.604l9.706-97.063h1.023
	c23.521,0,42.667-19.135,42.667-42.667c5.896,0,10.667-4.771,10.667-10.667v-64c0-5.896-4.771-10.667-10.667-10.667v-42.667h10.667
	c5.896,0,10.667-4.771,10.667-10.667v-42.667C405.333,175.438,400.563,170.667,394.667,170.667z"/>
<g>
</g>
<g>
</g>
<g>
</g>
<g>
</g>
<g>
</g>
<g>
</g>
<g>
</g>
<g>
</g>
<g>
</g>
<g>
</g>
<g>
</g>
<g>
</g>
<g>
</g>
<g>
</g>
<g>
</g>
</svg>
