<?xml version="1.0" encoding="iso-8859-1"?>
<!-- Generator: Adobe Illustrator 19.0.0, SVG Export Plug-In . SVG Version: 6.00 Build 0)  -->
<svg version="1.1" id="Capa_1" xmlns="http://www.w3.org/2000/svg" xmlns:xlink="http://www.w3.org/1999/xlink" x="0px" y="0px"
	 viewBox="0 0 480 480" style="enable-background:new 0 0 480 480;" xml:space="preserve">
<g>
	<path style="fill:#50D4E3;" d="M176,136L176,136c15.368-15.368,24-36.208,24-57.944V8h80v70.056c0,21.736,8.632,42.576,24,57.944
		l0,0"/>
	<path style="fill:#50D4E3;" d="M304,344L304,344c-15.368,15.368-24,36.208-24,57.944V472h-80v-70.056
		c0-21.736-8.632-42.576-24-57.944l0,0"/>
</g>
<path style="fill:#59CD90;" d="M304,344H176c-17.672,0-32-14.328-32-32V168c0-17.672,14.328-32,32-32h128c17.672,0,32,14.328,32,32
	v144C336,329.672,321.672,344,304,344z"/>
<polygon style="fill:#EE6352;" points="240,232 280,192 256,168 240,184 224,168 200,192 "/>
<g>
	<rect x="112" y="168" style="fill:#FAC05E;" width="32" height="48"/>
	<rect x="112" y="272" style="fill:#FAC05E;" width="32" height="48"/>
	<rect x="336" y="168" style="fill:#FAC05E;" width="32" height="48"/>
	<rect x="336" y="272" style="fill:#FAC05E;" width="32" height="48"/>
</g>
<g>
	<path style="fill:#0F272A;" d="M280,0h-80c-4.424,0-8,3.584-8,8v70.056c0,18.864-7.08,36.608-19.888,50.336
		c-17.536,1.728-31.848,14.632-35.304,31.608H112c-4.424,0-8,3.584-8,8v48c0,4.416,3.576,8,8,8h24v40h-24c-4.424,0-8,3.584-8,8v48
		c0,4.416,3.576,8,8,8h27.392c5.688,12.952,18.064,22.168,32.72,23.608C184.912,365.336,192,383.08,192,401.944V472
		c0,4.416,3.576,8,8,8h80c4.424,0,8-3.584,8-8v-70.056c0-18.864,7.08-36.608,19.888-50.336c14.656-1.44,27.04-10.656,32.72-23.608
		H368c4.424,0,8-3.584,8-8v-48c0-4.416-3.576-8-8-8h-24v-40h24c4.424,0,8-3.584,8-8v-48c0-4.416-3.576-8-8-8h-24.808
		c-3.464-16.976-17.768-29.88-35.304-31.608C295.08,114.664,288,96.928,288,78.056V8C288,3.584,284.424,0,280,0z M208,78.056V16h64
		v62.056c0,18.048,5.288,35.28,15.112,49.944h-94.224C202.712,113.336,208,96.104,208,78.056z M120,208v-32h16v32H120z M120,312v-32
		h16v32H120z M272,401.944V464h-64v-62.056c0-18.048-5.288-35.28-15.112-49.944h94.224C277.288,366.664,272,383.896,272,401.944z
		 M360,280v32h-16v-32H360z M360,208h-16v-32h16V208z M328,168v48v56v40c0,13.232-10.768,24-24,24H176c-13.232,0-24-10.768-24-24
		v-40v-56v-48c0-13.232,10.768-24,24-24h128C317.232,144,328,154.768,328,168z"/>
	<path style="fill:#0F272A;" d="M234.344,237.656c1.56,1.56,3.608,2.344,5.656,2.344s4.096-0.784,5.656-2.344l40-40
		c3.128-3.128,3.128-8.184,0-11.312l-24-24c-3.128-3.128-8.184-3.128-11.312,0L240,172.688l-10.344-10.344
		c-3.128-3.128-8.184-3.128-11.312,0l-24,24c-3.128,3.128-3.128,8.184,0,11.312L234.344,237.656z M224,179.312l10.344,10.344
		c3.128,3.128,8.184,3.128,11.312,0L256,179.312L268.688,192L240,220.688L211.312,192L224,179.312z"/>
	<rect x="200" y="304" style="fill:#0F272A;" width="16" height="16"/>
	<rect x="232" y="304" style="fill:#0F272A;" width="16" height="16"/>
	<rect x="264" y="304" style="fill:#0F272A;" width="16" height="16"/>
	
		<rect x="222.103" y="263.987" transform="matrix(-0.4472 0.8944 -0.8944 -0.4472 590.5901 178.9696)" style="fill:#0F272A;" width="35.775" height="16"/>
	<rect x="184" y="264" style="fill:#0F272A;" width="24" height="16"/>
	<rect x="272" y="264" style="fill:#0F272A;" width="24" height="16"/>
</g>
<g>
</g>
<g>
</g>
<g>
</g>
<g>
</g>
<g>
</g>
<g>
</g>
<g>
</g>
<g>
</g>
<g>
</g>
<g>
</g>
<g>
</g>
<g>
</g>
<g>
</g>
<g>
</g>
<g>
</g>
</svg>
