<?xml version="1.0" encoding="iso-8859-1"?>
<!-- Generator: Adobe Illustrator 19.0.0, SVG Export Plug-In . SVG Version: 6.00 Build 0)  -->
<svg version="1.1" id="Capa_1" xmlns="http://www.w3.org/2000/svg" xmlns:xlink="http://www.w3.org/1999/xlink" x="0px" y="0px"
	 viewBox="0 0 480 480" style="enable-background:new 0 0 480 480;" xml:space="preserve">
<path style="fill:#50D4E3;" d="M168,296H40c-17.672,0-32-14.328-32-32V40C8,22.328,22.328,8,40,8h128c17.672,0,32,14.328,32,32v224
	C200,281.672,185.672,296,168,296z"/>
<rect x="8" y="48" style="fill:#EE6352;" width="192" height="208"/>
<g>
	<polyline style="fill:#50D4E3;" points="344,208 344,104 424,104 424,208 	"/>
	<polyline style="fill:#50D4E3;" points="424,368 424,472 344,472 344,368 	"/>
</g>
<path style="fill:#FFFFFF;" d="M104,224c-0.112,0-0.216,0-0.328-0.008c-3.688-0.152-6.8-2.808-7.52-6.424L78.624,129.92
	l-6.936,24.272C70.712,157.632,67.568,160,64,160H32v-16h25.968l14.344-50.2c1.016-3.552,4.288-5.968,8.016-5.792
	c3.688,0.152,6.8,2.808,7.52,6.424l17.528,87.648l22.936-80.272c0.96-3.368,4.008-5.72,7.52-5.8c3.128-0.136,6.656,2.144,7.76,5.472
	L157.768,144H176v16h-24c-3.448,0-6.496-2.2-7.592-5.472l-7.824-23.472l-24.896,87.136C110.704,221.648,107.56,224,104,224z"/>
<circle style="fill:#FAC05E;" cx="384" cy="288" r="88"/>
<polygon style="fill:#EE6352;" points="384,320 424,280 400,256 384,272 368,256 344,280 "/>
<g>
	<path style="fill:#0F272A;" d="M40,304h128c22.056,0,40-17.944,40-40v-8V48v-8c0-22.056-17.944-40-40-40H40C17.944,0,0,17.944,0,40
		v8v208v8C0,286.056,17.944,304,40,304z M168,288H40c-13.232,0-24-10.768-24-24h176C192,277.232,181.232,288,168,288z M192,248H16
		V56h176V248z M40,16h128c13.232,0,24,10.768,24,24H16C16,26.768,26.768,16,40,16z"/>
	<path style="fill:#0F272A;" d="M432,204.992V104c0-4.416-3.584-8-8-8h-80c-4.416,0-8,3.584-8,8v100.992
		c-28.648,16.632-48,47.568-48,83.008s19.352,66.376,48,83.008V472c0,4.416,3.584,8,8,8h80c4.416,0,8-3.584,8-8V371.008
		c28.648-16.632,48-47.568,48-83.008S460.648,221.624,432,204.992z M352,112h64v85.6c-10.024-3.56-20.768-5.6-32-5.6
		s-21.976,2.04-32,5.6V112z M416,464h-64v-85.6c10.024,3.56,20.768,5.6,32,5.6s21.976-2.04,32-5.6V464z M384,368
		c-44.112,0-80-35.888-80-80s35.888-80,80-80s80,35.888,80,80S428.112,368,384,368z"/>
	<path style="fill:#0F272A;" d="M405.656,250.344c-3.128-3.128-8.184-3.128-11.312,0L384,260.688l-10.344-10.344
		c-3.128-3.128-8.184-3.128-11.312,0l-24,24c-3.128,3.128-3.128,8.184,0,11.312l40,40c1.56,1.56,3.608,2.344,5.656,2.344
		s4.096-0.784,5.656-2.344l40-40c3.128-3.128,3.128-8.184,0-11.312L405.656,250.344z M384,308.688L355.312,280L368,267.312
		l10.344,10.344c3.128,3.128,8.184,3.128,11.312,0L400,267.312L412.688,280L384,308.688z"/>
	<rect x="224" y="32" style="fill:#0F272A;" width="16" height="16"/>
	<rect x="256" y="32" style="fill:#0F272A;" width="16" height="16"/>
	<rect x="288" y="32" style="fill:#0F272A;" width="16" height="16"/>
	<rect x="320" y="32" style="fill:#0F272A;" width="16" height="16"/>
	<rect x="352" y="32" style="fill:#0F272A;" width="16" height="16"/>
	<rect x="384" y="32" style="fill:#0F272A;" width="16" height="16"/>
	<rect x="144" y="448" style="fill:#0F272A;" width="16" height="16"/>
	<rect x="112" y="448" style="fill:#0F272A;" width="16" height="16"/>
	<rect x="80" y="448" style="fill:#0F272A;" width="16" height="16"/>
	<rect x="80" y="416" style="fill:#0F272A;" width="16" height="16"/>
	<rect x="80" y="384" style="fill:#0F272A;" width="16" height="16"/>
	<rect x="80" y="352" style="fill:#0F272A;" width="16" height="16"/>
	<rect x="80" y="320" style="fill:#0F272A;" width="16" height="16"/>
	<rect x="176" y="448" style="fill:#0F272A;" width="16" height="16"/>
	<rect x="208" y="448" style="fill:#0F272A;" width="16" height="16"/>
	<rect x="240" y="448" style="fill:#0F272A;" width="16" height="16"/>
	<rect x="272" y="448" style="fill:#0F272A;" width="16" height="16"/>
	<rect x="304" y="448" style="fill:#0F272A;" width="16" height="16"/>
	<rect x="384" y="64" style="fill:#0F272A;" width="16" height="16"/>
</g>
<g>
</g>
<g>
</g>
<g>
</g>
<g>
</g>
<g>
</g>
<g>
</g>
<g>
</g>
<g>
</g>
<g>
</g>
<g>
</g>
<g>
</g>
<g>
</g>
<g>
</g>
<g>
</g>
<g>
</g>
</svg>
