<?xml version="1.0" encoding="iso-8859-1"?>
<!-- Generator: Adobe Illustrator 19.0.0, SVG Export Plug-In . SVG Version: 6.00 Build 0)  -->
<svg version="1.1" id="Capa_1" xmlns="http://www.w3.org/2000/svg" xmlns:xlink="http://www.w3.org/1999/xlink" x="0px" y="0px"
	 viewBox="0 0 512.009 512.009" style="enable-background:new 0 0 512.009 512.009;" xml:space="preserve">
<path style="fill:#303C42;" d="M480.004,448.009h-57.406l-45.665-91.32c8.674-4.285,16.706-9.892,23.613-16.805
	c16.844-16.844,26.125-39.25,26.125-63.073V256.54c0-23.823-9.281-46.229-26.125-63.073c-7.328-7.333-15.885-13.253-25.174-17.616
	l27.299-90.436c40.563-2.479,77.615-23.708,100.26-57.854l7.292-10.99c3.26-4.906,1.917-11.531-2.99-14.781
	c-4.927-3.281-11.531-1.917-14.781,2.99l-7.292,10.99c-20.177,30.406-54,48.552-90.49,48.552c-4.708,0-8.854,3.083-10.208,7.583
	l-29.427,97.512c-2.743-0.555-5.443-1.293-8.24-1.585l-169.448-17.854c-4.094-0.417-8.177-0.635-12.271-0.635h-5.073
	c-2.474,0-4.893,0.219-7.331,0.371l-17.822-55.414l28.527-9.509c4.958-1.646,7.99-6.656,7.156-11.823
	c-0.844-5.167-5.302-8.958-10.531-8.958h-64c-5.896,0-10.667,4.771-10.667,10.667v21.333c0,3.427,1.646,6.646,4.427,8.656
	c1.844,1.323,4.031,2.01,6.24,2.01c1.135,0,2.271-0.177,3.375-0.552l15.227-5.076l16.72,51.987
	c-50.854,12.848-88.655,58.852-88.655,113.641c0,49.083,30.324,91.163,73.197,108.645l-27.259,72.689H32.004
	c-17.646,0-32,14.354-32,32s14.354,32,32,32h448c17.646,0,32-14.354,32-32S497.65,448.009,480.004,448.009z M111.4,448.009
	l24.905-66.409c7.658,1.577,15.582,2.409,23.699,2.409h5.073c4.094,0,8.177-0.219,12.281-0.646l85.033-8.954l24.867,31.085
	c-5.527,0.402-9.921,4.884-9.921,10.516c0,5.896,4.771,10.667,10.667,10.667h42.667c5.896,0,10.667-4.771,10.667-10.667
	s-4.771-10.667-10.667-10.667h-16.201l-26.876-33.589l59.202-6.234c3.313-0.346,6.523-1.165,9.759-1.878l42.188,84.367H111.4z"/>
<path style="fill:#9B51A0;" d="M64.004,266.676c0-52.938,43.063-96,96-96h5.073c3.365,0,6.719,0.177,10.052,0.521l169.438,17.844
	c15.406,1.615,29.927,8.542,40.896,19.51c12.813,12.823,19.875,29.865,19.875,47.99v20.271c0,18.125-7.063,35.167-19.875,47.99
	c-10.969,10.969-25.49,17.896-40.896,19.51l-67.229,7.077v-42.046c0-5.896-4.771-10.667-10.667-10.667s-10.667,4.771-10.667,10.667
	v44.29l-80.865,8.512c-3.344,0.354-6.698,0.531-10.063,0.531h-5.073C107.067,362.675,64.004,319.613,64.004,266.676z"/>
<g>
	<path style="opacity:0.1;fill:#010101;enable-background:new    ;" d="M138.671,341.342c-21.027,0-40.332-6.993-56.164-18.503
		c17.465,24.025,45.587,39.836,77.497,39.836h5.073c3.365,0,6.719-0.177,10.063-0.531l80.865-8.512v-23.965L138.671,341.342z"/>
	<path style="opacity:0.1;fill:#010101;enable-background:new    ;" d="M385.463,208.551c-3.581-3.581-7.643-6.552-11.888-9.228
		c6.695,10.68,10.43,22.97,10.43,35.884v20.271c0,18.125-7.063,35.167-19.875,47.99c-10.969,10.969-25.49,17.896-40.896,19.51
		l-45.896,4.566v23.844l67.229-7.077c15.406-1.615,29.927-8.542,40.896-19.51c12.813-12.823,19.875-29.865,19.875-47.99V256.54
		C405.338,238.415,398.275,221.373,385.463,208.551z"/>
</g>
<path style="fill:#5B5D60;" d="M480.004,490.675h-448c-5.885,0-10.667-4.781-10.667-10.667s4.781-10.667,10.667-10.667h448
	c5.885,0,10.667,4.781,10.667,10.667S485.89,490.675,480.004,490.675z"/>
<circle style="fill:#303C42;" cx="160.004" cy="266.671" r="74.667"/>
<circle style="fill:#E0E0E0;" cx="160.004" cy="266.671" r="53.333"/>
<path style="opacity:0.1;fill:#010101;enable-background:new    ;" d="M190.685,223.192c0.819,3.708,1.319,7.533,1.319,11.483
	c0,29.406-23.927,53.333-53.333,53.333c-11.439,0-21.987-3.695-30.681-9.85c5.277,23.893,26.559,41.85,52.014,41.85
	c29.406,0,53.333-23.927,53.333-53.333C213.338,248.708,204.343,232.862,190.685,223.192z"/>
<linearGradient id="SVGID_1_" gradientUnits="userSpaceOnUse" x1="-44.4987" y1="639.2389" x2="-20.6233" y2="628.108" gradientTransform="matrix(21.3333 0 0 -21.3333 996.2438 13791.7656)">
	<stop  offset="0" style="stop-color:#FFFFFF;stop-opacity:0.2"/>
	<stop  offset="1" style="stop-color:#FFFFFF;stop-opacity:0"/>
</linearGradient>
<path style="fill:url(#SVGID_1_);" d="M480.004,448.009h-57.406l-45.665-91.32c8.674-4.285,16.706-9.892,23.613-16.805
	c16.844-16.844,26.125-39.25,26.125-63.073V256.54c0-23.823-9.281-46.229-26.125-63.073c-7.328-7.333-15.885-13.253-25.174-17.616
	l27.299-90.436c40.563-2.479,77.615-23.708,100.26-57.854l7.292-10.99c3.26-4.906,1.917-11.531-2.99-14.781
	c-4.927-3.281-11.531-1.917-14.781,2.99l-7.292,10.99c-20.177,30.406-54,48.552-90.49,48.552c-4.708,0-8.854,3.083-10.208,7.583
	l-29.427,97.512c-2.743-0.555-5.443-1.293-8.24-1.585l-169.448-17.854c-4.094-0.417-8.177-0.635-12.271-0.635h-5.073
	c-2.474,0-4.893,0.219-7.331,0.371l-17.822-55.414l28.527-9.509c4.958-1.646,7.99-6.656,7.156-11.823
	c-0.844-5.167-5.302-8.958-10.531-8.958h-64c-5.896,0-10.667,4.771-10.667,10.667v21.333c0,3.427,1.646,6.646,4.427,8.656
	c1.844,1.323,4.031,2.01,6.24,2.01c1.135,0,2.271-0.177,3.375-0.552l15.227-5.076l16.72,51.987
	c-50.854,12.848-88.655,58.852-88.655,113.641c0,49.083,30.324,91.163,73.197,108.645l-27.259,72.689H32.004
	c-17.646,0-32,14.354-32,32s14.354,32,32,32h448c17.646,0,32-14.354,32-32S497.65,448.009,480.004,448.009z M111.4,448.009
	l24.905-66.409c7.658,1.577,15.582,2.409,23.699,2.409h5.073c4.094,0,8.177-0.219,12.281-0.646l85.033-8.954l24.867,31.085
	c-5.527,0.402-9.921,4.884-9.921,10.516c0,5.896,4.771,10.667,10.667,10.667h42.667c5.896,0,10.667-4.771,10.667-10.667
	s-4.771-10.667-10.667-10.667h-16.201l-26.876-33.589l59.202-6.234c3.313-0.346,6.523-1.165,9.759-1.878l42.188,84.367H111.4z"/>
<g>
</g>
<g>
</g>
<g>
</g>
<g>
</g>
<g>
</g>
<g>
</g>
<g>
</g>
<g>
</g>
<g>
</g>
<g>
</g>
<g>
</g>
<g>
</g>
<g>
</g>
<g>
</g>
<g>
</g>
</svg>
