<?xml version="1.0" encoding="iso-8859-1"?>
<!-- Generator: Adobe Illustrator 19.0.0, SVG Export Plug-In . SVG Version: 6.00 Build 0)  -->
<svg version="1.1" id="Capa_1" xmlns="http://www.w3.org/2000/svg" xmlns:xlink="http://www.w3.org/1999/xlink" x="0px" y="0px"
	 viewBox="0 0 480 480" style="enable-background:new 0 0 480 480;" xml:space="preserve">
<path style="fill:#FAC05E;" d="M336,104c0-54.328-45.128-98.112-99.944-95.92c-48.752,1.952-89.248,41.824-91.912,90.536
	c-2.032,37.136,17.088,69.912,46.376,87.544c10.584,6.376,17.48,17.408,17.48,29.76V216h64v-0.088
	c0-12.328,6.856-23.36,17.416-29.712C317.312,169.424,336,138.928,336,104z"/>
<path style="fill:#EE6352;" d="M272,248h-64c-8.84,0-16-7.16-16-16l0,0c0-8.84,7.16-16,16-16h64c8.84,0,16,7.16,16,16l0,0
	C288,240.84,280.84,248,272,248z"/>
<path style="fill:#50D4E3;" d="M96,232v48c0,17.672,14.328,32,32,32h64v160h48v-96v96h48V312h64c17.672,0,32-14.328,32-32v-48l-32,8
	v40H128v-40L96,232z"/>
<polyline style="fill:#F79D84;" points="216,280 240,320 264,280 "/>
<g>
	<circle style="fill:#EE6352;" cx="360" cy="208" r="32"/>
	<path style="fill:#EE6352;" d="M272,280h-64c-8.84,0-16-7.16-16-16l0,0c0-8.84,7.16-16,16-16h64c8.84,0,16,7.16,16,16l0,0
		C288,272.84,280.84,280,272,280z"/>
	<path style="fill:#EE6352;" d="M392,160c-11.984,0-22.312,6.672-27.792,16.424C379.872,178.504,392,191.768,392,208
		c0,5.688-1.608,10.952-4.208,15.576C389.184,223.76,390.56,224,392,224c17.672,0,32-14.328,32-32S409.672,160,392,160z"/>
	<circle style="fill:#EE6352;" cx="120" cy="208" r="32"/>
	<path style="fill:#EE6352;" d="M88,208c0-16.232,12.128-29.496,27.792-31.576C110.312,166.672,99.984,160,88,160
		c-17.672,0-32,14.328-32,32s14.328,32,32,32c1.44,0,2.816-0.24,4.208-0.424C89.608,218.952,88,213.688,88,208z"/>
</g>
<g>
	<path style="fill:#0F272A;" d="M160,208c0-22.056-17.944-40-40-40c-0.056,0-0.104,0.016-0.16,0.016
		C112.328,158.024,100.552,152,88,152c-22.056,0-40,17.944-40,40s17.944,40,40,40v48c0,22.056,17.944,40,40,40h56v152
		c0,4.416,3.584,8,8,8h96c4.416,0,8-3.584,8-8V320h56c22.056,0,40-17.944,40-40v-48c22.056,0,40-17.944,40-40s-17.944-40-40-40
		c-12.552,0-24.328,6.024-31.84,16.016c-0.056,0-0.104-0.016-0.16-0.016c-22.056,0-40,17.944-40,40c0,16.36,9.896,30.416,24,36.608
		V272h-49.472c0.896-2.512,1.472-5.184,1.472-8c0-6.168-2.408-11.744-6.24-16c3.84-4.256,6.24-9.832,6.24-16
		c0-10.12-6.312-18.752-15.192-22.272c1.72-6.752,6.2-12.744,12.728-16.672c31.6-19,50.464-52.288,50.464-89.056
		c0-28.568-11.344-55.2-31.952-75C291.456,9.208,264.4-1.064,235.736,0.088c-52.952,2.12-96.688,45.2-99.576,98.096
		c-2.112,38.568,17.144,74.904,50.24,94.84c6.552,3.944,11.04,9.928,12.784,16.704C190.304,213.256,184,221.888,184,232
		c0,6.168,2.408,11.744,6.24,16c-3.84,4.256-6.24,9.832-6.24,16c0,2.816,0.576,5.488,1.472,8H136v-27.392
		C150.104,238.416,160,224.36,160,208z M144,208c0,11.216-7.768,20.592-18.184,23.208l-21.824-5.456
		c-1.88-1.696-3.456-3.672-4.72-5.88c-0.032-0.064-0.048-0.144-0.088-0.208c-1.016-1.8-1.752-3.648-2.28-5.512
		c-0.032-0.128-0.088-0.256-0.12-0.384C96.272,211.864,96,209.944,96,208c0-1.56,0.176-3.072,0.456-4.552
		c0.16-0.792,0.424-1.544,0.656-2.304c0.184-0.624,0.344-1.264,0.584-1.872c0.392-0.984,0.88-1.912,1.4-2.832
		c0.168-0.312,0.32-0.632,0.504-0.928c0.648-1.032,1.376-2.016,2.168-2.944c0.104-0.12,0.2-0.248,0.304-0.376
		c0.896-1.008,1.872-1.944,2.928-2.792c0.016-0.008,0.024-0.024,0.04-0.032c3.312-2.64,7.352-4.44,11.8-5.032
		c0.072-0.008,0.136-0.04,0.208-0.056c0.984-0.104,1.944-0.28,2.952-0.28C133.232,184,144,194.768,144,208z M64,192
		c0-13.232,10.768-24,24-24c5.024,0,9.848,1.632,13.84,4.512c-0.32,0.168-0.608,0.384-0.928,0.56c-2.552,1.4-4.936,3.04-7.112,4.952
		c-0.312,0.272-0.656,0.512-0.96,0.792c-0.96,0.888-1.824,1.848-2.688,2.832c-0.64,0.712-1.24,1.448-1.824,2.208
		c-0.712,0.928-1.416,1.84-2.04,2.832c-1.072,1.672-2.032,3.408-2.84,5.232c-0.304,0.688-0.52,1.416-0.784,2.128
		c-0.584,1.528-1.072,3.088-1.464,4.696c-0.176,0.728-0.344,1.448-0.472,2.192C80.296,203.24,80,205.584,80,208
		c0,2.304,0.2,4.584,0.616,6.832C70.984,211.712,64,202.656,64,192z M378.16,172.512c3.992-2.88,8.816-4.512,13.84-4.512
		c13.232,0,24,10.768,24,24c0,10.656-6.984,19.712-16.616,22.832C399.8,212.584,400,210.304,400,208c0-2.416-0.296-4.76-0.712-7.072
		c-0.136-0.744-0.304-1.464-0.472-2.192c-0.392-1.608-0.88-3.168-1.464-4.696c-0.264-0.712-0.48-1.432-0.784-2.128
		c-0.816-1.824-1.776-3.56-2.84-5.232c-0.624-0.992-1.336-1.904-2.04-2.832c-0.584-0.76-1.184-1.496-1.824-2.208
		c-0.864-0.984-1.736-1.936-2.688-2.832c-0.304-0.28-0.648-0.52-0.96-0.792c-2.176-1.904-4.552-3.544-7.112-4.952
		C378.768,172.896,378.48,172.68,378.16,172.512z M336,208c0-13.232,10.768-24,24-24c1.008,0,1.968,0.176,2.944,0.296
		c0.072,0.008,0.136,0.048,0.208,0.056c4.448,0.592,8.488,2.392,11.8,5.032c0.016,0.008,0.024,0.024,0.04,0.032
		c1.056,0.848,2.032,1.784,2.928,2.792c0.104,0.12,0.2,0.248,0.304,0.376c0.792,0.928,1.52,1.904,2.168,2.944
		c0.184,0.296,0.336,0.616,0.504,0.928c0.52,0.92,1.008,1.856,1.4,2.84c0.232,0.6,0.392,1.24,0.576,1.856
		c0.232,0.768,0.504,1.52,0.664,2.312C383.824,204.928,384,206.44,384,208c0,1.944-0.272,3.864-0.784,5.768
		c-0.032,0.128-0.088,0.256-0.12,0.384c-0.528,1.864-1.272,3.712-2.288,5.512c-0.032,0.056-0.032,0.112-0.064,0.168
		c-1.272,2.224-2.856,4.216-4.744,5.92l-21.824,5.456C343.768,228.592,336,219.216,336,208z M200,232c0-4.408,3.592-8,8-8h64
		c4.408,0,8,3.592,8,8s-3.592,8-8,8h-64C203.592,240,200,236.408,200,232z M216,96h-8c-4.408,0-8-3.592-8-8s3.592-8,8-8s8,3.592,8,8
		V96z M232,112h16v96h-16V112z M152.136,99.056c2.44-44.744,39.448-81.192,84.24-82.984c24.16-0.936,47.16,7.712,64.584,24.464
		C318.4,57.288,328,79.832,328,104c0,31.104-15.968,59.264-42.704,75.344c-10.912,6.56-18.224,16.912-20.52,28.656H264v-96h8
		c13.232,0,24-10.768,24-24s-10.768-24-24-24s-24,10.768-24,24v8h-16v-8c0-13.232-10.768-24-24-24s-24,10.768-24,24s10.768,24,24,24
		h8v96h-0.768c-2.296-11.712-9.632-22.088-20.584-28.68C166.64,162.448,150.352,131.688,152.136,99.056z M264,96v-8
		c0-4.408,3.592-8,8-8s8,3.592,8,8s-3.592,8-8,8H264z M200,264c0-4.408,3.592-8,8-8h64c4.408,0,8,3.592,8,8s-3.592,8-8,8h-64
		C203.592,272,200,268.408,200,264z M249.872,288L240,304.448L230.128,288H249.872z M128,288h80h3.472l21.672,36.12
		c1.44,2.408,4.048,3.88,6.856,3.88c2.808,0,5.416-1.472,6.856-3.88L268.528,288H272h80c4.416,0,8-3.584,8-8v-32
		c5.696,0,11.088-1.232,16-3.392V280c0,13.232-10.768,24-24,24h-64c-4.416,0-8,3.584-8,8v152h-32v-88c0-4.416-3.584-8-8-8
		s-8,3.584-8,8v88h-32V312c0-4.416-3.584-8-8-8h-64c-13.232,0-24-10.768-24-24v-35.392c4.912,2.16,10.304,3.392,16,3.392v32
		C120,284.416,123.584,288,128,288z"/>
	<rect x="400" y="336" style="fill:#0F272A;" width="16" height="16"/>
	<rect x="400" y="368" style="fill:#0F272A;" width="16" height="16"/>
	<rect x="368" y="368" style="fill:#0F272A;" width="16" height="16"/>
	<rect x="432" y="368" style="fill:#0F272A;" width="16" height="16"/>
	<rect x="64" y="336" style="fill:#0F272A;" width="16" height="16"/>
	<rect x="64" y="368" style="fill:#0F272A;" width="16" height="16"/>
	<rect x="32" y="368" style="fill:#0F272A;" width="16" height="16"/>
	<rect x="96" y="368" style="fill:#0F272A;" width="16" height="16"/>
	<rect x="64" y="400" style="fill:#0F272A;" width="16" height="16"/>
	<rect x="32" y="400" style="fill:#0F272A;" width="16" height="16"/>
	<rect y="400" style="fill:#0F272A;" width="16" height="16"/>
	<rect x="96" y="400" style="fill:#0F272A;" width="16" height="16"/>
	<rect x="128" y="400" style="fill:#0F272A;" width="16" height="16"/>
	<rect x="400" y="400" style="fill:#0F272A;" width="16" height="16"/>
	<rect x="368" y="400" style="fill:#0F272A;" width="16" height="16"/>
	<rect x="336" y="400" style="fill:#0F272A;" width="16" height="16"/>
	<rect x="432" y="400" style="fill:#0F272A;" width="16" height="16"/>
	<rect x="464" y="400" style="fill:#0F272A;" width="16" height="16"/>
</g>
<g>
</g>
<g>
</g>
<g>
</g>
<g>
</g>
<g>
</g>
<g>
</g>
<g>
</g>
<g>
</g>
<g>
</g>
<g>
</g>
<g>
</g>
<g>
</g>
<g>
</g>
<g>
</g>
<g>
</g>
</svg>
