<?xml version="1.0" encoding="iso-8859-1"?>
<!-- Generator: Adobe Illustrator 19.0.0, SVG Export Plug-In . SVG Version: 6.00 Build 0)  -->
<svg version="1.1" id="Capa_1" xmlns="http://www.w3.org/2000/svg" xmlns:xlink="http://www.w3.org/1999/xlink" x="0px" y="0px"
	 viewBox="0 0 512 512" style="enable-background:new 0 0 512 512;" xml:space="preserve">
<path style="fill:#303C42;" d="M512,213.333C512,129.594,399.552,64,256,64S0,129.594,0,213.333c0,21.682,7.668,42.104,21.333,60.53
	v163.47C21.333,443.229,26.104,448,32,448s10.667-4.771,10.667-10.667V296.914c6.428,5.641,13.671,10.905,21.333,15.949V352
	c0,5.896,4.771,10.667,10.667,10.667c5.896,0,10.667-4.771,10.667-10.667v-26.69C130.336,348.581,189.76,362.667,256,362.667
	s125.664-14.086,170.667-37.357V352c0,5.896,4.771,10.667,10.667,10.667S448,357.896,448,352v-39.137
	c7.663-5.044,14.905-10.309,21.333-15.949v140.419c0,5.896,4.771,10.667,10.667,10.667c5.896,0,10.667-4.771,10.667-10.667V275.552
	c0-0.48-0.212-0.891-0.273-1.354C504.22,255.684,512,235.15,512,213.333z"/>
<path style="fill:#676767;" d="M256,341.333c-129.396,0-234.667-57.417-234.667-128s105.271-128,234.667-128
	s234.667,57.417,234.667,128S385.396,341.333,256,341.333z"/>
<radialGradient id="SVGID_1_" cx="-34.6274" cy="631.271" r="11.0003" gradientTransform="matrix(21.3318 0.2481 0.1372 -11.8016 908.0727 7671.9331)" gradientUnits="userSpaceOnUse">
	<stop  offset="0" style="stop-color:#010101;stop-opacity:0"/>
	<stop  offset="1" style="stop-color:#010101;stop-opacity:0.2"/>
</radialGradient>
<path style="fill:url(#SVGID_1_);" d="M256,341.333c-129.396,0-234.667-57.417-234.667-128s105.271-128,234.667-128
	s234.667,57.417,234.667,128S385.396,341.333,256,341.333z"/>
<path style="fill:#303C42;" d="M256,106.667c-115.635,0-213.333,48.844-213.333,106.667S140.365,320,256,320
	s213.333-48.844,213.333-106.667S371.635,106.667,256,106.667z M256,298.667c-109.885,0-192-45.052-192-85.333S146.115,128,256,128
	s192,45.052,192,85.333S365.885,298.667,256,298.667z"/>
<linearGradient id="SVGID_2_" gradientUnits="userSpaceOnUse" x1="-46.2644" y1="638.4028" x2="-22.9344" y2="627.5212" gradientTransform="matrix(21.3333 0 0 -21.3333 996.3334 13791.667)">
	<stop  offset="0" style="stop-color:#FFFFFF;stop-opacity:0.2"/>
	<stop  offset="1" style="stop-color:#FFFFFF;stop-opacity:0"/>
</linearGradient>
<path style="fill:url(#SVGID_2_);" d="M512,213.333C512,129.594,399.552,64,256,64S0,129.594,0,213.333
	c0,21.682,7.668,42.104,21.333,60.53v163.47C21.333,443.229,26.104,448,32,448s10.667-4.771,10.667-10.667V296.914
	c6.428,5.641,13.671,10.905,21.333,15.949V352c0,5.896,4.771,10.667,10.667,10.667c5.896,0,10.667-4.771,10.667-10.667v-26.69
	C130.336,348.581,189.76,362.667,256,362.667s125.664-14.086,170.667-37.357V352c0,5.896,4.771,10.667,10.667,10.667
	S448,357.896,448,352v-39.137c7.663-5.044,14.905-10.309,21.333-15.949v140.419c0,5.896,4.771,10.667,10.667,10.667
	c5.896,0,10.667-4.771,10.667-10.667V275.552c0-0.48-0.212-0.891-0.273-1.354C504.22,255.684,512,235.15,512,213.333z"/>
<g>
</g>
<g>
</g>
<g>
</g>
<g>
</g>
<g>
</g>
<g>
</g>
<g>
</g>
<g>
</g>
<g>
</g>
<g>
</g>
<g>
</g>
<g>
</g>
<g>
</g>
<g>
</g>
<g>
</g>
</svg>
