<?xml version="1.0" encoding="iso-8859-1"?>
<!-- Generator: Adobe Illustrator 19.0.0, SVG Export Plug-In . SVG Version: 6.00 Build 0)  -->
<svg version="1.1" id="Capa_1" xmlns="http://www.w3.org/2000/svg" xmlns:xlink="http://www.w3.org/1999/xlink" x="0px" y="0px"
	 viewBox="0 0 469.333 469.333" style="enable-background:new 0 0 469.333 469.333;" xml:space="preserve">
<path style="fill:#303C42;" d="M426.667,0h-384C19.135,0,0,19.135,0,42.667v384c0,23.531,19.135,42.667,42.667,42.667h384
	c23.531,0,42.667-19.135,42.667-42.667v-384C469.333,19.135,450.198,0,426.667,0z"/>
<path style="fill:#95C8EC;" d="M42.667,21.333h384c11.76,0,21.333,9.573,21.333,21.333v320H21.333v-320
	C21.333,30.906,30.906,21.333,42.667,21.333z"/>
<path id="SVGCleanerId_0" style="fill:#70B2E2;" d="M426.667,448h-384c-11.76,0-21.333-9.573-21.333-21.333V384H448v42.667
	C448,438.427,438.427,448,426.667,448z"/>
<g>
	<path id="SVGCleanerId_0_1_" style="fill:#70B2E2;" d="M426.667,448h-384c-11.76,0-21.333-9.573-21.333-21.333V384H448v42.667
		C448,438.427,438.427,448,426.667,448z"/>
</g>
<path style="opacity:0.2;fill:#FFFFFF;enable-background:new    ;" d="M71.466,21.333H42.667c-11.76,0-21.333,9.573-21.333,21.333
	v320h32v-320C53.333,30.906,61.47,21.333,71.466,21.333z"/>
<path style="opacity:0.1;fill:#010101;enable-background:new    ;" d="M426.667,21.333h-28.799c9.996,0,18.133,9.573,18.133,21.333
	v320h32v-320C448,30.906,438.427,21.333,426.667,21.333z"/>
<path style="opacity:0.2;fill:#FFFFFF;enable-background:new    ;" d="M53.333,426.667V384h-32v42.667
	c0,11.76,9.573,21.333,21.333,21.333h28.799C61.47,448,53.333,438.427,53.333,426.667z"/>
<path style="opacity:0.1;fill:#010101;enable-background:new    ;" d="M416,384v42.667c0,11.76-8.137,21.333-18.133,21.333h28.799
	c11.76,0,21.333-9.573,21.333-21.333V384H416z"/>
<path style="fill:#303C42;" d="M128,192h213.333c5.896,0,10.667-4.771,10.667-10.667C352,116.635,299.365,64,234.667,64
	s-117.333,52.635-117.333,117.333C117.333,187.229,122.104,192,128,192z"/>
<g>
	<g>
		<path id="SVGCleanerId_1" style="fill:#E4F2FC;" d="M245.333,170.667v-32c0-5.896-4.771-10.667-10.667-10.667
			S224,132.771,224,138.667v32h-84.74c0.729-6.569,2.25-12.879,4.241-18.983l2.697,1.556c1.677,0.969,3.51,1.427,5.323,1.427
			c3.688,0,7.271-1.917,9.25-5.333c2.948-5.104,1.198-11.625-3.906-14.573l-4.294-2.478c5.625-9.375,12.693-17.701,21.066-24.647
			l3.79,6.563c1.979,3.427,5.563,5.333,9.25,5.333c1.813,0,3.646-0.458,5.323-1.427c5.104-2.948,6.854-9.469,3.906-14.573
			l-4.346-7.526c9.97-5.06,20.855-8.366,32.44-9.667V96c0,5.896,4.771,10.667,10.667,10.667s10.667-4.771,10.667-10.667v-9.661
			c11.68,1.311,22.65,4.659,32.685,9.789l-4.414,7.112c-3.104,5-1.573,11.583,3.438,14.688c1.75,1.083,3.698,1.604,5.615,1.604
			c3.563,0,7.052-1.792,9.073-5.042l4.163-6.707c8.293,6.915,15.288,15.194,20.87,24.497l-4.293,2.48
			c-5.104,2.948-6.854,9.479-3.906,14.573c1.979,3.427,5.563,5.333,9.25,5.333c1.813,0,3.646-0.458,5.323-1.427l2.695-1.557
			c1.991,6.104,3.513,12.414,4.242,18.984H245.333z"/>
	</g>
	<g>
		<path id="SVGCleanerId_1_1_" style="fill:#E4F2FC;" d="M245.333,170.667v-32c0-5.896-4.771-10.667-10.667-10.667
			S224,132.771,224,138.667v32h-84.74c0.729-6.569,2.25-12.879,4.241-18.983l2.697,1.556c1.677,0.969,3.51,1.427,5.323,1.427
			c3.688,0,7.271-1.917,9.25-5.333c2.948-5.104,1.198-11.625-3.906-14.573l-4.294-2.478c5.625-9.375,12.693-17.701,21.066-24.647
			l3.79,6.563c1.979,3.427,5.563,5.333,9.25,5.333c1.813,0,3.646-0.458,5.323-1.427c5.104-2.948,6.854-9.469,3.906-14.573
			l-4.346-7.526c9.97-5.06,20.855-8.366,32.44-9.667V96c0,5.896,4.771,10.667,10.667,10.667s10.667-4.771,10.667-10.667v-9.661
			c11.68,1.311,22.65,4.659,32.685,9.789l-4.414,7.112c-3.104,5-1.573,11.583,3.438,14.688c1.75,1.083,3.698,1.604,5.615,1.604
			c3.563,0,7.052-1.792,9.073-5.042l4.163-6.707c8.293,6.915,15.288,15.194,20.87,24.497l-4.293,2.48
			c-5.104,2.948-6.854,9.479-3.906,14.573c1.979,3.427,5.563,5.333,9.25,5.333c1.813,0,3.646-0.458,5.323-1.427l2.695-1.557
			c1.991,6.104,3.513,12.414,4.242,18.984H245.333z"/>
	</g>
</g>
<g>
	
		<linearGradient id="SVGCleanerId_1_3_" gradientUnits="userSpaceOnUse" x1="-59.4361" y1="618.9155" x2="-51.9105" y2="615.4081" gradientTransform="matrix(21.3333 0 0 -21.3333 1430.1112 13315.2227)">
		<stop  offset="0" style="stop-color:#FFFFFF;stop-opacity:0"/>
		<stop  offset="1" style="stop-color:#FFFFFF;stop-opacity:0.2"/>
	</linearGradient>
	<path id="SVGCleanerId_1_2_" style="fill:url(#SVGCleanerId_1_3_);" d="M245.333,170.667v-32c0-5.896-4.771-10.667-10.667-10.667
		S224,132.771,224,138.667v32h-84.74c0.729-6.569,2.25-12.879,4.241-18.983l2.697,1.556c1.677,0.969,3.51,1.427,5.323,1.427
		c3.688,0,7.271-1.917,9.25-5.333c2.948-5.104,1.198-11.625-3.906-14.573l-4.294-2.478c5.625-9.375,12.693-17.701,21.066-24.647
		l3.79,6.563c1.979,3.427,5.563,5.333,9.25,5.333c1.813,0,3.646-0.458,5.323-1.427c5.104-2.948,6.854-9.469,3.906-14.573
		l-4.346-7.526c9.97-5.06,20.855-8.366,32.44-9.667V96c0,5.896,4.771,10.667,10.667,10.667s10.667-4.771,10.667-10.667v-9.661
		c11.68,1.311,22.65,4.659,32.685,9.789l-4.414,7.112c-3.104,5-1.573,11.583,3.438,14.688c1.75,1.083,3.698,1.604,5.615,1.604
		c3.563,0,7.052-1.792,9.073-5.042l4.163-6.707c8.293,6.915,15.288,15.194,20.87,24.497l-4.293,2.48
		c-5.104,2.948-6.854,9.479-3.906,14.573c1.979,3.427,5.563,5.333,9.25,5.333c1.813,0,3.646-0.458,5.323-1.427l2.695-1.557
		c1.991,6.104,3.513,12.414,4.242,18.984H245.333z"/>
</g>
<g>
	<path style="opacity:0.1;fill:#010101;enable-background:new    ;" d="M312.892,134.516l3.87-2.236
		c-5.582-9.303-12.577-17.582-20.87-24.497l-4.163,6.707c-0.793,1.276-1.945,2.129-3.107,2.935
		C297.543,121.969,305.852,127.536,312.892,134.516z"/>
	<path style="opacity:0.1;fill:#010101;enable-background:new    ;" d="M245.333,106.667c9.418,0,18.336,1.779,26.935,4.306
		c-0.52-2.572-0.155-5.332,1.336-7.733l4.414-7.112c-10.035-5.13-21.005-8.478-32.685-9.789V96c0,5.896-4.771,10.667-10.667,10.667
		S224,101.896,224,96v-9.661c-11.585,1.301-22.47,4.607-32.44,9.667l4.346,7.526c2.948,5.104,1.198,11.625-3.906,14.573
		c-1.677,0.969-3.51,1.427-5.323,1.427c-3.688,0-7.271-1.906-9.25-5.333l-3.79-6.563c-8.374,6.947-15.441,15.272-21.066,24.647
		l4.294,2.478c5.104,2.948,6.854,9.469,3.906,14.573c-1.979,3.417-5.563,5.333-9.25,5.333c-1.813,0-3.646-0.458-5.323-1.427
		l-2.697-1.556c-1.991,6.104-3.512,12.414-4.241,18.983h15.951C168.435,133.466,203.595,106.667,245.333,106.667z"/>
</g>
<linearGradient id="SVGID_1_" gradientUnits="userSpaceOnUse" x1="-68.6888" y1="619.0512" x2="-43.3842" y2="607.2509" gradientTransform="matrix(21.3333 0 0 -21.3333 1430.1112 13315.2227)">
	<stop  offset="0" style="stop-color:#FFFFFF;stop-opacity:0.2"/>
	<stop  offset="1" style="stop-color:#FFFFFF;stop-opacity:0"/>
</linearGradient>
<path style="fill:url(#SVGID_1_);" d="M426.667,0h-384C19.135,0,0,19.135,0,42.667v384c0,23.531,19.135,42.667,42.667,42.667h384
	c23.531,0,42.667-19.135,42.667-42.667v-384C469.333,19.135,450.198,0,426.667,0z"/>
<g>
</g>
<g>
</g>
<g>
</g>
<g>
</g>
<g>
</g>
<g>
</g>
<g>
</g>
<g>
</g>
<g>
</g>
<g>
</g>
<g>
</g>
<g>
</g>
<g>
</g>
<g>
</g>
<g>
</g>
</svg>
