<?xml version="1.0" encoding="iso-8859-1"?>
<!-- Generator: Adobe Illustrator 19.0.0, SVG Export Plug-In . SVG Version: 6.00 Build 0)  -->
<svg version="1.1" id="Capa_1" xmlns="http://www.w3.org/2000/svg" xmlns:xlink="http://www.w3.org/1999/xlink" x="0px" y="0px"
	 viewBox="0 0 512 512" style="enable-background:new 0 0 512 512;" xml:space="preserve">
<path style="fill:#303C42;" d="M444.875,348.875c4.167-4.167,4.167-10.917,0-15.083l-21.333-21.333
	c-4.167-4.167-10.917-4.167-15.083,0l-5.842,5.842c-11.816-8.348-25.284-14.488-39.949-17.478V288V96
	c0-2.833-1.125-5.542-3.125-7.542L274.208,3.125c-2-2-4.708-3.125-7.542-3.125h-160C83.146,0,64,19.135,64,42.667v320
	c0,23.531,19.146,42.667,42.667,42.667h128c0,58.813,47.854,106.667,106.667,106.667S448,464.146,448,405.333
	c0-17.255-4.508-33.331-11.815-47.768L444.875,348.875z"/>
<path style="fill:#FFFFFF;" d="M106.667,384c-11.771,0-21.333-9.573-21.333-21.333v-320c0-11.76,9.563-21.333,21.333-21.333H256V64
	c0,23.531,19.146,42.667,42.667,42.667h42.667v170.667h-10.667c-5.896,0-10.667,4.771-10.667,10.667v12.823
	c-14.665,2.99-28.133,9.13-39.949,17.478l-5.842-5.842c-4.167-4.167-10.917-4.167-15.083,0l-21.333,21.333
	c-4.167,4.167-4.167,10.917,0,15.083l8.69,8.69c-4.214,8.326-7.743,17.04-9.659,26.435H106.667z"/>
<circle style="fill:#FCB316;" cx="341.333" cy="405.333" r="85.333"/>
<linearGradient id="SVGID_1_" gradientUnits="userSpaceOnUse" x1="-34.3294" y1="629.1749" x2="-27.0769" y2="625.7938" gradientTransform="matrix(21.3333 0 0 -21.3333 996.3334 13791.667)">
	<stop  offset="0" style="stop-color:#FFFFFF;stop-opacity:0"/>
	<stop  offset="1" style="stop-color:#FFFFFF;stop-opacity:0.2"/>
</linearGradient>
<circle style="fill:url(#SVGID_1_);" cx="341.333" cy="405.333" r="85.333"/>
<path style="opacity:0.1;fill:#010101;enable-background:new    ;" d="M277.333,426.667c0-47.052,38.271-85.333,85.333-85.333
	c18.086,0,34.806,5.738,48.622,15.37C395.858,334.576,370.303,320,341.333,320C294.271,320,256,358.281,256,405.333
	c0,28.97,14.576,54.531,36.711,69.964C283.074,461.478,277.333,444.755,277.333,426.667z"/>
<path style="fill:#303C42;" d="M355.367,389.549l7.091-35.456c1.167-5.781-2.583-11.396-8.375-12.552
	c-5.521-1.188-11.375,2.573-12.542,8.365l-7.098,35.488C326.092,388.29,320,396.013,320,405.333c0,11.76,9.563,21.333,21.333,21.333
	s21.333-9.573,21.333-21.333C362.667,398.999,359.767,393.461,355.367,389.549z"/>
<path style="fill:#E6E6E5;" d="M277.333,36.417l48.917,48.917h-27.583c-11.771,0-21.333-9.573-21.333-21.333V36.417z"/>
<linearGradient id="SVGID_2_" gradientUnits="userSpaceOnUse" x1="-33.4063" y1="642.7736" x2="-29.9965" y2="639.3648" gradientTransform="matrix(21.3333 0 0 -21.3333 996.3334 13791.667)">
	<stop  offset="0" style="stop-color:#010101;stop-opacity:0.1"/>
	<stop  offset="1" style="stop-color:#010101;stop-opacity:0"/>
</linearGradient>
<path style="fill:url(#SVGID_2_);" d="M268.603,94.232l72.73,72.73v-60.296h-42.667C286.948,106.667,276.323,101.909,268.603,94.232
	z"/>
<linearGradient id="SVGID_3_" gradientUnits="userSpaceOnUse" x1="-45.7829" y1="640.4655" x2="-23.8924" y2="630.2617" gradientTransform="matrix(21.3333 0 0 -21.3333 996.3334 13791.667)">
	<stop  offset="0" style="stop-color:#FFFFFF;stop-opacity:0.2"/>
	<stop  offset="1" style="stop-color:#FFFFFF;stop-opacity:0"/>
</linearGradient>
<path style="fill:url(#SVGID_3_);" d="M444.875,348.875c4.167-4.167,4.167-10.917,0-15.083l-21.333-21.333
	c-4.167-4.167-10.917-4.167-15.083,0l-5.842,5.842c-11.816-8.348-25.284-14.488-39.949-17.478V288V96
	c0-2.833-1.125-5.542-3.125-7.542L274.208,3.125c-2-2-4.708-3.125-7.542-3.125h-160C83.146,0,64,19.135,64,42.667v320
	c0,23.531,19.146,42.667,42.667,42.667h128c0,58.813,47.854,106.667,106.667,106.667S448,464.146,448,405.333
	c0-17.255-4.508-33.331-11.815-47.768L444.875,348.875z"/>
<g>
</g>
<g>
</g>
<g>
</g>
<g>
</g>
<g>
</g>
<g>
</g>
<g>
</g>
<g>
</g>
<g>
</g>
<g>
</g>
<g>
</g>
<g>
</g>
<g>
</g>
<g>
</g>
<g>
</g>
</svg>
