<?xml version="1.0" encoding="iso-8859-1"?>
<!-- Generator: Adobe Illustrator 19.0.0, SVG Export Plug-In . SVG Version: 6.00 Build 0)  -->
<svg version="1.1" id="Capa_1" xmlns="http://www.w3.org/2000/svg" xmlns:xlink="http://www.w3.org/1999/xlink" x="0px" y="0px"
	 viewBox="0 0 469.333 469.333" style="enable-background:new 0 0 469.333 469.333;" xml:space="preserve">
<path style="fill:#303C42;" d="M458.667,448H448V32c0-17.646-14.354-32-32-32c-17.646,0-32,14.354-32,32v10.667H85.333V32
	c0-17.646-14.354-32-32-32s-32,14.354-32,32v416H10.667C4.771,448,0,452.771,0,458.667c0,5.896,4.771,10.667,10.667,10.667H96
	c5.896,0,10.667-4.771,10.667-10.667c0-5.896-4.771-10.667-10.667-10.667H85.333V106.667H128v32c0,5.896,4.771,10.667,10.667,10.667
	h10.667v152.613c-6.258,3.724-10.667,10.262-10.667,18.053c0,7.792,4.409,14.329,10.667,18.053V352
	c0,5.896,4.771,10.667,10.667,10.667c5.896,0,10.667-4.771,10.667-10.667v-13.947c6.258-3.724,10.667-10.262,10.667-18.053
	c0-7.792-4.409-14.329-10.667-18.053V149.333h10.667c5.896,0,10.667-4.771,10.667-10.667v-32h64v352
	c0,5.896,4.771,10.667,10.667,10.667c5.896,0,10.667-4.771,10.667-10.667v-32H384V448h-10.667c-5.896,0-10.667,4.771-10.667,10.667
	c0,5.896,4.771,10.667,10.667,10.667h85.333c5.896,0,10.667-4.771,10.667-10.667C469.333,452.771,464.563,448,458.667,448z
	 M384,106.667v42.667H277.333v-42.667H384z M384,341.333H277.333v-42.667H384V341.333z M384,277.333H277.333v-42.667H384V277.333z
	 M384,213.333H277.333v-42.667H384V213.333z M277.333,405.333v-42.667H384v42.667H277.333z"/>
<g>
	<rect x="149.333" y="106.667" style="fill:#BDBDBD;" width="21.333" height="21.333"/>
	<path style="fill:#BDBDBD;" d="M405.333,448V96c0-5.896-4.771-10.667-10.667-10.667h-320C68.771,85.333,64,90.104,64,96v352H42.667
		V32c0-5.885,4.781-10.667,10.667-10.667S64,26.115,64,32v21.333C64,59.229,68.771,64,74.667,64h320
		c5.896,0,10.667-4.771,10.667-10.667V32c0-5.885,4.781-10.667,10.667-10.667c5.885,0,10.667,4.781,10.667,10.667v416H405.333z"/>
</g>
<linearGradient id="SVGID_1_" gradientUnits="userSpaceOnUse" x1="-68.1753" y1="618.3967" x2="-43.0956" y2="606.7018" gradientTransform="matrix(21.3333 0 0 -21.3333 1430.1112 13315.2227)">
	<stop  offset="0" style="stop-color:#FFFFFF;stop-opacity:0.2"/>
	<stop  offset="1" style="stop-color:#FFFFFF;stop-opacity:0"/>
</linearGradient>
<path style="fill:url(#SVGID_1_);" d="M458.667,448H448V32c0-17.646-14.354-32-32-32c-17.646,0-32,14.354-32,32v10.667H85.333V32
	c0-17.646-14.354-32-32-32s-32,14.354-32,32v416H10.667C4.771,448,0,452.771,0,458.667c0,5.896,4.771,10.667,10.667,10.667H96
	c5.896,0,10.667-4.771,10.667-10.667c0-5.896-4.771-10.667-10.667-10.667H85.333V106.667H128v32c0,5.896,4.771,10.667,10.667,10.667
	h10.667v152.613c-6.258,3.724-10.667,10.262-10.667,18.053c0,7.792,4.409,14.329,10.667,18.053V352
	c0,5.896,4.771,10.667,10.667,10.667c5.896,0,10.667-4.771,10.667-10.667v-13.947c6.258-3.724,10.667-10.262,10.667-18.053
	c0-7.792-4.409-14.329-10.667-18.053V149.333h10.667c5.896,0,10.667-4.771,10.667-10.667v-32h64v352
	c0,5.896,4.771,10.667,10.667,10.667c5.896,0,10.667-4.771,10.667-10.667v-32H384V448h-10.667c-5.896,0-10.667,4.771-10.667,10.667
	c0,5.896,4.771,10.667,10.667,10.667h85.333c5.896,0,10.667-4.771,10.667-10.667C469.333,452.771,464.563,448,458.667,448z
	 M384,106.667v42.667H277.333v-42.667H384z M384,341.333H277.333v-42.667H384V341.333z M384,277.333H277.333v-42.667H384V277.333z
	 M384,213.333H277.333v-42.667H384V213.333z M277.333,405.333v-42.667H384v42.667H277.333z"/>
<g>
</g>
<g>
</g>
<g>
</g>
<g>
</g>
<g>
</g>
<g>
</g>
<g>
</g>
<g>
</g>
<g>
</g>
<g>
</g>
<g>
</g>
<g>
</g>
<g>
</g>
<g>
</g>
<g>
</g>
</svg>
