<?xml version="1.0" encoding="iso-8859-1"?>
<!-- Generator: Adobe Illustrator 19.0.0, SVG Export Plug-In . SVG Version: 6.00 Build 0)  -->
<svg version="1.1" id="Capa_1" xmlns="http://www.w3.org/2000/svg" xmlns:xlink="http://www.w3.org/1999/xlink" x="0px" y="0px"
	 viewBox="0 0 480 480" style="enable-background:new 0 0 480 480;" xml:space="preserve">
<g>
	<circle style="fill:#FAC05E;" cx="160" cy="240" r="48"/>
	<circle style="fill:#FAC05E;" cx="320" cy="240" r="48"/>
	<path style="fill:#FAC05E;" d="M400,160v96c0,17.672-14.328,32-32,32h-64h-32h-64h-16h-80c-17.672,0-32-14.328-32-32v-96H48v96
		c0,35.344,28.656,64,64,64v152h96v-94.544l64-52.36V472h96V320c35.344,0,64-28.656,64-64v-96H400z M208,320h22.664L208,339.432V320
		z"/>
</g>
<rect x="24" y="128" style="fill:#EE6352;" width="432" height="32"/>
<g>
	<polygon style="fill:#50D4E3;" points="176,128 48,128 72,40 152,40 	"/>
	<polygon style="fill:#50D4E3;" points="152,40 200,40 232,128 176,128 	"/>
	<polygon style="fill:#50D4E3;" points="376,128 248,128 272,40 352,40 	"/>
	<polygon style="fill:#50D4E3;" points="352,40 400,40 432,128 376,128 	"/>
</g>
<path style="fill:#0F272A;" d="M456,120h-18.4l-30.088-82.736C406.368,34.104,403.368,32,400,32h-48h-1.472
	c0.896-2.512,1.472-5.184,1.472-8c0-13.232-10.768-24-24-24s-24,10.768-24,24c0,2.816,0.576,5.488,1.472,8H272
	c-3.608,0-6.768,2.416-7.72,5.896L241.888,120H237.6l-30.088-82.736C206.368,34.104,203.368,32,200,32h-48h-1.472
	c0.896-2.512,1.472-5.184,1.472-8c0-13.232-10.768-24-24-24s-24,10.768-24,24c0,2.816,0.576,5.488,1.472,8H72
	c-3.608,0-6.768,2.416-7.72,5.896L41.888,120H24c-4.424,0-8,3.576-8,8v32c0,4.424,3.576,8,8,8h16v88c0,37,28.048,67.56,64,71.552
	V472c0,4.424,3.576,8,8,8h48h48c4.424,0,8-3.576,8-8v-92l48-36v128c0,4.424,3.576,8,8,8h48h48c4.424,0,8-3.576,8-8V327.552
	C411.952,323.56,440,293,440,256v-88h16c4.424,0,8-3.576,8-8v-32C464,123.576,460.424,120,456,120z M394.4,48l26.176,72h-38.472
	l-3.928-14.4L362.48,48H394.4z M320,24c0-4.416,3.584-8,8-8s8,3.584,8,8s-3.584,8-8,8S320,28.416,320,24z M278.112,48h67.784
	l3.928,14.4L365.52,120H258.48L278.112,48z M194.4,48l26.176,72h-38.472l-3.928-14.4L162.48,48H194.4z M120,24c0-4.416,3.584-8,8-8
	s8,3.584,8,8s-3.584,8-8,8S120,28.416,120,24z M78.112,48h67.784l3.928,14.4L165.52,120H58.48L78.112,48z M200,320v144h-32v-88h-16
	v88h-32V320c0-4.424-3.576-8-8-8c-30.872,0-56-25.128-56-56v-88h16v88c0,22.056,17.944,40,40,40h124.688l-16,16H208
	C203.576,312,200,315.576,200,320z M296,248c0,6.352-3.752,11.808-9.128,14.384C282.536,255.992,280,248.288,280,240
	c0-22.056,17.944-40,40-40s40,17.944,40,40s-17.944,40-40,40c-7.808,0-15.048-2.336-21.208-6.224
	C306.76,267.952,312,258.608,312,248H296z M376,240c0-30.872-25.128-56-56-56s-56,25.128-56,56c0,15.216,6.12,29.008,16,39.112V280
	c0.272,0,0.528-0.072,0.8-0.08c0.032,0.032,0.056,0.056,0.088,0.08H280h-10.744h-70.144C209.52,269.824,216,255.664,216,240
	c0-30.872-25.128-56-56-56s-56,25.128-56,56c0,15.664,6.48,29.824,16.888,40H112c-13.232,0-24-10.768-24-24v-88h304v88
	c0,13.232-10.768,24-24,24h-8.888C369.52,269.824,376,255.664,376,240z M120,240c0-22.056,17.944-40,40-40s40,17.944,40,40
	c0,9.032-3.12,17.28-8.192,23.984C183.08,263.88,176,256.752,176,248h-16c0,12.192,6.928,22.68,16.976,28.08
	C171.8,278.528,166.088,280,160,280C137.944,280,120,262.056,120,240z M424,256c0,30.872-25.128,56-56,56c-4.424,0-8,3.576-8,8v144
	h-32v-88h-16v88h-32V328c0-3.032-1.712-5.8-4.424-7.16c-2.712-1.336-5.952-1.072-8.376,0.76L216,360v-20.688l36.28-36.28
	c4.536-4.536,10.56-7.032,16.976-7.032H280h88c22.056,0,40-17.944,40-40v-88h16V256z M448,152H32v-16h16h128h56h16h128h56h16V152z"
	/>
<g>
</g>
<g>
</g>
<g>
</g>
<g>
</g>
<g>
</g>
<g>
</g>
<g>
</g>
<g>
</g>
<g>
</g>
<g>
</g>
<g>
</g>
<g>
</g>
<g>
</g>
<g>
</g>
<g>
</g>
</svg>
