<?xml version="1.0" encoding="iso-8859-1"?>
<!-- Generator: Adobe Illustrator 19.0.0, SVG Export Plug-In . SVG Version: 6.00 Build 0)  -->
<svg version="1.1" id="Capa_1" xmlns="http://www.w3.org/2000/svg" xmlns:xlink="http://www.w3.org/1999/xlink" x="0px" y="0px"
	 viewBox="0 0 512 512" style="enable-background:new 0 0 512 512;" xml:space="preserve">
<g>
	<g>
		<path d="M501.333,96h-10.667V85.333c0-11.76-9.573-21.333-21.333-21.333c0-11.76-9.573-21.333-21.333-21.333h-21.333
			c-11.76,0-21.333,9.573-21.333,21.333v32H384c0-5.896-4.771-10.667-10.667-10.667c-5.896,0-10.667,4.771-10.667,10.667H149.333
			c0-5.896-4.771-10.667-10.667-10.667C132.771,85.333,128,90.104,128,96h-21.333V64c0-11.76-9.573-21.333-21.333-21.333H64
			c-11.76,0-21.333,9.573-21.333,21.333c-11.76,0-21.333,9.573-21.333,21.333V96H10.667C4.771,96,0,100.771,0,106.667
			c0,5.896,4.771,10.667,10.667,10.667h10.667V128c0,11.76,9.573,21.333,21.333,21.333c0,11.76,9.573,21.333,21.333,21.333h21.333
			c11.76,0,21.333-9.573,21.333-21.333v-32H128v166.25l-39.542,39.542c-1.736,1.736-2.959,3.959-3.125,6.289
			c-0.087,1.22,0,129.253,0,129.253c0,5.896,4.771,10.667,10.667,10.667s10.667-4.771,10.667-10.667V341.333H128V416
			c0,5.896,4.771,10.667,10.667,10.667c5.896,0,10.667-4.771,10.667-10.667v-74.667h213.333V416c0,5.896,4.771,10.667,10.667,10.667
			c5.896,0,10.667-4.771,10.667-10.667v-74.667h21.333v117.333c0,5.896,4.771,10.667,10.667,10.667
			c5.896,0,10.667-4.771,10.667-10.667c0,0,0.096-127.402,0-128.881c-0.161-2.464-1.299-4.835-3.125-6.661L384,283.583v-166.25
			h21.333v32c0,11.76,9.573,21.333,21.333,21.333H448c11.76,0,21.333-9.573,21.333-21.333c11.76,0,21.333-9.573,21.333-21.333
			v-10.667h10.667c5.896,0,10.667-4.771,10.667-10.667C512,100.771,507.229,96,501.333,96z M64,149.333V64h21.333v85.333H64z
			 M149.333,117.333h213.333v160H149.333V117.333z M390.25,320h-268.5l21.333-21.333h225.833L390.25,320z M448,149.333h-21.333V64
			H448V149.333z"/>
	</g>
</g>
<g>
</g>
<g>
</g>
<g>
</g>
<g>
</g>
<g>
</g>
<g>
</g>
<g>
</g>
<g>
</g>
<g>
</g>
<g>
</g>
<g>
</g>
<g>
</g>
<g>
</g>
<g>
</g>
<g>
</g>
</svg>
