<?xml version="1.0" encoding="iso-8859-1"?>
<!-- Generator: Adobe Illustrator 19.0.0, SVG Export Plug-In . SVG Version: 6.00 Build 0)  -->
<svg version="1.1" id="Capa_1" xmlns="http://www.w3.org/2000/svg" xmlns:xlink="http://www.w3.org/1999/xlink" x="0px" y="0px"
	 viewBox="0 0 480 480" style="enable-background:new 0 0 480 480;" xml:space="preserve">
<g>
	<g>
		<path d="M440,32h-56v-8c0-13.232-10.768-24-24-24s-24,10.768-24,24v8H144v-8c0-13.232-10.768-24-24-24S96,10.768,96,24v8H40
			C17.944,32,0,49.944,0,72v368c0,22.056,17.944,40,40,40h400c22.056,0,40-17.944,40-40V72C480,49.944,462.056,32,440,32z M352,24
			c0-4.416,3.584-8,8-8c4.416,0,8,3.584,8,8v64c0,4.416-3.584,8-8,8c-4.416,0-8-3.584-8-8V24z M336.04,88.4
			c0.224,13.048,10.864,23.6,23.96,23.6s23.736-10.552,23.96-23.6C393.096,90.24,400,98.328,400,108c0,11.032-8.968,20-20,20h-40
			c-11.032,0-20-8.968-20-20C320,98.328,326.904,90.24,336.04,88.4z M112,24c0-4.416,3.584-8,8-8s8,3.584,8,8v64
			c0,4.416-3.584,8-8,8s-8-3.584-8-8V24z M96.04,88.4C96.264,101.448,106.904,112,120,112s23.736-10.552,23.96-23.6
			C153.096,90.24,160,98.328,160,108c0,11.032-8.968,20-20,20h-40c-11.032,0-20-8.968-20-20C80,98.328,86.904,90.24,96.04,88.4z
			 M464,440c0,13.232-10.768,24-24,24H40c-13.232,0-24-10.768-24-24V176h448V440z M464,160H16V72c0-13.232,10.768-24,24-24h56
			v24.408C78.048,74.424,64,89.52,64,108c0,19.848,16.152,36,36,36h40c19.848,0,36-16.152,36-36c0-18.48-14.048-33.576-32-35.592V48
			h192v24.408C318.048,74.424,304,89.52,304,108c0,19.848,16.152,36,36,36h40c19.848,0,36-16.152,36-36
			c0-18.48-14.048-33.576-32-35.592V48h56c13.232,0,24,10.768,24,24V160z"/>
	</g>
</g>
<g>
	<g>
		<rect x="432" y="192" width="16" height="16"/>
	</g>
</g>
<g>
	<g>
		<rect x="400" y="192" width="16" height="16"/>
	</g>
</g>
<g>
	<g>
		<rect x="368" y="192" width="16" height="16"/>
	</g>
</g>
<g>
	<g>
		<path d="M432,264h-40v-16c0-4.424-3.576-8-8-8h-48c-4.424,0-8,3.576-8,8v64H152v-64c0-4.424-3.576-8-8-8H96c-4.424,0-8,3.576-8,8
			v16H48c-4.424,0-8,3.576-8,8v128c0,4.424,3.576,8,8,8h40v16c0,4.424,3.576,8,8,8h48c4.424,0,8-3.576,8-8v-64h176v64
			c0,4.424,3.576,8,8,8h48c4.424,0,8-3.576,8-8v-16h40c4.424,0,8-3.576,8-8V272C440,267.576,436.424,264,432,264z M88,392H56V280h32
			V392z M136,320v32v64h-32v-16V272v-16h32V320z M328,344H152v-16h176V344z M376,272v128v16h-32v-64v-32v-64h32V272z M424,392h-32
			V280h32V392z"/>
	</g>
</g>
<g>
</g>
<g>
</g>
<g>
</g>
<g>
</g>
<g>
</g>
<g>
</g>
<g>
</g>
<g>
</g>
<g>
</g>
<g>
</g>
<g>
</g>
<g>
</g>
<g>
</g>
<g>
</g>
<g>
</g>
</svg>
