<?xml version="1.0" encoding="iso-8859-1"?>
<!-- Generator: Adobe Illustrator 19.0.0, SVG Export Plug-In . SVG Version: 6.00 Build 0)  -->
<svg version="1.1" id="Capa_1" xmlns="http://www.w3.org/2000/svg" xmlns:xlink="http://www.w3.org/1999/xlink" x="0px" y="0px"
	 viewBox="0 0 512 512" style="enable-background:new 0 0 512 512;" xml:space="preserve">
<g>
	<g>
		<g>
			<path d="M194.292,166.5c-9.896-6.417-31.667-17.167-66.292-17.167h-0.75c-5.896,0-10.292,4.771-10.292,10.667
				s5.146,10.667,11.042,10.667c29.146,0,46.771,8.604,54.667,13.729c1.813,1.167,3.813,1.719,5.813,1.719
				c3.479,0,6.917-1.719,8.958-4.865C200.625,176.302,199.229,169.698,194.292,166.5z"/>
			<path d="M128,213.333c-30.75,0-48.813-9.844-55.167-14.073c-4.854-3.25-11.5-1.958-14.792,2.958
				c-3.271,4.896-1.938,11.521,2.958,14.792c9.875,6.594,31.729,17.656,67.208,17.656l1.313-0.01c5.896,0,9.917-4.771,9.917-10.656
				C139.438,218.104,133.896,213.333,128,213.333z"/>
			<path d="M501.333,106.667H128C56.229,106.667,0,144.146,0,192v128c0,47.854,56.229,85.333,128,85.333S256,367.854,256,320
				h245.333c5.896,0,10.667-4.771,10.667-10.667v-192C512,111.438,507.229,106.667,501.333,106.667z M234.667,320
				c0,34.688-48.854,64-106.667,64S21.333,354.688,21.333,320v-80.238c6.016,6.034,13.242,11.443,21.333,16.224V288
				c0,5.896,4.771,10.667,10.667,10.667C59.229,298.667,64,293.896,64,288v-21.827c12.911,4.88,27.285,8.271,42.667,9.928v54.565
				c0,5.896,4.771,10.667,10.667,10.667c5.896,0,10.667-4.771,10.667-10.667v-53.333c15.053,0,29.357-1.734,42.667-4.781V288
				c0,5.896,4.771,10.667,10.667,10.667c5.896,0,10.667-4.771,10.667-10.667v-21.827c17.172-6.491,31.79-15.503,42.667-26.411V320z
				 M128,256c-57.813,0-106.667-29.313-106.667-64S70.188,128,128,128s106.667,29.313,106.667,64S185.813,256,128,256z
				 M426.667,298.667H256V192c0-25.78-16.413-48.479-42.689-64H256v32c0,5.896,4.771,10.667,10.667,10.667
				c5.896,0,10.667-4.771,10.667-10.667v-32H320v74.667c0,5.896,4.771,10.667,10.667,10.667c5.896,0,10.667-4.771,10.667-10.667V128
				H384v32c0,5.896,4.771,10.667,10.667,10.667s10.667-4.771,10.667-10.667v-32h21.333V298.667z M490.667,298.667H448V128h42.667
				V298.667z"/>
		</g>
	</g>
</g>
<g>
</g>
<g>
</g>
<g>
</g>
<g>
</g>
<g>
</g>
<g>
</g>
<g>
</g>
<g>
</g>
<g>
</g>
<g>
</g>
<g>
</g>
<g>
</g>
<g>
</g>
<g>
</g>
<g>
</g>
</svg>
