<?xml version="1.0" encoding="iso-8859-1"?>
<!-- Generator: Adobe Illustrator 19.0.0, SVG Export Plug-In . SVG Version: 6.00 Build 0)  -->
<svg version="1.1" id="Capa_1" xmlns="http://www.w3.org/2000/svg" xmlns:xlink="http://www.w3.org/1999/xlink" x="0px" y="0px"
	 viewBox="0 0 480 480" style="enable-background:new 0 0 480 480;" xml:space="preserve">
<g>
	<g>
		<path d="M392,152c-12.552,0-24.328,6.024-31.84,16.016c-0.056,0-0.104-0.016-0.16-0.016c-22.056,0-40,17.944-40,40
			c0,16.36,9.896,30.416,24,36.608V272h-49.472c0.896-2.512,1.472-5.184,1.472-8c0-6.168-2.408-11.744-6.24-16
			c3.84-4.256,6.24-9.832,6.24-16c0-10.12-6.312-18.752-15.192-22.272c1.72-6.752,6.2-12.744,12.728-16.672
			c31.6-19,50.464-52.288,50.464-89.056c0-28.568-11.344-55.2-31.952-75C291.456,9.208,264.4-1.064,235.736,0.088
			c-52.952,2.12-96.688,45.2-99.576,98.096c-2.112,38.568,17.144,74.904,50.24,94.84c6.552,3.944,11.04,9.928,12.784,16.704
			C190.304,213.256,184,221.888,184,232c0,6.168,2.408,11.744,6.24,16c-3.84,4.256-6.24,9.832-6.24,16c0,2.816,0.576,5.488,1.472,8
			H136v-27.392c14.104-6.192,24-20.248,24-36.608c0-22.056-17.944-40-40-40c-0.056,0-0.104,0.016-0.16,0.016
			C112.328,158.024,100.552,152,88,152c-22.056,0-40,17.944-40,40c0,22.056,17.944,40,40,40c0.064,0,0.128-0.008,0.192-0.008
			L88.2,232H88v48c0,22.056,17.944,40,40,40h56v152c0,4.416,3.584,8,8,8h48h48c4.416,0,8-3.584,8-8V320h56c22.056,0,40-17.944,40-40
			v-48h-0.208c0.008-0.008,0.008-0.008,0.016-0.016c0.064,0,0.128,0.016,0.192,0.016c22.056,0,40-17.944,40-40
			C432,169.944,414.056,152,392,152z M194.648,179.32c-28.008-16.872-44.296-47.632-42.512-80.264
			c2.44-44.744,39.448-81.192,84.24-82.984c24.16-0.936,47.16,7.712,64.584,24.464C318.4,57.288,328,79.832,328,104
			c0,31.104-15.968,59.264-42.704,75.344c-10.912,6.56-18.224,16.912-20.52,28.656H264v-96h8c13.232,0,24-10.768,24-24
			s-10.768-24-24-24s-24,10.768-24,24v8h-16v-8c0-13.232-10.768-24-24-24s-24,10.768-24,24s10.768,24,24,24h8v96h-0.768
			C212.936,196.288,205.6,185.912,194.648,179.32z M208,272c-4.408,0-8-3.592-8-8c0-4.408,3.592-8,8-8h64c4.408,0,8,3.592,8,8
			c0,4.408-3.592,8-8,8H208z M249.872,288L240,304.448L230.128,288H249.872z M272,240h-64c-4.408,0-8-3.592-8-8s3.592-8,8-8h64
			c4.408,0,8,3.592,8,8S276.408,240,272,240z M216,96h-8c-4.408,0-8-3.592-8-8s3.592-8,8-8s8,3.592,8,8V96z M232,208v-96h16v96H232z
			 M264,96v-8c0-4.408,3.592-8,8-8c4.408,0,8,3.592,8,8s-3.592,8-8,8H264z M92.84,178.816c-0.96,0.888-1.824,1.848-2.688,2.832
			c-0.64,0.712-1.24,1.448-1.824,2.208c-0.712,0.928-1.416,1.84-2.04,2.832c-1.072,1.672-2.032,3.408-2.84,5.232
			c-0.304,0.688-0.52,1.416-0.784,2.128c-0.584,1.528-1.072,3.088-1.464,4.696c-0.176,0.728-0.344,1.448-0.472,2.192
			C80.296,203.24,80,205.584,80,208c0,2.304,0.2,4.584,0.616,6.832C70.984,211.712,64,202.656,64,192c0-13.232,10.768-24,24-24
			c5.024,0,9.848,1.632,13.84,4.512c-0.32,0.168-0.608,0.384-0.928,0.56c-2.552,1.4-4.936,3.04-7.112,4.952
			C93.488,178.296,93.144,178.536,92.84,178.816z M99.272,219.872c-0.032-0.064-0.048-0.144-0.088-0.208
			c-1.016-1.8-1.752-3.648-2.28-5.512c-0.032-0.128-0.088-0.256-0.12-0.384C96.272,211.864,96,209.944,96,208
			c0-1.56,0.176-3.072,0.456-4.552c0.16-0.792,0.424-1.544,0.656-2.304c0.184-0.624,0.344-1.264,0.584-1.872
			c0.392-0.984,0.88-1.912,1.4-2.832c0.168-0.312,0.32-0.632,0.504-0.928c0.648-1.032,1.376-2.016,2.168-2.944
			c0.104-0.12,0.2-0.248,0.304-0.376c0.896-1.008,1.872-1.944,2.928-2.792c0.016-0.008,0.024-0.024,0.04-0.032
			c3.312-2.64,7.352-4.44,11.8-5.032c0.072-0.008,0.136-0.04,0.208-0.056c0.984-0.104,1.944-0.28,2.952-0.28
			c13.232,0,24,10.768,24,24s-10.768,24-24,24C111.104,232,103.416,227.08,99.272,219.872z M376,280c0,13.232-10.768,24-24,24h-64
			c-4.416,0-8,3.584-8,8v152h-32v-88h-16v88h-32V312c0-4.416-3.584-8-8-8h-64c-13.232,0-24-10.768-24-24v-35.392
			c4.912,2.16,10.304,3.392,16,3.392v32c0,4.416,3.584,8,8,8h80h3.472l21.672,36.12c1.44,2.408,4.048,3.88,6.856,3.88
			s5.416-1.472,6.856-3.88L268.528,288H272h80c4.416,0,8-3.584,8-8v-32c5.696,0,11.088-1.232,16-3.392V280z M383.216,213.768
			c-0.032,0.128-0.088,0.256-0.12,0.384c-0.528,1.864-1.272,3.712-2.288,5.512c-0.032,0.056-0.032,0.112-0.064,0.168
			C376.616,227.064,368.912,232,360,232c-13.232,0-24-10.768-24-24s10.768-24,24-24c1.008,0,1.968,0.176,2.944,0.296
			c0.072,0.008,0.136,0.048,0.208,0.056c4.448,0.592,8.488,2.392,11.8,5.032c0.016,0.008,0.024,0.024,0.04,0.032
			c1.056,0.848,2.032,1.784,2.928,2.792c0.104,0.12,0.2,0.248,0.304,0.376c0.792,0.928,1.52,1.904,2.168,2.944
			c0.184,0.296,0.336,0.616,0.504,0.928c0.52,0.92,1.008,1.856,1.4,2.84c0.232,0.6,0.392,1.24,0.576,1.856
			c0.232,0.768,0.504,1.52,0.664,2.312C383.824,204.928,384,206.44,384,208C384,209.944,383.728,211.864,383.216,213.768z
			 M399.384,214.832C399.8,212.584,400,210.304,400,208c0-2.416-0.296-4.76-0.712-7.072c-0.136-0.744-0.304-1.464-0.472-2.192
			c-0.392-1.608-0.88-3.168-1.464-4.696c-0.264-0.712-0.48-1.432-0.784-2.128c-0.816-1.824-1.776-3.56-2.84-5.232
			c-0.624-0.992-1.336-1.904-2.04-2.832c-0.584-0.76-1.184-1.496-1.824-2.208c-0.864-0.984-1.736-1.936-2.688-2.832
			c-0.304-0.28-0.648-0.52-0.96-0.792c-2.176-1.904-4.552-3.544-7.112-4.952c-0.336-0.168-0.624-0.384-0.944-0.552
			c3.992-2.88,8.816-4.512,13.84-4.512c13.232,0,24,10.768,24,24C416,202.656,409.016,211.712,399.384,214.832z"/>
	</g>
</g>
<g>
	<g>
		<rect x="400" y="336" width="16" height="16"/>
	</g>
</g>
<g>
	<g>
		<rect x="400" y="368" width="16" height="16"/>
	</g>
</g>
<g>
	<g>
		<rect x="368" y="368" width="16" height="16"/>
	</g>
</g>
<g>
	<g>
		<rect x="432" y="368" width="16" height="16"/>
	</g>
</g>
<g>
	<g>
		<rect x="64" y="336" width="16" height="16"/>
	</g>
</g>
<g>
	<g>
		<rect x="64" y="368" width="16" height="16"/>
	</g>
</g>
<g>
	<g>
		<rect x="32" y="368" width="16" height="16"/>
	</g>
</g>
<g>
	<g>
		<rect x="96" y="368" width="16" height="16"/>
	</g>
</g>
<g>
	<g>
		<rect x="64" y="400" width="16" height="16"/>
	</g>
</g>
<g>
	<g>
		<rect x="32" y="400" width="16" height="16"/>
	</g>
</g>
<g>
	<g>
		<rect y="400" width="16" height="16"/>
	</g>
</g>
<g>
	<g>
		<rect x="96" y="400" width="16" height="16"/>
	</g>
</g>
<g>
	<g>
		<rect x="128" y="400" width="16" height="16"/>
	</g>
</g>
<g>
	<g>
		<rect x="400" y="400" width="16" height="16"/>
	</g>
</g>
<g>
	<g>
		<rect x="368" y="400" width="16" height="16"/>
	</g>
</g>
<g>
	<g>
		<rect x="336" y="400" width="16" height="16"/>
	</g>
</g>
<g>
	<g>
		<rect x="432" y="400" width="16" height="16"/>
	</g>
</g>
<g>
	<g>
		<rect x="464" y="400" width="16" height="16"/>
	</g>
</g>
<g>
</g>
<g>
</g>
<g>
</g>
<g>
</g>
<g>
</g>
<g>
</g>
<g>
</g>
<g>
</g>
<g>
</g>
<g>
</g>
<g>
</g>
<g>
</g>
<g>
</g>
<g>
</g>
<g>
</g>
</svg>
