<?xml version="1.0" encoding="iso-8859-1"?>
<!-- Generator: Adobe Illustrator 19.0.0, SVG Export Plug-In . SVG Version: 6.00 Build 0)  -->
<svg version="1.1" id="Capa_1" xmlns="http://www.w3.org/2000/svg" xmlns:xlink="http://www.w3.org/1999/xlink" x="0px" y="0px"
	 viewBox="0 0 480 480" style="enable-background:new 0 0 480 480;" xml:space="preserve">
<g>
	<g>
		<path d="M480,160c0-4.424-3.584-8-8-8h-24.64c-3.904-27.088-27.208-48-55.36-48h-0.84C377.016,73.312,347.208,51.328,312,48.408V8
			c0-4.424-3.584-8-8-8H96c-4.416,0-8,3.576-8,8v40.408C38.808,52.496,0,93.76,0,144v8v40v128v64c0,52.936,43.064,96,96,96h176h160
			c3.984,0,7.352-2.928,7.92-6.864l40-280c0.024-0.184-0.048-0.352-0.04-0.536c0.016-0.208,0.12-0.392,0.12-0.6V160z M431.192,152
			H400v-8c0-8.12-1.12-15.96-3.032-23.496C414.008,122.648,427.8,135.376,431.192,152z M384,144v8h-56v-16
			c10.416,0,19.216-6.712,22.528-16h29.784C382.696,127.584,384,135.64,384,144z M256,120h-8c-4.408,0-8-3.584-8-8s3.592-8,8-8h80
			c4.408,0,8,3.584,8,8s-3.592,8-8,8h-8H256z M312,136v16h-48v-16H312z M104,16h192v32H104V16z M16,200h80v112H16V200z M16,328h88
			c4.416,0,8-3.576,8-8V192c0-4.424-3.584-8-8-8H16v-24h176v216H16V328z M96,464c-41.416,0-75.568-31.632-79.592-72H200
			c4.416,0,8-3.576,8-8V152c0-4.424-3.584-8-8-8H16c0-44.112,35.888-80,80-80h208c29.536,0,55.32,16.128,69.176,40h-22.648
			c-3.312-9.288-12.112-16-22.528-16h-80c-13.232,0-24,10.768-24,24s10.768,24,24,24v16h-16c-4.416,0-8,3.576-8,8v32
			c0,0.208,0.104,0.392,0.12,0.6c0.016,0.184-0.064,0.352-0.04,0.536L262.776,464H96z M425.064,464H278.936l-13.712-96h173.552
			L425.064,464z M441.064,352H262.936l-12.568-88h203.264L441.064,352z M455.92,248H248.08l-6.856-48h221.552L455.92,248z M464,184
			H240v-16h16h64h144V184z"/>
	</g>
</g>
<g>
	<g>
		<rect x="128" y="184" width="48" height="16"/>
	</g>
</g>
<g>
	<g>
		<rect x="128" y="216" width="48" height="16"/>
	</g>
</g>
<g>
	<g>
		<rect x="128" y="248" width="48" height="16"/>
	</g>
</g>
<g>
	<g>
		<rect x="128" y="280" width="48" height="16"/>
	</g>
</g>
<g>
	<g>
		<rect x="128" y="312" width="48" height="16"/>
	</g>
</g>
<g>
	<g>
		<path d="M352,280c-15.44,0-28,12.56-28,28s12.56,28,28,28s28-12.56,28-28S367.44,280,352,280z M352,320c-6.616,0-12-5.384-12-12
			c0-6.616,5.384-12,12-12c6.616,0,12,5.384,12,12C364,314.616,358.616,320,352,320z"/>
	</g>
</g>
<g>
</g>
<g>
</g>
<g>
</g>
<g>
</g>
<g>
</g>
<g>
</g>
<g>
</g>
<g>
</g>
<g>
</g>
<g>
</g>
<g>
</g>
<g>
</g>
<g>
</g>
<g>
</g>
<g>
</g>
</svg>
