<?xml version="1.0" encoding="iso-8859-1"?>
<!-- Generator: Adobe Illustrator 19.0.0, SVG Export Plug-In . SVG Version: 6.00 Build 0)  -->
<svg version="1.1" id="Capa_1" xmlns="http://www.w3.org/2000/svg" xmlns:xlink="http://www.w3.org/1999/xlink" x="0px" y="0px"
	 viewBox="0 0 512 512" style="enable-background:new 0 0 512 512;" xml:space="preserve">
<g>
	<g>
		<path d="M384,108.632V10.667C384,4.771,379.229,0,373.333,0h-42.667C324.771,0,320,4.771,320,10.667v3.633
			C301.487,5.142,279.814,0,256,0c-70.895,0-123.083,45.133-127.561,108.495c-12.615,4.293-21.772,16.122-21.772,30.172
			c0,14.095,9.219,25.954,21.898,30.211l19.831,297.508c0.792,11.813,5.833,22.927,14.208,31.302
			c9.229,9.229,21.5,14.313,34.552,14.313h117.688c13.052,0,25.323-5.083,34.552-14.313c8.375-8.375,13.417-19.49,14.208-31.302
			l19.831-297.508c12.68-4.257,21.898-16.116,21.898-30.211C405.333,124.779,396.389,113.049,384,108.632z M341.333,21.333h21.333
			v28.51c-5.997-8.257-13.201-15.608-21.333-22.036V21.333z M256,21.333c57.702,0,100.137,35.393,105.579,85.333H150.421
			C155.863,56.727,198.298,21.333,256,21.333z M359.086,213.333h-49.753c-5.896,0-10.667,4.771-10.667,10.667
			s4.771,10.667,10.667,10.667h48.329l-2.844,42.667h-24.152c-5.896,0-10.667,4.771-10.667,10.667s4.771,10.667,10.667,10.667h22.73
			l-2.844,42.667h-41.22c-5.896,0-10.667,4.771-10.667,10.667c0,5.896,4.771,10.667,10.667,10.667h39.798l-2.844,42.667h-15.621
			c-5.896,0-10.667,4.771-10.667,10.667c0,5.896,4.771,10.667,10.667,10.667h14.199l-2.553,38.302
			c-0.438,6.656-3.281,12.917-8,17.635c-5.198,5.198-12.115,8.063-19.469,8.063H197.156c-7.354,0-14.271-2.865-19.469-8.063
			c-4.719-4.719-7.563-10.979-8-17.635L150.07,170.667H361.93L359.086,213.333z M373.333,149.333H138.667
			c-5.885,0-10.667-4.781-10.667-10.667c0-5.885,4.781-10.667,10.667-10.667h234.667c5.885,0,10.667,4.781,10.667,10.667
			C384,144.552,379.219,149.333,373.333,149.333z"/>
	</g>
</g>
<g>
</g>
<g>
</g>
<g>
</g>
<g>
</g>
<g>
</g>
<g>
</g>
<g>
</g>
<g>
</g>
<g>
</g>
<g>
</g>
<g>
</g>
<g>
</g>
<g>
</g>
<g>
</g>
<g>
</g>
</svg>
