<?xml version="1.0" encoding="iso-8859-1"?>
<!-- Generator: Adobe Illustrator 19.0.0, SVG Export Plug-In . SVG Version: 6.00 Build 0)  -->
<svg version="1.1" id="Capa_1" xmlns="http://www.w3.org/2000/svg" xmlns:xlink="http://www.w3.org/1999/xlink" x="0px" y="0px"
	 viewBox="0 0 480 480" style="enable-background:new 0 0 480 480;" xml:space="preserve">
<g>
	<g>
		<path d="M168,0H40C17.944,0,0,17.944,0,40v224c0,22.056,17.944,40,40,40h128c22.056,0,40-17.944,40-40V40
			C208,17.944,190.056,0,168,0z M168,288H40c-13.232,0-24-10.768-24-24h176C192,277.232,181.232,288,168,288z M192,248H16V56h176
			V248z M16,40c0-13.232,10.768-24,24-24h128c13.232,0,24,10.768,24,24H16z"/>
	</g>
</g>
<g>
	<g>
		<path d="M157.768,144l-14.176-42.528c-1.112-3.328-4.632-5.608-7.76-5.472c-3.504,0.08-6.56,2.432-7.52,5.8l-22.936,80.272
			L87.84,94.432c-0.72-3.616-3.832-6.272-7.52-6.424c-3.728-0.176-7,2.24-8.016,5.792L57.968,144H32v16h32
			c3.568,0,6.712-2.368,7.688-5.8l6.936-24.272l17.528,87.648c0.72,3.616,3.832,6.272,7.52,6.424c0.112,0,0.224,0,0.328,0
			c3.552,0,6.704-2.352,7.688-5.8l24.896-87.136l7.824,23.472C145.504,157.8,148.552,160,152,160h24v-16H157.768z"/>
	</g>
</g>
<g>
	<g>
		<path d="M432,204.992V104c0-4.416-3.584-8-8-8h-80c-4.416,0-8,3.584-8,8v100.992c-28.648,16.632-48,47.568-48,83.008
			s19.352,66.376,48,83.008V472c0,4.416,3.584,8,8,8h80c4.416,0,8-3.584,8-8V371.008c28.648-16.632,48-47.568,48-83.008
			S460.648,221.624,432,204.992z M352,112h64v85.6c-10.024-3.56-20.768-5.6-32-5.6s-21.976,2.04-32,5.6V112z M416,464h-64v-85.6
			c10.024,3.56,20.768,5.6,32,5.6s21.976-2.04,32-5.6V464z M384,368c-44.112,0-80-35.888-80-80s35.888-80,80-80s80,35.888,80,80
			S428.112,368,384,368z"/>
	</g>
</g>
<g>
	<g>
		<path d="M429.656,274.344l-24-24c-3.128-3.128-8.184-3.128-11.312,0L384,260.688l-10.344-10.344
			c-3.128-3.128-8.184-3.128-11.312,0l-24,24c-3.128,3.128-3.128,8.184,0,11.312l40,40c1.56,1.56,3.608,2.344,5.656,2.344
			c2.048,0,4.096-0.784,5.656-2.344l40-40C432.784,282.528,432.784,277.472,429.656,274.344z M384,308.688L355.312,280L368,267.312
			l10.344,10.344c3.128,3.128,8.184,3.128,11.312,0L400,267.312L412.688,280L384,308.688z"/>
	</g>
</g>
<g>
	<g>
		<rect x="224" y="32" width="16" height="16"/>
	</g>
</g>
<g>
	<g>
		<rect x="256" y="32" width="16" height="16"/>
	</g>
</g>
<g>
	<g>
		<rect x="288" y="32" width="16" height="16"/>
	</g>
</g>
<g>
	<g>
		<rect x="320" y="32" width="16" height="16"/>
	</g>
</g>
<g>
	<g>
		<rect x="352" y="32" width="16" height="16"/>
	</g>
</g>
<g>
	<g>
		<rect x="384" y="32" width="16" height="16"/>
	</g>
</g>
<g>
	<g>
		<rect x="144" y="448" width="16" height="16"/>
	</g>
</g>
<g>
	<g>
		<rect x="112" y="448" width="16" height="16"/>
	</g>
</g>
<g>
	<g>
		<rect x="80" y="448" width="16" height="16"/>
	</g>
</g>
<g>
	<g>
		<rect x="80" y="416" width="16" height="16"/>
	</g>
</g>
<g>
	<g>
		<rect x="80" y="384" width="16" height="16"/>
	</g>
</g>
<g>
	<g>
		<rect x="80" y="352" width="16" height="16"/>
	</g>
</g>
<g>
	<g>
		<rect x="80" y="320" width="16" height="16"/>
	</g>
</g>
<g>
	<g>
		<rect x="176" y="448" width="16" height="16"/>
	</g>
</g>
<g>
	<g>
		<rect x="208" y="448" width="16" height="16"/>
	</g>
</g>
<g>
	<g>
		<rect x="240" y="448" width="16" height="16"/>
	</g>
</g>
<g>
	<g>
		<rect x="272" y="448" width="16" height="16"/>
	</g>
</g>
<g>
	<g>
		<rect x="304" y="448" width="16" height="16"/>
	</g>
</g>
<g>
	<g>
		<rect x="384" y="64" width="16" height="16"/>
	</g>
</g>
<g>
</g>
<g>
</g>
<g>
</g>
<g>
</g>
<g>
</g>
<g>
</g>
<g>
</g>
<g>
</g>
<g>
</g>
<g>
</g>
<g>
</g>
<g>
</g>
<g>
</g>
<g>
</g>
<g>
</g>
</svg>
