<?xml version="1.0" encoding="iso-8859-1"?>
<!-- Generator: Adobe Illustrator 19.0.0, SVG Export Plug-In . SVG Version: 6.00 Build 0)  -->
<svg version="1.1" id="Capa_1" xmlns="http://www.w3.org/2000/svg" xmlns:xlink="http://www.w3.org/1999/xlink" x="0px" y="0px"
	 viewBox="0 0 483.176 483.176" style="enable-background:new 0 0 483.176 483.176;" xml:space="preserve">
<g>
	<g>
		<path d="M179.018,0c0,7.496-4.04,16.416-35.504,18.952c-42.04,3.384-70.144,18.632-91.12,49.464
			C26.786,106.072,9.089,157.784,3.865,210.28c-7.864,78.912,10.944,175.84,52.952,272.896l14.688-6.352
			c-40.952-94.608-59.312-188.704-51.712-264.96c4.976-49.928,21.68-98.936,45.84-134.456
			c17.992-26.448,42.408-39.552,79.168-42.504c12.424-1.008,50.216-4.056,50.216-34.904H179.018z"/>
	</g>
</g>
<g>
	<g>
		<path d="M127.77,392.376l-1.08,1.008c-0.248,0.224-0.472,0.488-0.712,0.72c-3.048-0.224-5.952-0.92-9.592-2.632
			c-8.336-3.912-15.136-10.128-19.144-17.496c-4.128-7.568-5.232-16.664-2.968-24.312c2.368-7.992,8.512-15.448,17.288-20.992
			c5.84-3.688,13.416-5.272,21.44-6.952c2.968-0.624,5.912-1.24,8.768-1.96c3.6-0.904,6.112-4.176,6.048-7.888
			c-0.064-3.712-2.672-6.896-6.304-7.688c-20.888-4.536-48.784-19.728-59.312-38.928c-10.576-19.272-12.352-43.104-4.752-63.744
			l-15.016-5.528c-9.176,24.92-7.032,53.696,5.736,76.976c9.008,16.408,26.232,29.376,43.872,37.776
			c-3.096,1.168-6.12,2.592-9.016,4.416c-12.064,7.616-20.616,18.264-24.096,29.976c-3.504,11.816-1.944,25.128,4.264,36.504
			c5.616,10.336,14.992,18.976,26.384,24.328c1.528,0.72,3.032,1.344,4.504,1.88c-2.624,3.656-5.12,7.496-7.352,11.632
			c-11.08,20.48-22.912,43.744-22.912,60.528h16c0-14.136,13.656-39.368,20.984-52.912c4.672-8.616,10.304-16,16.76-21.96
			l1.152-1.072c10.624-9.96,15.168-12.056,17.104-12.056v-16C146.057,376,136.226,384.456,127.77,392.376z"/>
	</g>
</g>
<g>
	<g>
		<path d="M479.314,210.28c-5.24-52.52-22.928-104.232-48.536-141.864c-20.968-30.824-49.072-46.08-91.112-49.464
			C308.202,16.424,304.161,7.496,304.161,0h-16c0,30.848,37.8,33.896,50.216,34.904c36.76,2.952,61.168,16.064,79.16,42.504
			c24.16,35.504,40.864,84.504,45.848,134.464c7.592,76.256-10.768,170.352-51.712,264.944l14.688,6.36
			C468.362,386.128,487.169,289.208,479.314,210.28z"/>
	</g>
</g>
<g>
	<g>
		<path d="M415.002,272.952c12.776-23.288,14.92-52.064,5.736-76.976l-15.016,5.528c7.608,20.632,5.832,44.464-4.752,63.744
			c-10.528,19.2-38.424,34.392-59.312,38.928c-3.632,0.792-6.24,3.976-6.304,7.688c-0.064,3.712,2.448,6.984,6.048,7.888
			c2.848,0.72,5.8,1.336,8.768,1.96c8.024,1.68,15.592,3.264,21.44,6.952c8.776,5.536,14.92,12.992,17.288,20.992
			c2.264,7.648,1.16,16.744-2.96,24.32c-4.008,7.36-10.808,13.568-19.144,17.488c-3.624,1.704-6.728,2.504-9.584,2.64
			c-0.248-0.232-0.472-0.496-0.72-0.728l-1.112-1.032C346.93,384.44,337.098,376,327.354,376v16c1.928,0,6.472,2.088,17.096,12.032
			l1.176,1.104c6.456,5.968,12.088,13.352,16.736,21.944c7.336,13.552,20.992,38.792,20.992,52.92h16
			c0-16.784-11.832-40.048-22.912-60.528c-2.24-4.136-4.728-7.976-7.352-11.632c1.472-0.536,2.976-1.16,4.504-1.88
			c11.4-5.352,20.776-13.992,26.392-24.328c6.2-11.392,7.76-24.704,4.256-36.504c-3.48-11.72-12.04-22.368-24.104-29.976
			c-2.888-1.832-5.912-3.248-9.008-4.416C388.77,302.328,405.994,289.36,415.002,272.952z"/>
	</g>
</g>
<g>
	<g>
		<path d="M274.066,166.68l-15.92-1.64c-3.584,35.008,8.864,71.032,33.312,96.352l11.512-11.112
			C281.754,228.304,270.946,197.056,274.066,166.68z"/>
	</g>
</g>
<g>
	<g>
		<path d="M223.562,165.04l-15.92,1.64c3.12,30.376-7.688,61.624-28.904,83.6l11.512,11.112
			C214.698,236.072,227.146,200.048,223.562,165.04z"/>
	</g>
</g>
<g>
	<g>
		<path d="M247.505,302.856l-15.816,2.472c4.72,30.224,3.264,61.68,1.856,92.088c-0.632,13.912-1.296,28.296-1.384,42.536l16,0.096
			c0.088-13.912,0.744-28.144,1.376-41.896C250.978,366.952,252.466,334.68,247.505,302.856z"/>
	</g>
</g>
<g>
</g>
<g>
</g>
<g>
</g>
<g>
</g>
<g>
</g>
<g>
</g>
<g>
</g>
<g>
</g>
<g>
</g>
<g>
</g>
<g>
</g>
<g>
</g>
<g>
</g>
<g>
</g>
<g>
</g>
</svg>
