<?xml version="1.0" encoding="iso-8859-1"?>
<!-- Generator: Adobe Illustrator 19.0.0, SVG Export Plug-In . SVG Version: 6.00 Build 0)  -->
<svg version="1.1" id="Capa_1" xmlns="http://www.w3.org/2000/svg" xmlns:xlink="http://www.w3.org/1999/xlink" x="0px" y="0px"
	 viewBox="0 0 480 480" style="enable-background:new 0 0 480 480;" xml:space="preserve">
<g>
	<g>
		<path d="M328,0c-44.112,0-80,35.888-80,80v135.032c0,13.072,5.096,25.368,14.344,34.624c6.136,6.144,9.656,14.64,9.656,23.312V376
			c0,57.344,46.656,104,104,104s104-46.656,104-104V152C480,68.184,411.816,0,328,0z M464,376c0,48.52-39.48,88-88,88
			c-48.52,0-88-39.48-88-88V272.968c0-13.072-5.096-25.368-14.344-34.624C267.52,232.2,264,223.704,264,215.032V80
			c0-35.288,28.712-64,64-64c74.992,0,136,61.008,136,136V376z"/>
	</g>
</g>
<g>
	<g>
		<path d="M152,0C68.184,0,0,68.184,0,152v224c0,57.344,46.656,104,104,104s104-46.656,104-104V272.968
			c0-8.808,3.432-17.088,9.656-23.312c9.248-9.24,14.344-21.536,14.344-34.624V80C232,35.888,196.112,0,152,0z M216,215.032
			c0,8.808-3.432,17.088-9.656,23.312C197.096,247.584,192,259.88,192,272.968V376c0,48.52-39.48,88-88,88s-88-39.48-88-88V152
			C16,77.008,77.008,16,152,16c35.288,0,64,28.712,64,64V215.032z"/>
	</g>
</g>
<g>
	<g>
		<path d="M447.08,276.456l0.072-0.04L428.944,240H440v-16h-16v-16h16v-16h-16v-16h16v-16h-16v-24c0-4.416-3.576-8-8-8h-80
			c-4.424,0-8,3.584-8,8v24h-16v16h16v16h-16v16h16v16h-16v16h11.056l-18.216,36.424l0.072,0.04
			C304.376,277.552,304,278.728,304,280v96c0,39.696,32.296,72,72,72c39.704,0,72-32.304,72-72v-96
			C448,278.728,447.624,277.552,447.08,276.456z M344,144h64v16h-64V144z M344,176h64v16h-64V176z M344,208h64v16h-64V208z
			 M340.944,240h70.112l19.208,38.424L420.688,288h-89.376l-9.576-9.576L340.944,240z M432,376c0,30.88-25.128,56-56,56
			s-56-25.12-56-56v-76.688l2.344,2.344C323.84,303.16,325.872,304,328,304h96c2.128,0,4.16-0.84,5.656-2.344l2.344-2.344V376z"/>
	</g>
</g>
<g>
	<g>
		<path d="M365.792,344H384v-16h-32c-2.848,0-5.488,1.52-6.92,3.984c-1.432,2.464-1.44,5.504-0.024,7.984l32,56l13.888-7.936
			L365.792,344z"/>
	</g>
</g>
<g>
	<g>
		<path d="M175.08,276.456l0.072-0.04L156.944,240H168v-16h-16v-16h16v-16h-16v-16h16v-16h-16v-24c0-4.416-3.576-8-8-8H64
			c-4.424,0-8,3.584-8,8v24H40v16h16v16H40v16h16v16H40v16h11.056L32.84,276.424l0.072,0.04C32.376,277.552,32,278.728,32,280v96
			c0,39.696,32.296,72,72,72s72-32.304,72-72v-96C176,278.728,175.624,277.552,175.08,276.456z M72,144h64v16H72V144z M72,176h64v16
			H72V176z M72,208h64v16H72V208z M68.944,240h70.112l19.208,38.424L148.688,288H59.312l-9.576-9.576L68.944,240z M160,376
			c0,30.88-25.128,56-56,56s-56-25.12-56-56v-76.688l2.344,2.344C51.84,303.16,53.872,304,56,304h96c2.128,0,4.16-0.84,5.656-2.344
			l2.344-2.344V376z"/>
	</g>
</g>
<g>
	<g>
		<path d="M93.792,344H112v-16H80c-2.848,0-5.488,1.52-6.92,3.984c-1.432,2.464-1.44,5.504-0.024,7.984l32,56l13.888-7.936
			L93.792,344z"/>
	</g>
</g>
<g>
</g>
<g>
</g>
<g>
</g>
<g>
</g>
<g>
</g>
<g>
</g>
<g>
</g>
<g>
</g>
<g>
</g>
<g>
</g>
<g>
</g>
<g>
</g>
<g>
</g>
<g>
</g>
<g>
</g>
</svg>
