<?xml version="1.0" encoding="iso-8859-1"?>
<!-- Generator: Adobe Illustrator 19.0.0, SVG Export Plug-In . SVG Version: 6.00 Build 0)  -->
<svg version="1.1" id="Capa_1" xmlns="http://www.w3.org/2000/svg" xmlns:xlink="http://www.w3.org/1999/xlink" x="0px" y="0px"
	 viewBox="0 0 480 480" style="enable-background:new 0 0 480 480;" xml:space="preserve">
<g>
	<g>
		<path d="M448,2.38h-16c0,13.16-18.84,32-32,32v16c13.16,0,32,18.84,32,32h16c0-13.16,18.84-32,32-32v-16
			C466.84,34.38,448,15.54,448,2.38z M440,59.588c-4.504-6.68-10.528-12.704-17.208-17.208c6.68-4.504,12.704-10.528,17.208-17.208
			c4.504,6.68,10.528,12.704,17.208,17.208C450.528,46.884,444.504,52.908,440,59.588z"/>
	</g>
</g>
<g>
	<g>
		<path d="M400,90.38h-16c0,13.16-18.84,32-32,32v16c13.16,0,32,18.84,32,32h16c0-13.16,18.84-32,32-32v-16
			C418.84,122.38,400,103.54,400,90.38z M392,147.588c-4.504-6.68-10.528-12.704-17.208-17.208
			c6.68-4.504,12.712-10.528,17.208-17.208c4.504,6.68,10.528,12.712,17.208,17.208C402.528,134.884,396.496,140.908,392,147.588z"
			/>
	</g>
</g>
<g>
	<g>
		<path d="M48,2.38H32c0,13.16-18.84,32-32,32v16c13.16,0,32,18.84,32,32h16c0-13.16,18.84-32,32-32v-16
			C66.84,34.38,48,15.54,48,2.38z M40,59.588c-4.504-6.68-10.528-12.704-17.208-17.208C29.472,37.876,35.496,31.852,40,25.172
			c4.504,6.68,10.528,12.704,17.208,17.208C50.528,46.884,44.504,52.908,40,59.588z"/>
	</g>
</g>
<g>
	<g>
		<path d="M291.352,460.812c-80.384-6.8-172.288-36.936-245.848-80.64L23.688,367.22c3.248-7.6,5.128-15.544,6.96-23.28
			c0.544-2.32,1.096-4.632,1.672-6.92c1.688-6.616,3.56-17.4,5.728-29.872c3.12-17.96,7-40.312,10.504-49.296l47.92-122.816
			c1.048-2.68,2-5.568,2.976-8.52c2.592-7.888,5.28-16.056,10.304-20.472c2.832-2.496,6.52-4.352,10.08-5.992
			c0.416-0.184,0.808-0.408,1.168-0.664L137.952,86.5C136.704,92.932,136,99.572,136,106.38c0,29.648,12.536,56.368,32.504,75.328
			c-0.008,1.768-0.04,3.536-0.008,5.304c0.24,10.328,1.344,20.616,2.416,30.568c1.248,11.696,2.432,22.744,2.36,33.936
			c-0.216,33.512-13.2,64.8-34.728,83.672l10.544,12.032c16.744-14.68,28.688-34.984,35.016-58.184
			c3.488-0.152,8.408,0.08,14.424,1.2c8.384,1.568,13.504,4.32,23.584,11.104c-4.352,6.712-7.912,13.904-10.48,21.544l15.168,5.096
			c10.648-31.728,41.208-55.016,79.744-60.784c38.688-5.824,74.648,7.464,94.008,34.536l13.016-9.312
			c-8.032-11.224-18.448-20.4-30.464-27.36c23.176-19.296,56.72-26.232,85.32-16.296l5.248-15.112
			c-36.064-12.552-78.752-2.4-106.168,23.952c-19.04-7.256-40.856-9.608-63.328-6.232c-29.384,4.392-54.776,17.864-72.288,37.264
			c-11.624-7.84-18.896-11.96-30.432-14.12c-4.992-0.936-9.696-1.344-14.032-1.424c1.064-7,1.792-14.128,1.832-21.456
			c0.08-12.112-1.208-24.128-2.456-35.752c-0.752-7.056-1.416-14.264-1.864-21.424c16.008,10.024,34.84,15.92,55.064,15.92
			c57.344,0,104-46.656,104-104s-46.656-104-104-104c-40.504,0-75.584,23.328-92.752,57.208l-0.12-0.168l-31.64,24.36l-2.96,2.024
			c-4.28,1.992-9.144,4.536-13.328,8.216c-8.288,7.288-11.832,18.016-14.944,27.488c-0.872,2.664-1.736,5.28-2.68,7.712
			l-47.92,122.816c-4.088,10.48-7.792,31.784-11.368,52.376c-2.024,11.64-3.928,22.64-5.464,28.664
			c-0.608,2.376-1.176,4.776-1.744,7.176c-2.24,9.488-4.36,18.44-8.776,26.056c-2.192,3.792-0.928,8.648,2.832,10.88l28.184,16.744
			c75.544,44.872,170,75.832,252.68,82.824c6.408,0.544,14.48,0.864,23.696,0.864c45.992,0,120.184-8.048,155.384-37.064
			l-10.168-12.344C422.56,458.18,331.824,464.22,291.352,460.812z M240,18.38c48.52,0,88,39.48,88,88s-39.48,88-88,88
			c-48.52,0-88-39.48-88-88S191.48,18.38,240,18.38z"/>
	</g>
</g>
<g>
	<g>
		<path d="M240,58.38c-26.472,0-48,21.528-48,48s21.528,48,48,48s48-21.528,48-48S266.472,58.38,240,58.38z M240,138.38
			c-17.648,0-32-14.352-32-32s14.352-32,32-32s32,14.352,32,32S257.648,138.38,240,138.38z"/>
	</g>
</g>
<g>
</g>
<g>
</g>
<g>
</g>
<g>
</g>
<g>
</g>
<g>
</g>
<g>
</g>
<g>
</g>
<g>
</g>
<g>
</g>
<g>
</g>
<g>
</g>
<g>
</g>
<g>
</g>
<g>
</g>
</svg>
