<?xml version="1.0" encoding="iso-8859-1"?>
<!-- Generator: Adobe Illustrator 19.0.0, SVG Export Plug-In . SVG Version: 6.00 Build 0)  -->
<svg version="1.1" id="Capa_1" xmlns="http://www.w3.org/2000/svg" xmlns:xlink="http://www.w3.org/1999/xlink" x="0px" y="0px"
	 viewBox="0 0 480 480" style="enable-background:new 0 0 480 480;" xml:space="preserve">
<g>
	<g>
		<path d="M448,0c-17.648,0-32,14.352-32,32v48H64V32C64,14.352,49.648,0,32,0S0,14.352,0,32v144c0,17.648,14.352,32,32,32
			s32-14.352,32-32v-48h24v168c0,17.648,14.352,32,32,32h0.472c3.328,29.952,25.112,54.344,53.688,61.672L153.888,464H120v16h40
			c3.608,0,6.768-2.416,7.72-5.896l22.416-82.2C190.76,391.92,191.368,392,192,392c22.056,0,40,17.944,40,40c0,4.424,3.584,8,8,8
			s8-3.576,8-8c0-22.056,17.944-40,40-40c0.632,0,1.24-0.08,1.864-0.096l22.416,82.2c0.952,3.48,4.112,5.896,7.72,5.896h40v-16
			h-33.888l-20.272-74.328c28.576-7.328,50.36-31.72,53.688-61.672H360c17.648,0,32-14.352,32-32V128h24v48
			c0,17.648,14.352,32,32,32s32-14.352,32-32V32C480,14.352,465.648,0,448,0z M48,88v32v56c0,8.824-7.176,16-16,16s-16-7.176-16-16
			V32c0-8.824,7.176-16,16-16s16,7.176,16,16V88z M288,376c-20.344,0-38.192,10.904-48,27.176C230.192,386.904,212.344,376,192,376
			c-30.88,0-56-25.128-56-56s25.12-56,56-56c16.032,0,31.336,6.944,42,19.056c3.04,3.44,8.968,3.44,12.008,0
			C256.664,270.944,271.968,264,288,264c30.88,0,56,25.128,56,56S318.88,376,288,376z M376,296c0,8.824-7.176,16-16,16h-0.472
			c-4-35.944-34.536-64-71.528-64c-17.776,0-34.848,6.624-48,18.424C226.848,254.624,209.776,248,192,248
			c-36.992,0-67.536,28.056-71.528,64H120c-8.824,0-16-7.176-16-16V128h272V296z M416,112H64V96h352V112z M464,176
			c0,8.824-7.176,16-16,16c-8.824,0-16-7.176-16-16v-56V88V32c0-8.824,7.176-16,16-16c8.824,0,16,7.176,16,16V176z"/>
	</g>
</g>
<g>
	<g>
		<path d="M284,296c-15.44,0-28,12.56-28,28v4h16v-4c0-6.616,5.384-12,12-12c6.616,0,12,5.384,12,12v4h16v-4
			C312,308.56,299.44,296,284,296z"/>
	</g>
</g>
<g>
	<g>
		<path d="M196,296c-15.44,0-28,12.56-28,28v4h16v-4c0-6.616,5.384-12,12-12c6.616,0,12,5.384,12,12v4h16v-4
			C224,308.56,211.44,296,196,296z"/>
	</g>
</g>
<g>
	<g>
		<rect x="232" y="184" width="16" height="32"/>
	</g>
</g>
<g>
	<g>
		<rect x="259.027" y="204.023" transform="matrix(0.7071 -0.7071 0.7071 0.7071 -69.0845 257.2607)" width="33.944" height="16"/>
	</g>
</g>
<g>
	<g>
		<rect x="195.984" y="195.032" transform="matrix(0.7071 -0.7071 0.7071 0.7071 -90.1638 206.3326)" width="16" height="33.944"/>
	</g>
</g>
<g>
</g>
<g>
</g>
<g>
</g>
<g>
</g>
<g>
</g>
<g>
</g>
<g>
</g>
<g>
</g>
<g>
</g>
<g>
</g>
<g>
</g>
<g>
</g>
<g>
</g>
<g>
</g>
<g>
</g>
</svg>
