<?xml version="1.0" encoding="iso-8859-1"?>
<!-- Generator: Adobe Illustrator 19.0.0, SVG Export Plug-In . SVG Version: 6.00 Build 0)  -->
<svg version="1.1" id="Capa_1" xmlns="http://www.w3.org/2000/svg" xmlns:xlink="http://www.w3.org/1999/xlink" x="0px" y="0px"
	 viewBox="0 0 480 480" style="enable-background:new 0 0 480 480;" xml:space="preserve">
<g>
	<g>
		<path d="M472,0H8C3.584,0,0,3.584,0,8v192c0,4.416,3.584,8,8,8h8v261.6c0,5.736,4.664,10.4,10.4,10.4H80h112h64h160h8
			c22.056,0,40-17.944,40-40V208h8c4.416,0,8-3.584,8-8V8C480,3.584,476.416,0,472,0z M128,464H88V344h40V464z M184,464h-40V344h40
			V464z M80,328h-8v-16h128v16h-8H80z M328,464h-64v-64h64V464z M328,384h-64v-64h64V384z M328,304h-64v-64h64V304z M408,464h-64
			v-64h64V464z M408,384h-64v-64h64V384z M408,304h-64v-64h64V304z M448,440c0,13.232-10.768,24-24,24V232c0-4.416-3.584-8-8-8H256
			c-4.416,0-8,3.584-8,8v232h-48V344h8c4.416,0,8-3.584,8-8v-32c0-4.416-3.584-8-8-8H64c-4.416,0-8,3.584-8,8v32
			c0,4.416,3.584,8,8,8h8v120H32V208h416V440z M464,192h-10.4H26.4H16V16h448V192z"/>
	</g>
</g>
<g>
	<g>
		<path d="M432,96V56c0-4.416-3.584-8-8-8h-40c-4.416,0-8,3.584-8,8v24h-64V56c0-4.416-3.584-8-8-8h-40c-4.416,0-8,3.584-8,8v40h-16
			v16h16v40c0,4.416,3.584,8,8,8h40c4.416,0,8-3.584,8-8v-24h64v24c0,4.416,3.584,8,8,8h40c4.416,0,8-3.584,8-8v-40h16V96H432z
			 M296,88v32v24h-24V64h24V88z M376,112h-64V96h64V112z M416,144h-24v-24V88V64h24V144z"/>
	</g>
</g>
<g>
	<g>
		<path d="M167.992,46.944c-24.84-24.84-70.024-20.072-100.704,10.608C52.664,72.168,43.4,90.496,41.184,109.16
			c-2.296,19.368,3.208,36.808,15.504,49.096c10.704,10.72,25.2,15.92,40.68,15.92c20.424,0,42.568-9.064,60.024-26.52
			c14.624-14.616,23.888-32.944,26.104-51.608C185.792,76.68,180.288,59.24,167.992,46.944z M132.08,142.344
			c-8.36,8.36-18.664,13.68-29,14.976c-9.568,1.224-18-1.28-23.688-6.976c-12.32-12.32-8.728-35.96,8-52.688
			c8.36-8.36,18.664-13.68,28.992-14.976c1.576-0.2,3.128-0.296,4.632-0.296c7.648,0,14.304,2.512,19.064,7.272
			C152.4,101.976,148.808,125.616,132.08,142.344z M167.608,94.168c-0.672,5.696-2.184,11.368-4.448,16.88
			c0.552-12.432-3.24-24.176-11.768-32.704C142.12,69.072,128.976,65,114.4,66.808c-13.848,1.728-27.456,8.672-38.32,19.536
			c-10.632,10.632-17.056,23.576-19.104,36.264c-0.376-3.696-0.376-7.552,0.104-11.56c1.792-15.112,9.44-30.088,21.528-42.176
			c14.392-14.392,32.44-21.96,48.656-21.96c11.336,0,21.776,3.696,29.424,11.352C165.44,67.016,169.32,79.768,167.608,94.168z"/>
	</g>
</g>
<g>
	<g>
		<rect x="208" y="32" width="16" height="16"/>
	</g>
</g>
<g>
	<g>
		<rect x="208" y="64" width="16" height="16"/>
	</g>
</g>
<g>
	<g>
		<rect x="208" y="96" width="16" height="16"/>
	</g>
</g>
<g>
	<g>
		<rect x="208" y="128" width="16" height="16"/>
	</g>
</g>
<g>
	<g>
		<rect x="208" y="160" width="16" height="16"/>
	</g>
</g>
<g>
</g>
<g>
</g>
<g>
</g>
<g>
</g>
<g>
</g>
<g>
</g>
<g>
</g>
<g>
</g>
<g>
</g>
<g>
</g>
<g>
</g>
<g>
</g>
<g>
</g>
<g>
</g>
<g>
</g>
</svg>
