<?xml version="1.0" encoding="iso-8859-1"?>
<!-- Generator: Adobe Illustrator 19.0.0, SVG Export Plug-In . SVG Version: 6.00 Build 0)  -->
<svg version="1.1" id="Capa_1" xmlns="http://www.w3.org/2000/svg" xmlns:xlink="http://www.w3.org/1999/xlink" x="0px" y="0px"
	 viewBox="0 0 480 480" style="enable-background:new 0 0 480 480;" xml:space="preserve">
<g>
	<g>
		<path d="M293.56,422.872c-61.496,5.904-126.136-10.464-177.392-44.928l-8.928,13.28c47.48,31.928,103.592,48.88,160.496,48.88
			c9.096,0,18.24-0.432,27.352-1.312L293.56,422.872z"/>
	</g>
</g>
<g>
	<g>
		<path d="M384,112c-16.488,0-31,3.416-43.504,10.04C349.056,102.048,368.912,88,392,88V72c-35.352,0-64.776,25.64-70.808,59.288
			C306.072,118.536,286.928,112,264,112c-18.248,0-34.184,4.128-47.584,12.256c-0.16-3.36-0.416-6.72-0.416-10.08V104
			c0-36.552-27.408-66.76-62.736-71.336C156.384,23.032,165.336,16,176,16V0c-19.44,0-35.648,13.952-39.232,32.368
			C100.456,36,72,66.736,72,104v10.216c0,46.944-13.504,91.52-39,129.032L3.2,265.6c-1.768,1.328-2.912,3.328-3.152,5.52
			c-0.24,2.2,0.44,4.4,1.88,6.08l7.32,8.536c-8.224,21.896-11.008,44.856-8.136,68.352c7.96,65.128,61.088,117.688,126.336,124.984
			c5.464,0.608,10.904,0.912,16.32,0.912c17.272,0,34.224-3.192,50.624-9.36c17.6,3.52,36.016,5.64,55.008,6.28
			c4.84,2.024,9.744,3.096,14.6,3.096c4.888,0,9.856-1.104,14.784-3.184c24.488-1.112,49.448-4.64,74.648-10.432
			C363.24,475.392,373.504,480,384,480c57.712,0,96-139.64,96-232C480,135.592,427.792,112,384,112z M88,114.216V104
			c0-30.872,25.12-56,56-56s56,25.128,56,56v10.176c0,8.656,0.664,17.312,1.624,25.952c0,0.032,0,0.064,0,0.096
			c0.024,0.184,0.056,0.36,0.08,0.544c2.344,20.592,7.376,41.032,15,61.008c0.288,0.76,0.552,1.52,0.848,2.28
			c1.568,4.008,3.272,7.984,5.048,11.952c0.824,1.856,1.68,3.696,2.544,5.544c1.568,3.304,3.176,6.592,4.888,9.856
			c1.472,2.824,3.048,5.6,4.616,8.384c1.392,2.448,2.728,4.904,4.2,7.328c3.232,5.352,6.624,10.64,10.232,15.824
			C264.08,284.44,272,309.696,272,336c0,9.408-1.152,19.056-3.416,28.752c-3.544,0.08-7.008,0.048-10.448-0.016
			c-1.032-0.016-2.064-0.032-3.08-0.064c-2.952-0.088-5.848-0.248-8.72-0.44c-2.184-0.144-4.344-0.344-6.504-0.544
			c-1.464-0.136-2.936-0.272-4.384-0.432c-2.616-0.296-5.216-0.656-7.808-1.032c-1.928-0.288-3.896-0.536-5.776-0.864
			c-0.056-0.008-0.104-0.048-0.16-0.056c-0.04-0.008-0.072-0.016-0.112-0.024c-1.264-0.224-2.496-0.48-3.736-0.72
			c-1.968-0.384-3.944-0.752-5.856-1.176c2.616-7.512,4-15.336,4-23.384c0-39.704-32.304-72-72-72
			c-20.648,0-39.864,8.792-53.544,24.112c-0.672-0.024-1.328-0.128-2-0.128c-0.08,0-0.16-0.016-0.24-0.016
			c-2.592,0-5.208,0.176-7.832,0.544L49.52,247.36C74.72,208.232,88,162.36,88,114.216z M200,336c0,6.616-1.152,13.056-3.432,19.208
			c-17.592-5.512-32.784-13.176-44.08-22.016c-0.416-0.328-0.808-0.664-1.208-0.992c-1.624-1.32-3.152-2.664-4.608-4.032
			c-0.56-0.528-1.112-1.056-1.64-1.592c-0.048-0.048-0.088-0.096-0.136-0.144c-1.2-1.216-2.312-2.448-3.368-3.696
			c-0.392-0.464-0.8-0.92-1.168-1.376c-1.504-1.912-2.904-3.832-4.04-5.752c-1.384-2.336-2.92-4.52-4.568-6.592
			c-0.192-0.24-0.384-0.48-0.576-0.712c-0.408-0.488-0.872-0.912-1.296-1.392c-1.12-1.264-2.24-2.52-3.456-3.672
			c-0.488-0.464-0.984-0.896-1.48-1.336c-0.368-0.32-0.752-0.6-1.128-0.912c-1.104-0.928-2.224-1.824-3.392-2.656
			c-0.864-0.616-1.76-1.184-2.656-1.752c-0.104-0.064-0.2-0.136-0.304-0.2c-0.088-0.048-0.16-0.112-0.248-0.16
			c-1.104-0.68-2.232-1.304-3.376-1.896c-0.952-0.496-1.912-0.968-2.888-1.408c-0.56-0.248-1.088-0.568-1.656-0.8
			C119.08,284.32,131.208,280,144,280C174.88,280,200,305.128,200,336z M129.216,463.168C71.248,456.688,24.056,410,16.992,352.152
			c-2.184-17.896-0.736-35.448,4.312-52.344l16.592,19.352c-8.384,16.872-7.792,36.776,1.888,53.224
			c2.064,3.504,4.328,6.92,6.672,10.288c0.664,0.96,1.336,1.912,2.024,2.856c2.216,3.04,4.52,6.048,6.968,8.968
			c1.072,1.28,2.216,2.52,3.328,3.776c1.424,1.608,2.88,3.2,4.376,4.768c5.712,6.024,11.912,11.712,18.536,17.08
			c0.24,0.192,0.48,0.384,0.72,0.576c19.712,15.824,43.208,28.704,69.488,38.144c0.352,0.128,0.696,0.256,1.048,0.384
			c3.128,1.112,6.288,2.176,9.488,3.192c0.12,0.056,0.24,0.096,0.368,0.136C151.776,464.224,140.552,464.448,129.216,463.168z
			 M373.6,461.32c0.312-0.088,0.624-0.192,0.936-0.28c6.216-1.736,12.432-3.584,18.664-5.6c1.68-0.544,3.352-1.184,5.024-1.896
			c0.536-0.232,1.056-0.504,1.592-0.744c1.128-0.52,2.256-1.048,3.368-1.64c0.624-0.336,1.24-0.704,1.864-1.056
			c1-0.568,2-1.152,2.992-1.776c0.656-0.416,1.296-0.856,1.936-1.296c0.568-0.384,1.152-0.736,1.712-1.144
			C399.344,461.608,386.72,467.928,373.6,461.32z M417.32,417.752c-2.752,3.96-5.992,7.616-9.552,10.824
			c-5.928,5.344-12.712,9.448-19.496,11.648c-0.192,0.064-0.376,0.112-0.568,0.168c-5.44,1.752-10.92,3.416-16.432,4.968
			c-0.224,0.064-0.44,0.112-0.664,0.176c-5.432,1.52-10.872,2.944-16.304,4.248c-30.664,7.392-60.928,11.208-90.384,11.392
			c-3.008,0.008-5.992-0.016-8.944-0.12c-0.4-0.008-0.792-0.024-1.192-0.032l-2.56-0.088c-0.04,0-0.072,0.016-0.104,0.016
			c-19.136-0.584-37.664-2.664-55.264-6.28c-0.136-0.032-0.248-0.12-0.384-0.152c-51.12-10.616-94.24-33.624-122.8-64.72
			c-0.752-0.824-1.544-1.632-2.28-2.472c-1.328-1.504-2.568-3.048-3.824-4.584c-1.408-1.736-2.792-3.496-4.12-5.28
			c-0.888-1.192-1.784-2.392-2.632-3.6c-2.192-3.136-4.304-6.32-6.232-9.6c-7.648-13-7.344-29.008,0.784-41.784
			c1.888-2.976,1.616-6.832-0.672-9.504l-34.048-39.728L38.4,259.2l32.168,42.88c1.912,2.552,5.16,3.752,8.248,2.984
			c2.144-0.504,4.304-0.832,6.44-0.984c2.304-0.168,4.584-0.096,6.84,0.128c0.232,0.048,0.448,0.152,0.688,0.176
			c4.584,0.552,8.928,1.856,12.92,3.8c0.344,0.168,0.68,0.352,1.016,0.528c1.184,0.616,2.344,1.272,3.448,2
			c1.248,0.832,2.472,1.72,3.632,2.704c0.544,0.456,1.04,0.968,1.56,1.456c0.92,0.864,1.808,1.76,2.648,2.72
			c0.416,0.472,0.824,0.944,1.224,1.432c1.152,1.44,2.248,2.952,3.208,4.576c0.024,0.04,0.056,0.08,0.08,0.12
			c1.328,2.248,2.944,4.504,4.688,6.744c0.288,0.376,0.528,0.76,0.824,1.128c0.456,0.568,0.984,1.12,1.464,1.688
			c1.264,1.464,2.64,2.912,4.08,4.36c0.416,0.416,0.752,0.848,1.184,1.264c1.52,1.48,3.208,2.904,4.888,4.328
			c0.736,0.624,1.456,1.248,2.224,1.864c1.816,1.456,3.688,2.88,5.664,4.272c0.24,0.168,0.504,0.336,0.752,0.504
			c4.248,2.952,8.84,5.728,13.744,8.336c0.368,0.192,0.712,0.4,1.088,0.592c2.4,1.248,4.864,2.44,7.4,3.6
			c0.872,0.4,1.768,0.784,2.656,1.168c7.952,3.472,16.488,6.472,25.536,8.96c1.28,0.352,2.544,0.712,3.848,1.04
			c1.4,0.352,2.72,0.792,4.144,1.12c16.744,3.904,38.944,6.936,65.888,6.024c2.272-0.064,4.56-0.2,6.84-0.32
			c0.848-0.048,1.68-0.08,2.536-0.136c26.6-1.656,54-7.192,81.68-16.144c12.976-4.232,30.416-2.592,43.408,4.024
			c6.232,3.168,14.296,8.936,17.336,18.328C427.352,395.616,424.776,407.008,417.32,417.752z M440.976,386.992
			c-0.328-1.848-0.784-3.664-1.36-5.456c-3.744-11.568-12.488-21.136-25.288-27.664c-2.4-1.224-4.92-2.272-7.488-3.224
			c-0.792-0.296-1.608-0.528-2.416-0.8c-1.848-0.608-3.704-1.16-5.6-1.632c-0.92-0.232-1.84-0.44-2.768-0.632
			c-1.92-0.408-3.848-0.728-5.792-0.992c-0.84-0.112-1.68-0.256-2.52-0.344c-2.632-0.272-5.264-0.44-7.88-0.448
			c-0.112,0-0.232-0.024-0.352-0.024c-0.016,0-0.024,0-0.04,0c-3.232,0-6.392,0.28-9.512,0.688c-0.76,0.096-1.496,0.208-2.24,0.336
			c-3.096,0.512-6.128,1.152-9,2.088c-6.752,2.184-13.368,4.072-19.904,5.776c-3.136,0.816-6.256,1.48-9.376,2.2
			c-3.208,0.744-6.416,1.504-9.568,2.136c-4.352,0.864-8.68,1.592-13,2.256c-1.64,0.256-3.296,0.544-4.92,0.776
			c-5.528,0.768-11.04,1.4-16.504,1.848c-0.096,0.008-0.2,0.016-0.296,0.024c0.096-0.488,0.128-0.976,0.224-1.464
			c0.696-3.6,1.232-7.192,1.648-10.776c0.128-1.104,0.248-2.208,0.352-3.304c0.36-4.144,0.624-8.272,0.624-12.36
			c0-29.592-8.92-58.016-25.784-82.208c-3.376-4.84-6.504-9.76-9.528-14.712c-1.296-2.136-2.512-4.312-3.744-6.48
			c-1.536-2.68-3.024-5.368-4.456-8.072c-1.52-2.896-3-5.808-4.4-8.744c-0.832-1.728-1.608-3.472-2.4-5.208
			c-7.816-17.312-13.648-35.144-17.224-53.128c-0.04-0.208-0.088-0.408-0.128-0.608c-0.896-4.592-1.648-9.192-2.256-13.792
			c-0.016-0.136-0.032-0.28-0.048-0.416C230.112,132.912,245.552,128,264,128c22.808,0,40.976,7.528,53.984,22.376
			c3.04,3.472,8.992,3.472,12.032,0C343.024,135.528,361.192,128,384,128c53.088,0,80,40.376,80,120
			c0,48.392-9.248,99.008-23.008,139.072C440.984,387.048,440.976,387.016,440.976,386.992z"/>
	</g>
</g>
<g>
	<g>
		<rect x="336" y="256" width="16" height="32"/>
	</g>
</g>
<g>
	<g>
		<rect x="296" y="256" width="16" height="32"/>
	</g>
</g>
<g>
</g>
<g>
</g>
<g>
</g>
<g>
</g>
<g>
</g>
<g>
</g>
<g>
</g>
<g>
</g>
<g>
</g>
<g>
</g>
<g>
</g>
<g>
</g>
<g>
</g>
<g>
</g>
<g>
</g>
</svg>
