<?xml version="1.0" encoding="iso-8859-1"?>
<!-- Generator: Adobe Illustrator 19.0.0, SVG Export Plug-In . SVG Version: 6.00 Build 0)  -->
<svg version="1.1" id="Capa_1" xmlns="http://www.w3.org/2000/svg" xmlns:xlink="http://www.w3.org/1999/xlink" x="0px" y="0px"
	 viewBox="0 0 480 480" style="enable-background:new 0 0 480 480;" xml:space="preserve">
<g>
	<g>
		<path d="M351.784,90.504C336.216,71.488,328,49.976,328,28.304V8c0-4.416-3.576-8-8-8h-32c-4.424,0-8,3.584-8,8v2.696
			c0,26.792-11.832,52.68-33.328,72.904c-2.392,2.24-4.616,4.64-6.672,7.176c-2.056-2.536-4.28-4.936-6.664-7.176
			C211.832,63.376,200,37.488,200,10.696V8c0-4.416-3.576-8-8-8h-32c-4.424,0-8,3.584-8,8v20.304c0,21.672-8.216,43.176-23.784,62.2
			C117.76,103.296,112,119.456,112,136c0,29.224,17.448,55.344,44.448,66.536C168.328,207.464,176,219.024,176,232
			c0,4.416,3.576,8,8,8h112c4.424,0,8-3.584,8-8c0-12.976,7.672-24.536,19.552-29.464C350.552,191.344,368,165.224,368,136
			C368,119.456,362.24,103.296,351.784,90.504z M317.432,187.76c-15.384,6.376-26.088,20.128-28.776,36.24h-97.312
			c-2.688-16.12-13.392-29.864-28.776-36.24C141.568,179.048,128,158.736,128,136c0-12.864,4.48-25.424,12.608-35.36
			C158.528,78.72,168,53.712,168,28.304V16h16.136c1.448,29.336,14.896,57.296,38.24,79.256c4.232,3.984,7.816,8.584,10.624,13.664
			c2.832,5.096,11.168,5.096,14,0c2.816-5.08,6.392-9.672,10.632-13.664c23.336-21.96,36.792-49.92,38.232-79.256H312v12.304
			c0,25.408,9.472,50.416,27.392,72.328C347.52,110.576,352,123.136,352,136C352,158.736,338.432,179.048,317.432,187.76z"/>
	</g>
</g>
<g>
	<g>
		<path d="M300.912,257.68c-1.408-1.088-3.128-1.68-4.912-1.68H184c-1.784,0-3.504,0.592-4.912,1.68
			c-45.24,35.184-61.304,96.664-39.064,149.488l28.6,67.936c1.248,2.968,4.16,4.896,7.376,4.896h48c4.424,0,8-3.584,8-8V360
			c0-4.408,3.584-8,8-8s8,3.592,8,8v112c0,4.416,3.576,8,8,8h48c3.216,0,6.128-1.928,7.376-4.896l28.6-67.936
			C362.216,354.336,346.152,292.864,300.912,257.68z M325.224,400.96L298.688,464H264V360c0-13.232-10.768-24-24-24
			s-24,10.768-24,24v104h-34.688l-26.536-63.04C135.68,355.624,148.872,303,186.8,272h106.4
			C331.12,303,344.32,355.624,325.224,400.96z"/>
	</g>
</g>
<g>
	<g>
		<path d="M96,216H48c-4.424,0-8,3.584-8,8v32c0,4.416,3.576,8,8,8h48c4.424,0,8-3.584,8-8v-32C104,219.584,100.424,216,96,216z
			 M88,248H56v-16h32V248z"/>
	</g>
</g>
<g>
	<g>
		<path d="M432,216h-48c-4.424,0-8,3.584-8,8v32c0,4.416,3.576,8,8,8h48c4.424,0,8-3.584,8-8v-32C440,219.584,436.424,216,432,216z
			 M424,248h-32v-16h32V248z"/>
	</g>
</g>
<g>
	<g>
		<rect x="272" y="288" width="16" height="16"/>
	</g>
</g>
<g>
</g>
<g>
</g>
<g>
</g>
<g>
</g>
<g>
</g>
<g>
</g>
<g>
</g>
<g>
</g>
<g>
</g>
<g>
</g>
<g>
</g>
<g>
</g>
<g>
</g>
<g>
</g>
<g>
</g>
</svg>
