<?xml version="1.0" encoding="iso-8859-1"?>
<!-- Generator: Adobe Illustrator 19.0.0, SVG Export Plug-In . SVG Version: 6.00 Build 0)  -->
<svg version="1.1" id="Capa_1" xmlns="http://www.w3.org/2000/svg" xmlns:xlink="http://www.w3.org/1999/xlink" x="0px" y="0px"
	 viewBox="0 0 469.333 469.333" style="enable-background:new 0 0 469.333 469.333;" xml:space="preserve">
<g>
	<g>
		<path d="M426.667,192h-44.98C370.129,81.496,314.447,0,245.333,0C177.469,0,121.167,80.013,109.1,192H42.667
			C19.135,192,0,211.135,0,234.667s19.135,42.667,42.667,42.667h66.402c11.924,111.766,68.284,192,136.264,192
			c69.113,0,124.796-81.496,136.353-192h44.98c23.531,0,42.667-19.135,42.667-42.667S450.198,192,426.667,192z M42.667,256
			c-11.76,0-21.333-9.573-21.333-21.333s9.573-21.333,21.333-21.333H43c4.542,0,10.333,5.99,10.333,10.677
			c0,5.896,4.771,10.667,10.667,10.667c5.896,0,10.667-4.771,10.667-10.667c0-3.668-0.863-7.262-2.232-10.677H192
			c11.76,0,21.333,9.573,21.333,21.333S203.76,256,192,256H42.667z M192,192h-39.837C161.206,124.392,191.158,74.667,224,74.667
			c40.469,0,74.667,73.271,74.667,160s-34.198,160-74.667,160c-32.954,0-62.966-49.987-71.87-117.333H192
			c23.531,0,42.667-19.135,42.667-42.667S215.531,192,192,192z M245.333,448c-55.538,0-103.819-72.839-114.833-170.667h0.195
			C140.849,359.41,178.483,416,224,416c53.833,0,96-79.646,96-181.333S277.833,53.333,224,53.333
			c-45.413,0-83.003,56.398-93.281,138.667h-0.21c11.134-97.999,59.376-170.667,114.824-170.667
			c64.698,0,117.333,95.698,117.333,213.333S310.031,448,245.333,448z M426.667,256h-43.284c0.359-7.03,0.617-14.12,0.617-21.333
			s-0.258-14.303-0.617-21.333h43.284c11.76,0,21.333,9.573,21.333,21.333S438.427,256,426.667,256z"/>
	</g>
</g>
<g>
</g>
<g>
</g>
<g>
</g>
<g>
</g>
<g>
</g>
<g>
</g>
<g>
</g>
<g>
</g>
<g>
</g>
<g>
</g>
<g>
</g>
<g>
</g>
<g>
</g>
<g>
</g>
<g>
</g>
</svg>
