<?xml version="1.0" encoding="iso-8859-1"?>
<!-- Generator: Adobe Illustrator 19.0.0, SVG Export Plug-In . SVG Version: 6.00 Build 0)  -->
<svg version="1.1" id="Capa_1" xmlns="http://www.w3.org/2000/svg" xmlns:xlink="http://www.w3.org/1999/xlink" x="0px" y="0px"
	 viewBox="0 0 480 480" style="enable-background:new 0 0 480 480;" xml:space="preserve">
<g>
	<g>
		<path d="M440,16h-16V8c0-4.416-3.576-8-8-8h-80c-4.424,0-8,3.584-8,8v8h-48v16h48v8c0,4.416,3.576,8,8,8h80c4.424,0,8-3.584,8-8
			v-8h16c13.232,0,24,10.768,24,24v384c0,13.232-10.768,24-24,24s-24-10.768-24-24V136c0-22.056-17.944-40-40-40
			c-22.056,0-40,17.944-40,40v304c0,13.232-10.768,24-24,24h-56V336h8c4.424,0,8-3.584,8-8v-80c0-4.416-3.576-8-8-8h-8v-80h8
			c4.424,0,8-3.584,8-8V56c0-22.056-17.944-40-40-40h-25.472C203.216,6.712,194.416,0,184,0c-13.232,0-24,10.768-24,24v64
			c0,13.232,10.768,24,24,24c10.416,0,19.216-6.712,22.528-16H224v56c0,4.416,3.576,8,8,8h8v80h-8c-4.424,0-8,3.584-8,8v80
			c0,4.416,3.576,8,8,8h8v128H56c-13.232,0-24-10.768-24-24V160h8c4.424,0,8-3.584,8-8V96h17.472c3.312,9.288,12.112,16,22.528,16
			c13.232,0,24-10.768,24-24V24c0-13.232-10.768-24-24-24C77.584,0,68.784,6.712,65.472,16H40C17.944,16,0,33.944,0,56v96
			c0,4.416,3.576,8,8,8h8v280c0,22.056,17.944,40,40,40h256c22.056,0,40-17.944,40-40V136c0-13.232,10.768-24,24-24s24,10.768,24,24
			v304c0,22.056,17.944,40,40,40c22.056,0,40-17.944,40-40V56C480,33.944,462.056,16,440,16z M408,32h-64V16h64V32z M192,88
			c0,4.408-3.584,8-8,8s-8-3.592-8-8V24c0-4.408,3.584-8,8-8s8,3.592,8,8V88z M80,24c0-4.408,3.584-8,8-8s8,3.592,8,8v64
			c0,4.408-3.584,8-8,8s-8-3.592-8-8V24z M16,144V56c0-13.232,10.768-24,24-24h24v48H40c-4.424,0-8,3.584-8,8v56H16z M232,80h-24V32
			h24c13.232,0,24,10.768,24,24v88h-16V88C240,83.584,236.424,80,232,80z M240,256h16v64h-16V256z"/>
	</g>
</g>
<g>
</g>
<g>
</g>
<g>
</g>
<g>
</g>
<g>
</g>
<g>
</g>
<g>
</g>
<g>
</g>
<g>
</g>
<g>
</g>
<g>
</g>
<g>
</g>
<g>
</g>
<g>
</g>
<g>
</g>
</svg>
