<?xml version="1.0" encoding="iso-8859-1"?>
<!-- Generator: Adobe Illustrator 19.0.0, SVG Export Plug-In . SVG Version: 6.00 Build 0)  -->
<svg version="1.1" id="Capa_1" xmlns="http://www.w3.org/2000/svg" xmlns:xlink="http://www.w3.org/1999/xlink" x="0px" y="0px"
	 viewBox="0 0 480 480" style="enable-background:new 0 0 480 480;" xml:space="preserve">
<g>
	<g>
		<path d="M472,352h-24v-40c0-4.416-3.576-8-8-8h-40v-24c0-4.416-3.576-8-8-8h-48c-4.424,0-8,3.584-8,8v72H144v-72
			c0-4.416-3.576-8-8-8H88c-4.424,0-8,3.584-8,8v24H40c-4.424,0-8,3.584-8,8v40H8c-4.424,0-8,3.584-8,8v32c0,4.416,3.576,8,8,8h24
			v40c0,4.416,3.576,8,8,8h40v24c0,4.416,3.576,8,8,8h48c4.424,0,8-3.584,8-8v-72h192v72c0,4.416,3.576,8,8,8h48
			c4.424,0,8-3.584,8-8v-24h40c4.424,0,8-3.584,8-8v-40h24c4.424,0,8-3.584,8-8v-32C480,355.584,476.424,352,472,352z M32,384H16
			v-16h16V384z M80,432H48v-40v-32v-40h32V432z M128,360v32v72H96v-24V312v-24h32V360z M336,384H144v-16h192V384z M384,312v128v24
			h-32v-72v-32v-72h32V312z M432,360v32v40h-32V320h32V360z M464,384h-16v-16h16V384z"/>
	</g>
</g>
<g>
	<g>
		<path d="M200,64c4.424,0,8-3.584,8-8V8c0-4.416-3.576-8-8-8h-96c-4.424,0-8,3.584-8,8v48c0,4.416,3.576,8,8,8h24v64h-24
			c-4.424,0-8,3.584-8,8v48c0,4.416,3.576,8,8,8h96c4.424,0,8-3.584,8-8v-48c0-4.416-3.576-8-8-8h-24V64H200z M192,144v32h-80v-32
			h24h32H192z M144,128V64h16v64H144z M168,48h-32h-24V16h80v32H168z"/>
	</g>
</g>
<g>
	<g>
		<path d="M336,72c4.424,0,8-3.584,8-8V8c0-4.416-3.576-8-8-8h-96c-4.424,0-8,3.584-8,8v56c0,4.416,3.576,8,8,8h24v64h-24
			c-4.424,0-8,3.584-8,8v56c0,4.416,3.576,8,8,8h96c4.424,0,8-3.584,8-8v-56c0-4.416-3.576-8-8-8h-24V72H336z M328,152v40h-80v-40
			h24h32H328z M280,136V72h16v64H280z M304,56h-32h-24V16h80v40H304z"/>
	</g>
</g>
<g>
	<g>
		<path d="M472,96c4.424,0,8-3.584,8-8V8c0-4.416-3.576-8-8-8h-96c-4.424,0-8,3.584-8,8v80c0,4.416,3.576,8,8,8h24v64h-24
			c-4.424,0-8,3.584-8,8v80c0,4.416,3.576,8,8,8h96c4.424,0,8-3.584,8-8v-80c0-4.416-3.576-8-8-8h-24V96H472z M384,16h80v24h-80V16z
			 M464,240h-80v-24h80V240z M464,176v24h-80v-24h24h32H464z M416,160V96h16v64H416z M440,80h-32h-24V56h80v24H440z"/>
	</g>
</g>
<g>
	<g>
		<path d="M72,64c4.424,0,8-3.584,8-8V8c0-4.416-3.576-8-8-8H8C3.576,0,0,3.584,0,8v48c0,4.416,3.576,8,8,8h8v64H8
			c-4.424,0-8,3.584-8,8v48c0,4.416,3.576,8,8,8h64c4.424,0,8-3.584,8-8v-48c0-4.416-3.576-8-8-8h-8V64H72z M64,176H16v-32h8h32h8
			V176z M32,128V64h16v64H32z M56,48H24h-8V16h48v32H56z"/>
	</g>
</g>
<g>
	<g>
		<rect x="24" y="224" width="16" height="16"/>
	</g>
</g>
<g>
	<g>
		<rect x="56" y="224" width="16" height="16"/>
	</g>
</g>
<g>
	<g>
		<rect x="88" y="224" width="16" height="16"/>
	</g>
</g>
<g>
</g>
<g>
</g>
<g>
</g>
<g>
</g>
<g>
</g>
<g>
</g>
<g>
</g>
<g>
</g>
<g>
</g>
<g>
</g>
<g>
</g>
<g>
</g>
<g>
</g>
<g>
</g>
<g>
</g>
</svg>
