<?xml version="1.0" encoding="iso-8859-1"?>
<!-- Generator: Adobe Illustrator 19.0.0, SVG Export Plug-In . SVG Version: 6.00 Build 0)  -->
<svg version="1.1" id="Capa_1" xmlns="http://www.w3.org/2000/svg" xmlns:xlink="http://www.w3.org/1999/xlink" x="0px" y="0px"
	 viewBox="0 0 512 512" style="enable-background:new 0 0 512 512;" xml:space="preserve">
<g>
	<g>
		<g>
			<path d="M330.667,256h-22.958l-9.188-55.083c-0.833-4.99-5.042-8.708-10.104-8.906c-4.375-0.313-9.542,3.167-10.771,8.073
				l-20.854,83.406l-22.354-104.396c-1.042-4.844-5.292-8.344-10.25-8.427c-5.667-0.375-9.333,3.26-10.542,8.083l-25.021,100.021
				l-8.417-16.865c-1.813-3.625-5.5-5.906-9.542-5.906H160c-5.896,0-10.667,4.771-10.667,10.667c0,5.896,4.771,10.667,10.667,10.667
				h4.063l18.375,36.781c1.979,3.99,6.125,6.385,10.708,5.844c4.438-0.49,8.104-3.688,9.188-8.021l20.875-83.438l22.354,104.406
				c1.042,4.844,5.292,8.344,10.25,8.427c0.063,0,0.125,0,0.188,0c4.896,0,9.167-3.323,10.354-8.083l19.563-78.24l2.229,13.406
				c0.854,5.146,5.313,8.917,10.521,8.917h32c5.896,0,10.667-4.771,10.667-10.667C341.333,260.771,336.563,256,330.667,256z"/>
			<path d="M394.667,170.667H384v-21.333c0-23.531-19.146-42.667-42.667-42.667h-1.023l-9.706-97.063C330.063,4.156,325.479,0,320,0
				H170.667c-5.479,0-10.063,4.156-10.604,9.604l-9.706,97.063h-1.023c-23.521,0-42.667,19.135-42.667,42.667v213.333
				c0,23.531,19.146,42.667,42.667,42.667h1.023l9.706,97.063c0.542,5.448,5.125,9.604,10.604,9.604H320
				c5.479,0,10.063-4.156,10.604-9.604l9.706-97.063h1.023c23.521,0,42.667-19.135,42.667-42.667
				c5.896,0,10.667-4.771,10.667-10.667v-64c0-5.896-4.771-10.667-10.667-10.667v-42.667h10.667c5.896,0,10.667-4.771,10.667-10.667
				v-42.667C405.333,175.438,400.563,170.667,394.667,170.667z M180.313,21.333h130.042l8.535,85.333H171.777L180.313,21.333z
				 M310.354,490.667H180.313l-8.535-85.333h147.112L310.354,490.667z M362.667,181.333V224v138.667
				c0,11.76-9.563,21.333-21.333,21.333h-192C137.563,384,128,374.427,128,362.667V149.333c0-11.76,9.563-21.333,21.333-21.333h192
				c11.771,0,21.333,9.573,21.333,21.333V181.333z"/>
		</g>
	</g>
</g>
<g>
</g>
<g>
</g>
<g>
</g>
<g>
</g>
<g>
</g>
<g>
</g>
<g>
</g>
<g>
</g>
<g>
</g>
<g>
</g>
<g>
</g>
<g>
</g>
<g>
</g>
<g>
</g>
<g>
</g>
</svg>
