<?xml version="1.0" encoding="iso-8859-1"?>
<!-- Generator: Adobe Illustrator 19.0.0, SVG Export Plug-In . SVG Version: 6.00 Build 0)  -->
<svg version="1.1" id="Capa_1" xmlns="http://www.w3.org/2000/svg" xmlns:xlink="http://www.w3.org/1999/xlink" x="0px" y="0px"
	 viewBox="0 0 480 480" style="enable-background:new 0 0 480 480;" xml:space="preserve">
<g>
	<g>
		<path d="M368,0H112C50.24,0,0,50.24,0,112s50.24,112,112,112h56.808c3.72,18.232,19.872,32,39.192,32h64
			c19.312,0,35.472-13.768,39.192-32H368c61.76,0,112-50.24,112-112S429.76,0,368,0z M272,240h-64c-3.696,0-7.152-0.904-10.28-2.408
			L211.312,224h57.376l13.592,13.592C279.152,239.096,275.696,240,272,240z M296,216c0,3.696-0.904,7.152-2.408,10.28
			l-15.936-15.936C276.16,208.84,274.128,208,272,208h-64c-2.128,0-4.16,0.84-5.656,2.344l-15.936,15.936
			C184.904,223.152,184,219.696,184,216v-32c0-3.696,0.904-7.152,2.408-10.28l15.936,15.936C203.84,191.16,205.872,192,208,192h64
			c2.128,0,4.16-0.84,5.656-2.344l15.936-15.936c1.504,3.128,2.408,6.584,2.408,10.28V216z M197.72,162.408
			c3.128-1.504,6.584-2.408,10.28-2.408h64c3.696,0,7.152,0.904,10.28,2.408L268.688,176h-57.376L197.72,162.408z M272,144h-64
			c-19.312,0-35.472,13.768-39.192,32H120c-35.288,0-64-28.712-64-64c0-35.288,28.712-64,64-64h240c35.288,0,64,28.712,64,64
			c0,35.288-28.712,64-64,64h-48.808C307.472,157.768,291.32,144,272,144z M368,208h-56v-16h48c44.112,0,80-35.888,80-80
			s-35.888-80-80-80H120c-44.112,0-80,35.888-80,80s35.888,80,80,80h48v16h-56c-52.936,0-96-43.064-96-96c0-52.936,43.064-96,96-96
			h256c52.936,0,96,43.064,96,96C464,164.936,420.936,208,368,208z"/>
	</g>
</g>
<g>
	<g>
		<path d="M280,272h-80c-22.056,0-40,17.944-40,40v128c0,22.056,17.944,40,40,40h80c22.056,0,40-17.944,40-40V312
			C320,289.944,302.056,272,280,272z M304,440c0,13.232-10.768,24-24,24h-80c-13.232,0-24-10.768-24-24v-24h128V440z M304,400H176
			v-48h19.72l13.624,20.44c1.736,2.592,4.784,3.976,7.888,3.464c3.08-0.48,5.6-2.704,6.464-5.704l10.344-36.224l22.808,45.608
			c1.36,2.728,4.144,4.416,7.152,4.416c0.288,0,0.576-0.016,0.872-0.048c3.328-0.368,6.072-2.768,6.88-6.008L278.248,352H304V400z
			 M304,336h-32c-3.672,0-6.864,2.496-7.76,6.056l-2.76,11.016l-22.328-44.656c-1.48-2.944-4.568-4.736-7.896-4.384
			c-3.28,0.304-6.048,2.592-6.952,5.768l-11.24,39.368l-6.408-9.608c-1.488-2.224-3.984-3.56-6.656-3.56h-24v-24
			c0-13.232,10.768-24,24-24h80c13.232,0,24,10.768,24,24V336z"/>
	</g>
</g>
<g>
	<g>
		<rect x="200" y="432" width="24" height="16"/>
	</g>
</g>
<g>
	<g>
		<rect x="256" y="432" width="24" height="16"/>
	</g>
</g>
<g>
	<g>
		<rect x="128" y="400" width="16" height="16"/>
	</g>
</g>
<g>
	<g>
		<rect x="96" y="400" width="16" height="16"/>
	</g>
</g>
<g>
	<g>
		<rect x="64" y="400" width="16" height="16"/>
	</g>
</g>
<g>
	<g>
		<rect x="64" y="368" width="16" height="16"/>
	</g>
</g>
<g>
	<g>
		<rect x="64" y="336" width="16" height="16"/>
	</g>
</g>
<g>
	<g>
		<rect x="64" y="304" width="16" height="16"/>
	</g>
</g>
<g>
	<g>
		<rect x="64" y="272" width="16" height="16"/>
	</g>
</g>
<g>
	<g>
		<rect x="64" y="240" width="16" height="16"/>
	</g>
</g>
<g>
	<g>
		<rect x="336" y="400" width="16" height="16"/>
	</g>
</g>
<g>
	<g>
		<rect x="368" y="400" width="16" height="16"/>
	</g>
</g>
<g>
	<g>
		<rect x="400" y="400" width="16" height="16"/>
	</g>
</g>
<g>
	<g>
		<rect x="400" y="368" width="16" height="16"/>
	</g>
</g>
<g>
	<g>
		<rect x="400" y="336" width="16" height="16"/>
	</g>
</g>
<g>
	<g>
		<rect x="400" y="304" width="16" height="16"/>
	</g>
</g>
<g>
	<g>
		<rect x="400" y="272" width="16" height="16"/>
	</g>
</g>
<g>
	<g>
		<rect x="400" y="240" width="16" height="16"/>
	</g>
</g>
<g>
</g>
<g>
</g>
<g>
</g>
<g>
</g>
<g>
</g>
<g>
</g>
<g>
</g>
<g>
</g>
<g>
</g>
<g>
</g>
<g>
</g>
<g>
</g>
<g>
</g>
<g>
</g>
<g>
</g>
</svg>
