<?xml version="1.0" encoding="iso-8859-1"?>
<!-- Generator: Adobe Illustrator 19.0.0, SVG Export Plug-In . SVG Version: 6.00 Build 0)  -->
<svg version="1.1" id="Capa_1" xmlns="http://www.w3.org/2000/svg" xmlns:xlink="http://www.w3.org/1999/xlink" x="0px" y="0px"
	 viewBox="0 0 512 512" style="enable-background:new 0 0 512 512;" xml:space="preserve">
<g>
	<g>
		<g>
			<path d="M384,320c-8.137,0-15.171,1.811-21.333,3.913V96c0-2.833-1.125-5.542-3.125-7.542L274.208,3.125
				c-2-2-4.708-3.125-7.542-3.125h-160C83.146,0,64,19.135,64,42.667v320c0,23.531,19.146,42.667,42.667,42.667h128.615
				C240.008,451.77,274.103,512,320,512c8.604,0,12.979-1.49,17.063-3.156c1.875-0.76,2.563-1.042,3.896-1.125
				c2.083,0.083,2.771,0.365,4.646,1.125c4.083,1.667,8.458,3.156,17.063,3.156c49.5,0,85.333-70.083,85.333-117.333
				C448,348.615,423.479,320,384,320z M277.333,36.417l48.917,48.917h-27.583c-11.771,0-21.333-9.573-21.333-21.333V36.417z
				 M235.401,384H106.667c-11.771,0-21.333-9.573-21.333-21.333v-320c0-11.76,9.563-21.333,21.333-21.333H256V64
				c0,23.531,19.146,42.667,42.667,42.667h42.667v191.918c-12.065-20.957-32.701-31.918-53.333-31.918
				c-5.896,0-10.667,4.771-10.667,10.667c0,16.734,4.337,31.419,11.624,43.576C258.29,324.947,238.663,348.072,235.401,384z
				 M329.298,327.264c-0.48-0.177-0.859-0.245-1.361-0.441c-2.483-0.975-5.24-1.992-8.126-2.97
				c-10.796-7.122-17.799-18.9-20.207-34.061C313.245,294.094,325.452,306.348,329.298,327.264z M362.667,490.667
				c-5.146,0-6.771-0.667-9.021-1.583c-2.563-1.042-6.063-2.469-12.688-2.677c-5.875,0.208-9.375,1.635-11.938,2.677
				c-2.25,0.917-3.875,1.583-9.021,1.583c-34.708,0-64-58.969-64-96c0-34.396,15.146-53.333,42.667-53.333
				c7.833,0,14.458,2.604,21.5,5.354c6.667,2.615,13.583,5.313,21.167,5.313c7.583,0,14.5-2.698,21.167-5.313
				c7.042-2.75,13.667-5.354,21.5-5.354c27.521,0,42.667,18.938,42.667,53.333C426.667,431.698,397.375,490.667,362.667,490.667z"/>
			<path d="M298.667,362.667c-19.125,0-21.333,18.26-21.333,32c0,5.896,4.771,10.667,10.667,10.667s10.667-4.771,10.667-10.667
				c0-5.854,0.521-9.073,0.938-10.708c5.458-0.469,9.729-5.052,9.729-10.625C309.333,367.438,304.563,362.667,298.667,362.667z"/>
		</g>
	</g>
</g>
<g>
</g>
<g>
</g>
<g>
</g>
<g>
</g>
<g>
</g>
<g>
</g>
<g>
</g>
<g>
</g>
<g>
</g>
<g>
</g>
<g>
</g>
<g>
</g>
<g>
</g>
<g>
</g>
<g>
</g>
</svg>
