<?xml version="1.0" encoding="iso-8859-1"?>
<!-- Generator: Adobe Illustrator 19.0.0, SVG Export Plug-In . SVG Version: 6.00 Build 0)  -->
<svg version="1.1" id="Capa_1" xmlns="http://www.w3.org/2000/svg" xmlns:xlink="http://www.w3.org/1999/xlink" x="0px" y="0px"
	 viewBox="0 0 480 480" style="enable-background:new 0 0 480 480;" xml:space="preserve">
<g>
	<g>
		<path d="M372,0H188c-22.056,0-40,17.944-40,40v16h-40c-22.056,0-40,17.944-40,40v136c0,2.12,0.84,4.16,2.344,5.656L164,331.312
			V336h-8c-4.424,0-8,3.584-8,8v32v64v32c0,4.416,3.576,8,8,8h224c4.424,0,8-3.584,8-8V344c0-4.416-3.576-8-8-8h-8v-4.688
			l37.656-37.656C411.16,292.16,412,290.12,412,288V40C412,17.944,394.056,0,372,0z M164,384h112v48H164V384z M372,464H164v-16h120
			c4.424,0,8-3.584,8-8v-64c0-4.416-3.576-8-8-8H164v-16h208V464z M396,284.688l-37.656,37.656C356.84,323.84,356,325.88,356,328v8
			H180v-8c0-2.12-0.84-4.16-2.344-5.656L84,228.688V96c0-13.232,10.768-24,24-24h40v72c0,22.056,17.944,40,40,40h136
			c2.128,0,4.16-0.84,5.656-2.344l24-24l-11.312-11.312L320.688,168H188c-13.232,0-24-10.768-24-24V40c0-13.232,10.768-24,24-24h184
			c13.232,0,24,10.768,24,24V284.688z"/>
	</g>
</g>
<g>
	<g>
		<rect x="340" y="368" width="16" height="16"/>
	</g>
</g>
<g>
	<g>
		<rect x="340" y="400" width="16" height="16"/>
	</g>
</g>
<g>
	<g>
		<rect x="340" y="432" width="16" height="16"/>
	</g>
</g>
<g>
</g>
<g>
</g>
<g>
</g>
<g>
</g>
<g>
</g>
<g>
</g>
<g>
</g>
<g>
</g>
<g>
</g>
<g>
</g>
<g>
</g>
<g>
</g>
<g>
</g>
<g>
</g>
<g>
</g>
</svg>
