<?xml version="1.0" encoding="iso-8859-1"?>
<!-- Generator: Adobe Illustrator 19.0.0, SVG Export Plug-In . SVG Version: 6.00 Build 0)  -->
<svg version="1.1" id="Capa_1" xmlns="http://www.w3.org/2000/svg" xmlns:xlink="http://www.w3.org/1999/xlink" x="0px" y="0px"
	 viewBox="0 0 512 512" style="enable-background:new 0 0 512 512;" xml:space="preserve">
<path style="fill:#303C42;" d="M384,190.208v-51.542c0-5.896-4.771-10.667-10.667-10.667h-10.667v-21.333
	C362.667,83.135,343.531,64,320,64V21.333C320,9.573,310.427,0,298.667,0h-96C161.5,0,128,33.5,128,74.667
	c0,29.672,17.533,55.145,42.667,67.177v48.365c0,3.083,1.333,6.01,3.656,8.031C185.229,207.76,192,225.802,192,245.333
	s-6.771,37.573-17.677,47.094c-2.323,2.021-3.656,4.948-3.656,8.031v168.875c0,23.531,19.135,42.667,42.667,42.667h128
	C364.865,512,384,492.865,384,469.333V300.458c0-3.083-1.333-6.01-3.656-8.031c-10.906-9.521-17.677-27.563-17.677-47.094
	s6.771-37.573,17.677-47.094C382.667,196.219,384,193.292,384,190.208z M234.667,64C211.135,64,192,83.135,192,106.667v20.254
	c-24.314-4.956-42.667-26.5-42.667-52.254c0-29.406,23.927-53.333,53.333-53.333h32V64z"/>
<path style="fill:#8BC249;" d="M341.333,106.667V128h-128v-21.333c0-11.76,9.573-21.333,21.333-21.333H320
	C331.76,85.333,341.333,94.906,341.333,106.667z"/>
<path style="opacity:0.2;fill:#FFFFFF;enable-background:new    ;" d="M248.889,85.333h-14.223c-11.76,0-21.333,9.573-21.333,21.333
	V128h21.333v-21.333C234.667,94.906,241.048,85.333,248.889,85.333z"/>
<path style="opacity:0.1;fill:#010101;enable-background:new    ;" d="M320,85.333h-14.223c7.841,0,14.223,9.573,14.223,21.333V128
	h21.333v-21.333C341.333,94.906,331.76,85.333,320,85.333z"/>
<rect x="256" y="21.333" style="fill:#8BC249;" width="42.667" height="42.667"/>
<rect x="288" y="21.333" style="opacity:0.1;fill:#010101;enable-background:new    ;" width="10.667" height="42.667"/>
<rect x="256" y="21.333" style="opacity:0.2;fill:#FFFFFF;enable-background:new    ;" width="10.667" height="42.667"/>
<path style="fill:#8BC249;" d="M362.667,185.656c-13.438,13.99-21.333,35.865-21.333,59.677s7.896,45.688,21.333,59.677v164.323
	c0,11.76-9.573,21.333-21.333,21.333h-128c-11.76,0-21.333-9.573-21.333-21.333V305.01c13.438-13.99,21.333-35.865,21.333-59.677
	s-7.896-45.688-21.333-59.677v-36.323h170.667V185.656z"/>
<path style="opacity:0.1;fill:#010101;enable-background:new    ;" d="M362.667,149.333h-21.333v36.323
	c-10.078,13.99-16,35.865-16,59.677s5.922,45.688,16,59.677v164.323c0,11.76-7.18,21.333-16,21.333h16
	c11.76,0,21.333-9.573,21.333-21.333V305.01c-13.438-13.99-21.333-35.865-21.333-59.677s7.896-45.688,21.333-59.677V149.333z"/>
<path style="opacity:0.2;fill:#FFFFFF;enable-background:new    ;" d="M213.333,469.333V305.01c10.078-13.99,16-35.865,16-59.677
	s-5.922-45.688-16-59.677v-36.323H192v36.323c13.438,13.99,21.333,35.865,21.333,59.677S205.438,291.021,192,305.01v164.323
	c0,11.76,9.573,21.333,21.333,21.333h16C220.513,490.667,213.333,481.094,213.333,469.333z"/>
<linearGradient id="SVGID_1_" gradientUnits="userSpaceOnUse" x1="-43.2037" y1="638.3954" x2="-25.7948" y2="630.2799" gradientTransform="matrix(21.3333 0 0 -21.3333 996.3334 13791.667)">
	<stop  offset="0" style="stop-color:#FFFFFF;stop-opacity:0.2"/>
	<stop  offset="1" style="stop-color:#FFFFFF;stop-opacity:0"/>
</linearGradient>
<path style="fill:url(#SVGID_1_);" d="M384,190.208v-51.542c0-5.896-4.771-10.667-10.667-10.667h-10.667v-21.333
	C362.667,83.135,343.531,64,320,64V21.333C320,9.573,310.427,0,298.667,0h-96C161.5,0,128,33.5,128,74.667
	c0,29.672,17.533,55.145,42.667,67.177v48.365c0,3.083,1.333,6.01,3.656,8.031C185.229,207.76,192,225.802,192,245.333
	s-6.771,37.573-17.677,47.094c-2.323,2.021-3.656,4.948-3.656,8.031v168.875c0,23.531,19.135,42.667,42.667,42.667h128
	C364.865,512,384,492.865,384,469.333V300.458c0-3.083-1.333-6.01-3.656-8.031c-10.906-9.521-17.677-27.563-17.677-47.094
	s6.771-37.573,17.677-47.094C382.667,196.219,384,193.292,384,190.208z M234.667,64C211.135,64,192,83.135,192,106.667v20.254
	c-24.314-4.956-42.667-26.5-42.667-52.254c0-29.406,23.927-53.333,53.333-53.333h32V64z"/>
<g>
</g>
<g>
</g>
<g>
</g>
<g>
</g>
<g>
</g>
<g>
</g>
<g>
</g>
<g>
</g>
<g>
</g>
<g>
</g>
<g>
</g>
<g>
</g>
<g>
</g>
<g>
</g>
<g>
</g>
</svg>
