<?xml version="1.0" encoding="iso-8859-1"?>
<!-- Generator: Adobe Illustrator 19.0.0, SVG Export Plug-In . SVG Version: 6.00 Build 0)  -->
<svg version="1.1" id="Capa_1" xmlns="http://www.w3.org/2000/svg" xmlns:xlink="http://www.w3.org/1999/xlink" x="0px" y="0px"
	 viewBox="0 0 480 480" style="enable-background:new 0 0 480 480;" xml:space="preserve">
<g>
	<path style="fill:#EE6352;" d="M130.737,399.512c-7.96-15.784-10.72-33.752-10.952-51.424c-0.32-24.408,4.072-49.088,14.624-71.104
		c12.504-26.104,33.024-47.44,54.208-67.16s43.552-38.496,61.192-61.44c9.192-11.952,17-25.312,22.232-39.432
		c-4.136-6.976-8.416-13.848-12.76-20.576c-9.616-14.912-22.112-27.176-35.84-38.232c-11.984-9.648-24.344-19.232-38.528-25.448
		c-14.512-6.352-29.96-13.824-45.672-16.456C138.545,8.136,137.857,8,137.153,8c2.296,2.96,4.96,5.432,6.944,8.648
		c7.296,11.816,12.336,24.656,16.664,37.808c3.736,11.544,3.52,24.296,0.872,36.04c-1.976,8.768-5.328,17.184-9.464,25.144
		c-5.88,11.296-13.096,21.824-20.32,32.28c-0.888,1.288-10.736,11.992-10.704,12.08c-12.76-30.24-58.248-84.408-91-82.352
		c19.768,32.04,16.576,73.168,6.992,109.568S11.817,258.456,9.145,296c-2.552,35.84,7.432,72.92,27.28,102.872
		c19.856,29.952,49.216,55.248,83.952,64.448c30.944,8.2,68.36,8.648,106.12,8.584C191.585,470.904,147.681,433.104,130.737,399.512
		z"/>
	<path style="fill:#EE6352;" d="M336.665,270.168c15.208-7.96,35.4-17.144,46.584-30.168c13.112-15.264,17.176-26.704,20.76-46.504
		c22.304,23.6,40.136,55.224,51.232,85.736c9.336,25.672,16.616,52.584,15.968,79.896s-9.992,55.264-29.792,74.08
		C415.985,457.376,378.337,472,343.265,472c-32.016,0-80.016,0-115.336,0c-35.136,0-80.016-38.448-97.192-72.488
		c-7.96-15.784-10.72-33.744-10.952-51.424c-0.32-24.408,4.072-49.088,14.624-71.104c12.504-26.104,33.024-47.44,54.208-67.16
		s43.552-38.496,61.192-61.44s30.448-51.024,28.992-79.928c16.552,14.68,31.6,32.816,45.992,49.624
		c9.752,11.4,19.088,23.44,24.84,37.304c8.144,19.632,8.552,41.816,4.592,62.704S345.145,250.68,336.665,270.168z"/>
</g>
<g>
	<path style="fill:#FAC05E;" d="M359.249,88c0-22.112-17.888-40-40-40c22.112,0,40-17.888,40-40c0,22.112,17.888,40,40,40
		C377.137,48,359.249,65.888,359.249,88z"/>
	<path style="fill:#FAC05E;" d="M431.249,160c0-22.112-17.888-40-40-40c22.112,0,40-17.888,40-40c0,22.112,17.888,40,40,40
		C449.137,120,431.249,137.888,431.249,160z"/>
</g>
<g>
	<path style="fill:#0F272A;" d="M462.753,276.504c-12.392-34.056-31.184-65.488-52.936-88.496c-2.072-2.192-5.224-3.016-8.096-2.168
		c-2.888,0.856-5.056,3.28-5.592,6.248c-3.328,18.44-6.696,28.448-18.952,42.704c-5.912,6.888-15.008,12.76-24.52,18.016
		c3.928-10.144,6.888-19.832,9.432-33.224c4.68-24.736,2.928-47.992-5.064-67.256c-6.288-15.152-16.288-27.912-26.16-39.44
		l-4.048-4.736c-13.416-15.728-27.288-31.992-42.704-45.664c-2.432-2.136-5.888-2.624-8.776-1.224
		c-2.904,1.392-4.696,4.4-4.528,7.616c0.352,7.032-0.288,13.856-1.528,20.456c-1.104-1.744-2.16-3.544-3.272-5.272
		c-9.056-14.04-20.992-26.792-37.552-40.128c-12.736-10.264-25.408-20.008-40.336-26.544l-5.4-2.384
		c-13.472-5.976-27.4-12.16-42.472-14.68c-4.04-0.664-8.48,0.488-10.28,4.168c-1.344,2.736-1.016,6,0.848,8.416
		c0.96,1.24,1.976,2.408,2.992,3.576c1.384,1.576,2.576,2.936,3.472,4.384c7.56,12.248,12.464,25.728,15.864,36.064
		c3.832,11.84,2.48,23.832,0.672,31.824c-1.688,7.48-4.632,15.288-8.752,23.208c-5.784,11.096-13.232,21.904-19.672,31.24
		c-0.368,0.472-1.24,1.472-2.328,2.688c-18.168-32.648-60.216-78.144-93.44-76.208c-2.808,0.176-5.312,1.816-6.6,4.312
		c-1.296,2.496-1.176,5.488,0.296,7.872c15.472,25.08,17.504,59.84,6.072,103.328c-3.048,11.552-6.816,23.232-10.456,34.528
		c-7.824,24.264-15.904,49.352-17.784,75.728C-1.495,332.6,8.929,371.912,29.737,403.32c22.968,34.648,54.432,58.712,88.576,67.76
		c30.104,7.976,64.736,8.856,103.504,8.856c1.528,0,3.064,0,4.608,0c0.512-0.016,1.016,0.064,1.504,0.064h115.336
		c37.336,0,77.056-15.704,103.656-40.984c19.768-18.784,31.528-47.824,32.288-79.688
		C479.785,334.92,474.721,309.376,462.753,276.504z M122.425,455.584c-30.36-8.04-58.528-29.752-79.328-61.128
		c-18.904-28.528-28.376-64.2-25.976-97.888c1.744-24.448,9.176-47.528,17.064-71.96c3.704-11.496,7.536-23.384,10.688-35.36
		c10.552-40.112,10.4-73.96-0.424-100.904c25.752,10.432,57.968,48.248,69.16,74.368c0.096,0.24,0.192,0.48,0.312,0.728
		c1.872,3.92,6.52,5.656,10.496,3.856c1.24-0.552,2.28-1.392,3.056-2.408c0.464-0.528,1.616-1.8,2.976-3.304
		c5.808-6.432,7.296-8.136,7.984-9.128c6.84-9.92,14.592-21.16,20.832-33.136c4.76-9.144,8.176-18.248,10.168-27.072
		c3.216-14.24,2.848-28.168-1.08-40.312c-2.92-8.872-6.864-19.88-12.568-30.864c6.864,2.504,13.72,5.544,20.448,8.528l5.472,2.416
		c13.128,5.744,24.856,14.8,36.728,24.352c15.184,12.232,26.04,23.776,34.136,36.336c3.592,5.576,7.152,11.248,10.608,16.992
		c-1.144,2.816-2.408,5.624-3.784,8.424c-0.04,0.08-0.072,0.16-0.112,0.232c-1.176,2.384-2.48,4.744-3.824,7.104
		c-0.352,0.616-0.696,1.264-1.056,1.872c-1.192,2.024-2.48,4.024-3.784,6.024c-0.528,0.8-1.04,1.64-1.568,2.416
		c-1.768,2.6-3.616,5.184-5.576,7.736c-13.816,17.968-31.16,33.792-47.92,49.088c-4.144,3.784-8.28,7.56-12.384,11.368
		c-21.224,19.76-42.704,41.856-55.968,69.552c-10.44,21.776-15.76,47.592-15.408,74.664c0.072,5.44,0.368,10.648,0.888,15.632
		c0.488,4.688,1.224,9.144,2.12,13.456c-23.616-14.584-36.92-41.52-35.416-73.832c0.616-13.088,3.152-27.56,7.984-45.536
		c0.648-2.424,1.336-4.848,2.032-7.28c3.952-13.88,8.04-28.24,5.776-43.776l-15.832,2.304c1.768,12.152-1.68,24.264-5.336,37.096
		c-0.712,2.504-1.424,5.008-2.096,7.504c-5.144,19.128-7.84,34.672-8.512,48.952c-2.056,44.144,20.72,81.28,58.2,95.672
		c0.688,1.568,1.24,3.24,2.008,4.752c1.288,2.544,2.744,5.112,4.304,7.688c0.36,0.592,0.76,1.184,1.136,1.776
		c1.304,2.08,2.68,4.16,4.144,6.232c0.352,0.496,0.712,0.984,1.064,1.472c1.712,2.36,3.512,4.704,5.408,7.032
		c0.112,0.136,0.224,0.28,0.336,0.416c11,13.424,24.816,25.976,39.568,35.44C158.745,462.232,139.625,460.144,122.425,455.584z
		 M435.905,427.416C412.153,449.984,376.665,464,343.265,464H227.929c-0.376,0-0.776-0.072-1.152-0.08
		c-0.016,0-0.024-0.008-0.04-0.008c-1.976-0.056-3.984-0.248-6.024-0.568c-0.04-0.008-0.088-0.016-0.128-0.024
		c-1.912-0.304-3.856-0.728-5.816-1.24c-0.744-0.2-1.504-0.456-2.256-0.688c-1.224-0.368-2.448-0.736-3.68-1.176
		c-27.736-10.128-58.12-38.872-70.952-64.296c-6.536-12.976-9.832-28.648-10.088-47.928c-0.32-24.624,4.464-47.976,13.832-67.536
		c12.128-25.296,32.376-46.072,52.456-64.76c4.056-3.776,8.16-7.512,12.256-11.264c17.28-15.768,35.152-32.064,49.832-51.16
		c2.128-2.76,4.296-5.824,6.456-9.024c0.456-0.672,0.912-1.344,1.352-2.016c9.856-14.992,19.2-34.128,22.064-55.776
		c9.912,10.152,19.384,21.24,28.624,32.08l4.064,4.76c9.008,10.52,18.104,22.072,23.528,35.168
		c6.8,16.376,8.224,36.488,4.128,58.144c-3.784,19.928-8.736,31.304-16.936,50.152l-0.104,0.232c-1.352,3.112-0.6,6.736,1.88,9.048
		c2.488,2.312,6.152,2.792,9.168,1.232l6.352-3.28c14.952-7.648,31.896-16.32,42.592-28.768
		c10.424-12.128,15.584-22.144,19.056-34.456c15.856,19.896,29.84,45.104,39.352,71.216c11.24,30.912,16.016,54.656,15.488,76.968
		C462.553,386.592,452.601,411.544,435.905,427.416z"/>
	<path style="fill:#0F272A;" d="M223.697,262.168c3.816-4.224,7.704-8.384,11.592-12.544c12.568-13.44,25.568-27.328,35.776-43.392
		l-13.504-8.576c-9.408,14.8-21.336,27.544-33.952,41.04c-3.96,4.232-7.92,8.464-11.792,12.76
		c-15.488,17.16-32.232,38.2-39.12,64.152c-6.32,23.848,0.2,51.472,17.448,73.88C207.025,411.416,230.753,424,255.249,424v-16
		c-19.488,0-38.592-10.312-52.424-28.28c-14.024-18.224-19.64-41.224-14.656-60.016
		C194.169,297.056,209.497,277.912,223.697,262.168z"/>
	<path style="fill:#0F272A;" d="M407.249,48c0-4.416-3.576-8-8-8c-17.648,0-32-14.352-32-32c0-4.416-3.576-8-8-8s-8,3.584-8,8
		c0,17.648-14.352,32-32,32c-4.424,0-8,3.584-8,8s3.576,8,8,8c17.648,0,32,14.352,32,32c0,4.416,3.576,8,8,8s8-3.584,8-8
		c0-17.648,14.352-32,32-32C403.673,56,407.249,52.416,407.249,48z M359.249,61.496c-3.552-5.344-8.152-9.944-13.496-13.496
		c5.344-3.552,9.944-8.152,13.496-13.496c3.552,5.344,8.152,9.944,13.496,13.496C367.401,51.552,362.801,56.152,359.249,61.496z"/>
	<path style="fill:#0F272A;" d="M471.249,112c-17.648,0-32-14.352-32-32c0-4.416-3.576-8-8-8s-8,3.584-8,8c0,17.648-14.352,32-32,32
		c-4.424,0-8,3.584-8,8s3.576,8,8,8c17.648,0,32,14.352,32,32c0,4.416,3.576,8,8,8s8-3.584,8-8c0-17.648,14.352-32,32-32
		c4.424,0,8-3.584,8-8S475.673,112,471.249,112z M431.249,133.496c-3.552-5.344-8.152-9.936-13.496-13.496
		c5.344-3.552,9.936-8.152,13.496-13.496c3.552,5.344,8.152,9.936,13.496,13.496C439.401,123.552,434.801,128.152,431.249,133.496z"
		/>
</g>
<g>
</g>
<g>
</g>
<g>
</g>
<g>
</g>
<g>
</g>
<g>
</g>
<g>
</g>
<g>
</g>
<g>
</g>
<g>
</g>
<g>
</g>
<g>
</g>
<g>
</g>
<g>
</g>
<g>
</g>
</svg>
