<?xml version="1.0" encoding="iso-8859-1"?>
<!-- Generator: Adobe Illustrator 19.0.0, SVG Export Plug-In . SVG Version: 6.00 Build 0)  -->
<svg version="1.1" id="Capa_1" xmlns="http://www.w3.org/2000/svg" xmlns:xlink="http://www.w3.org/1999/xlink" x="0px" y="0px"
	 viewBox="0 0 480 480" style="enable-background:new 0 0 480 480;" xml:space="preserve">
<path style="fill:#EE6352;" d="M272,96c-32.176,0-60.92,14.624-80,37.568C172.92,110.624,144.176,96,112,96C54.56,96,8,142.56,8,200
	s46.56,104,104,104c44.216,0,80,35.784,80,80c0-44.216,35.784-80,80-80c57.44,0,104-46.56,104-104S329.44,96,272,96z"/>
<polygon style="fill:#FAC05E;" points="416,360 352,336 352,384 "/>
<g>
	<path style="fill:#0F272A;" d="M0,200c0,61.76,50.24,112,112,112c39.696,0,72,32.304,72,72c0,4.416,3.584,8,8,8s8-3.584,8-8
		c0-39.696,32.304-72,72-72c61.76,0,112-50.24,112-112S333.76,88,272,88c-30.304,0-58.984,12.16-80,33.64
		C170.984,100.16,142.304,88,112,88C50.24,88,0,138.24,0,200z M185.848,138.68c3.04,3.656,9.264,3.656,12.304,0
		C216.48,116.64,243.392,104,272,104c52.936,0,96,43.064,96,96s-43.064,96-96,96c-35.448,0-66.072,21.072-80,51.344
		C178.072,317.072,147.448,296,112,296c-52.936,0-96-43.064-96-96s43.064-96,96-96C140.608,104,167.52,116.64,185.848,138.68z"/>
	<path style="fill:#0F272A;" d="M64,224h67.056l13.792,27.576c1.488,2.968,4.64,4.744,7.944,4.384
		c3.304-0.328,6.056-2.656,6.928-5.856l15.944-58.472l24.576,98.304c0.888,3.568,4.096,6.064,7.76,6.064c0.04,0,0.088,0,0.136,0
		c3.72-0.064,6.904-2.68,7.688-6.328l18.496-86.336l6.248,15.632c1.224,3.04,4.16,5.032,7.432,5.032h88v-16h-82.584l-13.992-34.976
		c-1.312-3.264-4.592-5.248-8.104-5c-3.504,0.304-6.408,2.856-7.152,6.296l-16.776,78.296l-23.64-94.56
		c-0.88-3.528-4.04-6.016-7.672-6.056c-0.032,0-0.056,0-0.088,0c-3.608,0-6.768,2.408-7.72,5.896l-18.488,67.8l-6.64-13.272
		C141.8,209.712,139.032,208,136,208H64V224z"/>
	<rect x="184" y="432" style="fill:#0F272A;" width="16" height="16"/>
	<rect x="184" y="464" style="fill:#0F272A;" width="16" height="16"/>
	<rect x="152" y="464" style="fill:#0F272A;" width="16" height="16"/>
	<rect x="216" y="464" style="fill:#0F272A;" width="16" height="16"/>
	<rect x="184" y="32" style="fill:#0F272A;" width="16" height="16"/>
	<rect x="184" style="fill:#0F272A;" width="16" height="16"/>
	<rect x="216" style="fill:#0F272A;" width="16" height="16"/>
	<rect x="152" style="fill:#0F272A;" width="16" height="16"/>
	<path style="fill:#0F272A;" d="M472,0h-40v16h32v24h-32v16h32v32h-32v16h32v32h-32v16h32v32h-32v16h32v32h-32v16h32v32h-32v16h32
		v32h-32v16h32v32h-32v16h32v32h-32v16h32v24h-32v16h40c4.416,0,8-3.584,8-8V8C480,3.584,476.416,0,472,0z"/>
	<path style="fill:#0F272A;" d="M347.44,329.424c-2.152,1.496-3.44,3.952-3.44,6.576v48c0,2.624,1.288,5.08,3.44,6.576
		c1.36,0.936,2.952,1.424,4.56,1.424c0.944,0,1.896-0.168,2.808-0.504l64-24c3.12-1.176,5.192-4.16,5.192-7.496
		s-2.072-6.32-5.192-7.496l-64-24C352.352,327.584,349.6,327.928,347.44,329.424z M360,347.544L393.216,360L360,372.456V347.544z"/>
	<rect x="392" y="304" style="fill:#0F272A;" width="16" height="16"/>
	<rect x="392" y="272" style="fill:#0F272A;" width="16" height="16"/>
	<rect x="392" y="400" style="fill:#0F272A;" width="16" height="16"/>
	<rect x="392" y="432" style="fill:#0F272A;" width="16" height="16"/>
</g>
<g>
</g>
<g>
</g>
<g>
</g>
<g>
</g>
<g>
</g>
<g>
</g>
<g>
</g>
<g>
</g>
<g>
</g>
<g>
</g>
<g>
</g>
<g>
</g>
<g>
</g>
<g>
</g>
<g>
</g>
</svg>
