<?xml version="1.0" encoding="iso-8859-1"?>
<!-- Generator: Adobe Illustrator 19.0.0, SVG Export Plug-In . SVG Version: 6.00 Build 0)  -->
<svg version="1.1" id="Capa_1" xmlns="http://www.w3.org/2000/svg" xmlns:xlink="http://www.w3.org/1999/xlink" x="0px" y="0px"
	 viewBox="0 0 480 480" style="enable-background:new 0 0 480 480;" xml:space="preserve">
<path style="fill:#EE6352;" d="M426.04,378.272C449.968,343.504,464,301.4,464,256c0-119.296-96.704-216-216-216S32,136.704,32,256
	s96.704,216,216,216c61.8,0,117.496-25.992,156.864-67.6C411.728,411.584,416,421.272,416,432c0-22.112,17.888-40,40-40
	C444,392,433.368,386.624,426.04,378.272z"/>
<g>
	<path style="fill:#FAC05E;" d="M56,88c0-22.112-17.888-40-40-40c22.112,0,40-17.888,40-40c0,22.112,17.888,40,40,40
		C73.888,48,56,65.888,56,88z"/>
	<path style="fill:#FAC05E;" d="M416,432c0-22.112-17.888-40-40-40c22.112,0,40-17.888,40-40c0,22.112,17.888,40,40,40
		C433.888,392,416,409.888,416,432z"/>
</g>
<g>
	<path style="fill:#50D4E3;" d="M248,168L248,168c-17.672,0-32-14.328-32-32v-16c0-17.672,14.328-32,32-32l0,0
		c17.672,0,32,14.328,32,32v16C280,153.672,265.672,168,248,168z"/>
	<path style="fill:#50D4E3;" d="M200,280H96c-9.704,0-18.456-5.848-22.168-14.816s-1.664-19.288,5.2-26.152l72-72
		c9.368-9.376,24.568-9.376,33.936,0c9.376,9.368,9.376,24.568,0,33.936L153.944,232H200c13.256,0,24,10.744,24,24
		S213.256,280,200,280z"/>
	<path style="fill:#50D4E3;" d="M296,416c-13.256,0-24-10.744-24-24V256c0-13.256,10.744-24,24-24h46.056l-31.024-31.032
		c-9.376-9.368-9.376-24.568,0-33.936c9.368-9.376,24.568-9.376,33.936,0l72,72c6.864,6.864,8.92,17.184,5.2,26.152
		S409.704,280,400,280h-80v112C320,405.256,309.256,416,296,416z"/>
</g>
<g>
	<path style="fill:#0F272A;" d="M16,56c17.648,0,32,14.352,32,32c0,4.416,3.584,8,8,8s8-3.584,8-8c0-17.648,14.352-32,32-32
		c4.416,0,8-3.584,8-8s-3.584-8-8-8C78.352,40,64,25.648,64,8c0-4.416-3.584-8-8-8s-8,3.584-8,8c0,17.648-14.352,32-32,32
		c-4.416,0-8,3.584-8,8S11.584,56,16,56z M56,34.504c3.552,5.344,8.152,9.944,13.496,13.496C64.152,51.552,59.552,56.152,56,61.496
		C52.448,56.152,47.848,51.552,42.504,48C47.848,44.448,52.448,39.848,56,34.504z"/>
	<path style="fill:#0F272A;" d="M444.656,381.824c-0.92-0.36-1.824-0.768-2.704-1.216c-0.68-0.336-1.344-0.704-1.992-1.088
		c-1.136-0.68-2.264-1.392-3.32-2.224c-0.072-0.056-0.144-0.12-0.216-0.176C459.712,340.968,472,299.24,472,256
		c0-120.832-96.184-219.56-216-223.8V0h-16v32.2C120.184,36.44,24,135.168,24,256c0,123.512,100.488,224,224,224
		c58.92,0,113.928-22.4,155.944-63.28c0.336,0.616,0.712,1.216,1.008,1.856c0.216,0.464,0.464,0.912,0.656,1.392
		c0.656,1.608,1.168,3.28,1.552,5c0.104,0.448,0.176,0.896,0.256,1.344C407.76,428.168,408,430.056,408,432c0,4.416,3.584,8,8,8
		s8-3.584,8-8c0-17.648,14.352-32,32-32c4.416,0,8-3.584,8-8s-3.584-8-8-8c-2.024,0-3.992-0.24-5.92-0.6
		c-0.704-0.136-1.376-0.352-2.064-0.528C446.872,382.576,445.752,382.24,444.656,381.824z M248,464c-114.688,0-208-93.312-208-208
		S133.312,48,248,48s208,93.312,208,208c0,38.088-10.344,74.864-29.864,107.2c-1.32-3.496-2.136-7.248-2.136-11.2
		c0-4.416-3.584-8-8-8s-8,3.584-8,8c0,17.648-14.352,32-32,32c-4.416,0-8,3.584-8,8s3.584,8,8,8c6.256,0,12.056,1.872,16.992,4.992
		C353.952,443.088,302.808,464,248,464z M420.032,383.544c0.168,0.192,0.36,0.344,0.528,0.528c1.072,1.184,2.184,2.296,3.368,3.368
		c0.912,0.832,1.88,1.576,2.848,2.328c0.928,0.72,1.736,1.576,2.72,2.224c-1.864,1.24-3.504,2.76-5.176,4.24
		c-0.72,0.64-1.552,1.144-2.224,1.824c-2.264,2.264-4.312,4.752-6.088,7.432c-0.632-0.944-1.456-1.728-2.152-2.624
		c-1.04-1.352-2.008-2.744-3.2-3.992c-0.048-0.048-0.112-0.064-0.16-0.112c-2.424-2.512-5.064-4.824-7.976-6.76
		c5.344-3.552,9.936-8.152,13.496-13.496c1.096,1.64,2.456,3.072,3.736,4.56C419.848,383.224,419.904,383.4,420.032,383.544z"/>
	<path style="fill:#0F272A;" d="M288,136v-16c0-22.056-17.944-40-40-40s-40,17.944-40,40v16c0,22.056,17.944,40,40,40
		S288,158.056,288,136z M272,136c0,13.232-10.768,24-24,24s-24-10.768-24-24v-16c0-13.232,10.768-24,24-24s24,10.768,24,24V136z"/>
	<path style="fill:#0F272A;" d="M200,224h-26.744l17.368-17.376c6.048-6.04,9.376-14.08,9.376-22.624s-3.328-16.584-9.368-22.624
		c-12.088-12.096-33.176-12.096-45.256,0l-72,72c-9.184,9.184-11.912,22.872-6.936,34.872C71.408,280.248,83.008,288,96,288h104
		c17.648,0,32-14.352,32-32S217.648,224,200,224z M200,272H96c-6.496,0-12.296-3.88-14.784-9.88s-1.128-12.84,3.472-17.432l72-72
		c3.024-3.024,7.04-4.688,11.312-4.688s8.288,1.664,11.312,4.688S184,179.728,184,184s-1.664,8.288-4.688,11.312l-31.024,31.032
		c-2.288,2.288-2.976,5.728-1.736,8.72s4.152,4.936,7.392,4.936H200c8.824,0,16,7.176,16,16S208.824,272,200,272z"/>
	<path style="fill:#0F272A;" d="M429.56,268.248c4.976-12,2.248-25.688-6.936-34.872l-72-72c-12.088-12.096-33.176-12.096-45.256,0
		c-6.04,6.04-9.368,14.08-9.368,22.624s3.328,16.584,9.376,22.624L322.744,224H296c-17.648,0-32,14.352-32,32v136
		c0,17.648,14.352,32,32,32s32-14.352,32-32V288h72C412.992,288,424.592,280.248,429.56,268.248z M320,272c-4.416,0-8,3.584-8,8v112
		c0,8.824-7.176,16-16,16s-16-7.176-16-16V256c0-8.824,7.176-16,16-16h46.056c3.232,0,6.152-1.952,7.392-4.936
		s0.552-6.432-1.736-8.72l-31.024-31.032C313.664,192.288,312,188.272,312,184s1.664-8.288,4.688-11.312
		c6.04-6.048,16.576-6.048,22.624,0l72,72c4.592,4.584,5.952,11.432,3.472,17.432S406.496,272,400,272H320z"/>
	<rect x="88" y="304" style="fill:#0F272A;" width="16" height="16"/>
	<rect x="120" y="304" style="fill:#0F272A;" width="16" height="16"/>
	<rect x="152" y="304" style="fill:#0F272A;" width="16" height="16"/>
	<rect x="184" y="304" style="fill:#0F272A;" width="16" height="16"/>
	<rect x="120" y="336" style="fill:#0F272A;" width="16" height="16"/>
	<rect x="152" y="336" style="fill:#0F272A;" width="16" height="16"/>
	<rect x="184" y="336" style="fill:#0F272A;" width="16" height="16"/>
	<rect x="152" y="368" style="fill:#0F272A;" width="16" height="16"/>
	<rect x="184" y="368" style="fill:#0F272A;" width="16" height="16"/>
	<rect x="184" y="400" style="fill:#0F272A;" width="16" height="16"/>
</g>
<g>
</g>
<g>
</g>
<g>
</g>
<g>
</g>
<g>
</g>
<g>
</g>
<g>
</g>
<g>
</g>
<g>
</g>
<g>
</g>
<g>
</g>
<g>
</g>
<g>
</g>
<g>
</g>
<g>
</g>
</svg>
