<?xml version="1.0" encoding="iso-8859-1"?>
<!-- Generator: Adobe Illustrator 19.0.0, SVG Export Plug-In . SVG Version: 6.00 Build 0)  -->
<svg version="1.1" id="Capa_1" xmlns="http://www.w3.org/2000/svg" xmlns:xlink="http://www.w3.org/1999/xlink" x="0px" y="0px"
	 viewBox="0 0 512 512" style="enable-background:new 0 0 512 512;" xml:space="preserve">
<path style="fill:#303C42;" d="M502.64,457.373l-4.831-4.831c-0.671-0.93-1.451-1.71-2.38-2.38l-81.508-81.505
	c4.05-4.675,6.506-10.423,6.506-16.662c0-6.875-2.667-13.344-7.542-18.209c-9.3-9.279-24.956-9.433-34.859-1.013L179.236,133.99
	c4.052-4.675,6.51-10.427,6.51-16.668c0-6.875-2.667-13.344-7.542-18.209c-9.297-9.278-24.949-9.433-34.852-1.017L54.613,9.36
	C42.154-3.12,21.819-3.12,9.36,9.36c-12.48,12.48-12.48,32.772,0,45.251l88.719,88.716c-4.05,4.675-6.506,10.423-6.506,16.662
	c0,6.875,2.667,13.344,7.542,18.209c4.875,4.865,11.334,7.552,18.209,7.552c6.239,0,11.982-2.471,16.662-6.516L332.76,378.001
	c-4.05,4.675-6.506,10.423-6.506,16.662c0,6.875,2.667,13.344,7.542,18.209c4.875,4.865,11.334,7.552,18.209,7.552
	c6.236,0,11.976-2.47,16.657-6.512l52.3,52.293l0.005,0.005l36.419,36.414c6.042,6.042,14.084,9.375,22.626,9.375
	c8.542,0,16.584-3.333,22.626-9.375C515.12,490.145,515.12,469.853,502.64,457.373z"/>
<g>
	<polygon style="fill:#BDBDBD;" points="411.586,426.664 441.761,426.664 463.096,447.998 432.924,447.998 	"/>
	<polygon style="fill:#BDBDBD;" points="399.092,383.996 420.427,405.33 390.249,405.33 384.003,399.085 	"/>
	
		<rect x="245.317" y="115.804" transform="matrix(-0.7071 0.7071 -0.7071 -0.7071 617.9855 255.9463)" style="fill:#BDBDBD;" width="21.333" height="280.321"/>
	<polygon style="fill:#BDBDBD;" points="112.908,127.988 91.573,106.654 121.742,106.654 127.992,112.904 	"/>
	<polygon style="fill:#BDBDBD;" points="100.407,85.32 70.239,85.32 48.904,63.986 79.073,63.986 	"/>
	<path style="fill:#BDBDBD;" d="M24.444,24.443c4.167-4.167,10.917-4.167,15.084,0l18.209,18.209H27.569l-3.125-3.125
		C20.277,35.371,20.277,28.6,24.444,24.443z"/>
	<path style="fill:#BDBDBD;" d="M114.2,163.114c-1.479-1.469-1.479-4.781,0-6.25l42.669-42.668c0.729-0.74,1.938-1.104,3.125-1.104
		c1.188,0,2.396,0.365,3.125,1.104c1.479,1.469,1.479,4.781,0,6.25l-42.669,42.668C118.992,164.594,115.658,164.594,114.2,163.114z"
		/>
	<path style="fill:#BDBDBD;" d="M348.881,397.788c-1.479-1.469-1.479-4.781,0-6.25l42.669-42.668
		c0.729-0.74,1.938-1.104,3.125-1.104s2.396,0.365,3.125,1.104c1.479,1.469,1.479,4.781,0,6.25l-42.669,42.668
		C353.673,399.267,350.339,399.267,348.881,397.788z"/>
	<path style="fill:#BDBDBD;" d="M487.556,487.541c-4.042,4.021-11.042,4.021-15.084,0l-18.212-18.209h30.171l3.125,3.125
		C491.723,476.613,491.723,483.385,487.556,487.541z"/>
</g>
<linearGradient id="SVGID_1_" gradientUnits="userSpaceOnUse" x1="-48.71" y1="641.014" x2="-20.6965" y2="627.955" gradientTransform="matrix(21.3333 0 0 -21.3333 996.3334 13791.667)">
	<stop  offset="0" style="stop-color:#FFFFFF;stop-opacity:0.2"/>
	<stop  offset="1" style="stop-color:#FFFFFF;stop-opacity:0"/>
</linearGradient>
<path style="fill:url(#SVGID_1_);" d="M502.64,457.373l-4.831-4.831c-0.671-0.93-1.451-1.71-2.38-2.38l-81.508-81.505
	c4.05-4.675,6.506-10.423,6.506-16.662c0-6.875-2.667-13.344-7.542-18.209c-9.3-9.279-24.956-9.433-34.859-1.013L179.236,133.99
	c4.052-4.675,6.51-10.427,6.51-16.668c0-6.875-2.667-13.344-7.542-18.209c-9.297-9.278-24.949-9.433-34.852-1.017L54.613,9.36
	C42.154-3.12,21.819-3.12,9.36,9.36c-12.48,12.48-12.48,32.772,0,45.251l88.719,88.716c-4.05,4.675-6.506,10.423-6.506,16.662
	c0,6.875,2.667,13.344,7.542,18.209c4.875,4.865,11.334,7.552,18.209,7.552c6.239,0,11.982-2.471,16.662-6.516L332.76,378.001
	c-4.05,4.675-6.506,10.423-6.506,16.662c0,6.875,2.667,13.344,7.542,18.209c4.875,4.865,11.334,7.552,18.209,7.552
	c6.236,0,11.976-2.47,16.657-6.512l52.3,52.293l0.005,0.005l36.419,36.414c6.042,6.042,14.084,9.375,22.626,9.375
	c8.542,0,16.584-3.333,22.626-9.375C515.12,490.145,515.12,469.853,502.64,457.373z"/>
<g>
</g>
<g>
</g>
<g>
</g>
<g>
</g>
<g>
</g>
<g>
</g>
<g>
</g>
<g>
</g>
<g>
</g>
<g>
</g>
<g>
</g>
<g>
</g>
<g>
</g>
<g>
</g>
<g>
</g>
</svg>
