<?xml version="1.0" encoding="iso-8859-1"?>
<!-- Generator: Adobe Illustrator 19.0.0, SVG Export Plug-In . SVG Version: 6.00 Build 0)  -->
<svg version="1.1" id="Capa_1" xmlns="http://www.w3.org/2000/svg" xmlns:xlink="http://www.w3.org/1999/xlink" x="0px" y="0px"
	 viewBox="0 0 480 480" style="enable-background:new 0 0 480 480;" xml:space="preserve">
<polygon style="fill:#FAC05E;" points="152,66.38 144,122.38 176,186.38 176,282.38 200,282.38 232,298.38 264,274.38 312,258.38 
	368,266.38 400,242.38 440,234.38 472,242.38 472,434.38 392,466.38 304,474.38 216,458.38 104,418.38 16,370.38 32,322.38 
	32,274.38 64,202.38 104,98.38 128,90.38 "/>
<circle style="fill:#50D4E3;" cx="240" cy="106.38" r="96"/>
<circle style="fill:#EE6352;" cx="240" cy="106.38" r="40"/>
<g>
	<polygon style="fill:#FAC05E;" points="392,98.38 408,122.38 424,130.38 408,138.38 392,162.38 376,138.38 360,130.38 376,122.38 	
		"/>
	<polygon style="fill:#FAC05E;" points="440,10.38 456,34.38 472,42.38 456,50.38 440,74.38 424,50.38 408,42.38 424,34.38 	"/>
</g>
<g>
	<path style="fill:#0F272A;" d="M448,2.38h-16c0,13.16-18.84,32-32,32v16c13.16,0,32,18.84,32,32h16c0-13.16,18.84-32,32-32v-16
		C466.84,34.38,448,15.54,448,2.38z M440,59.588c-4.504-6.68-10.528-12.704-17.208-17.208c6.68-4.504,12.704-10.528,17.208-17.208
		c4.504,6.68,10.528,12.704,17.208,17.208C450.528,46.884,444.504,52.908,440,59.588z"/>
	<path style="fill:#0F272A;" d="M400,170.38c0-13.16,18.84-32,32-32v-16c-13.16,0-32-18.84-32-32h-16c0,13.16-18.84,32-32,32v16
		c13.16,0,32,18.84,32,32H400z M374.792,130.38c6.68-4.504,12.712-10.528,17.208-17.208c4.504,6.68,10.528,12.712,17.208,17.208
		c-6.68,4.504-12.712,10.528-17.208,17.208C387.496,140.908,381.472,134.884,374.792,130.38z"/>
</g>
<polygon style="fill:#FAC05E;" points="40,10.38 56,34.38 72,42.38 56,50.38 40,74.38 24,50.38 8,42.38 24,34.38 "/>
<g>
	<path style="fill:#0F272A;" d="M32,82.38h16c0-13.16,18.84-32,32-32v-16c-13.16,0-32-18.84-32-32H32c0,13.16-18.84,32-32,32v16
		C13.16,50.38,32,69.22,32,82.38z M40,25.172c4.504,6.68,10.528,12.704,17.208,17.208C50.528,46.884,44.504,52.908,40,59.588
		c-4.504-6.68-10.528-12.704-17.208-17.208C29.472,37.876,35.496,31.852,40,25.172z"/>
	<path style="fill:#0F272A;" d="M344,106.38c0-57.344-46.656-104-104-104c-40.504,0-75.584,23.328-92.752,57.208l-0.12-0.168
		l-31.64,24.36l-2.96,2.024c-4.28,1.992-9.144,4.536-13.328,8.216c-8.288,7.288-11.832,18.016-14.944,27.488
		c-0.872,2.664-1.736,5.28-2.68,7.712l-47.92,122.816c-4.088,10.48-7.792,31.784-11.368,52.376
		c-2.024,11.64-3.928,22.64-5.464,28.664c-0.608,2.376-1.176,4.776-1.744,7.176c-2.24,9.488-4.36,18.44-8.776,26.056
		c-2.192,3.792-0.928,8.648,2.832,10.88l28.184,16.744c75.544,44.872,170,75.832,252.68,82.824
		c6.408,0.544,14.48,0.864,23.696,0.864c45.992,0,120.184-8.048,155.384-37.064l-10.168-12.344
		c-36.352,29.968-127.088,36.008-167.56,32.6c-80.384-6.8-172.288-36.936-245.848-80.64L23.688,367.22
		c3.248-7.6,5.128-15.544,6.96-23.28c0.544-2.32,1.096-4.632,1.672-6.92c1.688-6.616,3.56-17.4,5.728-29.872
		c3.12-17.96,7-40.312,10.504-49.296l47.92-122.816c1.048-2.68,2-5.568,2.976-8.52c2.592-7.888,5.28-16.056,10.304-20.472
		c2.832-2.496,6.52-4.352,10.08-5.992c0.416-0.184,0.808-0.408,1.168-0.664L137.952,86.5C136.704,92.932,136,99.572,136,106.38
		c0,29.648,12.536,56.368,32.504,75.328c-0.008,1.768-0.04,3.536-0.008,5.304c0.24,10.328,1.344,20.616,2.416,30.568
		c1.248,11.696,2.432,22.744,2.36,33.936c-0.216,33.512-13.2,64.8-34.728,83.672l10.544,12.032
		c16.744-14.68,28.688-34.984,35.016-58.184c3.488-0.152,8.408,0.08,14.424,1.2c8.384,1.568,13.504,4.32,23.584,11.104
		c-4.352,6.712-7.912,13.904-10.48,21.544l15.168,5.096c10.648-31.728,41.208-55.016,79.744-60.784
		c38.688-5.824,74.648,7.464,94.008,34.536l13.016-9.312c-8.032-11.224-18.448-20.4-30.464-27.36
		c23.176-19.296,56.72-26.232,85.32-16.296l5.248-15.112c-36.064-12.552-78.752-2.4-106.168,23.952
		c-19.04-7.256-40.856-9.608-63.328-6.232c-29.384,4.392-54.776,17.864-72.288,37.264c-11.624-7.84-18.896-11.96-30.432-14.12
		c-4.992-0.936-9.696-1.344-14.032-1.424c1.064-7,1.792-14.128,1.832-21.456c0.08-12.112-1.208-24.128-2.456-35.752
		c-0.752-7.056-1.416-14.264-1.864-21.424c16.008,10.024,34.84,15.92,55.064,15.92C297.344,210.38,344,163.724,344,106.38z
		 M152,106.38c0-48.52,39.48-88,88-88s88,39.48,88,88s-39.48,88-88,88S152,154.9,152,106.38z"/>
	<path style="fill:#0F272A;" d="M240,154.38c26.472,0,48-21.528,48-48s-21.528-48-48-48s-48,21.528-48,48S213.528,154.38,240,154.38
		z M240,74.38c17.648,0,32,14.352,32,32s-14.352,32-32,32s-32-14.352-32-32S222.352,74.38,240,74.38z"/>
</g>
<g>
</g>
<g>
</g>
<g>
</g>
<g>
</g>
<g>
</g>
<g>
</g>
<g>
</g>
<g>
</g>
<g>
</g>
<g>
</g>
<g>
</g>
<g>
</g>
<g>
</g>
<g>
</g>
<g>
</g>
</svg>
