<?xml version="1.0" encoding="iso-8859-1"?>
<!-- Generator: Adobe Illustrator 19.0.0, SVG Export Plug-In . SVG Version: 6.00 Build 0)  -->
<svg version="1.1" id="Capa_1" xmlns="http://www.w3.org/2000/svg" xmlns:xlink="http://www.w3.org/1999/xlink" x="0px" y="0px"
	 viewBox="0 0 485.656 485.656" style="enable-background:new 0 0 485.656 485.656;" xml:space="preserve">
<path style="fill:#FAC05E;" d="M11.512,392l112,88l72-72h176l92-92c11.048-11.048,11.048-28.952,0-40l0,0
	c-11.048-11.048-28.952-11.048-40,0l-4,4l-24-16l-24,16l-24-16l-24,16l-24-16l-80,64l-24-16h-112L11.512,392z"/>
<g>
	<rect x="179.512" y="8" style="fill:#50D4E3;" width="144" height="184"/>
	<polygon style="fill:#50D4E3;" points="323.512,40 323.512,192 275.512,192 275.512,224 419.512,224 419.512,40 	"/>
	<polygon style="fill:#50D4E3;" points="179.512,192 179.512,40 83.512,40 83.512,224 227.512,224 227.512,192 	"/>
</g>
<g>
	<circle style="fill:#EE6352;" cx="251.512" cy="64" r="24"/>
	<circle style="fill:#EE6352;" cx="347.512" cy="96" r="24"/>
	<circle style="fill:#EE6352;" cx="155.512" cy="96" r="24"/>
</g>
<g>
	<path style="fill:#0F272A;" d="M17.168,397.656L94.824,320h92.688c13.232,0,24,10.768,24,24s-10.768,24-24,24h-56v16h56
		c19.312,0,35.472-13.768,39.192-32h128.808c2.12,0,4.16-0.84,5.656-2.344l68-68c7.904-7.904,20.784-7.904,28.688,0
		c7.912,7.904,7.912,20.784,0,28.688L368.2,400H195.512c-2.12,0-4.16,0.84-5.656,2.344l-72,72l11.312,11.312L198.824,416h172.688
		c2.12,0,4.16-0.84,5.656-2.344l92-92c6.856-6.848,10.632-15.968,10.632-25.656s-3.776-18.808-10.632-25.656
		c-6.848-6.848-15.968-10.624-25.656-10.624c-8.968,0-17.36,3.352-24.008,9.272c-13.696-12.168-34.304-12.168-47.992,0
		c-13.696-12.168-34.304-12.168-48,0c-14.232-12.648-36.024-12.288-49.656,1.352l-52.52,52.52
		c-7.08-11.28-19.544-18.864-33.824-18.864h-96c-2.12,0-4.16,0.84-5.656,2.344l-80,80L17.168,397.656z M408.032,280.168L352.2,336
		h-25.376l54.344-54.344C388.504,274.32,400.08,273.88,408.032,280.168z M360.032,280.168L304.2,336h-25.376l54.344-54.344
		C340.504,274.32,352.08,273.88,360.032,280.168z M285.168,281.656c7.104-7.096,19.032-7.528,26.856-1.48L256.2,336h-25.376
		L285.168,281.656z"/>
	<path style="fill:#0F272A;" d="M323.512,0h-144c-4.416,0-8,3.576-8,8v24h-88c-4.416,0-8,3.576-8,8v184c0,4.424,3.584,8,8,8h144
		c4.416,0,8-3.576,8-8v-24h32v24c0,4.424,3.584,8,8,8h144c4.416,0,8-3.576,8-8V40c0-4.424-3.584-8-8-8h-88V8
		C331.512,3.576,327.928,0,323.512,0z M187.512,16h128v24v144h-40h-48h-40V40V16z M219.512,216h-128V48h80v20.448
		c-4.728-2.752-10.144-4.448-16-4.448c-17.648,0-32,14.352-32,32s14.352,32,32,32c5.856,0,11.272-1.696,16-4.448V144h-56v16h56v16
		h-56v16h56c0,4.424,3.584,8,8,8h40V216z M171.512,96c0,8.824-7.176,16-16,16s-16-7.176-16-16s7.176-16,16-16
		S171.512,87.176,171.512,96z M411.512,48v168h-128v-16h40c4.416,0,8-3.576,8-8h56v-16h-56v-16h56v-16h-56v-20.448
		c4.728,2.752,10.144,4.448,16,4.448c17.648,0,32-14.352,32-32s-14.352-32-32-32c-5.856,0-11.272,1.696-16,4.448V48H411.512z
		 M331.512,96c0-8.824,7.176-16,16-16s16,7.176,16,16s-7.176,16-16,16S331.512,104.824,331.512,96z"/>
	<path style="fill:#0F272A;" d="M251.512,96c17.648,0,32-14.352,32-32s-14.352-32-32-32s-32,14.352-32,32S233.864,96,251.512,96z
		 M251.512,48c8.824,0,16,7.176,16,16s-7.176,16-16,16c-8.824,0-16-7.176-16-16S242.688,48,251.512,48z"/>
	<rect x="211.512" y="112" style="fill:#0F272A;" width="80" height="16"/>
	<rect x="211.512" y="144" style="fill:#0F272A;" width="80" height="16"/>
</g>
<g>
</g>
<g>
</g>
<g>
</g>
<g>
</g>
<g>
</g>
<g>
</g>
<g>
</g>
<g>
</g>
<g>
</g>
<g>
</g>
<g>
</g>
<g>
</g>
<g>
</g>
<g>
</g>
<g>
</g>
</svg>
