<?xml version="1.0" encoding="iso-8859-1"?>
<!-- Generator: Adobe Illustrator 19.0.0, SVG Export Plug-In . SVG Version: 6.00 Build 0)  -->
<svg version="1.1" id="Capa_1" xmlns="http://www.w3.org/2000/svg" xmlns:xlink="http://www.w3.org/1999/xlink" x="0px" y="0px"
	 viewBox="0 0 512 512" style="enable-background:new 0 0 512 512;" xml:space="preserve">
<path style="fill:#303C42;" d="M510.375,364.844l-30.156-135.708c-7.656-34.427-37.635-58.469-72.896-58.469h-4.193
	c-4.772-16.365-19.928-50.223-65.215-70.133l2.939-11.648c1.344-5.344-1.594-10.833-6.781-12.667C311.177,68.115,284.906,64,256,64
	c-28.938,0-55.26,4.125-78.24,12.271c-5.208,1.844-8.146,7.365-6.771,12.708l2.986,11.594
	c-45.195,19.922-60.331,53.742-65.103,70.094h-4.195c-35.26,0-65.24,24.042-72.896,58.469L1.635,364.833
	C0.552,369.677,0,374.667,0,379.667C0,417.344,30.656,448,68.333,448h375.333C481.344,448,512,417.344,512,379.667
	C512,374.667,511.448,369.677,510.375,364.844z M131.495,170.667c5.134-13.251,18.036-34.357,47.971-48.768l2.18,8.466
	c0.76,2.958,2.75,5.438,5.458,6.833s5.875,1.563,8.729,0.458C212.385,131.25,232.625,128,256,128s43.625,3.26,60.177,9.698
	c1.24,0.49,2.552,0.729,3.865,0.729c1.688,0,3.365-0.396,4.896-1.188c2.708-1.406,4.698-3.906,5.448-6.865l2.147-8.51
	c30.072,14.444,42.919,35.539,48.014,48.802H131.495z"/>
<rect x="106.667" y="192" style="fill:#F47C20;" width="21.333" height="234.667"/>
<rect x="117.333" y="192" style="opacity:0.1;fill:#010101;enable-background:new    ;" width="10.667" height="234.667"/>
<rect x="384" y="192" style="fill:#F47C20;" width="21.333" height="234.667"/>
<g>
	<rect x="149.333" y="192" style="fill:#546F7A;" width="213.333" height="234.667"/>
	<path style="fill:#546F7A;" d="M21.333,379.667c0-3.438,0.375-6.865,1.125-10.198L52.615,233.76
		c3.98-17.926,16.493-31.82,32.719-38.082v230.988h-17C42.417,426.667,21.333,405.583,21.333,379.667z"/>
	<path style="fill:#546F7A;" d="M443.667,426.667h-17V195.678c16.225,6.262,28.738,20.156,32.719,38.082l30.167,135.719
		c0.74,3.323,1.115,6.75,1.115,10.188C490.667,405.583,469.583,426.667,443.667,426.667z"/>
</g>
<rect x="394.667" y="192" style="opacity:0.1;fill:#010101;enable-background:new    ;" width="10.667" height="234.667"/>
<path style="fill:#F47C20;" d="M317.719,93.365l-5.198,20.594c-16.531-4.844-35.49-7.292-56.521-7.292
	c-21.042,0-40.01,2.438-56.552,7.271l-5.292-20.542C231.063,82.698,280.906,82.688,317.719,93.365z"/>
<path style="opacity:0.2;fill:#FFFFFF;enable-background:new    ;" d="M315.065,103.879l2.654-10.514
	c-36.813-10.677-86.656-10.667-123.563,0.031l2.451,9.512C232.826,93.501,279.776,93.763,315.065,103.879z"/>
<g>
	<rect x="149.333" y="394.667" style="opacity:0.1;fill:#010101;enable-background:new    ;" width="213.333" height="32"/>
	<path style="opacity:0.1;fill:#010101;enable-background:new    ;" d="M22.113,387.375c3.706,22.241,22.943,39.292,46.22,39.292h17
		v-32H47C37.839,394.667,29.349,391.927,22.113,387.375z"/>
	<path style="opacity:0.1;fill:#010101;enable-background:new    ;" d="M489.552,369.479L459.385,233.76
		c-2.987-13.452-10.781-24.632-21.341-32.021c0,0,0.007,0.013,0.008,0.021l30.167,135.719c0.74,3.323,1.115,6.75,1.115,10.188
		c0,24.432-18.806,44.336-42.667,46.561v32.439h17c25.917,0,47-21.083,47-47C490.667,376.229,490.292,372.802,489.552,369.479z"/>
</g>
<path style="fill:#303C42;" d="M330.667,277.333H181.333c-5.896,0-10.667,4.771-10.667,10.667v53.333
	c0,23.531,19.135,42.667,42.667,42.667h85.333c23.531,0,42.667-19.135,42.667-42.667V288
	C341.333,282.104,336.563,277.333,330.667,277.333z"/>
<path style="fill:#F47C20;" d="M320,341.333c0,11.76-9.573,21.333-21.333,21.333h-85.333c-11.76,0-21.333-9.573-21.333-21.333
	v-42.667h128V341.333z"/>
<path style="opacity:0.1;fill:#010101;enable-background:new    ;" d="M298.667,298.667V320c0,11.76-9.573,21.333-21.333,21.333H192
	c0,11.76,9.573,21.333,21.333,21.333h85.333c11.76,0,21.333-9.573,21.333-21.333v-42.667H298.667z"/>
<linearGradient id="SVGID_1_" gradientUnits="userSpaceOnUse" x1="-44.5271" y1="637.4156" x2="-22.9843" y2="627.3748" gradientTransform="matrix(21.3333 0 0 -21.3333 996.3334 13791.667)">
	<stop  offset="0" style="stop-color:#FFFFFF;stop-opacity:0.2"/>
	<stop  offset="1" style="stop-color:#FFFFFF;stop-opacity:0"/>
</linearGradient>
<path style="fill:url(#SVGID_1_);" d="M510.375,364.844l-30.156-135.708c-7.656-34.427-37.635-58.469-72.896-58.469h-4.193
	c-4.772-16.365-19.928-50.223-65.215-70.133l2.939-11.648c1.344-5.344-1.594-10.833-6.781-12.667C311.177,68.115,284.906,64,256,64
	c-28.938,0-55.26,4.125-78.24,12.271c-5.208,1.844-8.146,7.365-6.771,12.708l2.986,11.594
	c-45.195,19.922-60.331,53.742-65.103,70.094h-4.195c-35.26,0-65.24,24.042-72.896,58.469L1.635,364.833
	C0.552,369.677,0,374.667,0,379.667C0,417.344,30.656,448,68.333,448h375.333C481.344,448,512,417.344,512,379.667
	C512,374.667,511.448,369.677,510.375,364.844z M131.495,170.667c5.134-13.251,18.036-34.357,47.971-48.768l2.18,8.466
	c0.76,2.958,2.75,5.438,5.458,6.833s5.875,1.563,8.729,0.458C212.385,131.25,232.625,128,256,128s43.625,3.26,60.177,9.698
	c1.24,0.49,2.552,0.729,3.865,0.729c1.688,0,3.365-0.396,4.896-1.188c2.708-1.406,4.698-3.906,5.448-6.865l2.147-8.51
	c30.072,14.444,42.919,35.539,48.014,48.802H131.495z"/>
<g>
</g>
<g>
</g>
<g>
</g>
<g>
</g>
<g>
</g>
<g>
</g>
<g>
</g>
<g>
</g>
<g>
</g>
<g>
</g>
<g>
</g>
<g>
</g>
<g>
</g>
<g>
</g>
<g>
</g>
</svg>
