<?xml version="1.0" encoding="iso-8859-1"?>
<!-- Generator: Adobe Illustrator 19.0.0, SVG Export Plug-In . SVG Version: 6.00 Build 0)  -->
<svg version="1.1" id="Capa_1" xmlns="http://www.w3.org/2000/svg" xmlns:xlink="http://www.w3.org/1999/xlink" x="0px" y="0px"
	 viewBox="0 0 480 480" style="enable-background:new 0 0 480 480;" xml:space="preserve">
<rect x="8" y="8" style="fill:#EE6352;" width="464" height="192"/>
<path style="fill:#FAC05E;" d="M453.6,200H26.4c-1.328,0-2.4,1.072-2.4,2.4v267.2c0,1.328,1.072,2.4,2.4,2.4H424
	c17.672,0,32-14.328,32-32V202.4C456,201.072,454.928,200,453.6,200z"/>
<g>
	<rect x="264" y="56" style="fill:#50D4E3;" width="40" height="96"/>
	<rect x="384" y="56" style="fill:#50D4E3;" width="40" height="96"/>
</g>
<rect x="304" y="88" style="fill:#FAC05E;" width="80" height="32"/>
<ellipse transform="matrix(-0.7071 -0.7071 0.7071 -0.7071 119.1833 254.6086)" style="fill:#50D4E3;" cx="112.323" cy="102.621" rx="55.711" ry="70.711"/>
<ellipse transform="matrix(-0.7071 -0.7071 0.7071 -0.7071 102.4966 282.4109)" style="fill:#F79D84;" cx="109.738" cy="119.978" rx="39.6" ry="50.912"/>
<rect x="64" y="304" style="fill:#50D4E3;" width="144" height="32"/>
<g>
	<rect x="80" y="336" style="fill:#FFFFFF;" width="112" height="136"/>
	<rect x="256" y="232" style="fill:#FFFFFF;" width="160" height="240"/>
</g>
<g>
	<path style="fill:#0F272A;" d="M472,0H8C3.584,0,0,3.584,0,8v192c0,4.416,3.584,8,8,8h8v261.6c0,5.736,4.664,10.4,10.4,10.4H80h112
		h64h160h8c22.056,0,40-17.944,40-40V208h8c4.416,0,8-3.584,8-8V8C480,3.584,476.416,0,472,0z M192,328H80h-8v-16h128v16H192z
		 M88,344h40v120H88V344z M144,464V344h40v120H144z M408,384h-64v-64h64V384z M408,304h-64v-64h64V304z M328,304h-64v-64h64V304z
		 M264,320h64v64h-64V320z M264,400h64v64h-64V400z M344,464v-64h64v64H344z M448,440c0,13.232-10.768,24-24,24V232
		c0-4.416-3.584-8-8-8H256c-4.416,0-8,3.584-8,8v232h-48V344h8c4.416,0,8-3.584,8-8v-32c0-4.416-3.584-8-8-8H64
		c-4.416,0-8,3.584-8,8v32c0,4.416,3.584,8,8,8h8v120H32V208h416V440z M464,192h-10.4H26.4H16V16h448V192z"/>
	<path style="fill:#0F272A;" d="M256,152c0,4.416,3.584,8,8,8h40c4.416,0,8-3.584,8-8v-24h64v24c0,4.416,3.584,8,8,8h40
		c4.416,0,8-3.584,8-8v-40h16V96h-16V56c0-4.416-3.584-8-8-8h-40c-4.416,0-8,3.584-8,8v24h-64V56c0-4.416-3.584-8-8-8h-40
		c-4.416,0-8,3.584-8,8v40h-16v16h16V152z M392,64h24v80h-24v-24V88V64z M376,96v16h-64V96H376z M272,64h24v24v32v24h-24V64z"/>
	<path style="fill:#0F272A;" d="M97.368,174.176c20.424,0,42.568-9.064,60.024-26.52c14.624-14.616,23.888-32.944,26.104-51.608
		c2.296-19.368-3.208-36.808-15.504-49.104c-24.84-24.84-70.024-20.072-100.704,10.608C52.664,72.168,43.4,90.496,41.184,109.16
		c-2.296,19.368,3.208,36.808,15.504,49.096C67.392,168.976,81.888,174.176,97.368,174.176z M132.08,142.344
		c-8.36,8.36-18.664,13.68-29,14.976c-9.568,1.224-18-1.28-23.688-6.976c-12.32-12.32-8.728-35.96,8-52.688
		c8.36-8.36,18.664-13.68,28.992-14.976c1.576-0.2,3.128-0.296,4.632-0.296c7.648,0,14.304,2.512,19.064,7.272
		C152.4,101.976,148.808,125.616,132.08,142.344z M57.08,111.048c1.792-15.112,9.44-30.088,21.528-42.176
		c14.392-14.392,32.44-21.96,48.656-21.96c11.336,0,21.776,3.696,29.424,11.352c8.752,8.752,12.632,21.504,10.92,35.904
		c-0.672,5.696-2.184,11.368-4.448,16.88c0.552-12.432-3.24-24.176-11.768-32.704C142.12,69.072,128.976,65,114.4,66.808
		c-13.848,1.728-27.456,8.672-38.32,19.536c-10.632,10.632-17.056,23.576-19.104,36.264C56.6,118.912,56.6,115.056,57.08,111.048z"
		/>
	<rect x="208" y="32" style="fill:#0F272A;" width="16" height="16"/>
	<rect x="208" y="64" style="fill:#0F272A;" width="16" height="16"/>
	<rect x="208" y="96" style="fill:#0F272A;" width="16" height="16"/>
	<rect x="208" y="128" style="fill:#0F272A;" width="16" height="16"/>
	<rect x="208" y="160" style="fill:#0F272A;" width="16" height="16"/>
</g>
<g>
</g>
<g>
</g>
<g>
</g>
<g>
</g>
<g>
</g>
<g>
</g>
<g>
</g>
<g>
</g>
<g>
</g>
<g>
</g>
<g>
</g>
<g>
</g>
<g>
</g>
<g>
</g>
<g>
</g>
</svg>
