<?xml version="1.0" encoding="iso-8859-1"?>
<!-- Generator: Adobe Illustrator 19.0.0, SVG Export Plug-In . SVG Version: 6.00 Build 0)  -->
<svg version="1.1" id="Capa_1" xmlns="http://www.w3.org/2000/svg" xmlns:xlink="http://www.w3.org/1999/xlink" x="0px" y="0px"
	 viewBox="0 0 480 480" style="enable-background:new 0 0 480 480;" xml:space="preserve">
<path style="fill:#FAC05E;" d="M304,184h56c39.768,0,72-32.232,72-72l0,0c0-39.768-32.232-72-72-72H120c-39.768,0-72,32.232-72,72
	l0,0c0,39.768,32.232,72,72,72h56v32h-64C54.56,216,8,169.44,8,112l0,0C8,54.56,54.56,8,112,8h256c57.44,0,104,46.56,104,104l0,0
	c0,57.44-46.56,104-104,104h-64V184z"/>
<path style="fill:#EE6352;" d="M272,248h-64c-17.672,0-32-14.328-32-32v-32c0-17.672,14.328-32,32-32h64c17.672,0,32,14.328,32,32
	v32C304,233.672,289.672,248,272,248z"/>
<path style="fill:#50D4E3;" d="M280,472h-80c-17.672,0-32-14.328-32-32V312c0-17.672,14.328-32,32-32h80c17.672,0,32,14.328,32,32
	v128C312,457.672,297.672,472,280,472z"/>
<g>
	<path style="fill:#0F272A;" d="M112,224h56.808c3.72,18.232,19.872,32,39.192,32h64c19.312,0,35.472-13.768,39.192-32H368
		c61.76,0,112-50.24,112-112S429.76,0,368,0H112C50.24,0,0,50.24,0,112S50.24,224,112,224z M311.192,176
		c-3.72-18.232-19.872-32-39.192-32h-64c-19.312,0-35.472,13.768-39.192,32H120c-35.288,0-64-28.712-64-64s28.712-64,64-64h240
		c35.288,0,64,28.712,64,64s-28.712,64-64,64H311.192z M277.656,210.344C276.16,208.84,274.128,208,272,208h-64
		c-2.128,0-4.16,0.84-5.656,2.344l-15.936,15.936C184.904,223.152,184,219.696,184,216v-32c0-3.696,0.904-7.152,2.408-10.28
		l15.936,15.936C203.84,191.16,205.872,192,208,192h64c2.128,0,4.16-0.84,5.656-2.344l15.936-15.936
		c1.504,3.128,2.408,6.584,2.408,10.28v32c0,3.696-0.904,7.152-2.408,10.28L277.656,210.344z M197.72,162.408
		c3.128-1.504,6.584-2.408,10.28-2.408h64c3.696,0,7.152,0.904,10.28,2.408L268.688,176h-57.376L197.72,162.408z M208,240
		c-3.696,0-7.152-0.904-10.28-2.408L211.312,224h57.376l13.592,13.592C279.152,239.096,275.696,240,272,240H208z M112,16h256
		c52.936,0,96,43.064,96,96s-43.064,96-96,96h-56v-16h48c44.112,0,80-35.888,80-80s-35.888-80-80-80H120c-44.112,0-80,35.888-80,80
		s35.888,80,80,80h48v16h-56c-52.936,0-96-43.064-96-96S59.064,16,112,16z"/>
	<path style="fill:#0F272A;" d="M280,480c22.056,0,40-17.944,40-40V312c0-22.056-17.944-40-40-40h-80c-22.056,0-40,17.944-40,40v128
		c0,22.056,17.944,40,40,40H280z M304,400H176v-48h19.72l13.624,20.44c1.736,2.592,4.784,3.976,7.888,3.464
		c3.08-0.48,5.6-2.704,6.464-5.704l10.344-36.224l22.808,45.608c1.36,2.728,4.144,4.416,7.152,4.416
		c0.288,0,0.576-0.016,0.872-0.048c3.328-0.368,6.072-2.768,6.88-6.008L278.248,352H304V400z M200,288h80c13.232,0,24,10.768,24,24
		v24h-32c-3.672,0-6.864,2.496-7.76,6.056l-2.76,11.016l-22.328-44.656c-1.48-2.944-4.568-4.736-7.896-4.384
		c-3.28,0.304-6.048,2.592-6.952,5.768l-11.24,39.368l-6.408-9.608c-1.488-2.224-3.984-3.56-6.656-3.56h-24v-24
		C176,298.768,186.768,288,200,288z M176,440v-24h128v24c0,13.232-10.768,24-24,24h-80C186.768,464,176,453.232,176,440z"/>
	<rect x="200" y="432" style="fill:#0F272A;" width="24" height="16"/>
	<rect x="256" y="432" style="fill:#0F272A;" width="24" height="16"/>
	<rect x="128" y="400" style="fill:#0F272A;" width="16" height="16"/>
	<rect x="96" y="400" style="fill:#0F272A;" width="16" height="16"/>
	<rect x="64" y="400" style="fill:#0F272A;" width="16" height="16"/>
	<rect x="64" y="368" style="fill:#0F272A;" width="16" height="16"/>
	<rect x="64" y="336" style="fill:#0F272A;" width="16" height="16"/>
	<rect x="64" y="304" style="fill:#0F272A;" width="16" height="16"/>
	<rect x="64" y="272" style="fill:#0F272A;" width="16" height="16"/>
	<rect x="64" y="240" style="fill:#0F272A;" width="16" height="16"/>
	<rect x="336" y="400" style="fill:#0F272A;" width="16" height="16"/>
	<rect x="368" y="400" style="fill:#0F272A;" width="16" height="16"/>
	<rect x="400" y="400" style="fill:#0F272A;" width="16" height="16"/>
	<rect x="400" y="368" style="fill:#0F272A;" width="16" height="16"/>
	<rect x="400" y="336" style="fill:#0F272A;" width="16" height="16"/>
	<rect x="400" y="304" style="fill:#0F272A;" width="16" height="16"/>
	<rect x="400" y="272" style="fill:#0F272A;" width="16" height="16"/>
	<rect x="400" y="240" style="fill:#0F272A;" width="16" height="16"/>
</g>
<g>
</g>
<g>
</g>
<g>
</g>
<g>
</g>
<g>
</g>
<g>
</g>
<g>
</g>
<g>
</g>
<g>
</g>
<g>
</g>
<g>
</g>
<g>
</g>
<g>
</g>
<g>
</g>
<g>
</g>
</svg>
