<?xml version="1.0" encoding="iso-8859-1"?>
<!-- Generator: Adobe Illustrator 19.0.0, SVG Export Plug-In . SVG Version: 6.00 Build 0)  -->
<svg version="1.1" id="Capa_1" xmlns="http://www.w3.org/2000/svg" xmlns:xlink="http://www.w3.org/1999/xlink" x="0px" y="0px"
	 viewBox="0 0 480 480" style="enable-background:new 0 0 480 480;" xml:space="preserve">
<g>
	<path style="fill:#50D4E3;" d="M304,56V8H64v48h-8C29.488,56,8,77.488,8,104v320c0,26.512,21.488,48,48,48h256
		c26.512,0,48-21.488,48-48V104c0-26.512-21.488-48-48-48H304z"/>
	<path style="fill:#50D4E3;" d="M360,128v48h64v176h-64v48h64c26.512,0,48-21.488,48-48V176c0-26.512-21.488-48-48-48H360z"/>
</g>
<circle style="fill:#FAC05E;" cx="136" cy="344" r="96"/>
<g>
	<path style="fill:#EE6352;" d="M266.328,373.672L266.328,373.672c3.632-3.632,8.56-5.672,13.696-5.672h31.96
		c5.136,0,10.064,2.04,13.696,5.672l0,0c6.112,6.112,7.432,15.536,3.232,23.096l-18.92,34.056c-6.096,10.976-21.88,10.976-27.976,0
		l-18.92-34.056C258.896,389.208,260.216,379.784,266.328,373.672z"/>
	<path style="fill:#EE6352;" d="M266.328,269.672L266.328,269.672c3.632-3.632,8.56-5.672,13.696-5.672h31.96
		c5.136,0,10.064,2.04,13.696,5.672l0,0c6.112,6.112,7.432,15.536,3.232,23.096l-18.92,34.056c-6.096,10.976-21.88,10.976-27.976,0
		l-18.92-34.056C258.896,285.208,260.216,275.784,266.328,269.672z"/>
</g>
<g>
	<circle style="fill:#50D4E3;" cx="64" cy="112" r="16"/>
	<circle style="fill:#50D4E3;" cx="128" cy="112" r="16"/>
	<circle style="fill:#50D4E3;" cx="192" cy="112" r="16"/>
	<circle style="fill:#50D4E3;" cx="64" cy="176" r="16"/>
	<circle style="fill:#50D4E3;" cx="128" cy="176" r="16"/>
	<circle style="fill:#50D4E3;" cx="192" cy="176" r="16"/>
</g>
<path style="fill:#59CD90;" d="M312,232c-39.768,0-72-32.232-72-72s32.232-72,72-72V232z"/>
<g>
	<path style="fill:#0F272A;" d="M424,120h-56v-16c0-30.872-25.128-56-56-56V8c0-4.424-3.576-8-8-8H64c-4.424,0-8,3.576-8,8v40
		C25.128,48,0,73.128,0,104v320c0,30.872,25.128,56,56,56h256c30.872,0,56-25.128,56-56v-16h56c30.872,0,56-25.128,56-56V176
		C480,145.128,454.872,120,424,120z M368,184h48v160h-48V184z M352,424c0,22.056-17.944,40-40,40H56c-22.056,0-40-17.944-40-40V104
		c0-22.056,17.944-40,40-40h8c4.424,0,8-3.576,8-8V16h224v40c0,4.424,3.576,8,8,8h8c22.056,0,40,17.944,40,40v24v48v176v48V424z
		 M464,352c0,22.056-17.944,40-40,40h-56v-32h56c4.424,0,8-3.576,8-8V176c0-4.424-3.576-8-8-8h-56v-32h56c22.056,0,40,17.944,40,40
		V352z"/>
	<path style="fill:#0F272A;" d="M136,240c-57.344,0-104,46.656-104,104s46.656,104,104,104s104-46.656,104-104S193.344,240,136,240z
		 M144,256.408c18.264,1.656,34.928,8.888,48.272,20.008L144,324.688V256.408z M128,324.688l-48.272-48.272
		c13.336-11.128,30.008-18.352,48.272-20.008V324.688z M116.688,336h-68.28c1.656-18.264,8.888-34.928,20.008-48.272L116.688,336z
		 M116.688,352l-48.272,48.272C57.288,386.928,50.064,370.264,48.408,352H116.688z M128,363.312v68.28
		c-18.264-1.656-34.928-8.888-48.272-20.008L128,363.312z M144,363.312l48.272,48.272c-13.336,11.128-30.008,18.352-48.272,20.008
		V363.312z M155.312,352h68.28c-1.656,18.264-8.888,34.928-20.008,48.272L155.312,352z M155.312,336l48.272-48.272
		c11.128,13.336,18.352,30.008,20.008,48.272H155.312z"/>
	<path style="fill:#0F272A;" d="M311.976,360h-31.952c-7.312,0-14.184,2.84-19.352,8.016c-8.592,8.592-10.472,22.008-4.568,32.632
		l18.92,34.064c4.288,7.728,12.136,12.344,20.976,12.344s16.688-4.616,20.976-12.344l18.92-34.064
		c5.896-10.624,4.024-24.04-4.568-32.632C326.168,362.84,319.288,360,311.976,360z M321.912,392.88l-18.92,34.064
		c-2.064,3.712-5.576,4.112-6.992,4.112s-4.928-0.4-6.992-4.112l-18.92-34.064c-2.448-4.416-1.672-9.984,1.896-13.552
		c2.152-2.152,5-3.328,8.04-3.328h31.952c3.04,0,5.888,1.176,8.04,3.328C323.584,382.896,324.36,388.472,321.912,392.88z"/>
	<path style="fill:#0F272A;" d="M311.976,256h-31.952c-7.312,0-14.184,2.84-19.352,8.016c-8.592,8.592-10.472,22.008-4.568,32.632
		l18.92,34.064c4.288,7.728,12.136,12.344,20.976,12.344s16.688-4.616,20.976-12.344l18.92-34.064
		c5.896-10.624,4.024-24.04-4.568-32.632C326.168,258.84,319.288,256,311.976,256z M321.912,288.88l-18.92,34.064
		c-2.064,3.712-5.576,4.112-6.992,4.112s-4.928-0.4-6.992-4.112l-18.92-34.064c-2.448-4.416-1.672-9.984,1.896-13.552
		c2.152-2.152,5-3.328,8.04-3.328h31.952c3.04,0,5.888,1.176,8.04,3.328C323.584,278.896,324.36,284.472,321.912,288.88z"/>
	<path style="fill:#0F272A;" d="M64,136c13.232,0,24-10.768,24-24S77.232,88,64,88s-24,10.768-24,24S50.768,136,64,136z M64,104
		c4.416,0,8,3.584,8,8s-3.584,8-8,8s-8-3.584-8-8S59.584,104,64,104z"/>
	<path style="fill:#0F272A;" d="M128,136c13.232,0,24-10.768,24-24s-10.768-24-24-24s-24,10.768-24,24S114.768,136,128,136z
		 M128,104c4.416,0,8,3.584,8,8s-3.584,8-8,8s-8-3.584-8-8S123.584,104,128,104z"/>
	<path style="fill:#0F272A;" d="M168,112c0,13.232,10.768,24,24,24s24-10.768,24-24s-10.768-24-24-24S168,98.768,168,112z M192,104
		c4.416,0,8,3.584,8,8s-3.584,8-8,8s-8-3.584-8-8S187.584,104,192,104z"/>
	<path style="fill:#0F272A;" d="M64,200c13.232,0,24-10.768,24-24s-10.768-24-24-24s-24,10.768-24,24S50.768,200,64,200z M64,168
		c4.416,0,8,3.584,8,8s-3.584,8-8,8s-8-3.584-8-8S59.584,168,64,168z"/>
	<path style="fill:#0F272A;" d="M128,200c13.232,0,24-10.768,24-24s-10.768-24-24-24s-24,10.768-24,24S114.768,200,128,200z
		 M128,168c4.416,0,8,3.584,8,8s-3.584,8-8,8s-8-3.584-8-8S123.584,168,128,168z"/>
	<path style="fill:#0F272A;" d="M192,152c-13.232,0-24,10.768-24,24s10.768,24,24,24s24-10.768,24-24S205.232,152,192,152z M192,184
		c-4.416,0-8-3.584-8-8s3.584-8,8-8s8,3.584,8,8S196.416,184,192,184z"/>
	<path style="fill:#0F272A;" d="M232,160c0,44.112,35.888,80,80,80c4.424,0,8-3.576,8-8V88c0-4.424-3.576-8-8-8
		C267.888,80,232,115.888,232,160z M292.688,152H248.56c1.464-11.664,6.056-22.344,12.936-31.192L292.688,152z M248.56,168h44.128
		l-31.192,31.192C254.616,190.344,250.024,179.664,248.56,168z M272.792,210.52L304,179.312v44.184
		C292.336,222.04,281.64,217.408,272.792,210.52z M304,140.688l-31.208-31.208c8.856-6.888,19.544-11.512,31.208-12.976V140.688z"/>
	<rect x="224" y="48" style="fill:#0F272A;" width="56" height="16"/>
	<rect x="192" y="48" style="fill:#0F272A;" width="16" height="16"/>
	<rect x="160" y="48" style="fill:#0F272A;" width="16" height="16"/>
	<rect x="128" y="48" style="fill:#0F272A;" width="16" height="16"/>
</g>
<g>
</g>
<g>
</g>
<g>
</g>
<g>
</g>
<g>
</g>
<g>
</g>
<g>
</g>
<g>
</g>
<g>
</g>
<g>
</g>
<g>
</g>
<g>
</g>
<g>
</g>
<g>
</g>
<g>
</g>
</svg>
