<?xml version="1.0" encoding="iso-8859-1"?>
<!-- Generator: Adobe Illustrator 19.0.0, SVG Export Plug-In . SVG Version: 6.00 Build 0)  -->
<svg version="1.1" id="Capa_1" xmlns="http://www.w3.org/2000/svg" xmlns:xlink="http://www.w3.org/1999/xlink" x="0px" y="0px"
	 viewBox="0 0 480 480" style="enable-background:new 0 0 480 480;" xml:space="preserve">
<path style="fill:#EE6352;" d="M405.856,186.584l30.216-81.576C453.488,57.984,418.704,8,368.552,8H111.448
	c-50.152,0-84.936,49.984-67.52,97.008l30.216,81.576C33.24,216.872,8,258.288,8,304c0,92.784,103.872,168,232,168
	s232-75.216,232-168C472,258.288,446.76,216.872,405.856,186.584z M391.056,88.336l-20.864,56.336
	C363.216,163.504,345.256,176,325.176,176h-170.36c-20.08,0-38.04-12.504-45.016-31.336L88.944,88.336
	c-3.792-10.224,0.136-18.2,2.808-22.048S100.536,56,111.448,56H368.56c10.904,0,17.024,6.448,19.696,10.288
	S394.84,78.112,391.056,88.336z"/>
<circle style="fill:#F79D84;" cx="240" cy="336" r="80"/>
<circle style="fill:#50D4E3;" cx="240" cy="336" r="48"/>
<g>
	<path style="fill:#0F272A;" d="M415.416,183.808l28.16-76.016c9.224-24.904,5.816-51.696-9.36-73.496S395.112,0,368.552,0H111.448
		C84.888,0,60.96,12.496,45.792,34.296S27.2,82.88,36.432,107.792l28.16,76.016C22.88,216.488,0,258.96,0,304
		c0,97.048,107.664,176,240,176s240-78.952,240-176C480,258.96,457.12,216.488,415.416,183.808z M240,464
		c-123.512,0-224-71.776-224-160c0-41.528,22.336-80.952,62.896-110.992c2.856-2.12,3.976-5.864,2.744-9.208l-30.208-81.576
		c-7.376-19.92-4.648-41.352,7.496-58.792C71.056,26,90.2,16,111.448,16H368.56c21.24,0,40.392,10,52.52,27.44
		c12.144,17.44,14.864,38.864,7.496,58.792L398.368,183.8c-1.232,3.344-0.12,7.096,2.744,9.208C441.664,223.048,464,262.472,464,304
		C464,392.224,363.512,464,240,464z"/>
	<path style="fill:#0F272A;" d="M325.176,184c23.312,0,44.424-14.688,52.504-36.544l20.864-56.336
		c5.056-13.632-0.168-24.264-3.736-29.392C388.76,53,379.184,48,368.552,48H111.448c-10.632,0-20.2,5-26.264,13.728
		c-3.56,5.128-8.792,15.76-3.736,29.392l20.856,56.328c8.096,21.864,29.2,36.552,52.52,36.552H325.176z M117.304,141.88
		L96.448,85.552c-2.4-6.472-0.304-11.56,1.872-14.704c2.176-3.12,6.208-6.848,13.128-6.848H368.56
		c6.912,0,10.952,3.728,13.128,6.848c2.176,3.144,4.272,8.232,1.872,14.704l-20.864,56.344C356.904,157.504,341.832,168,325.176,168
		H154.824C138.168,168,123.096,157.504,117.304,141.88z"/>
	<path style="fill:#0F272A;" d="M447.616,295.288c-0.784-8.76-2.752-17.52-5.856-26.056l-15.032,5.472
		c2.624,7.224,4.296,14.632,4.952,22.008L447.616,295.288z"/>
	<path style="fill:#0F272A;" d="M363.28,401.048l7.92,13.904c45.016-25.672,72.856-62.928,76.408-102.232l-15.936-1.44
		C428.608,345.296,403.68,378.016,363.28,401.048z"/>
	<path style="fill:#0F272A;" d="M240,248c-48.52,0-88,39.48-88,88s39.48,88,88,88s88-39.48,88-88S288.52,248,240,248z M240,408
		c-39.704,0-72-32.296-72-72s32.296-72,72-72s72,32.296,72,72S279.704,408,240,408z"/>
	<path style="fill:#0F272A;" d="M240,280c-30.872,0-56,25.128-56,56s25.128,56,56,56s56-25.128,56-56S270.872,280,240,280z M240,376
		c-22.056,0-40-17.944-40-40s17.944-40,40-40s40,17.944,40,40S262.056,376,240,376z"/>
	<rect x="200" y="216" style="fill:#0F272A;" width="16" height="16"/>
	<rect x="232" y="216" style="fill:#0F272A;" width="16" height="16"/>
	<rect x="264" y="216" style="fill:#0F272A;" width="16" height="16"/>
</g>
<g>
</g>
<g>
</g>
<g>
</g>
<g>
</g>
<g>
</g>
<g>
</g>
<g>
</g>
<g>
</g>
<g>
</g>
<g>
</g>
<g>
</g>
<g>
</g>
<g>
</g>
<g>
</g>
<g>
</g>
</svg>
