<?xml version="1.0" encoding="iso-8859-1"?>
<!-- Generator: Adobe Illustrator 19.0.0, SVG Export Plug-In . SVG Version: 6.00 Build 0)  -->
<svg version="1.1" id="Capa_1" xmlns="http://www.w3.org/2000/svg" xmlns:xlink="http://www.w3.org/1999/xlink" x="0px" y="0px"
	 viewBox="0 0 512 512" style="enable-background:new 0 0 512 512;" xml:space="preserve">
<path style="fill:#303C42;" d="M416,0H277.333C269.108,0,261.674,3.206,256,8.323C250.326,3.206,242.892,0,234.667,0H96
	C78.354,0,64,14.354,64,32v426.667c0,13.888,8.944,25.617,21.333,30.035v12.632C85.333,507.229,90.104,512,96,512h21.333
	c5.896,0,10.667-4.771,10.667-10.667v-10.667h106.667v10.667c0,5.896,4.771,10.667,10.667,10.667h21.333
	c5.896,0,10.667-4.771,10.667-10.667v-10.667H384v10.667c0,5.896,4.771,10.667,10.667,10.667H416
	c5.896,0,10.667-4.771,10.667-10.667v-12.632C439.056,484.284,448,472.555,448,458.667V32C448,14.354,433.646,0,416,0z"/>
<g>
	<path style="fill:#90A4AE;" d="M96,469.333c-5.885,0-10.667-4.781-10.667-10.667V32c0-5.885,4.781-10.667,10.667-10.667h138.667
		c5.885,0,10.667,4.781,10.667,10.667v426.667c0,5.885-4.781,10.667-10.667,10.667H96z"/>
	<path style="fill:#90A4AE;" d="M426.667,458.667c0,5.885-4.781,10.667-10.667,10.667H277.333c-5.885,0-10.667-4.781-10.667-10.667
		V32c0-5.885,4.781-10.667,10.667-10.667H416c5.885,0,10.667,4.781,10.667,10.667V458.667z"/>
</g>
<g>
	<path style="opacity:0.1;fill:#010101;enable-background:new    ;" d="M416,21.333h-10.667v416c0,5.885-4.781,10.667-10.667,10.667
		h-128v10.667c0,5.885,4.781,10.667,10.667,10.667H416c5.885,0,10.667-4.781,10.667-10.667V32
		C426.667,26.115,421.885,21.333,416,21.333z"/>
	<path style="opacity:0.1;fill:#010101;enable-background:new    ;" d="M234.667,21.333H224v416c0,5.885-4.781,10.667-10.667,10.667
		h-128v10.667c0,5.885,4.781,10.667,10.667,10.667h138.667c5.885,0,10.667-4.781,10.667-10.667V32
		C245.333,26.115,240.552,21.333,234.667,21.333z"/>
</g>
<g>
	<path style="fill:#303C42;" d="M138.667,85.333H192c5.896,0,10.667-4.771,10.667-10.667C202.667,68.771,197.896,64,192,64h-53.333
		C132.771,64,128,68.771,128,74.667C128,80.563,132.771,85.333,138.667,85.333z"/>
	<path style="fill:#303C42;" d="M224,117.333c0-5.896-4.771-10.667-10.667-10.667h-96c-5.896,0-10.667,4.771-10.667,10.667
		S111.438,128,117.333,128h96C219.229,128,224,123.229,224,117.333z"/>
	<path style="fill:#303C42;" d="M192,149.333h-53.333c-5.896,0-10.667,4.771-10.667,10.667c0,5.896,4.771,10.667,10.667,10.667H192
		c5.896,0,10.667-4.771,10.667-10.667C202.667,154.104,197.896,149.333,192,149.333z"/>
	<path style="fill:#303C42;" d="M320,85.333h53.333c5.896,0,10.667-4.771,10.667-10.667C384,68.771,379.229,64,373.333,64H320
		c-5.896,0-10.667,4.771-10.667,10.667C309.333,80.563,314.104,85.333,320,85.333z"/>
	<path style="fill:#303C42;" d="M394.667,106.667h-96c-5.896,0-10.667,4.771-10.667,10.667S292.771,128,298.667,128h96
		c5.896,0,10.667-4.771,10.667-10.667S400.563,106.667,394.667,106.667z"/>
	<path style="fill:#303C42;" d="M373.333,149.333H320c-5.896,0-10.667,4.771-10.667,10.667c0,5.896,4.771,10.667,10.667,10.667
		h53.333c5.896,0,10.667-4.771,10.667-10.667C384,154.104,379.229,149.333,373.333,149.333z"/>
	<path style="fill:#303C42;" d="M224,224c0-5.896-4.771-10.667-10.667-10.667c-5.896,0-10.667,4.771-10.667,10.667v42.667
		c0,5.896,4.771,10.667,10.667,10.667c5.896,0,10.667-4.771,10.667-10.667V224z"/>
	<path style="fill:#303C42;" d="M394.667,213.333c-5.896,0-10.667,4.771-10.667,10.667v42.667c0,5.896,4.771,10.667,10.667,10.667
		c5.896,0,10.667-4.771,10.667-10.667V224C405.333,218.104,400.563,213.333,394.667,213.333z"/>
</g>
<linearGradient id="SVGID_1_" gradientUnits="userSpaceOnUse" x1="-46.225" y1="639.9075" x2="-23.5259" y2="629.325" gradientTransform="matrix(21.3333 0 0 -21.3333 996.3334 13791.667)">
	<stop  offset="0" style="stop-color:#FFFFFF;stop-opacity:0.2"/>
	<stop  offset="1" style="stop-color:#FFFFFF;stop-opacity:0"/>
</linearGradient>
<path style="fill:url(#SVGID_1_);" d="M416,0H277.333C269.108,0,261.674,3.206,256,8.323C250.326,3.206,242.892,0,234.667,0H96
	C78.354,0,64,14.354,64,32v426.667c0,13.888,8.944,25.617,21.333,30.035v12.632C85.333,507.229,90.104,512,96,512h21.333
	c5.896,0,10.667-4.771,10.667-10.667v-10.667h106.667v10.667c0,5.896,4.771,10.667,10.667,10.667h21.333
	c5.896,0,10.667-4.771,10.667-10.667v-10.667H384v10.667c0,5.896,4.771,10.667,10.667,10.667H416
	c5.896,0,10.667-4.771,10.667-10.667v-12.632C439.056,484.284,448,472.555,448,458.667V32C448,14.354,433.646,0,416,0z"/>
<g>
</g>
<g>
</g>
<g>
</g>
<g>
</g>
<g>
</g>
<g>
</g>
<g>
</g>
<g>
</g>
<g>
</g>
<g>
</g>
<g>
</g>
<g>
</g>
<g>
</g>
<g>
</g>
<g>
</g>
</svg>
