<?xml version="1.0" encoding="iso-8859-1"?>
<!-- Generator: Adobe Illustrator 19.0.0, SVG Export Plug-In . SVG Version: 6.00 Build 0)  -->
<svg version="1.1" id="Capa_1" xmlns="http://www.w3.org/2000/svg" xmlns:xlink="http://www.w3.org/1999/xlink" x="0px" y="0px"
	 viewBox="0 0 512 512" style="enable-background:new 0 0 512 512;" xml:space="preserve">
<path style="fill:#303C42;" d="M501.333,106.667H128C56.229,106.667,0,144.146,0,192v128c0,47.854,56.229,85.333,128,85.333
	S256,367.854,256,320h245.333c5.896,0,10.667-4.771,10.667-10.667v-192C512,111.438,507.229,106.667,501.333,106.667z"/>
<path style="fill:#FAA629;" d="M128,128c57.813,0,106.667,29.313,106.667,64S185.813,256,128,256S21.333,226.688,21.333,192
	S70.188,128,128,128z"/>
<path style="opacity:0.2;fill:#FFFFFF;enable-background:new    ;" d="M53.333,202.667c0-34.688,48.854-64,106.667-64
	c11.807,0,23.061,1.491,33.781,3.733C175.464,133.566,152.699,128,128,128c-57.813,0-106.667,29.313-106.667,64
	c0,27.603,31.116,51.534,72.885,60.267C69.661,240.423,53.333,222.535,53.333,202.667z"/>
<path style="fill:#FAA629;" d="M128,384c-57.813,0-106.667-29.313-106.667-64v-80.238c6.016,6.034,13.242,11.443,21.333,16.224V288
	c0,5.896,4.771,10.667,10.667,10.667S64,293.896,64,288v-21.827c12.911,4.88,27.285,8.271,42.667,9.928v54.565
	c0,5.896,4.771,10.667,10.667,10.667S128,336.563,128,330.667v-53.333c15.053,0,29.357-1.734,42.667-4.781V288
	c0,5.896,4.771,10.667,10.667,10.667c5.896,0,10.667-4.771,10.667-10.667v-21.827c17.172-6.491,31.79-15.503,42.667-26.411V320
	C234.667,354.688,185.813,384,128,384z"/>
<path style="opacity:0.1;fill:#010101;enable-background:new    ;" d="M213.333,255.922V288c0,34.688-48.854,64-106.667,64
	c-33.973,0-64.54-10.276-84.23-25.663C28.001,358.148,73.79,384,128,384c57.813,0,106.667-29.313,106.667-64v-80.238
	C228.661,245.785,221.421,251.16,213.333,255.922z"/>
<g>
	<path style="fill:#303C42;" d="M128,170.667c29.146,0,46.771,8.604,54.667,13.729c1.813,1.167,3.813,1.719,5.813,1.719
		c3.479,0,6.917-1.719,8.958-4.865c3.188-4.948,1.792-11.552-3.146-14.75c-9.896-6.417-31.667-17.167-66.292-17.167h-0.75
		c-5.896,0-10.292,4.771-10.292,10.667C116.958,165.896,122.104,170.667,128,170.667z"/>
	<path style="fill:#303C42;" d="M128.208,234.667l1.313-0.01c5.896,0,9.917-4.771,9.917-10.656c0-5.896-5.542-10.667-11.438-10.667
		c-30.75,0-48.813-9.844-55.167-14.073c-4.854-3.25-11.5-1.958-14.792,2.958c-3.271,4.896-1.938,11.521,2.958,14.792
		C70.875,223.604,92.729,234.667,128.208,234.667z"/>
</g>
<path style="fill:#FAA629;" d="M256,192c0-25.78-16.413-48.479-42.689-64H256v32c0,5.896,4.771,10.667,10.667,10.667
	c5.896,0,10.667-4.771,10.667-10.667v-32H320v74.667c0,5.896,4.771,10.667,10.667,10.667c5.896,0,10.667-4.771,10.667-10.667V128
	H384v32c0,5.896,4.771,10.667,10.667,10.667c5.896,0,10.667-4.771,10.667-10.667v-32h21.333v170.667H256V192z"/>
<rect x="448" y="128" style="fill:#E0E0E0;" width="42.667" height="170.667"/>
<g>
	<rect x="448" y="256" style="opacity:0.1;fill:#010101;enable-background:new    ;" width="42.667" height="42.667"/>
	<rect x="256" y="256" style="opacity:0.1;fill:#010101;enable-background:new    ;" width="170.667" height="42.667"/>
</g>
<linearGradient id="SVGID_1_" gradientUnits="userSpaceOnUse" x1="-45.6235" y1="640.4331" x2="-23.5173" y2="630.1268" gradientTransform="matrix(21.3333 0 0 -21.3333 996.3334 13791.667)">
	<stop  offset="0" style="stop-color:#FFFFFF;stop-opacity:0.2"/>
	<stop  offset="1" style="stop-color:#FFFFFF;stop-opacity:0"/>
</linearGradient>
<path style="fill:url(#SVGID_1_);" d="M501.333,106.667H128C56.229,106.667,0,144.146,0,192v128c0,47.854,56.229,85.333,128,85.333
	S256,367.854,256,320h245.333c5.896,0,10.667-4.771,10.667-10.667v-192C512,111.438,507.229,106.667,501.333,106.667z"/>
<g>
</g>
<g>
</g>
<g>
</g>
<g>
</g>
<g>
</g>
<g>
</g>
<g>
</g>
<g>
</g>
<g>
</g>
<g>
</g>
<g>
</g>
<g>
</g>
<g>
</g>
<g>
</g>
<g>
</g>
</svg>
