<?xml version="1.0" encoding="iso-8859-1"?>
<!-- Generator: Adobe Illustrator 19.0.0, SVG Export Plug-In . SVG Version: 6.00 Build 0)  -->
<svg version="1.1" id="Capa_1" xmlns="http://www.w3.org/2000/svg" xmlns:xlink="http://www.w3.org/1999/xlink" x="0px" y="0px"
	 viewBox="0 0 512 512" style="enable-background:new 0 0 512 512;" xml:space="preserve">
<path style="fill:#303C42;" d="M512,117.333V10.667C512,4.771,507.229,0,501.333,0H10.667C4.771,0,0,4.771,0,10.667v106.667
	C0,123.229,4.771,128,10.667,128h174.13L7.021,192.646l0.03,0.083C2.956,194.219,0,198.053,0,202.667v106.667
	C0,315.229,4.771,320,10.667,320h174.13L7.021,384.646l0.03,0.083C2.956,386.219,0,390.053,0,394.667v106.667
	C0,507.229,4.771,512,10.667,512h490.667c5.896,0,10.667-4.771,10.667-10.667V394.667c0-5.896-4.771-10.667-10.667-10.667H311.052
	l193.656-64.552l-0.04-0.12c4.233-1.413,7.332-5.283,7.332-9.995V202.667c0-5.896-4.771-10.667-10.667-10.667H311.052
	l193.656-64.552l-0.04-0.12C508.901,125.915,512,122.046,512,117.333z"/>
<rect x="21.333" y="21.333" style="fill:#E0E0E0;" width="42.667" height="85.333"/>
<rect x="21.333" y="85.333" style="opacity:0.1;fill:#010101;enable-background:new    ;" width="42.667" height="21.333"/>
<rect x="448" y="405.333" style="fill:#E0E0E0;" width="42.667" height="85.333"/>
<g>
	<path style="fill:#FAA629;" d="M320,416v-10.667h42.667v32c0,5.896,4.771,10.667,10.667,10.667S384,443.229,384,437.333v-32h42.667
		v85.333H21.333v-85.333h21.333V416c0,5.896,4.771,10.667,10.667,10.667S64,421.896,64,416v-10.667h42.667v32
		c0,5.896,4.771,10.667,10.667,10.667S128,443.229,128,437.333v-32h42.667V416c0,5.896,4.771,10.667,10.667,10.667
		c5.896,0,10.667-4.771,10.667-10.667v-10.667h42.667v32c0,5.896,4.771,10.667,10.667,10.667c5.896,0,10.667-4.771,10.667-10.667
		v-32h42.667V416c0,5.896,4.771,10.667,10.667,10.667S320,421.896,320,416z"/>
	<polygon style="fill:#FAA629;" points="243.615,384 71.203,384 247.203,320 435.615,320 	"/>
	<path style="fill:#FAA629;" d="M320,213.333V224c0,5.896,4.771,10.667,10.667,10.667c5.896,0,10.667-4.771,10.667-10.667v-10.667
		H384v32c0,5.896,4.771,10.667,10.667,10.667c5.896,0,10.667-4.771,10.667-10.667v-32H448V224c0,5.896,4.771,10.667,10.667,10.667
		c5.896,0,10.667-4.771,10.667-10.667v-10.667h21.333v85.333H21.333v-85.333H64V224c0,5.896,4.771,10.667,10.667,10.667
		c5.896,0,10.667-4.771,10.667-10.667v-10.667H128v32c0,5.896,4.771,10.667,10.667,10.667s10.667-4.771,10.667-10.667v-32H192V224
		c0,5.896,4.771,10.667,10.667,10.667s10.667-4.771,10.667-10.667v-10.667H256v32c0,5.896,4.771,10.667,10.667,10.667
		c5.896,0,10.667-4.771,10.667-10.667v-32H320z"/>
	<polygon style="fill:#FAA629;" points="243.615,192 71.203,192 247.203,128 435.615,128 	"/>
</g>
<g>
	<polygon style="opacity:0.2;fill:#010101;enable-background:new    ;" points="243.615,384 71.203,384 247.203,320 435.615,320 	
		"/>
	<polygon style="opacity:0.2;fill:#010101;enable-background:new    ;" points="243.615,192 71.203,192 247.203,128 435.615,128 	
		"/>
</g>
<path style="fill:#FAA629;" d="M490.667,106.667H85.333V21.333H128V32c0,5.896,4.771,10.667,10.667,10.667
	S149.333,37.896,149.333,32V21.333H192v32C192,59.229,196.771,64,202.667,64s10.667-4.771,10.667-10.667v-32H256V32
	c0,5.896,4.771,10.667,10.667,10.667c5.896,0,10.667-4.771,10.667-10.667V21.333H320v32C320,59.229,324.771,64,330.667,64
	c5.896,0,10.667-4.771,10.667-10.667v-32H384V32c0,5.896,4.771,10.667,10.667,10.667c5.896,0,10.667-4.771,10.667-10.667V21.333H448
	v32C448,59.229,452.771,64,458.667,64c5.896,0,10.667-4.771,10.667-10.667v-32h21.333V106.667z"/>
<g>
	<rect x="85.333" y="85.333" style="opacity:0.1;fill:#010101;enable-background:new    ;" width="405.333" height="21.333"/>
	<rect x="21.333" y="277.333" style="opacity:0.1;fill:#010101;enable-background:new    ;" width="469.333" height="21.333"/>
	<rect x="21.333" y="469.333" style="opacity:0.1;fill:#010101;enable-background:new    ;" width="405.333" height="21.333"/>
	<rect x="448" y="469.333" style="opacity:0.1;fill:#010101;enable-background:new    ;" width="42.667" height="21.333"/>
</g>
<linearGradient id="SVGID_1_" gradientUnits="userSpaceOnUse" x1="-49.0072" y1="641.1544" x2="-20.399" y2="627.8143" gradientTransform="matrix(21.3333 0 0 -21.3333 996.3334 13791.667)">
	<stop  offset="0" style="stop-color:#FFFFFF;stop-opacity:0.2"/>
	<stop  offset="1" style="stop-color:#FFFFFF;stop-opacity:0"/>
</linearGradient>
<path style="fill:url(#SVGID_1_);" d="M512,117.333V10.667C512,4.771,507.229,0,501.333,0H10.667C4.771,0,0,4.771,0,10.667v106.667
	C0,123.229,4.771,128,10.667,128h174.13L7.021,192.646l0.03,0.083C2.956,194.219,0,198.053,0,202.667v106.667
	C0,315.229,4.771,320,10.667,320h174.13L7.021,384.646l0.03,0.083C2.956,386.219,0,390.053,0,394.667v106.667
	C0,507.229,4.771,512,10.667,512h490.667c5.896,0,10.667-4.771,10.667-10.667V394.667c0-5.896-4.771-10.667-10.667-10.667H311.052
	l193.656-64.552l-0.04-0.12c4.233-1.413,7.332-5.283,7.332-9.995V202.667c0-5.896-4.771-10.667-10.667-10.667H311.052
	l193.656-64.552l-0.04-0.12C508.901,125.915,512,122.046,512,117.333z"/>
<g>
</g>
<g>
</g>
<g>
</g>
<g>
</g>
<g>
</g>
<g>
</g>
<g>
</g>
<g>
</g>
<g>
</g>
<g>
</g>
<g>
</g>
<g>
</g>
<g>
</g>
<g>
</g>
<g>
</g>
</svg>
