<?xml version="1.0" encoding="iso-8859-1"?>
<!-- Generator: Adobe Illustrator 19.0.0, SVG Export Plug-In . SVG Version: 6.00 Build 0)  -->
<svg version="1.1" id="Capa_1" xmlns="http://www.w3.org/2000/svg" xmlns:xlink="http://www.w3.org/1999/xlink" x="0px" y="0px"
	 viewBox="0 0 483.176 483.176" style="enable-background:new 0 0 483.176 483.176;" xml:space="preserve">
<polygon style="fill:#FAC05E;" points="64.162,480 24.162,384 8.162,296 8.162,216 24.162,136 64.162,56 104.162,32 168.162,24 
	184.162,0 296.162,0 312.162,24 376.162,32 416.162,56 456.162,136 472.162,216 472.162,296 456.162,384 416.162,480 "/>
<g>
	<path style="fill:#0F272A;" d="M71.506,476.824c-40.952-94.608-59.312-188.704-51.712-264.96
		c4.976-49.928,21.68-98.936,45.84-134.456c17.992-26.448,42.408-39.552,79.168-42.504c12.424-1.008,50.216-4.056,50.216-34.904h-16
		c0,7.496-4.04,16.416-35.504,18.952c-42.04,3.384-70.144,18.632-91.12,49.464C26.786,106.072,9.09,157.784,3.866,210.28
		c-7.864,78.912,10.944,175.84,52.952,272.896L71.506,476.824z"/>
	<path style="fill:#0F272A;" d="M83.818,480h16c0-14.136,13.656-39.368,20.984-52.912c4.672-8.616,10.304-16,16.76-21.96
		l1.152-1.072c10.624-9.96,15.168-12.056,17.104-12.056v-16c-9.76,0-19.592,8.456-28.048,16.376l-1.08,1.008
		c-0.248,0.224-0.472,0.488-0.712,0.72c-3.048-0.224-5.952-0.92-9.592-2.632c-8.336-3.912-15.136-10.128-19.144-17.496
		c-4.128-7.568-5.232-16.664-2.968-24.312c2.368-7.992,8.512-15.448,17.288-20.992c5.84-3.688,13.416-5.272,21.44-6.952
		c2.968-0.624,5.912-1.24,8.768-1.96c3.6-0.904,6.112-4.176,6.048-7.888s-2.672-6.896-6.304-7.688
		c-20.888-4.536-48.784-19.728-59.312-38.928c-10.576-19.272-12.352-43.104-4.752-63.744l-15.016-5.528
		c-9.176,24.92-7.032,53.696,5.736,76.976c9.008,16.408,26.232,29.376,43.872,37.776c-3.096,1.168-6.12,2.592-9.016,4.416
		c-12.064,7.616-20.616,18.264-24.096,29.976c-3.504,11.816-1.944,25.128,4.264,36.504c5.616,10.336,14.992,18.976,26.384,24.328
		c1.528,0.72,3.032,1.344,4.504,1.88c-2.624,3.656-5.12,7.496-7.352,11.632C95.65,439.952,83.818,463.216,83.818,480z"/>
	<path style="fill:#0F272A;" d="M479.314,210.28c-5.24-52.52-22.928-104.232-48.536-141.864
		c-20.968-30.824-49.072-46.08-91.112-49.464C308.202,16.424,304.162,7.496,304.162,0h-16c0,30.848,37.8,33.896,50.216,34.904
		c36.76,2.952,61.168,16.064,79.16,42.504c24.16,35.504,40.864,84.504,45.848,134.464c7.592,76.256-10.768,170.352-51.712,264.944
		l14.688,6.36C468.362,386.128,487.17,289.208,479.314,210.28z"/>
	<path style="fill:#0F272A;" d="M415.002,272.952c12.776-23.288,14.92-52.064,5.736-76.976l-15.016,5.528
		c7.608,20.632,5.832,44.464-4.752,63.744c-10.528,19.2-38.424,34.392-59.312,38.928c-3.632,0.792-6.24,3.976-6.304,7.688
		s2.448,6.984,6.048,7.888c2.848,0.72,5.8,1.336,8.768,1.96c8.024,1.68,15.592,3.264,21.44,6.952
		c8.776,5.536,14.92,12.992,17.288,20.992c2.264,7.648,1.16,16.744-2.96,24.32c-4.008,7.36-10.808,13.568-19.144,17.488
		c-3.624,1.704-6.728,2.504-9.584,2.64c-0.248-0.232-0.472-0.496-0.72-0.728l-1.112-1.032C346.93,384.44,337.098,376,327.354,376v16
		c1.928,0,6.472,2.088,17.096,12.032l1.176,1.104c6.456,5.968,12.088,13.352,16.736,21.944c7.336,13.552,20.992,38.792,20.992,52.92
		h16c0-16.784-11.832-40.048-22.912-60.528c-2.24-4.136-4.728-7.976-7.352-11.632c1.472-0.536,2.976-1.16,4.504-1.88
		c11.4-5.352,20.776-13.992,26.392-24.328c6.2-11.392,7.76-24.704,4.256-36.504c-3.48-11.72-12.04-22.368-24.104-29.976
		c-2.888-1.832-5.912-3.248-9.008-4.416C388.77,302.328,405.994,289.36,415.002,272.952z"/>
	<path style="fill:#0F272A;" d="M258.146,165.04c-3.584,35.008,8.864,71.032,33.312,96.352l11.512-11.112
		c-21.216-21.976-32.024-53.224-28.904-83.6L258.146,165.04z"/>
	<path style="fill:#0F272A;" d="M190.25,261.392c24.448-25.32,36.896-61.344,33.312-96.352l-15.92,1.64
		c3.12,30.376-7.688,61.624-28.904,83.6L190.25,261.392z"/>
	<path style="fill:#0F272A;" d="M232.162,439.952l16,0.096c0.088-13.912,0.744-28.144,1.376-41.896
		c1.44-31.2,2.928-63.472-2.032-95.296l-15.816,2.472c4.72,30.224,3.264,61.68,1.856,92.088
		C232.914,411.328,232.25,425.712,232.162,439.952z"/>
</g>
<g>
</g>
<g>
</g>
<g>
</g>
<g>
</g>
<g>
</g>
<g>
</g>
<g>
</g>
<g>
</g>
<g>
</g>
<g>
</g>
<g>
</g>
<g>
</g>
<g>
</g>
<g>
</g>
<g>
</g>
</svg>
