<?xml version="1.0" encoding="iso-8859-1"?>
<!-- Generator: Adobe Illustrator 19.0.0, SVG Export Plug-In . SVG Version: 6.00 Build 0)  -->
<svg version="1.1" id="Capa_1" xmlns="http://www.w3.org/2000/svg" xmlns:xlink="http://www.w3.org/1999/xlink" x="0px" y="0px"
	 viewBox="0 0 480 480" style="enable-background:new 0 0 480 480;" xml:space="preserve">
<path style="fill:#EE6352;" d="M320,28.304V8h-32v2.696c0,30.192-13.856,58.04-35.848,78.728c-4.808,4.528-8.92,9.792-12.152,15.616
	c-3.224-5.824-7.336-11.088-12.152-15.616C205.856,68.736,192,40.888,192,10.696V8h-32v20.304c0,24.8-9.888,48.072-25.584,67.264
	C125.408,106.584,120,120.656,120,136c0,26.672,16.312,49.528,39.512,59.144C174.384,201.312,184,215.904,184,232l0,0h112l0,0
	c0-16.096,9.616-30.688,24.488-36.856C343.688,185.528,360,162.672,360,136c0-15.344-5.408-29.416-14.416-40.432
	C329.888,76.376,320,53.104,320,28.304z"/>
<path style="fill:#50D4E3;" d="M296,264H184l0,0c-42.472,33.04-57.488,90.472-36.6,140.064L176,472h48V360c0-8.84,7.16-16,16-16l0,0
	c8.84,0,16,7.16,16,16v112h48l28.6-67.936C353.488,354.472,338.472,297.04,296,264L296,264z"/>
<g>
	<rect x="48" y="224" style="fill:#FAC05E;" width="48" height="32"/>
	<rect x="384" y="224" style="fill:#FAC05E;" width="48" height="32"/>
</g>
<g>
	<path style="fill:#0F272A;" d="M351.784,90.504C336.216,71.488,328,49.976,328,28.304V8c0-4.416-3.576-8-8-8h-32
		c-4.424,0-8,3.584-8,8v2.696c0,26.792-11.832,52.68-33.328,72.904c-2.392,2.24-4.616,4.64-6.672,7.176
		c-2.056-2.536-4.28-4.936-6.664-7.176C211.832,63.376,200,37.488,200,10.696V8c0-4.416-3.576-8-8-8h-32c-4.424,0-8,3.584-8,8
		v20.304c0,21.672-8.216,43.176-23.784,62.2C117.76,103.296,112,119.456,112,136c0,29.224,17.448,55.344,44.448,66.536
		C168.328,207.464,176,219.024,176,232c0,4.416,3.576,8,8,8h112c4.424,0,8-3.584,8-8c0-12.976,7.672-24.536,19.552-29.464
		C350.552,191.344,368,165.224,368,136C368,119.456,362.24,103.296,351.784,90.504z M317.432,187.76
		c-15.384,6.376-26.088,20.128-28.776,36.24h-97.312c-2.688-16.12-13.392-29.864-28.776-36.24C141.568,179.048,128,158.736,128,136
		c0-12.864,4.48-25.424,12.608-35.36C158.528,78.72,168,53.712,168,28.304V16h16.136c1.448,29.336,14.896,57.296,38.24,79.256
		c4.232,3.984,7.816,8.584,10.624,13.664c2.832,5.096,11.168,5.096,14,0c2.816-5.08,6.392-9.672,10.632-13.664
		c23.336-21.96,36.792-49.92,38.232-79.256H312v12.304c0,25.408,9.472,50.416,27.392,72.328C347.52,110.576,352,123.136,352,136
		C352,158.736,338.432,179.048,317.432,187.76z"/>
	<path style="fill:#0F272A;" d="M256,480h48c3.216,0,6.128-1.928,7.376-4.896l28.6-67.936
		c22.24-52.832,6.176-114.304-39.064-149.488c-1.408-1.088-3.128-1.68-4.912-1.68H184c-1.784,0-3.504,0.592-4.912,1.68
		c-45.24,35.184-61.304,96.664-39.064,149.488l28.6,67.936c1.248,2.968,4.16,4.896,7.376,4.896h48c4.424,0,8-3.584,8-8V360
		c0-4.408,3.584-8,8-8c4.416,0,8,3.592,8,8v112C248,476.416,251.576,480,256,480z M240,336c-13.232,0-24,10.768-24,24v104h-34.688
		l-26.536-63.04C135.68,355.624,148.872,303,186.8,272h106.4c37.92,31,51.12,83.624,32.024,128.96L298.688,464H264V360
		C264,346.768,253.232,336,240,336z"/>
	<path style="fill:#0F272A;" d="M40,224v32c0,4.416,3.576,8,8,8h48c4.424,0,8-3.584,8-8v-32c0-4.416-3.576-8-8-8H48
		C43.576,216,40,219.584,40,224z M56,232h32v16H56V232z"/>
	<path style="fill:#0F272A;" d="M384,264h48c4.424,0,8-3.584,8-8v-32c0-4.416-3.576-8-8-8h-48c-4.424,0-8,3.584-8,8v32
		C376,260.416,379.576,264,384,264z M392,232h32v16h-32V232z"/>
	<rect x="272" y="288" style="fill:#0F272A;" width="16" height="16"/>
</g>
<g>
</g>
<g>
</g>
<g>
</g>
<g>
</g>
<g>
</g>
<g>
</g>
<g>
</g>
<g>
</g>
<g>
</g>
<g>
</g>
<g>
</g>
<g>
</g>
<g>
</g>
<g>
</g>
<g>
</g>
</svg>
