<?xml version="1.0" encoding="iso-8859-1"?>
<!-- Generator: Adobe Illustrator 19.0.0, SVG Export Plug-In . SVG Version: 6.00 Build 0)  -->
<svg version="1.1" id="Capa_1" xmlns="http://www.w3.org/2000/svg" xmlns:xlink="http://www.w3.org/1999/xlink" x="0px" y="0px"
	 viewBox="0 0 480 480" style="enable-background:new 0 0 480 480;" xml:space="preserve">
<path style="fill:#EE6352;" d="M416,200c0,128.128-176,272-176,272S64,328.128,64,200S142.8,8,240,8S416,71.872,416,200z"/>
<circle style="fill:#FFFFFF;" cx="240" cy="184" r="128"/>
<g>
	<rect x="160" y="144" style="fill:#50D4E3;" width="40" height="80"/>
	<rect x="280" y="144" style="fill:#50D4E3;" width="40" height="80"/>
</g>
<rect x="200" y="168" style="fill:#FAC05E;" width="80" height="32"/>
<g>
	<path style="fill:#0F272A;" d="M240,0C128.224,0,56,78.504,56,200c0,130.424,171.632,272.224,178.936,278.192
		C236.408,479.4,238.2,480,240,480c1.8,0,3.592-0.6,5.064-1.808c0.448-0.368,45.08-37.032,89.04-88.976
		C393.752,318.744,424,255.08,424,200C424,78.504,351.776,0,240,0z M240,461.512C211.432,436.864,72,310.88,72,200
		C72,64.336,158.784,16,240,16s168,48.336,168,184C408,310.808,268.568,436.856,240,461.512z"/>
	<path style="fill:#0F272A;" d="M240,48c-74.992,0-136,61.008-136,136s61.008,136,136,136s136-61.008,136-136S314.992,48,240,48z
		 M240,304c-66.168,0-120-53.832-120-120S173.832,64,240,64s120,53.832,120,120S306.168,304,240,304z"/>
	<path style="fill:#0F272A;" d="M320,136h-40c-4.416,0-8,3.584-8,8v16h-64v-16c0-4.416-3.584-8-8-8h-40c-4.416,0-8,3.584-8,8v80
		c0,4.416,3.584,8,8,8h40c4.416,0,8-3.584,8-8v-16h64v16c0,4.416,3.584,8,8,8h40c4.416,0,8-3.584,8-8v-80
		C328,139.584,324.416,136,320,136z M192,216h-24v-64h24v16v32V216z M208,192v-16h64v16H208z M312,216h-24v-16v-32v-16h24V216z"/>
</g>
<g>
</g>
<g>
</g>
<g>
</g>
<g>
</g>
<g>
</g>
<g>
</g>
<g>
</g>
<g>
</g>
<g>
</g>
<g>
</g>
<g>
</g>
<g>
</g>
<g>
</g>
<g>
</g>
<g>
</g>
</svg>
