<?xml version="1.0" encoding="iso-8859-1"?>
<!-- Generator: Adobe Illustrator 19.0.0, SVG Export Plug-In . SVG Version: 6.00 Build 0)  -->
<svg version="1.1" id="Capa_1" xmlns="http://www.w3.org/2000/svg" xmlns:xlink="http://www.w3.org/1999/xlink" x="0px" y="0px"
	 viewBox="0 0 512 512" style="enable-background:new 0 0 512 512;" xml:space="preserve">
<path style="fill:#303C42;" d="M500.042,420.958l-67.125-67.125c-7.938-7.948-18.938-12.5-30.167-12.5h-29.417v-41.146
	c0-30.156-17.313-56.052-45.167-67.594c-27.813-11.531-58.375-5.479-79.708,15.865c-18.021,18.031-41.021,17.656-56.458,11.24
	c-15.479-6.406-32-22.354-32-47.885v-41.146h29.417c11.229,0,22.229-4.552,30.167-12.5l67.125-67.135
	c7.604-7.604,11.958-18.125,11.958-28.865c0-22.521-18.313-40.833-40.833-40.833h-3.798C249.617,8.944,237.888,0,224,0H74.667
	C60.779,0,49.049,8.944,44.632,21.333h-3.798C18.313,21.333,0,39.646,0,62.167c0,10.74,4.354,21.26,11.958,28.875l67.125,67.125
	c7.938,7.948,18.938,12.5,30.167,12.5h29.417v41.146c0,30.156,17.313,56.052,45.167,67.594c27.833,11.51,58.396,5.479,79.708-15.865
	c18.021-18.031,41.021-17.646,56.458-11.24c15.479,6.406,32,22.354,32,47.885v41.146h-29.417c-11.229,0-22.229,4.552-30.167,12.5
	l-67.125,67.135c-7.604,7.604-11.958,18.125-11.958,28.865c0,22.521,18.313,40.833,40.833,40.833h3.798
	C262.383,503.056,274.112,512,288,512h149.333c13.888,0,25.617-8.944,30.035-21.333h3.798c22.521,0,40.833-18.313,40.833-40.833
	C512,439.094,507.646,428.573,500.042,420.958z M94.167,143.083L27.042,75.969c-3.625-3.646-5.708-8.677-5.708-13.802
	c0-10.75,8.75-19.5,19.5-19.5h3.798C49.049,55.056,60.779,64,74.667,64H224c13.888,0,25.617-8.944,30.035-21.333h3.798
	c10.75,0,19.5,8.75,19.5,19.5c0,5.125-2.083,10.156-5.708,13.792L204.5,143.083c-3.979,3.969-9.479,6.25-15.083,6.25H109.25
	C103.646,149.333,98.146,147.052,94.167,143.083z M471.167,469.333h-3.798C462.951,456.944,451.221,448,437.333,448H288
	c-13.888,0-25.617,8.944-30.035,21.333h-3.798c-10.75,0-19.5-8.75-19.5-19.5c0-5.125,2.083-10.156,5.708-13.792l67.125-67.125
	c3.979-3.969,9.479-6.25,15.083-6.25h80.167c5.604,0,11.104,2.281,15.083,6.25l67.125,67.115c3.625,3.646,5.708,8.677,5.708,13.802
	C490.667,460.583,481.917,469.333,471.167,469.333z"/>
<g>
	<path style="fill:#BF6B29;" d="M74.667,21.333H224c5.875,0,10.667,4.781,10.667,10.667S229.875,42.667,224,42.667H74.667
		C68.792,42.667,64,37.885,64,32S68.792,21.333,74.667,21.333z"/>
	<path style="fill:#BF6B29;" d="M437.333,490.667H288c-5.875,0-10.667-4.781-10.667-10.667c0-5.885,4.792-10.667,10.667-10.667
		h149.333c5.875,0,10.667,4.781,10.667,10.667C448,485.885,443.208,490.667,437.333,490.667z"/>
</g>
<linearGradient id="SVGID_1_" gradientUnits="userSpaceOnUse" x1="-48.2024" y1="640.7795" x2="-21.2038" y2="628.1892" gradientTransform="matrix(21.3333 0 0 -21.3333 996.3334 13791.667)">
	<stop  offset="0" style="stop-color:#FFFFFF;stop-opacity:0.2"/>
	<stop  offset="1" style="stop-color:#FFFFFF;stop-opacity:0"/>
</linearGradient>
<path style="fill:url(#SVGID_1_);" d="M500.042,420.958l-67.125-67.125c-7.938-7.948-18.938-12.5-30.167-12.5h-29.417v-41.146
	c0-30.156-17.313-56.052-45.167-67.594c-27.813-11.531-58.375-5.479-79.708,15.865c-18.021,18.031-41.021,17.656-56.458,11.24
	c-15.479-6.406-32-22.354-32-47.885v-41.146h29.417c11.229,0,22.229-4.552,30.167-12.5l67.125-67.135
	c7.604-7.604,11.958-18.125,11.958-28.865c0-22.521-18.313-40.833-40.833-40.833h-3.798C249.617,8.944,237.888,0,224,0H74.667
	C60.779,0,49.049,8.944,44.632,21.333h-3.798C18.313,21.333,0,39.646,0,62.167c0,10.74,4.354,21.26,11.958,28.875l67.125,67.125
	c7.938,7.948,18.938,12.5,30.167,12.5h29.417v41.146c0,30.156,17.313,56.052,45.167,67.594c27.833,11.51,58.396,5.479,79.708-15.865
	c18.021-18.031,41.021-17.646,56.458-11.24c15.479,6.406,32,22.354,32,47.885v41.146h-29.417c-11.229,0-22.229,4.552-30.167,12.5
	l-67.125,67.135c-7.604,7.604-11.958,18.125-11.958,28.865c0,22.521,18.313,40.833,40.833,40.833h3.798
	C262.383,503.056,274.112,512,288,512h149.333c13.888,0,25.617-8.944,30.035-21.333h3.798c22.521,0,40.833-18.313,40.833-40.833
	C512,439.094,507.646,428.573,500.042,420.958z M94.167,143.083L27.042,75.969c-3.625-3.646-5.708-8.677-5.708-13.802
	c0-10.75,8.75-19.5,19.5-19.5h3.798C49.049,55.056,60.779,64,74.667,64H224c13.888,0,25.617-8.944,30.035-21.333h3.798
	c10.75,0,19.5,8.75,19.5,19.5c0,5.125-2.083,10.156-5.708,13.792L204.5,143.083c-3.979,3.969-9.479,6.25-15.083,6.25H109.25
	C103.646,149.333,98.146,147.052,94.167,143.083z M471.167,469.333h-3.798C462.951,456.944,451.221,448,437.333,448H288
	c-13.888,0-25.617,8.944-30.035,21.333h-3.798c-10.75,0-19.5-8.75-19.5-19.5c0-5.125,2.083-10.156,5.708-13.792l67.125-67.125
	c3.979-3.969,9.479-6.25,15.083-6.25h80.167c5.604,0,11.104,2.281,15.083,6.25l67.125,67.115c3.625,3.646,5.708,8.677,5.708,13.802
	C490.667,460.583,481.917,469.333,471.167,469.333z"/>
<g>
</g>
<g>
</g>
<g>
</g>
<g>
</g>
<g>
</g>
<g>
</g>
<g>
</g>
<g>
</g>
<g>
</g>
<g>
</g>
<g>
</g>
<g>
</g>
<g>
</g>
<g>
</g>
<g>
</g>
</svg>
