<?xml version="1.0" encoding="iso-8859-1"?>
<!-- Generator: Adobe Illustrator 19.0.0, SVG Export Plug-In . SVG Version: 6.00 Build 0)  -->
<svg version="1.1" id="Capa_1" xmlns="http://www.w3.org/2000/svg" xmlns:xlink="http://www.w3.org/1999/xlink" x="0px" y="0px"
	 viewBox="0 0 512 512" style="enable-background:new 0 0 512 512;" xml:space="preserve">
<path style="fill:#303C42;" d="M170.667,213.333c-70.583,0-128,57.417-128,128s57.417,128,128,128s128-57.417,128-128
	S241.25,213.333,170.667,213.333z M170.667,448C111.854,448,64,400.146,64,341.333s47.854-106.667,106.667-106.667
	c4.156,0,8.103,0.762,12.137,1.227c-7.923,19.924-12.137,40.934-12.137,62.773c0,50.333,22.577,97.896,60.708,130.172
	C214.117,440.852,193.24,448,170.667,448z M270.352,378.267c-22.533-20.125-35.685-49.004-35.685-79.6
	c0-12.745,2.216-25.044,6.52-36.741c21.995,19.555,36.147,47.734,36.147,79.408C277.333,354.367,274.651,366.711,270.352,378.267z
	 M405.333,140.565V128c0-19.826-13.654-36.382-32-41.151V10.667C373.333,4.771,368.563,0,362.667,0H320
	c-5.896,0-10.667,4.771-10.667,10.667v76.182c-18.346,4.77-32,21.326-32,41.151v12.694c-15.504,6.283-30.016,14.841-43.128,25.409
	c-1.922-17.759-14.639-32.194-31.539-36.587V10.667C202.667,4.771,197.896,0,192,0h-42.667c-5.896,0-10.667,4.771-10.667,10.667
	v118.849c-18.346,4.77-32,21.326-32,41.151v12.565C44.203,208.613,0,269.867,0,341.333C0,435.438,76.563,512,170.667,512
	c47.262,0,90.079-19.329,121.016-50.477c16.064,4.896,32.659,7.81,49.651,7.81c94.104,0,170.667-76.563,170.667-170.667
	C512,227.201,467.797,165.947,405.333,140.565z M170.667,490.667c-82.333,0-149.333-66.99-149.333-149.333S88.333,192,170.667,192
	S320,258.99,320,341.333S253,490.667,170.667,490.667z M341.333,405.333c-4.12,0-8.228-0.254-12.301-0.721
	c7.858-19.592,12.301-40.911,12.301-63.279c0-52.1-23.533-98.754-60.453-130.085C298.612,198.979,319.513,192,341.333,192
	C400.146,192,448,239.854,448,298.667S400.146,405.333,341.333,405.333z"/>
<g>
	<rect x="330.667" y="21.333" style="fill:#934721;" width="21.333" height="64"/>
	<path style="fill:#934721;" d="M298.667,128c0-11.76,9.563-21.333,21.333-21.333h42.667C374.438,106.667,384,116.24,384,128v5.617
		c-13.665-3.538-27.911-5.617-42.667-5.617c-14.522,0-28.813,2.085-42.667,5.681V128z"/>
	<rect x="160" y="21.333" style="fill:#934721;" width="21.333" height="106.667"/>
	<path style="fill:#934721;" d="M128,170.667c0-11.76,9.563-21.333,21.333-21.333H192c11.771,0,21.333,9.573,21.333,21.333v5.617
		c-13.665-3.538-27.911-5.617-42.667-5.617s-29.001,2.079-42.667,5.617V170.667z"/>
</g>
<g>
	<path style="opacity:0.2;fill:#FFFFFF;enable-background:new    ;" d="M160,160h42.667c3.12,0,6.034,0.747,8.706,1.954
		c-3.349-7.404-10.725-12.621-19.372-12.621h-42.667c-11.771,0-21.333,9.573-21.333,21.333v5.617
		c3.975-1.029,8.103-1.639,12.176-2.406C143.219,165.813,150.875,160,160,160z"/>
	<path style="opacity:0.2;fill:#FFFFFF;enable-background:new    ;" d="M330.667,117.333h42.667c3.12,0,6.034,0.747,8.706,1.954
		c-3.349-7.404-10.725-12.621-19.372-12.621H320c-11.771,0-21.333,9.573-21.333,21.333v5.617c3.975-1.029,8.103-1.639,12.176-2.406
		C313.885,123.146,321.542,117.333,330.667,117.333z"/>
</g>
<g>
	<path style="fill:#BF6B29;" d="M341.333,448c-11.686,0-23.094-1.823-34.307-4.47c4.539-6.042,8.762-12.323,12.48-18.945
		c7.195,1.24,14.48,2.082,21.827,2.082c70.583,0,128-57.417,128-128s-57.417-128-128-128c-28.595,0-55.922,9.927-78.31,27.365
		c-6.543-4.232-13.411-7.975-20.526-11.296c27.141-23.928,62.379-37.402,98.836-37.402c82.333,0,149.333,66.99,149.333,149.333
		S423.667,448,341.333,448z"/>
	<path style="fill:#BF6B29;" d="M192,298.667c0-20.302,4.19-39.766,11.999-58.138c6.835,2.27,13.32,5.148,19.466,8.686
		c-6.533,15.605-10.132,32.456-10.132,49.452c0,38.697,17.647,74.961,47.432,99.181c-3.805,6.044-8.128,11.688-13.03,16.837
		C212.79,386.438,192,343.833,192,298.667z"/>
	<path style="fill:#BF6B29;" d="M170.667,192c-82.474,0-149.333,66.858-149.333,149.333c0,82.474,66.859,149.333,149.333,149.333
		S320,423.807,320,341.333C320,258.858,253.141,192,170.667,192z M170.667,469.333c-70.693,0-128-57.307-128-128s57.307-128,128-128
		s128,57.307,128,128S241.359,469.333,170.667,469.333z"/>
</g>
<linearGradient id="SVGID_1_" gradientUnits="userSpaceOnUse" x1="-32.0945" y1="626.2137" x2="-31.0005" y2="625.1197" gradientTransform="matrix(21.3333 0 0 -21.3333 996.3334 13791.667)">
	<stop  offset="0" style="stop-color:#010101;stop-opacity:0.1"/>
	<stop  offset="1" style="stop-color:#010101;stop-opacity:0"/>
</linearGradient>
<path style="fill:url(#SVGID_1_);" d="M319.507,424.585c-3.719,6.622-7.941,12.904-12.48,18.945
	c11.214,2.647,22.621,4.47,34.307,4.47c0.51,0,1.003-0.072,1.512-0.077L319.507,424.585z"/>
<linearGradient id="SVGID_2_" gradientUnits="userSpaceOnUse" x1="-37.3248" y1="635.0255" x2="-36.3367" y2="634.0374" gradientTransform="matrix(21.3333 0 0 -21.3333 996.3334 13791.667)">
	<stop  offset="0" style="stop-color:#010101;stop-opacity:0.1"/>
	<stop  offset="1" style="stop-color:#010101;stop-opacity:0"/>
</linearGradient>
<path style="fill:url(#SVGID_2_);" d="M216.884,269.803c1.668-7.022,3.796-13.934,6.581-20.589
	c-6.146-3.538-12.632-6.417-19.466-8.686c-2.743,6.454-4.866,13.089-6.691,19.801C204.293,262.634,210.831,265.868,216.884,269.803z
	"/>
<linearGradient id="SVGID_3_" gradientUnits="userSpaceOnUse" x1="-43.7643" y1="638.5559" x2="-23.4607" y2="629.0872" gradientTransform="matrix(21.3333 0 0 -21.3333 996.3334 13791.667)">
	<stop  offset="0" style="stop-color:#FFFFFF;stop-opacity:0.2"/>
	<stop  offset="1" style="stop-color:#FFFFFF;stop-opacity:0"/>
</linearGradient>
<path style="fill:url(#SVGID_3_);" d="M405.333,140.565V128c0-19.826-13.654-36.382-32-41.151V10.667
	C373.333,4.771,368.563,0,362.667,0H320c-5.896,0-10.667,4.771-10.667,10.667v76.182c-18.346,4.77-32,21.326-32,41.151v12.694
	c-15.504,6.283-30.016,14.841-43.128,25.409c-1.922-17.759-14.639-32.194-31.539-36.587V10.667C202.667,4.771,197.896,0,192,0
	h-42.667c-5.896,0-10.667,4.771-10.667,10.667v118.849c-18.346,4.77-32,21.326-32,41.151v12.565C44.203,208.613,0,269.867,0,341.333
	C0,435.438,76.563,512,170.667,512c47.262,0,90.079-19.329,121.016-50.477c16.064,4.896,32.659,7.81,49.651,7.81
	c94.104,0,170.667-76.563,170.667-170.667C512,227.201,467.797,165.947,405.333,140.565z M170.667,234.667
	c4.156,0,8.103,0.762,12.137,1.227c-7.923,19.924-12.137,40.934-12.137,62.773c0,50.333,22.577,97.896,60.708,130.172
	C214.117,440.852,193.24,448,170.667,448C111.854,448,64,400.146,64,341.333S111.854,234.667,170.667,234.667z M277.333,341.333
	c0,13.034-2.682,25.378-6.982,36.934c-22.533-20.125-35.685-49.004-35.685-79.6c0-12.745,2.216-25.044,6.52-36.741
	C263.181,281.48,277.333,309.66,277.333,341.333z M341.333,405.333c-4.12,0-8.228-0.254-12.301-0.721
	c7.858-19.592,12.301-40.911,12.301-63.279c0-52.1-23.533-98.754-60.453-130.085C298.612,198.979,319.513,192,341.333,192
	C400.146,192,448,239.854,448,298.667S400.146,405.333,341.333,405.333z"/>
<g>
</g>
<g>
</g>
<g>
</g>
<g>
</g>
<g>
</g>
<g>
</g>
<g>
</g>
<g>
</g>
<g>
</g>
<g>
</g>
<g>
</g>
<g>
</g>
<g>
</g>
<g>
</g>
<g>
</g>
</svg>
