<?xml version="1.0" encoding="iso-8859-1"?>
<!-- Generator: Adobe Illustrator 19.0.0, SVG Export Plug-In . SVG Version: 6.00 Build 0)  -->
<svg version="1.1" id="Capa_1" xmlns="http://www.w3.org/2000/svg" xmlns:xlink="http://www.w3.org/1999/xlink" x="0px" y="0px"
	 viewBox="0 0 480 480" style="enable-background:new 0 0 480 480;" xml:space="preserve">
<path style="fill:#50D4E3;" d="M360,472H120c-17.672,0-32-14.328-32-32V40c0-17.672,14.328-32,32-32h240c17.672,0,32,14.328,32,32
	v400C392,457.672,377.672,472,360,472z"/>
<rect x="88" y="56" style="fill:#FAC05E;" width="304" height="368"/>
<rect x="120" y="88" style="fill:#FFFFFF;" width="240" height="160"/>
<g>
	<path style="fill:#EE6352;" d="M176,224c-1.072,0-2.144-0.208-3.152-0.648l-56-24l6.296-14.704l51.592,22.112l36.256-29
		c2.736-2.176,6.536-2.336,9.44-0.408l42.96,28.64l51.4-44.056c2.904-2.504,7.184-2.576,10.2-0.168l40,32l-10,12.496l-34.824-27.856
		l-50.976,43.688c-2.712,2.336-6.648,2.568-9.64,0.584l-43.136-28.752l-35.432,28.344C179.552,223.4,177.792,224,176,224z"/>
	<path style="fill:#EE6352;" d="M264,184c-0.12,0-0.24,0-0.36-0.008c-2.248-0.104-4.344-1.144-5.792-2.872l-35.704-42.848
		l-50.176,28.672c-1.608,0.912-3.464,1.248-5.28,0.944l-48-8l2.624-15.784l45.192,7.528l53.52-30.584
		c3.368-1.928,7.632-1.152,10.12,1.824l34.392,41.272l49.808-49.808c1.888-1.888,4.6-2.712,7.224-2.184l40,8l-3.144,15.688
		l-35.8-7.16l-52.976,52.976C268.16,183.16,266.12,184,264,184z"/>
</g>
<g>
	<path style="fill:#0F272A;" d="M360,480c22.056,0,40-17.944,40-40v-16V56V40c0-22.056-17.944-40-40-40H120
		C97.944,0,80,17.944,80,40v16v368v16c0,22.056,17.944,40,40,40H360z M96,64h288v352H96V64z M120,16h240c13.232,0,24,10.768,24,24v8
		H96v-8C96,26.768,106.768,16,120,16z M96,440v-8h288v8c0,13.232-10.768,24-24,24H120C106.768,464,96,453.232,96,440z"/>
	<rect x="160" y="280" style="fill:#0F272A;" width="112" height="16"/>
	<rect x="160" y="312" style="fill:#0F272A;" width="72" height="16"/>
	<rect x="160" y="344" style="fill:#0F272A;" width="152" height="16"/>
	<rect x="160" y="376" style="fill:#0F272A;" width="176" height="16"/>
	<rect x="112" y="280" style="fill:#0F272A;" width="32" height="16"/>
	<rect x="112" y="312" style="fill:#0F272A;" width="32" height="16"/>
	<rect x="112" y="344" style="fill:#0F272A;" width="32" height="16"/>
	<rect x="112" y="376" style="fill:#0F272A;" width="32" height="16"/>
	<path style="fill:#0F272A;" d="M360,80H120c-4.424,0-8,3.584-8,8v160c0,4.416,3.576,8,8,8h240c4.424,0,8-3.584,8-8V88
		C368,83.584,364.424,80,360,80z M352,240H128V96h224V240z"/>
	<rect x="352" y="376" style="fill:#0F272A;" width="16" height="16"/>
	<rect x="248" y="312" style="fill:#0F272A;" width="16" height="16"/>
</g>
<g>
</g>
<g>
</g>
<g>
</g>
<g>
</g>
<g>
</g>
<g>
</g>
<g>
</g>
<g>
</g>
<g>
</g>
<g>
</g>
<g>
</g>
<g>
</g>
<g>
</g>
<g>
</g>
<g>
</g>
</svg>
