<?xml version="1.0" encoding="iso-8859-1"?>
<!-- Generator: Adobe Illustrator 19.0.0, SVG Export Plug-In . SVG Version: 6.00 Build 0)  -->
<svg version="1.1" id="Capa_1" xmlns="http://www.w3.org/2000/svg" xmlns:xlink="http://www.w3.org/1999/xlink" x="0px" y="0px"
	 viewBox="0 0 480 480" style="enable-background:new 0 0 480 480;" xml:space="preserve">
<g>
	<path style="fill:#50D4E3;" d="M136,468.479H8l0,0c0-17.672,14.328-32,32-32h64C121.672,436.479,136,450.807,136,468.479
		L136,468.479z"/>
	<path style="fill:#50D4E3;" d="M472,468.479h-96l0,0c0-17.672,14.328-32,32-32h32C457.672,436.479,472,450.807,472,468.479
		L472,468.479z"/>
</g>
<path style="fill:#FAC05E;" d="M149.2,394.695l251.552-55.344C419,335.343,432,319.167,432,300.479l0,0
	c0-18.688-13-34.864-31.256-38.872L149.2,206.263C89.008,193.023,32,238.847,32,300.479l0,0
	C32,362.111,89.008,407.935,149.2,394.695z"/>
<circle style="fill:#EE6352;" cx="128" cy="300.479" r="48"/>
<path style="fill:#50D4E3;" d="M168,92.479H64v19.52c0,20.144,16.328,36.48,36.48,36.48l0,0c12.2,0,23.584-6.096,30.352-16.24
	l5.168-7.76h32c8.84,0,16-7.16,16-16l0,0C184,99.639,176.84,92.479,168,92.479z"/>
<g>
	<path style="fill:#0F272A;" d="M440,428.479h-9.896l-22.744-82.848c19.144-6.472,32.64-24.616,32.64-45.152
		c0-22.272-15.784-41.904-37.536-46.688l-21.624-4.76L331.28,68.479H440c2.12,0,4.16-0.84,5.656-2.344l20-20
		c9.736-9.736,9.736-25.576,0-35.312s-25.576-9.736-35.312,0l-9.656,9.656H312c-2.496,0-4.848,1.168-6.36,3.152
		s-2.008,4.56-1.352,6.968l22.944,83.584l-94.584,102.248l-81.728-17.984c-8.192-1.8-16.44-2.544-24.616-2.384l-11.536-42.016
		c9.16-3.104,17.192-9.088,22.72-17.376l2.792-4.192H168c13.232,0,24-10.768,24-24s-10.768-24-24-24H64c-4.416,0-8,3.584-8,8v19.52
		c0,23.96,19.064,43.512,42.816,44.392l11.352,41.344c-17.016,3.024-33.24,10.136-47.152,21.312
		C38.224,238.983,24,268.663,24,300.479s14.224,61.496,39.016,81.424c3.216,2.584,6.6,4.888,10.048,7.048l-36.92,39.912
		C15.92,430.847,0,447.743,0,468.479c0,4.416,3.584,8,8,8h128c4.416,0,8-3.584,8-8c0-22.056-17.944-40-40-40H58.296l29.44-31.832
		c12.816,5.448,26.568,8.328,40.544,8.328c7.52,0,15.104-0.816,22.632-2.472l240.912-53l21.68,78.976H408c-22.056,0-40,17.944-40,40
		c0,4.416,3.584,8,8,8h96c4.416,0,8-3.584,8-8C480,446.423,462.056,428.479,440,428.479z M72,111.999v-11.52h96c4.408,0,8,3.592,8,8
		c0,4.408-3.592,8-8,8h-32c-2.672,0-5.168,1.336-6.656,3.56l-5.168,7.76c-5.296,7.944-14.16,12.68-23.696,12.68
		C84.776,140.479,72,127.703,72,111.999z M126.632,460.479H17.368c3.304-9.312,12.2-16,22.632-16h64
		C114.432,444.479,123.328,451.167,126.632,460.479z M322.496,36.479H424c2.12,0,4.16-0.84,5.656-2.344l12-12
		c3.504-3.504,9.184-3.504,12.688,0c3.496,3.504,3.496,9.184,0,12.688l-17.656,17.656H326.88L322.496,36.479z M332.216,132.351
		l30.968,112.8l-112.432-24.736L332.216,132.351z M147.48,386.879c-26.32,5.792-53.44-0.568-74.44-17.448S40,327.423,40,300.479
		s12.04-52.072,33.04-68.952c15.912-12.792,35.344-19.536,55.272-19.536c6.368,0,12.792,0.688,19.168,2.088l251.552,55.336
		C413.496,272.599,424,285.663,424,300.479s-10.504,27.88-24.976,31.064L147.48,386.879z M385.368,460.479
		c3.304-9.312,12.2-16,22.632-16h32c10.432,0,19.328,6.688,22.632,16H385.368z"/>
	<path style="fill:#0F272A;" d="M360,276.479h-32c-13.232,0-24,10.768-24,24s10.768,24,24,24h32c13.232,0,24-10.768,24-24
		S373.232,276.479,360,276.479z M360,308.479h-32c-4.408,0-8-3.592-8-8s3.592-8,8-8h32c4.408,0,8,3.592,8,8
		S364.408,308.479,360,308.479z"/>
	<path style="fill:#0F272A;" d="M202.16,321.527l-19.784-7.912c1.024-4.224,1.624-8.608,1.624-13.136c0-30.88-25.12-56-56-56
		s-56,25.12-56,56s25.12,56,56,56c20.68,0,38.728-11.296,48.432-28.008l19.792,7.92l-3.648,9.12l14.856,5.944l16-40l-14.856-5.944
		L202.16,321.527z M128,340.479c-22.056,0-40-17.944-40-40s17.944-40,40-40s40,17.944,40,40c0,2.432-0.304,4.784-0.72,7.096
		l-36.312-14.52l-5.944,14.856l36.336,14.536C154.208,333.287,141.936,340.479,128,340.479z"/>
</g>
<g>
</g>
<g>
</g>
<g>
</g>
<g>
</g>
<g>
</g>
<g>
</g>
<g>
</g>
<g>
</g>
<g>
</g>
<g>
</g>
<g>
</g>
<g>
</g>
<g>
</g>
<g>
</g>
<g>
</g>
</svg>
