<?xml version="1.0" encoding="iso-8859-1"?>
<!-- Generator: Adobe Illustrator 19.0.0, SVG Export Plug-In . SVG Version: 6.00 Build 0)  -->
<svg version="1.1" id="Capa_1" xmlns="http://www.w3.org/2000/svg" xmlns:xlink="http://www.w3.org/1999/xlink" x="0px" y="0px"
	 viewBox="0 0 512 512" style="enable-background:new 0 0 512 512;" xml:space="preserve">
<path style="fill:#303C42;" d="M512,405.332c0-23.427-18.979-42.51-42.375-42.667l-361.007-18.5L143.156,206.3
	c2.292-9.146,10.167-15.625,19.583-16.115l157.813-8.302c11.656-0.615,20.781-10.229,20.781-21.896
	c0-11.635-9.094-21.25-20.708-21.896l-167.927-9.323c-5.688-0.323-11.115-2.969-14.865-7.26L72.031,46.311
	c-3.521-4.021-9.469-4.823-13.948-1.854l-32,21.333c-2.438,1.625-4.104,4.188-4.594,7.073c-0.5,2.885,0.219,5.854,1.979,8.198
	l53.646,71.531c4.323,5.771,5.448,13.26,3.01,20.031c0,0-74.71,198.261-76.829,203.907C1.177,382.177,0,388.272,0,394.665
	c0,25.754,18.353,47.298,42.667,52.254v11.746c0,5.896,4.771,10.667,10.667,10.667h64c5.896,0,10.667-4.771,10.667-10.667v-10.667
	h298.667v10.667c0,5.896,4.771,10.667,10.667,10.667h32c5.896,0,10.667-4.771,10.667-10.667v-12.181
	C498.352,441.714,512,425.158,512,405.332z"/>
<path style="fill:#BDBDBD;" d="M433.586,382.182c-4.34,6.678-6.919,14.607-6.919,23.15c0,7.806,2.259,15.033,5.934,21.333H95.728
	c6.768-8.941,10.939-19.948,10.939-32c0-10.992-3.352-21.215-9.074-29.714L433.586,382.182z"/>
<path style="opacity:0.1;fill:#010101;enable-background:new    ;" d="M105.947,403.045c-1.443,8.768-5.057,16.801-10.219,23.62
	H432.6c-2.203-3.778-3.898-7.889-4.901-12.258C427.029,411.49,105.947,403.045,105.947,403.045z"/>
<path style="fill:#44B3E6;" d="M100.198,179.852c4.875-13.563,2.625-28.531-6.021-40.052L47.302,77.29l14.833-9.896l59.635,68.156
	c7.51,8.594,18.354,13.875,29.74,14.51l167.927,10.51l-157.823,8.302c-18.833,1-34.563,13.948-39.146,32.24L86.91,343.052
	l-33.577-1.72c-4.076,0-8.005,0.555-11.822,1.424L100.198,179.852z"/>
<path style="fill:#90A4AE;" d="M21.333,394.665c0-17.646,14.354-32,31.458-32.01l0.891,0.046
	c17.482,0.193,31.651,14.439,31.651,31.965c0,17.646-14.354,32-32,32S21.333,412.311,21.333,394.665z"/>
<path style="opacity:0.1;fill:#010101;enable-background:new    ;" d="M74.411,370.804c0.069,0.852,0.255,1.669,0.255,2.538
	c0,17.646-14.354,32-32,32c-8.104,0-15.43-3.125-21.074-8.109c1.333,16.428,14.974,29.432,31.741,29.432c17.646,0,32-14.354,32-32
	C85.333,385.13,81.052,376.664,74.411,370.804z"/>
<path style="fill:#90A4AE;" d="M469.333,426.665c-11.76,0-21.333-9.573-21.333-21.333c0-11.667,9.439-21.13,21.07-21.28
	c11.503,0.725,21.586,9.432,21.596,21.28C490.667,417.092,481.094,426.665,469.333,426.665z"/>
<path style="opacity:0.1;fill:#010101;enable-background:new    ;" d="M478.299,386.673c1.055,2.426,1.698,5.079,1.701,7.939
	c0,11.76-9.573,21.333-21.333,21.333c-3.148,0-6.081-0.773-8.773-2.004c3.326,7.465,10.757,12.724,19.44,12.724
	c11.76,0,21.333-9.573,21.333-21.333C490.659,396.877,485.421,390.169,478.299,386.673z"/>
<linearGradient id="SVGID_1_" gradientUnits="userSpaceOnUse" x1="-48.4654" y1="637.1713" x2="-23.4255" y2="625.4953" gradientTransform="matrix(21.3333 0 0 -21.3333 996.3334 13791.667)">
	<stop  offset="0" style="stop-color:#FFFFFF;stop-opacity:0.2"/>
	<stop  offset="1" style="stop-color:#FFFFFF;stop-opacity:0"/>
</linearGradient>
<path style="fill:url(#SVGID_1_);" d="M512,405.332c0-23.427-18.979-42.51-42.375-42.667l-361.007-18.5L143.156,206.3
	c2.292-9.146,10.167-15.625,19.583-16.115l157.813-8.302c11.656-0.615,20.781-10.229,20.781-21.896
	c0-11.635-9.094-21.25-20.708-21.896l-167.927-9.323c-5.688-0.323-11.115-2.969-14.865-7.26L72.031,46.311
	c-3.521-4.021-9.469-4.823-13.948-1.854l-32,21.333c-2.438,1.625-4.104,4.188-4.594,7.073c-0.5,2.885,0.219,5.854,1.979,8.198
	l53.646,71.531c4.323,5.771,5.448,13.26,3.01,20.031c0,0-74.71,198.261-76.829,203.907C1.177,382.177,0,388.272,0,394.665
	c0,25.754,18.353,47.298,42.667,52.254v11.746c0,5.896,4.771,10.667,10.667,10.667h64c5.896,0,10.667-4.771,10.667-10.667v-10.667
	h298.667v10.667c0,5.896,4.771,10.667,10.667,10.667h32c5.896,0,10.667-4.771,10.667-10.667v-12.181
	C498.352,441.714,512,425.158,512,405.332z"/>
<g>
</g>
<g>
</g>
<g>
</g>
<g>
</g>
<g>
</g>
<g>
</g>
<g>
</g>
<g>
</g>
<g>
</g>
<g>
</g>
<g>
</g>
<g>
</g>
<g>
</g>
<g>
</g>
<g>
</g>
</svg>
