<?xml version="1.0" encoding="iso-8859-1"?>
<!-- Generator: Adobe Illustrator 19.0.0, SVG Export Plug-In . SVG Version: 6.00 Build 0)  -->
<svg version="1.1" id="Capa_1" xmlns="http://www.w3.org/2000/svg" xmlns:xlink="http://www.w3.org/1999/xlink" x="0px" y="0px"
	 viewBox="0 0 512 512" style="enable-background:new 0 0 512 512;" xml:space="preserve">
<path style="fill:#303C42;" d="M394.665,362.667h-96V73.042c37.604,16.507,64,53.997,64,97.625v21.339l-25.604-19.203
	c-4.688-3.531-11.385-2.573-14.927,2.135c-3.542,4.708-2.583,11.396,2.135,14.927l85.333,64c1.917,1.438,4.156,2.135,6.385,2.135
	c3.25,0,6.448-1.469,8.542-4.271c3.542-4.708,2.583-11.396-2.135-14.927l-38.396-28.797v-37.339
	c0-55.605-35.699-102.905-85.333-120.533v-7.467C298.665,19.135,279.53,0,255.999,0s-42.667,19.135-42.667,42.667v7.467
	c-49.634,17.628-85.333,64.927-85.333,120.533V320h-10.667c-17.646,0-32,14.354-32,32c0,8.225,3.206,15.659,8.323,21.333
	c-5.117,5.674-8.323,13.108-8.323,21.333c0,8.225,3.206,15.659,8.323,21.333c-5.117,5.674-8.323,13.108-8.323,21.333
	c0,17.646,14.354,32,32,32h42.667c17.646,0,32-14.354,32-32c0-8.225-3.206-15.659-8.323-21.333
	c5.117-5.674,8.323-13.108,8.323-21.333c0-8.225-3.206-15.659-8.323-21.333c5.117-5.674,8.323-13.108,8.323-21.333
	c0-17.646-14.354-32-32-32h-10.667V170.667c0-43.628,26.396-81.118,64-97.625v417.625c0,11.76,9.573,21.333,21.333,21.333h42.667
	c11.76,0,21.333-9.573,21.333-21.333v-64h64v74.667c0,5.896,4.771,10.667,10.667,10.667c5.896,0,10.667-4.771,10.667-10.667v-74.667
	h10.667c17.646,0,32-14.354,32-32C426.665,377.021,412.311,362.667,394.665,362.667z"/>
<g>
	<path style="fill:#5C6771;" d="M170.665,394.667c0,5.885-4.781,10.667-10.667,10.667h-42.667c-5.885,0-10.667-4.781-10.667-10.667
		c0-5.885,4.781-10.667,10.667-10.667h42.667C165.884,384,170.665,388.781,170.665,394.667z"/>
	<path style="fill:#5C6771;" d="M159.999,448h-42.667c-5.885,0-10.667-4.781-10.667-10.667s4.781-10.667,10.667-10.667h42.667
		c5.885,0,10.667,4.781,10.667,10.667S165.884,448,159.999,448z"/>
	<path style="fill:#5C6771;" d="M170.665,352c0,5.885-4.781,10.667-10.667,10.667h-42.667c-5.885,0-10.667-4.781-10.667-10.667
		c0-5.885,4.781-10.667,10.667-10.667h42.667C165.884,341.333,170.665,346.115,170.665,352z"/>
</g>
<g>
	<path style="opacity:0.1;fill:#010101;enable-background:new    ;" d="M159.999,341.333c0,5.885-4.781,10.667-10.667,10.667
		h-42.667c0,5.885,4.781,10.667,10.667,10.667h42.667c5.885,0,10.667-4.781,10.667-10.667
		C170.665,346.115,165.884,341.333,159.999,341.333z"/>
	<path style="opacity:0.1;fill:#010101;enable-background:new    ;" d="M159.999,384c0,5.885-4.781,10.667-10.667,10.667h-42.667
		c0,5.885,4.781,10.667,10.667,10.667h42.667c5.885,0,10.667-4.781,10.667-10.667C170.665,388.781,165.884,384,159.999,384z"/>
	<path style="opacity:0.1;fill:#010101;enable-background:new    ;" d="M159.999,426.667c0,5.885-4.781,10.667-10.667,10.667
		h-42.667c0,5.885,4.781,10.667,10.667,10.667h42.667c5.885,0,10.667-4.781,10.667-10.667S165.884,426.667,159.999,426.667z"/>
</g>
<g>
	<path style="fill:#BDBDBD;" d="M234.665,42.667c0-11.76,9.573-21.333,21.333-21.333c11.76,0,21.333,9.573,21.333,21.333v1.927
		c-6.954-1.174-14.051-1.927-21.333-1.927c-7.283,0-14.379,0.753-21.333,1.927V42.667z"/>
	<path style="fill:#BDBDBD;" d="M277.332,490.667h-42.667V66.156C241.561,64.75,248.694,64,255.999,64s14.438,0.75,21.333,2.156
		V490.667c0,0,0.01,0,0.021,0H277.332z"/>
</g>
<path style="fill:#90A4AE;" d="M394.665,405.333h-96V384h96c5.885,0,10.667,4.781,10.667,10.667
	C405.332,400.552,400.551,405.333,394.665,405.333z"/>
<g>
	<path style="opacity:0.1;fill:#010101;enable-background:new    ;" d="M277.332,44.594v-1.927c0-11.76-9.573-21.333-21.333-21.333
		v21.333C263.281,42.667,270.378,43.419,277.332,44.594z"/>
	<path style="opacity:0.1;fill:#010101;enable-background:new    ;" d="M277.332,490.667V66.156
		C270.436,64.75,263.303,64,255.999,64v426.667H277.332z"/>
</g>
<linearGradient id="SVGID_1_" gradientUnits="userSpaceOnUse" x1="-32.9532" y1="628.2344" x2="-31.9532" y2="627.2344" gradientTransform="matrix(21.3333 0 0 -21.3333 996.3336 13791.667)">
	<stop  offset="0" style="stop-color:#010101;stop-opacity:0.1"/>
	<stop  offset="1" style="stop-color:#010101;stop-opacity:0"/>
</linearGradient>
<polygon style="fill:url(#SVGID_1_);" points="298.665,384 319.999,405.333 298.665,405.333 "/>
<linearGradient id="SVGID_2_" gradientUnits="userSpaceOnUse" x1="-41.859" y1="637.3312" x2="-25.5151" y2="629.7112" gradientTransform="matrix(21.3333 0 0 -21.3333 996.3336 13791.667)">
	<stop  offset="0" style="stop-color:#FFFFFF;stop-opacity:0.2"/>
	<stop  offset="1" style="stop-color:#FFFFFF;stop-opacity:0"/>
</linearGradient>
<path style="fill:url(#SVGID_2_);" d="M394.665,362.667h-96V73.042c37.604,16.507,64,53.997,64,97.625v21.339l-25.604-19.203
	c-4.688-3.531-11.385-2.573-14.927,2.135c-3.542,4.708-2.583,11.396,2.135,14.927l85.333,64c1.917,1.438,4.156,2.135,6.385,2.135
	c3.25,0,6.448-1.469,8.542-4.271c3.542-4.708,2.583-11.396-2.135-14.927l-38.396-28.797v-37.339
	c0-55.605-35.699-102.905-85.333-120.533v-7.467C298.665,19.135,279.53,0,255.999,0s-42.667,19.135-42.667,42.667v7.467
	c-49.634,17.628-85.333,64.927-85.333,120.533V320h-10.667c-17.646,0-32,14.354-32,32c0,8.225,3.206,15.659,8.323,21.333
	c-5.117,5.674-8.323,13.108-8.323,21.333c0,8.225,3.206,15.659,8.323,21.333c-5.117,5.674-8.323,13.108-8.323,21.333
	c0,17.646,14.354,32,32,32h42.667c17.646,0,32-14.354,32-32c0-8.225-3.206-15.659-8.323-21.333
	c5.117-5.674,8.323-13.108,8.323-21.333c0-8.225-3.206-15.659-8.323-21.333c5.117-5.674,8.323-13.108,8.323-21.333
	c0-17.646-14.354-32-32-32h-10.667V170.667c0-43.628,26.396-81.118,64-97.625v417.625c0,11.76,9.573,21.333,21.333,21.333h42.667
	c11.76,0,21.333-9.573,21.333-21.333v-64h64v74.667c0,5.896,4.771,10.667,10.667,10.667c5.896,0,10.667-4.771,10.667-10.667v-74.667
	h10.667c17.646,0,32-14.354,32-32C426.665,377.021,412.311,362.667,394.665,362.667z"/>
<g>
</g>
<g>
</g>
<g>
</g>
<g>
</g>
<g>
</g>
<g>
</g>
<g>
</g>
<g>
</g>
<g>
</g>
<g>
</g>
<g>
</g>
<g>
</g>
<g>
</g>
<g>
</g>
<g>
</g>
</svg>
