<?xml version="1.0" encoding="iso-8859-1"?>
<!-- Generator: Adobe Illustrator 19.0.0, SVG Export Plug-In . SVG Version: 6.00 Build 0)  -->
<svg version="1.1" id="Capa_1" xmlns="http://www.w3.org/2000/svg" xmlns:xlink="http://www.w3.org/1999/xlink" x="0px" y="0px"
	 viewBox="0 0 512 512" style="enable-background:new 0 0 512 512;" xml:space="preserve">
<path style="fill:#303C42;" d="M501.333,96h-10.667V85.333c0-11.76-9.573-21.333-21.333-21.333c0-11.76-9.573-21.333-21.333-21.333
	h-21.333c-11.76,0-21.333,9.573-21.333,21.333v32H384c0-5.896-4.771-10.667-10.667-10.667S362.667,90.104,362.667,96H149.333
	c0-5.896-4.771-10.667-10.667-10.667S128,90.104,128,96h-21.333V64c0-11.76-9.573-21.333-21.333-21.333H64
	c-11.76,0-21.333,9.573-21.333,21.333c-11.76,0-21.333,9.573-21.333,21.333V96H10.667C4.771,96,0,100.771,0,106.667
	c0,5.896,4.771,10.667,10.667,10.667h10.667V128c0,11.76,9.573,21.333,21.333,21.333c0,11.76,9.573,21.333,21.333,21.333h21.333
	c11.76,0,21.333-9.573,21.333-21.333v-32H128v166.25l-39.542,39.542c-1.736,1.736-2.959,3.959-3.125,6.289
	c-0.087,1.22,0,129.253,0,129.253c0,5.896,4.771,10.667,10.667,10.667c5.896,0,10.667-4.771,10.667-10.667V341.333H128V416
	c0,5.896,4.771,10.667,10.667,10.667s10.667-4.771,10.667-10.667v-74.667h213.333V416c0,5.896,4.771,10.667,10.667,10.667
	S384,421.896,384,416v-74.667h21.333v117.333c0,5.896,4.771,10.667,10.667,10.667c5.896,0,10.667-4.771,10.667-10.667
	c0,0,0.096-127.402,0-128.881c-0.161-2.465-1.299-4.835-3.125-6.661L384,283.583v-166.25h21.333v32
	c0,11.76,9.573,21.333,21.333,21.333H448c11.76,0,21.333-9.573,21.333-21.333c11.76,0,21.333-9.573,21.333-21.333v-10.667h10.667
	c5.896,0,10.667-4.771,10.667-10.667C512,100.771,507.229,96,501.333,96z M362.667,277.333H149.333v-160h213.333V277.333z"/>
<polygon style="fill:#5C6771;" points="85.333,149.333 64,149.333 64,64 85.333,64 85.333,149.333 85.354,149.333 "/>
<polygon style="fill:#BDBDBD;" points="121.75,320 143.083,298.667 368.917,298.667 390.25,320 "/>
<polygon style="opacity:0.2;fill:#FFFFFF;enable-background:new    ;" points="143.083,298.667 121.75,320 145.777,320 
	163.293,298.667 "/>
<polygon style="opacity:0.1;fill:#010101;enable-background:new    ;" points="368.917,298.667 348.707,298.667 366.223,320 
	390.25,320 "/>
<rect x="426.667" y="64" style="fill:#5C6771;" width="21.333" height="85.333"/>
<linearGradient id="SVGID_1_" gradientUnits="userSpaceOnUse" x1="-47.1399" y1="640.6591" x2="-24.3068" y2="630.012" gradientTransform="matrix(21.3333 0 0 -21.3333 996.3334 13791.667)">
	<stop  offset="0" style="stop-color:#FFFFFF;stop-opacity:0.2"/>
	<stop  offset="1" style="stop-color:#FFFFFF;stop-opacity:0"/>
</linearGradient>
<path style="fill:url(#SVGID_1_);" d="M501.333,96h-10.667V85.333c0-11.76-9.573-21.333-21.333-21.333
	c0-11.76-9.573-21.333-21.333-21.333h-21.333c-11.76,0-21.333,9.573-21.333,21.333v32H384c0-5.896-4.771-10.667-10.667-10.667
	S362.667,90.104,362.667,96H149.333c0-5.896-4.771-10.667-10.667-10.667S128,90.104,128,96h-21.333V64
	c0-11.76-9.573-21.333-21.333-21.333H64c-11.76,0-21.333,9.573-21.333,21.333c-11.76,0-21.333,9.573-21.333,21.333V96H10.667
	C4.771,96,0,100.771,0,106.667c0,5.896,4.771,10.667,10.667,10.667h10.667V128c0,11.76,9.573,21.333,21.333,21.333
	c0,11.76,9.573,21.333,21.333,21.333h21.333c11.76,0,21.333-9.573,21.333-21.333v-32H128v166.25l-39.542,39.542
	c-1.736,1.736-2.959,3.959-3.125,6.289c-0.087,1.22,0,129.253,0,129.253c0,5.896,4.771,10.667,10.667,10.667
	c5.896,0,10.667-4.771,10.667-10.667V341.333H128V416c0,5.896,4.771,10.667,10.667,10.667s10.667-4.771,10.667-10.667v-74.667
	h213.333V416c0,5.896,4.771,10.667,10.667,10.667S384,421.896,384,416v-74.667h21.333v117.333c0,5.896,4.771,10.667,10.667,10.667
	c5.896,0,10.667-4.771,10.667-10.667c0,0,0.096-127.402,0-128.881c-0.161-2.465-1.299-4.835-3.125-6.661L384,283.583v-166.25h21.333
	v32c0,11.76,9.573,21.333,21.333,21.333H448c11.76,0,21.333-9.573,21.333-21.333c11.76,0,21.333-9.573,21.333-21.333v-10.667h10.667
	c5.896,0,10.667-4.771,10.667-10.667C512,100.771,507.229,96,501.333,96z M362.667,277.333H149.333v-160h213.333V277.333z"/>
<g>
</g>
<g>
</g>
<g>
</g>
<g>
</g>
<g>
</g>
<g>
</g>
<g>
</g>
<g>
</g>
<g>
</g>
<g>
</g>
<g>
</g>
<g>
</g>
<g>
</g>
<g>
</g>
<g>
</g>
</svg>
