<?xml version="1.0" encoding="iso-8859-1"?>
<!-- Generator: Adobe Illustrator 19.0.0, SVG Export Plug-In . SVG Version: 6.00 Build 0)  -->
<svg version="1.1" id="Capa_1" xmlns="http://www.w3.org/2000/svg" xmlns:xlink="http://www.w3.org/1999/xlink" x="0px" y="0px"
	 viewBox="0 0 512 512" style="enable-background:new 0 0 512 512;" xml:space="preserve">
<path style="fill:#303C42;" d="M502.64,222.708l-51.503-51.5c-12.406-12.423-28.508-19.579-45.794-21.191V32
	c0-17.646-14.355-32-32.002-32c-17.647,0-32.002,14.354-32.002,32v10.667h-48.605C285.33,29.975,271.718,21.333,256,21.333
	s-29.33,8.642-36.734,21.333h-48.605V32c0-17.646-14.355-32-32.002-32s-32.002,14.354-32.002,32v118.017
	c-17.285,1.612-33.389,8.768-45.794,21.191l-51.503,51.5c-12.48,12.479-12.48,32.771,0,45.25c12.459,12.479,32.794,12.479,45.253,0
	l51.503-51.49c0.152-0.152,0.379-0.216,0.542-0.359v232.97c-24.32,4.956-42.669,26.5-42.669,52.254
	c0,5.896,4.771,10.667,10.667,10.667h362.689c5.896,0,10.667-4.771,10.667-10.667c0-25.754-18.349-47.298-42.669-52.254V216.1
	c0.163,0.142,0.389,0.206,0.542,0.358l51.503,51.5c6.042,6.042,14.084,9.375,22.626,9.375c8.542,0,16.584-3.333,22.626-9.375
	C515.12,255.479,515.12,235.188,502.64,222.708z M170.661,106.667h48.605c5.659,9.701,14.944,16.926,26.067,19.818v22.849h-74.671
	V106.667z M341.339,448H170.661V213.333h74.671V320h-32.002c-11.772,0-21.335,9.573-21.335,21.333v21.333
	c0,3.969,1.383,7.48,3.279,10.667c-1.896,3.186-3.279,6.698-3.279,10.667v21.333c0,11.76,9.563,21.333,21.335,21.333h85.339
	c11.772,0,21.335-9.573,21.335-21.333V384c0-3.969-1.383-7.48-3.279-10.667c1.896-3.186,3.279-6.698,3.279-10.667v-21.333
	c0-11.76-9.563-21.333-21.335-21.333h-32.002V213.333h74.671V448z M341.339,149.333h-74.671v-22.849
	c11.123-2.892,20.408-10.117,26.067-19.818h48.605V149.333z"/>
<g>
	<path style="fill:#BDBDBD;" d="M352.006,64c5.896,0,10.667-4.771,10.667-10.667V32c0-5.885,4.792-10.667,10.667-10.667
		S384.008,26.115,384.008,32v117.333h-21.335V96c0-5.896-4.771-10.667-10.667-10.667h-53.337V64H352.006z"/>
	<path style="fill:#BDBDBD;" d="M234.665,64c0-11.76,9.563-21.333,21.335-21.333c11.772,0,21.335,9.573,21.335,21.333v21.333
		c0,11.76-9.563,21.333-21.335,21.333c-11.772,0-21.335-9.573-21.335-21.333V64z"/>
</g>
<path style="opacity:0.1;fill:#010101;enable-background:new    ;" d="M266.667,45.944V64c0,11.76-9.563,21.333-21.335,21.333
	c-3.97,0-7.482-1.383-10.667-3.277v3.277c0,11.76,9.563,21.333,21.335,21.333c11.772,0,21.335-9.573,21.335-21.333V64
	C277.335,56.206,272.927,49.668,266.667,45.944z"/>
<g>
	<path style="fill:#BDBDBD;" d="M138.66,21.333c5.875,0,10.667,4.781,10.667,10.667v21.333c0,5.896,4.771,10.667,10.667,10.667
		h53.337v21.333h-53.337c-5.896,0-10.667,4.771-10.667,10.667v53.333h-21.335V32C127.992,26.115,132.784,21.333,138.66,21.333z"/>
	<rect x="213.333" y="384" style="fill:#BDBDBD;" width="85.333" height="21.333"/>
	<rect x="213.333" y="341.333" style="fill:#BDBDBD;" width="85.333" height="21.333"/>
</g>
<rect x="213.333" y="341.333" style="opacity:0.2;fill:#FFFFFF;enable-background:new    ;" width="21.333" height="21.333"/>
<rect x="277.333" y="341.333" style="opacity:0.1;fill:#010101;enable-background:new    ;" width="21.333" height="21.333"/>
<rect x="213.333" y="384" style="opacity:0.2;fill:#FFFFFF;enable-background:new    ;" width="21.333" height="21.333"/>
<rect x="277.333" y="384" style="opacity:0.1;fill:#010101;enable-background:new    ;" width="21.333" height="21.333"/>
<g>
	<rect x="362.667" y="213.333" style="fill:#BDBDBD;" width="21.333" height="234.667"/>
	<rect x="128" y="213.333" style="fill:#BDBDBD;" width="21.333" height="234.667"/>
	<path style="fill:#BDBDBD;" d="M424.844,490.667H87.156c4.396-12.417,16.251-21.333,30.169-21.333h277.35
		C408.593,469.333,420.448,478.25,424.844,490.667z"/>
</g>
<path style="opacity:0.2;fill:#FFFFFF;enable-background:new    ;" d="M129.826,480h277.35c5.033,0,9.607,1.487,13.846,3.563
	c-5.752-8.509-15.313-14.229-26.347-14.229h-277.35c-13.918,0-25.772,8.917-30.169,21.333h19.254
	C112.262,484.25,120.467,480,129.826,480z"/>
<path style="fill:#90A4AE;" d="M487.556,252.875c-4.042,4.021-11.042,4.021-15.084,0l-51.503-51.51
	c-5.98-5.948-14.23-9.365-22.626-9.365H113.658c-8.396,0-16.647,3.417-22.626,9.375l-51.503,51.5
	c-4.042,4.021-11.042,4.021-15.084,0c-2.021-2.021-3.125-4.698-3.125-7.542s1.104-5.521,3.125-7.542l51.503-51.5
	c10.063-10.073,23.46-15.625,37.711-15.625h284.684c14.251,0,27.648,5.552,37.711,15.625l51.503,51.5
	c2.021,2.021,3.125,4.698,3.125,7.542S489.577,250.854,487.556,252.875z"/>
<path style="opacity:0.2;fill:#FFFFFF;enable-background:new    ;" d="M24.444,248.568l51.503-51.5
	c10.063-10.073,23.46-15.625,37.711-15.625h284.684c14.251,0,27.648,5.552,37.711,15.625l51.503,51.5
	c0.629,0.629,0.997,1.413,1.443,2.154c0.987-1.641,1.682-3.428,1.682-5.388c0-2.844-1.104-5.521-3.125-7.542l-51.503-51.5
	c-10.063-10.073-23.46-15.625-37.711-15.625H113.658c-14.251,0-27.648,5.552-37.711,15.625l-51.503,51.5
	c-2.021,2.021-3.125,4.698-3.125,7.542c0,1.96,0.695,3.747,1.682,5.388C23.447,249.98,23.815,249.197,24.444,248.568z"/>
<linearGradient id="SVGID_1_" gradientUnits="userSpaceOnUse" x1="-32.953" y1="643.2344" x2="-31.953" y2="642.2344" gradientTransform="matrix(21.3333 0 0 -21.3333 996.3334 13791.667)">
	<stop  offset="0" style="stop-color:#010101;stop-opacity:0.1"/>
	<stop  offset="1" style="stop-color:#010101;stop-opacity:0"/>
</linearGradient>
<polygon style="fill:url(#SVGID_1_);" points="298.669,64 298.669,85.333 320.004,85.333 "/>
<linearGradient id="SVGID_2_" gradientUnits="userSpaceOnUse" x1="-45.1284" y1="638.6965" x2="-23.1109" y2="628.4327" gradientTransform="matrix(21.3333 0 0 -21.3333 996.3334 13791.667)">
	<stop  offset="0" style="stop-color:#FFFFFF;stop-opacity:0.2"/>
	<stop  offset="1" style="stop-color:#FFFFFF;stop-opacity:0"/>
</linearGradient>
<path style="fill:url(#SVGID_2_);" d="M502.64,222.708l-51.503-51.5c-12.406-12.423-28.508-19.579-45.794-21.191V32
	c0-17.646-14.355-32-32.002-32c-17.647,0-32.002,14.354-32.002,32v10.667h-48.605C285.33,29.975,271.718,21.333,256,21.333
	s-29.33,8.642-36.734,21.333h-48.605V32c0-17.646-14.355-32-32.002-32s-32.002,14.354-32.002,32v118.017
	c-17.285,1.612-33.389,8.768-45.794,21.191l-51.503,51.5c-12.48,12.479-12.48,32.771,0,45.25c12.459,12.479,32.794,12.479,45.253,0
	l51.503-51.49c0.152-0.152,0.379-0.216,0.542-0.359v232.97c-24.32,4.956-42.669,26.5-42.669,52.254
	c0,5.896,4.771,10.667,10.667,10.667h362.689c5.896,0,10.667-4.771,10.667-10.667c0-25.754-18.349-47.298-42.669-52.254V216.1
	c0.163,0.142,0.389,0.206,0.542,0.358l51.503,51.5c6.042,6.042,14.084,9.375,22.626,9.375c8.542,0,16.584-3.333,22.626-9.375
	C515.12,255.479,515.12,235.188,502.64,222.708z M170.661,106.667h48.605c5.659,9.701,14.944,16.926,26.067,19.818v22.849h-74.671
	V106.667z M341.339,448H170.661V213.333h74.671V320h-32.002c-11.772,0-21.335,9.573-21.335,21.333v21.333
	c0,3.969,1.383,7.48,3.279,10.667c-1.896,3.186-3.279,6.698-3.279,10.667v21.333c0,11.76,9.563,21.333,21.335,21.333h85.339
	c11.772,0,21.335-9.573,21.335-21.333V384c0-3.969-1.383-7.48-3.279-10.667c1.896-3.186,3.279-6.698,3.279-10.667v-21.333
	c0-11.76-9.563-21.333-21.335-21.333h-32.002V213.333h74.671V448z M341.339,149.333h-74.671v-22.849
	c11.123-2.892,20.408-10.117,26.067-19.818h48.605V149.333z"/>
<g>
</g>
<g>
</g>
<g>
</g>
<g>
</g>
<g>
</g>
<g>
</g>
<g>
</g>
<g>
</g>
<g>
</g>
<g>
</g>
<g>
</g>
<g>
</g>
<g>
</g>
<g>
</g>
<g>
</g>
</svg>
