<?xml version="1.0" encoding="iso-8859-1"?>
<!-- Generator: Adobe Illustrator 19.0.0, SVG Export Plug-In . SVG Version: 6.00 Build 0)  -->
<svg version="1.1" id="Capa_1" xmlns="http://www.w3.org/2000/svg" xmlns:xlink="http://www.w3.org/1999/xlink" x="0px" y="0px"
	 viewBox="0 0 469.333 469.333" style="enable-background:new 0 0 469.333 469.333;" xml:space="preserve">
<path style="fill:#303C42;" d="M437.333,85.333c-17.646,0-32,14.354-32,32V128H320V32c0-17.646-14.354-32-32-32
	c-17.646,0-32,14.354-32,32v10.667H64V32C64,14.354,49.646,0,32,0S0,14.354,0,32v426.667c0,5.896,4.771,10.667,10.667,10.667h42.667
	c5.896,0,10.667-4.771,10.667-10.667v-352h42.667v65.965c-12.389,4.418-21.333,16.147-21.333,30.035c0,17.646,14.354,32,32,32
	s32-14.354,32-32c0-13.888-8.944-25.617-21.333-30.035v-65.965h64v65.965c-12.389,4.418-21.333,16.147-21.333,30.035
	c0,17.646,14.354,32,32,32s32-14.354,32-32c0-13.888-8.944-25.617-21.333-30.035v-65.965H256v352
	c0,5.896,4.771,10.667,10.667,10.667h42.667c5.896,0,10.667-4.771,10.667-10.667V192h85.333v266.667
	c0,5.896,4.771,10.667,10.667,10.667h42.667c5.896,0,10.667-4.771,10.667-10.667V117.333
	C469.333,99.688,454.979,85.333,437.333,85.333z M117.333,213.333c-5.885,0-10.667-4.781-10.667-10.667S111.448,192,117.333,192
	S128,196.781,128,202.667S123.219,213.333,117.333,213.333z M202.667,213.333c-5.885,0-10.667-4.781-10.667-10.667
	S196.781,192,202.667,192s10.667,4.781,10.667,10.667S208.552,213.333,202.667,213.333z"/>
<g>
	<path style="fill:#BDBDBD;" d="M53.333,85.333c-5.896,0-10.667,4.771-10.667,10.667v352H21.333V32
		c0-5.885,4.781-10.667,10.667-10.667S42.667,26.115,42.667,32v21.333C42.667,59.229,47.438,64,53.333,64h53.333v21.333H53.333z"/>
	<rect x="128" y="64" style="fill:#BDBDBD;" width="64" height="21.333"/>
	<path style="fill:#BDBDBD;" d="M448,448h-21.333V181.333c0-5.896-4.771-10.667-10.667-10.667H309.333
		c-5.896,0-10.667,4.771-10.667,10.667V448h-21.333V96c0-5.896-4.771-10.667-10.667-10.667h-53.333V64h53.333
		c5.896,0,10.667-4.771,10.667-10.667V32c0-5.885,4.781-10.667,10.667-10.667c5.885,0,10.667,4.781,10.667,10.667v106.667
		c0,5.896,4.771,10.667,10.667,10.667H416c5.896,0,10.667-4.771,10.667-10.667v-21.333c0-5.885,4.781-10.667,10.667-10.667
		S448,111.448,448,117.333V448z"/>
</g>
<linearGradient id="SVGID_1_" gradientUnits="userSpaceOnUse" x1="-69.5325" y1="617.6307" x2="-43.6315" y2="605.5527" gradientTransform="matrix(21.3333 0 0 -21.3333 1430.1112 13315.2227)">
	<stop  offset="0" style="stop-color:#FFFFFF;stop-opacity:0.2"/>
	<stop  offset="1" style="stop-color:#FFFFFF;stop-opacity:0"/>
</linearGradient>
<path style="fill:url(#SVGID_1_);" d="M437.333,85.333c-17.646,0-32,14.354-32,32V128H320V32c0-17.646-14.354-32-32-32
	c-17.646,0-32,14.354-32,32v10.667H64V32C64,14.354,49.646,0,32,0S0,14.354,0,32v426.667c0,5.896,4.771,10.667,10.667,10.667h42.667
	c5.896,0,10.667-4.771,10.667-10.667v-352h42.667v65.965c-12.389,4.418-21.333,16.147-21.333,30.035c0,17.646,14.354,32,32,32
	s32-14.354,32-32c0-13.888-8.944-25.617-21.333-30.035v-65.965h64v65.965c-12.389,4.418-21.333,16.147-21.333,30.035
	c0,17.646,14.354,32,32,32s32-14.354,32-32c0-13.888-8.944-25.617-21.333-30.035v-65.965H256v352
	c0,5.896,4.771,10.667,10.667,10.667h42.667c5.896,0,10.667-4.771,10.667-10.667V192h85.333v266.667
	c0,5.896,4.771,10.667,10.667,10.667h42.667c5.896,0,10.667-4.771,10.667-10.667V117.333
	C469.333,99.688,454.979,85.333,437.333,85.333z M117.333,213.333c-5.885,0-10.667-4.781-10.667-10.667S111.448,192,117.333,192
	S128,196.781,128,202.667S123.219,213.333,117.333,213.333z M202.667,213.333c-5.885,0-10.667-4.781-10.667-10.667
	S196.781,192,202.667,192s10.667,4.781,10.667,10.667S208.552,213.333,202.667,213.333z"/>
<g>
</g>
<g>
</g>
<g>
</g>
<g>
</g>
<g>
</g>
<g>
</g>
<g>
</g>
<g>
</g>
<g>
</g>
<g>
</g>
<g>
</g>
<g>
</g>
<g>
</g>
<g>
</g>
<g>
</g>
</svg>
