<?xml version="1.0" encoding="iso-8859-1"?>
<!-- Generator: Adobe Illustrator 19.0.0, SVG Export Plug-In . SVG Version: 6.00 Build 0)  -->
<svg version="1.1" id="Capa_1" xmlns="http://www.w3.org/2000/svg" xmlns:xlink="http://www.w3.org/1999/xlink" x="0px" y="0px"
	 viewBox="0 0 469.333 469.333" style="enable-background:new 0 0 469.333 469.333;" xml:space="preserve">
<path style="fill:#303C42;" d="M439.827,362.918c-6.007-6.779-14.566-10.919-23.827-10.919c-17.646,0-32,14.354-32,32h-74.667
	c-5.875,0-10.667-4.781-10.667-10.667V361.15c18.346-4.77,32-21.326,32-41.151c17.646,0,32-14.354,32-32s-14.354-32-32-32H160.438
	l-98.563-235.5C55.5,4.02,36.958-4.189,20.5,2.134C4.042,8.478-4.208,27.03,2.25,43.77l40.417,96.573v179.656H21.333
	C9.563,319.999,0,329.572,0,341.332v21.333c0,3.969,1.383,7.48,3.279,10.667C1.383,376.518,0,380.03,0,383.999v21.333
	c0,11.76,9.563,21.333,21.333,21.333h64c11.771,0,21.333-9.573,21.333-21.333v-21.333c0-3.969-1.383-7.48-3.279-10.667
	c1.896-3.186,3.279-6.698,3.279-10.667v-21.333c0-11.76-9.563-21.333-21.333-21.333H64V191.318l39.542,94.483
	c7.611,19.771,26.568,33.146,47.594,34.029c0.02,0.056,0.01,0.124,0.031,0.18l44.53,127.99H96c-5.896,0-10.667,4.771-10.667,10.667
	c0,5.896,4.771,10.667,10.667,10.667h256c5.896,0,10.667-4.771,10.667-10.667c0-5.896-4.771-10.667-10.667-10.667h-88.409
	l-44.582-128h26.324c0,19.826,13.654,36.382,32,41.151v12.182c0,17.646,14.354,32,32,32h83.057c5.4,5.97,12.859,9.628,20.975,10.315
	c5.87,6.698,14.383,11.018,23.967,11.018c17.646,0,32-14.354,32-32C469.333,377.874,456.29,364.214,439.827,362.918z"/>
<g>
	<polygon style="fill:#5C6771;" points="240.979,447.999 218.298,447.999 173.763,319.999 196.397,319.999 	"/>
	<path style="fill:#5C6771;" d="M153.313,298.665c-13.146,0-25.146-8.24-29.979-20.802L22.042,35.822
		c-2.104-5.479,0.646-11.656,6.125-13.781c1.25-0.479,2.521-0.708,3.792-0.708c4.292,0,8.396,2.667,10.125,7.125L143.5,270.78
		c1.646,3.969,5.542,6.552,9.833,6.552h177.334c5.875,0,10.667,4.781,10.667,10.667s-4.792,10.667-10.667,10.667H153.313z"/>
</g>
<path style="opacity:0.1;fill:#010101;enable-background:new    ;" d="M330.667,277.332h-0.001c0,5.885-4.792,10.667-10.667,10.667
	H142.645c-5.863,0-11.384-1.852-16.258-4.781c5.845,9.375,15.839,15.448,26.926,15.448h177.354c5.875,0,10.667-4.781,10.667-10.667
	S336.542,277.332,330.667,277.332z"/>
<g>
	<path style="fill:#5C6771;" d="M266.667,319.999h42.667c0,11.76-9.563,21.333-21.333,21.333
		C276.229,341.332,266.667,331.759,266.667,319.999z"/>
	<circle style="fill:#5C6771;" cx="437.333" cy="394.667" r="10.667"/>
</g>
<g>
	<rect x="21.333" y="384" style="fill:#BDBDBD;" width="64" height="21.333"/>
	<rect x="21.333" y="341.333" style="fill:#BDBDBD;" width="64" height="21.333"/>
</g>
<rect x="21.333" y="341.333" style="opacity:0.2;fill:#FFFFFF;enable-background:new    ;" width="16" height="21.333"/>
<rect x="69.333" y="341.333" style="opacity:0.1;fill:#010101;enable-background:new    ;" width="16" height="21.333"/>
<rect x="21.333" y="384" style="opacity:0.2;fill:#FFFFFF;enable-background:new    ;" width="16" height="21.333"/>
<rect x="69.333" y="384" style="opacity:0.1;fill:#010101;enable-background:new    ;" width="16" height="21.333"/>
<linearGradient id="SVGID_1_" gradientUnits="userSpaceOnUse" x1="-58.6624" y1="609.3801" x2="-56.8842" y2="607.6019" gradientTransform="matrix(21.3333 0 0 -21.3333 1430.1112 13315.2227)">
	<stop  offset="0" style="stop-color:#010101;stop-opacity:0.1"/>
	<stop  offset="1" style="stop-color:#010101;stop-opacity:0"/>
</linearGradient>
<polygon style="fill:url(#SVGID_1_);" points="196.397,319.999 173.763,319.999 175.415,324.747 210.148,359.481 "/>
<linearGradient id="SVGID_2_" gradientUnits="userSpaceOnUse" x1="-70.2459" y1="616.0985" x2="-45.4114" y2="604.5148" gradientTransform="matrix(21.3333 0 0 -21.3333 1430.1112 13315.2227)">
	<stop  offset="0" style="stop-color:#FFFFFF;stop-opacity:0.2"/>
	<stop  offset="1" style="stop-color:#FFFFFF;stop-opacity:0"/>
</linearGradient>
<path style="fill:url(#SVGID_2_);" d="M439.827,362.918c-6.007-6.779-14.566-10.919-23.827-10.919c-17.646,0-32,14.354-32,32
	h-74.667c-5.875,0-10.667-4.781-10.667-10.667V361.15c18.346-4.77,32-21.326,32-41.151c17.646,0,32-14.354,32-32s-14.354-32-32-32
	H160.438l-98.563-235.5C55.5,4.02,36.958-4.189,20.5,2.134C4.042,8.478-4.208,27.03,2.25,43.77l40.417,96.573v179.656H21.333
	C9.563,319.999,0,329.572,0,341.332v21.333c0,3.969,1.383,7.48,3.279,10.667C1.383,376.518,0,380.03,0,383.999v21.333
	c0,11.76,9.563,21.333,21.333,21.333h64c11.771,0,21.333-9.573,21.333-21.333v-21.333c0-3.969-1.383-7.48-3.279-10.667
	c1.896-3.186,3.279-6.698,3.279-10.667v-21.333c0-11.76-9.563-21.333-21.333-21.333H64V191.318l39.542,94.483
	c7.611,19.771,26.568,33.146,47.594,34.029c0.02,0.056,0.01,0.124,0.031,0.18l44.53,127.99H96c-5.896,0-10.667,4.771-10.667,10.667
	c0,5.896,4.771,10.667,10.667,10.667h256c5.896,0,10.667-4.771,10.667-10.667c0-5.896-4.771-10.667-10.667-10.667h-88.409
	l-44.582-128h26.324c0,19.826,13.654,36.382,32,41.151v12.182c0,17.646,14.354,32,32,32h83.057c5.4,5.97,12.859,9.628,20.975,10.315
	c5.87,6.698,14.383,11.018,23.967,11.018c17.646,0,32-14.354,32-32C469.333,377.874,456.29,364.214,439.827,362.918z"/>
<g>
</g>
<g>
</g>
<g>
</g>
<g>
</g>
<g>
</g>
<g>
</g>
<g>
</g>
<g>
</g>
<g>
</g>
<g>
</g>
<g>
</g>
<g>
</g>
<g>
</g>
<g>
</g>
<g>
</g>
</svg>
