<?xml version="1.0" encoding="iso-8859-1"?>
<!-- Generator: Adobe Illustrator 19.0.0, SVG Export Plug-In . SVG Version: 6.00 Build 0)  -->
<svg version="1.1" id="Capa_1" xmlns="http://www.w3.org/2000/svg" xmlns:xlink="http://www.w3.org/1999/xlink" x="0px" y="0px"
	 viewBox="0 0 480 480" style="enable-background:new 0 0 480 480;" xml:space="preserve">
<g>
	<polyline style="fill:#FAC05E;" points="228,328 132,472 68,472 180,304 	"/>
	<circle style="fill:#FAC05E;" cx="236" cy="64" r="56"/>
	<path style="fill:#FAC05E;" d="M264.736,112c-8.408,5.048-18.216,8-28.736,8s-20.328-2.952-28.736-8H12c0,26.512,21.488,48,48,48
		h104v104c0,35.344,28.656,64,64,64h112v144h56V304c0-17.672-14.328-32-32-32h-64V160h120c26.512,0,48-21.488,48-48H264.736z"/>
</g>
<g>
	<path style="fill:#0F272A;" d="M468,104H285.88C294.696,93.032,300,79.128,300,64c0-35.288-28.712-64-64-64s-64,28.712-64,64
		c0,15.128,5.304,29.032,14.12,40H12c-4.416,0-8,3.584-8,8c0,30.88,25.12,56,56,56h96v96c0,15.496,4.968,29.824,13.328,41.584
		L61.344,467.56c-1.64,2.456-1.792,5.608-0.4,8.208C62.336,478.376,65.048,480,68,480h64c2.672,0,5.168-1.336,6.656-3.56L232.28,336
		H332v136c0,4.416,3.584,8,8,8h56c4.416,0,8-3.584,8-8V304c0-22.056-17.944-40-40-40h-56v-96h112c30.88,0,56-25.12,56-56
		C476,107.584,472.416,104,468,104z M236,16c26.472,0,48,21.528,48,48c0,17.504-9.448,32.808-23.48,41.192
		c-14.896,8.896-34.136,8.896-49.032,0C197.448,96.808,188,81.504,188,64C188,37.528,209.528,16,236,16z M127.72,464H82.952
		l97.432-146.144c9.368,8.296,20.864,14.224,33.6,16.752L127.72,464z M420,152H300c-4.416,0-8,3.584-8,8v104h-48v16h56h8h56
		c13.232,0,24,10.768,24,24v160h-40V328c0-4.416-3.584-8-8-8H228c-30.88,0-56-25.12-56-56V160c0-4.416-3.584-8-8-8H60
		c-19.32,0-35.48-13.768-39.192-32h184.28c9.176,5.088,19.704,8,30.912,8s21.744-2.912,30.912-8h192.28
		C455.48,138.232,439.32,152,420,152z"/>
	<rect x="300" y="464" style="fill:#0F272A;" width="16" height="16"/>
	<rect x="268" y="464" style="fill:#0F272A;" width="16" height="16"/>
	<rect x="236" y="464" style="fill:#0F272A;" width="16" height="16"/>
</g>
<g>
</g>
<g>
</g>
<g>
</g>
<g>
</g>
<g>
</g>
<g>
</g>
<g>
</g>
<g>
</g>
<g>
</g>
<g>
</g>
<g>
</g>
<g>
</g>
<g>
</g>
<g>
</g>
<g>
</g>
</svg>
