<?xml version="1.0" encoding="iso-8859-1"?>
<!-- Generator: Adobe Illustrator 19.0.0, SVG Export Plug-In . SVG Version: 6.00 Build 0)  -->
<svg version="1.1" id="Capa_1" xmlns="http://www.w3.org/2000/svg" xmlns:xlink="http://www.w3.org/1999/xlink" x="0px" y="0px"
	 viewBox="0 0 480 480" style="enable-background:new 0 0 480 480;" xml:space="preserve">
<g>
	<g>
		<path d="M96,40C78.352,40,64,25.648,64,8c0-4.416-3.584-8-8-8s-8,3.584-8,8c0,17.648-14.352,32-32,32c-4.416,0-8,3.584-8,8
			s3.584,8,8,8c17.648,0,32,14.352,32,32c0,4.416,3.584,8,8,8s8-3.584,8-8c0-17.648,14.352-32,32-32c4.416,0,8-3.584,8-8
			S100.416,40,96,40z M56,61.496C52.448,56.152,47.848,51.552,42.504,48c5.344-3.552,9.944-8.152,13.496-13.496
			c3.552,5.344,8.152,9.944,13.496,13.496C64.152,51.552,59.552,56.152,56,61.496z"/>
	</g>
</g>
<g>
	<g>
		<path d="M456,384c-2.024,0-3.992-0.24-5.92-0.6c-0.704-0.136-1.376-0.352-2.064-0.528c-1.144-0.296-2.264-0.632-3.36-1.048
			c-0.92-0.36-1.824-0.768-2.704-1.216c-0.68-0.336-1.344-0.704-1.992-1.088c-1.136-0.68-2.264-1.392-3.32-2.224
			c-0.072-0.056-0.144-0.12-0.216-0.176C459.712,340.968,472,299.24,472,256c0-120.832-96.184-219.56-216-223.8V0h-16v32.2
			C120.184,36.44,24,135.168,24,256c0,123.512,100.488,224,224,224c58.92,0,113.928-22.4,155.944-63.28
			c0.336,0.616,0.712,1.216,1.008,1.856c0.216,0.464,0.464,0.912,0.656,1.392c0.656,1.608,1.168,3.28,1.552,5
			c0.104,0.448,0.176,0.896,0.256,1.344C407.76,428.168,408,430.056,408,432c0,4.416,3.584,8,8,8c4.416,0,8-3.584,8-8
			c0-17.648,14.352-32,32-32c4.416,0,8-3.584,8-8C464,387.584,460.416,384,456,384z M424.32,396.232
			c-0.72,0.64-1.552,1.144-2.224,1.824c-2.264,2.264-4.312,4.752-6.088,7.432c-0.632-0.944-1.456-1.728-2.152-2.624
			c-1.04-1.352-2.008-2.744-3.2-3.992c-0.048-0.048-0.112-0.064-0.16-0.112c-2.424-2.512-5.064-4.824-7.976-6.76
			c5.344-3.552,9.936-8.152,13.496-13.496c1.096,1.64,2.456,3.072,3.736,4.56c0.096,0.16,0.152,0.336,0.28,0.48
			c0.168,0.192,0.36,0.344,0.528,0.528c1.072,1.184,2.184,2.296,3.368,3.368c0.912,0.832,1.88,1.576,2.848,2.328
			c0.928,0.72,1.736,1.576,2.72,2.224C427.632,393.232,425.992,394.752,424.32,396.232z M426.136,363.2
			c-1.32-3.496-2.136-7.248-2.136-11.2c0-4.416-3.584-8-8-8c-4.416,0-8,3.584-8,8c0,17.648-14.352,32-32,32c-4.416,0-8,3.584-8,8
			c0,4.416,3.584,8,8,8c6.256,0,12.056,1.872,16.992,4.992C353.952,443.088,302.808,464,248,464c-114.688,0-208-93.312-208-208
			S133.312,48,248,48s208,93.312,208,208C456,294.088,445.656,330.864,426.136,363.2z"/>
	</g>
</g>
<g>
	<g>
		<path d="M248,80c-22.056,0-40,17.944-40,40v16c0,22.056,17.944,40,40,40c22.056,0,40-17.944,40-40v-16
			C288,97.944,270.056,80,248,80z M272,136c0,13.232-10.768,24-24,24s-24-10.768-24-24v-16c0-13.232,10.768-24,24-24
			s24,10.768,24,24V136z"/>
	</g>
</g>
<g>
	<g>
		<path d="M200,224h-26.744l17.368-17.376c6.048-6.04,9.376-14.08,9.376-22.624s-3.328-16.584-9.368-22.624
			c-12.088-12.096-33.176-12.096-45.256,0l-72,72c-9.184,9.184-11.912,22.872-6.936,34.872C71.408,280.248,83.008,288,96,288h104
			c17.648,0,32-14.352,32-32S217.648,224,200,224z M200,272H96c-6.496,0-12.296-3.88-14.784-9.88s-1.128-12.84,3.472-17.432l72-72
			c3.024-3.024,7.04-4.688,11.312-4.688c4.272,0,8.288,1.664,11.312,4.688S184,179.728,184,184c0,4.272-1.664,8.288-4.688,11.312
			l-31.024,31.032c-2.288,2.288-2.976,5.728-1.736,8.72s4.152,4.936,7.392,4.936H200c8.824,0,16,7.176,16,16
			C216,264.824,208.824,272,200,272z"/>
	</g>
</g>
<g>
	<g>
		<path d="M422.624,233.376l-72-72c-12.088-12.096-33.176-12.096-45.256,0c-6.04,6.04-9.368,14.08-9.368,22.624
			s3.328,16.584,9.376,22.624L322.744,224H296c-17.648,0-32,14.352-32,32v136c0,17.648,14.352,32,32,32s32-14.352,32-32V288h72
			c12.992,0,24.592-7.752,29.56-19.752C434.536,256.248,431.808,242.56,422.624,233.376z M414.784,262.12
			c-2.48,6-8.288,9.88-14.784,9.88h-80c-4.416,0-8,3.584-8,8v112c0,8.824-7.176,16-16,16c-8.824,0-16-7.176-16-16V256
			c0-8.824,7.176-16,16-16h46.056c3.232,0,6.152-1.952,7.392-4.936s0.552-6.432-1.736-8.72l-31.024-31.032
			C313.664,192.288,312,188.272,312,184c0-4.272,1.664-8.288,4.688-11.312c6.04-6.048,16.576-6.048,22.624,0l72,72
			C415.904,249.272,417.264,256.12,414.784,262.12z"/>
	</g>
</g>
<g>
	<g>
		<rect x="88" y="304" width="16" height="16"/>
	</g>
</g>
<g>
	<g>
		<rect x="120" y="304" width="16" height="16"/>
	</g>
</g>
<g>
	<g>
		<rect x="152" y="304" width="16" height="16"/>
	</g>
</g>
<g>
	<g>
		<rect x="184" y="304" width="16" height="16"/>
	</g>
</g>
<g>
	<g>
		<rect x="120" y="336" width="16" height="16"/>
	</g>
</g>
<g>
	<g>
		<rect x="152" y="336" width="16" height="16"/>
	</g>
</g>
<g>
	<g>
		<rect x="184" y="336" width="16" height="16"/>
	</g>
</g>
<g>
	<g>
		<rect x="152" y="368" width="16" height="16"/>
	</g>
</g>
<g>
	<g>
		<rect x="184" y="368" width="16" height="16"/>
	</g>
</g>
<g>
	<g>
		<rect x="184" y="400" width="16" height="16"/>
	</g>
</g>
<g>
</g>
<g>
</g>
<g>
</g>
<g>
</g>
<g>
</g>
<g>
</g>
<g>
</g>
<g>
</g>
<g>
</g>
<g>
</g>
<g>
</g>
<g>
</g>
<g>
</g>
<g>
</g>
<g>
</g>
</svg>
