<?xml version="1.0" encoding="iso-8859-1"?>
<!-- Generator: Adobe Illustrator 19.0.0, SVG Export Plug-In . SVG Version: 6.00 Build 0)  -->
<svg version="1.1" id="Capa_1" xmlns="http://www.w3.org/2000/svg" xmlns:xlink="http://www.w3.org/1999/xlink" x="0px" y="0px"
	 viewBox="0 0 480 480" style="enable-background:new 0 0 480 480;" xml:space="preserve">
<g>
	<g>
		<path d="M440,0H40C17.944,0,0,17.944,0,40v400c0,22.056,17.944,40,40,40h400c22.056,0,40-17.944,40-40V40
			C480,17.944,462.056,0,440,0z M464,440c0,13.232-10.768,24-24,24H40c-13.232,0-24-10.768-24-24V112h96v48c0,4.424,3.584,8,8,8h240
			c4.416,0,8-3.576,8-8v-48h96V440z M128,152V56h224v96H128z M464,96h-96V48c0-4.424-3.584-8-8-8H120c-4.416,0-8,3.576-8,8v48H16V40
			c0-13.232,10.768-24,24-24h400c13.232,0,24,10.768,24,24V96z"/>
	</g>
</g>
<g>
	<g>
		<path d="M184,72h-32c-4.416,0-8,3.576-8,8v48c0,4.424,3.584,8,8,8h32c4.416,0,8-3.576,8-8V80C192,75.576,188.416,72,184,72z
			 M176,120h-16V88h16V120z"/>
	</g>
</g>
<g>
	<g>
		<path d="M248,72h-32c-4.416,0-8,3.576-8,8v48c0,4.424,3.584,8,8,8h32c4.416,0,8-3.576,8-8V80C256,75.576,252.416,72,248,72z
			 M240,120h-16V88h16V120z"/>
	</g>
</g>
<g>
	<g>
		<path d="M328,72h-32c-4.416,0-8,3.576-8,8v48c0,4.424,3.584,8,8,8h32c4.416,0,8-3.576,8-8V80C336,75.576,332.416,72,328,72z
			 M320,120h-16V88h16V120z"/>
	</g>
</g>
<g>
	<g>
		<rect x="48" y="208" width="16" height="16"/>
	</g>
</g>
<g>
	<g>
		<rect x="80" y="208" width="16" height="16"/>
	</g>
</g>
<g>
	<g>
		<rect x="112" y="208" width="16" height="16"/>
	</g>
</g>
<g>
	<g>
		<rect x="144" y="208" width="16" height="16"/>
	</g>
</g>
<g>
	<g>
		<rect x="176" y="208" width="16" height="16"/>
	</g>
</g>
<g>
	<g>
		<rect x="208" y="208" width="16" height="16"/>
	</g>
</g>
<g>
	<g>
		<rect x="64" y="224" width="16" height="16"/>
	</g>
</g>
<g>
	<g>
		<rect x="96" y="224" width="16" height="16"/>
	</g>
</g>
<g>
	<g>
		<rect x="128" y="224" width="16" height="16"/>
	</g>
</g>
<g>
	<g>
		<rect x="160" y="224" width="16" height="16"/>
	</g>
</g>
<g>
	<g>
		<rect x="192" y="224" width="16" height="16"/>
	</g>
</g>
<g>
	<g>
		<rect x="48" y="240" width="16" height="16"/>
	</g>
</g>
<g>
	<g>
		<rect x="80" y="240" width="16" height="16"/>
	</g>
</g>
<g>
	<g>
		<rect x="112" y="240" width="16" height="16"/>
	</g>
</g>
<g>
	<g>
		<rect x="144" y="240" width="16" height="16"/>
	</g>
</g>
<g>
	<g>
		<rect x="176" y="240" width="16" height="16"/>
	</g>
</g>
<g>
	<g>
		<rect x="208" y="240" width="16" height="16"/>
	</g>
</g>
<g>
	<g>
		<rect x="64" y="256" width="16" height="16"/>
	</g>
</g>
<g>
	<g>
		<rect x="96" y="256" width="16" height="16"/>
	</g>
</g>
<g>
	<g>
		<rect x="128" y="256" width="16" height="16"/>
	</g>
</g>
<g>
	<g>
		<rect x="160" y="256" width="16" height="16"/>
	</g>
</g>
<g>
	<g>
		<rect x="192" y="256" width="16" height="16"/>
	</g>
</g>
<g>
	<g>
		<rect x="48" y="272" width="16" height="16"/>
	</g>
</g>
<g>
	<g>
		<rect x="80" y="272" width="16" height="16"/>
	</g>
</g>
<g>
	<g>
		<rect x="112" y="272" width="16" height="16"/>
	</g>
</g>
<g>
	<g>
		<rect x="144" y="272" width="16" height="16"/>
	</g>
</g>
<g>
	<g>
		<rect x="176" y="272" width="16" height="16"/>
	</g>
</g>
<g>
	<g>
		<rect x="208" y="272" width="16" height="16"/>
	</g>
</g>
<g>
	<g>
		<rect x="64" y="288" width="16" height="16"/>
	</g>
</g>
<g>
	<g>
		<rect x="96" y="288" width="16" height="16"/>
	</g>
</g>
<g>
	<g>
		<rect x="128" y="288" width="16" height="16"/>
	</g>
</g>
<g>
	<g>
		<rect x="160" y="288" width="16" height="16"/>
	</g>
</g>
<g>
	<g>
		<rect x="192" y="288" width="16" height="16"/>
	</g>
</g>
<g>
	<g>
		<rect x="48" y="304" width="16" height="16"/>
	</g>
</g>
<g>
	<g>
		<rect x="80" y="304" width="16" height="16"/>
	</g>
</g>
<g>
	<g>
		<rect x="112" y="304" width="16" height="16"/>
	</g>
</g>
<g>
	<g>
		<rect x="144" y="304" width="16" height="16"/>
	</g>
</g>
<g>
	<g>
		<rect x="176" y="304" width="16" height="16"/>
	</g>
</g>
<g>
	<g>
		<rect x="208" y="304" width="16" height="16"/>
	</g>
</g>
<g>
	<g>
		<rect x="64" y="320" width="16" height="16"/>
	</g>
</g>
<g>
	<g>
		<rect x="96" y="320" width="16" height="16"/>
	</g>
</g>
<g>
	<g>
		<rect x="128" y="320" width="16" height="16"/>
	</g>
</g>
<g>
	<g>
		<rect x="160" y="320" width="16" height="16"/>
	</g>
</g>
<g>
	<g>
		<rect x="192" y="320" width="16" height="16"/>
	</g>
</g>
<g>
	<g>
		<rect x="48" y="336" width="16" height="16"/>
	</g>
</g>
<g>
	<g>
		<rect x="80" y="336" width="16" height="16"/>
	</g>
</g>
<g>
	<g>
		<rect x="112" y="336" width="16" height="16"/>
	</g>
</g>
<g>
	<g>
		<rect x="144" y="336" width="16" height="16"/>
	</g>
</g>
<g>
	<g>
		<rect x="176" y="336" width="16" height="16"/>
	</g>
</g>
<g>
	<g>
		<rect x="208" y="336" width="16" height="16"/>
	</g>
</g>
<g>
	<g>
		<rect x="64" y="352" width="16" height="16"/>
	</g>
</g>
<g>
	<g>
		<rect x="96" y="352" width="16" height="16"/>
	</g>
</g>
<g>
	<g>
		<rect x="128" y="352" width="16" height="16"/>
	</g>
</g>
<g>
	<g>
		<rect x="160" y="352" width="16" height="16"/>
	</g>
</g>
<g>
	<g>
		<rect x="192" y="352" width="16" height="16"/>
	</g>
</g>
<g>
	<g>
		<rect x="48" y="368" width="16" height="16"/>
	</g>
</g>
<g>
	<g>
		<rect x="80" y="368" width="16" height="16"/>
	</g>
</g>
<g>
	<g>
		<rect x="112" y="368" width="16" height="16"/>
	</g>
</g>
<g>
	<g>
		<rect x="144" y="368" width="16" height="16"/>
	</g>
</g>
<g>
	<g>
		<rect x="176" y="368" width="16" height="16"/>
	</g>
</g>
<g>
	<g>
		<rect x="208" y="368" width="16" height="16"/>
	</g>
</g>
<g>
	<g>
		<rect x="64" y="384" width="16" height="16"/>
	</g>
</g>
<g>
	<g>
		<rect x="96" y="384" width="16" height="16"/>
	</g>
</g>
<g>
	<g>
		<rect x="128" y="384" width="16" height="16"/>
	</g>
</g>
<g>
	<g>
		<rect x="160" y="384" width="16" height="16"/>
	</g>
</g>
<g>
	<g>
		<rect x="192" y="384" width="16" height="16"/>
	</g>
</g>
<g>
	<g>
		<rect x="48" y="400" width="16" height="16"/>
	</g>
</g>
<g>
	<g>
		<rect x="80" y="400" width="16" height="16"/>
	</g>
</g>
<g>
	<g>
		<rect x="112" y="400" width="16" height="16"/>
	</g>
</g>
<g>
	<g>
		<rect x="144" y="400" width="16" height="16"/>
	</g>
</g>
<g>
	<g>
		<rect x="176" y="400" width="16" height="16"/>
	</g>
</g>
<g>
	<g>
		<rect x="208" y="400" width="16" height="16"/>
	</g>
</g>
<g>
	<g>
		<rect x="256" y="208" width="16" height="16"/>
	</g>
</g>
<g>
	<g>
		<rect x="288" y="208" width="16" height="16"/>
	</g>
</g>
<g>
	<g>
		<rect x="320" y="208" width="16" height="16"/>
	</g>
</g>
<g>
	<g>
		<rect x="352" y="208" width="16" height="16"/>
	</g>
</g>
<g>
	<g>
		<rect x="384" y="208" width="16" height="16"/>
	</g>
</g>
<g>
	<g>
		<rect x="416" y="208" width="16" height="16"/>
	</g>
</g>
<g>
	<g>
		<rect x="272" y="224" width="16" height="16"/>
	</g>
</g>
<g>
	<g>
		<rect x="304" y="224" width="16" height="16"/>
	</g>
</g>
<g>
	<g>
		<rect x="336" y="224" width="16" height="16"/>
	</g>
</g>
<g>
	<g>
		<rect x="368" y="224" width="16" height="16"/>
	</g>
</g>
<g>
	<g>
		<rect x="400" y="224" width="16" height="16"/>
	</g>
</g>
<g>
	<g>
		<rect x="256" y="240" width="16" height="16"/>
	</g>
</g>
<g>
	<g>
		<rect x="288" y="240" width="16" height="16"/>
	</g>
</g>
<g>
	<g>
		<rect x="320" y="240" width="16" height="16"/>
	</g>
</g>
<g>
	<g>
		<rect x="352" y="240" width="16" height="16"/>
	</g>
</g>
<g>
	<g>
		<rect x="384" y="240" width="16" height="16"/>
	</g>
</g>
<g>
	<g>
		<rect x="416" y="240" width="16" height="16"/>
	</g>
</g>
<g>
	<g>
		<rect x="272" y="256" width="16" height="16"/>
	</g>
</g>
<g>
	<g>
		<rect x="304" y="256" width="16" height="16"/>
	</g>
</g>
<g>
	<g>
		<rect x="336" y="256" width="16" height="16"/>
	</g>
</g>
<g>
	<g>
		<rect x="368" y="256" width="16" height="16"/>
	</g>
</g>
<g>
	<g>
		<rect x="400" y="256" width="16" height="16"/>
	</g>
</g>
<g>
	<g>
		<rect x="256" y="272" width="16" height="16"/>
	</g>
</g>
<g>
	<g>
		<rect x="288" y="272" width="16" height="16"/>
	</g>
</g>
<g>
	<g>
		<rect x="320" y="272" width="16" height="16"/>
	</g>
</g>
<g>
	<g>
		<rect x="352" y="272" width="16" height="16"/>
	</g>
</g>
<g>
	<g>
		<rect x="384" y="272" width="16" height="16"/>
	</g>
</g>
<g>
	<g>
		<rect x="416" y="272" width="16" height="16"/>
	</g>
</g>
<g>
	<g>
		<rect x="272" y="288" width="16" height="16"/>
	</g>
</g>
<g>
	<g>
		<rect x="304" y="288" width="16" height="16"/>
	</g>
</g>
<g>
	<g>
		<rect x="336" y="288" width="16" height="16"/>
	</g>
</g>
<g>
	<g>
		<rect x="368" y="288" width="16" height="16"/>
	</g>
</g>
<g>
	<g>
		<rect x="400" y="288" width="16" height="16"/>
	</g>
</g>
<g>
	<g>
		<rect x="256" y="304" width="16" height="16"/>
	</g>
</g>
<g>
	<g>
		<rect x="288" y="304" width="16" height="16"/>
	</g>
</g>
<g>
	<g>
		<rect x="320" y="304" width="16" height="16"/>
	</g>
</g>
<g>
	<g>
		<rect x="352" y="304" width="16" height="16"/>
	</g>
</g>
<g>
	<g>
		<rect x="384" y="304" width="16" height="16"/>
	</g>
</g>
<g>
	<g>
		<rect x="416" y="304" width="16" height="16"/>
	</g>
</g>
<g>
	<g>
		<rect x="272" y="320" width="16" height="16"/>
	</g>
</g>
<g>
	<g>
		<rect x="304" y="320" width="16" height="16"/>
	</g>
</g>
<g>
	<g>
		<rect x="336" y="320" width="16" height="16"/>
	</g>
</g>
<g>
	<g>
		<rect x="368" y="320" width="16" height="16"/>
	</g>
</g>
<g>
	<g>
		<rect x="400" y="320" width="16" height="16"/>
	</g>
</g>
<g>
	<g>
		<rect x="256" y="336" width="16" height="16"/>
	</g>
</g>
<g>
	<g>
		<rect x="288" y="336" width="16" height="16"/>
	</g>
</g>
<g>
	<g>
		<rect x="320" y="336" width="16" height="16"/>
	</g>
</g>
<g>
	<g>
		<rect x="352" y="336" width="16" height="16"/>
	</g>
</g>
<g>
	<g>
		<rect x="384" y="336" width="16" height="16"/>
	</g>
</g>
<g>
	<g>
		<rect x="416" y="336" width="16" height="16"/>
	</g>
</g>
<g>
	<g>
		<rect x="272" y="352" width="16" height="16"/>
	</g>
</g>
<g>
	<g>
		<rect x="304" y="352" width="16" height="16"/>
	</g>
</g>
<g>
	<g>
		<rect x="336" y="352" width="16" height="16"/>
	</g>
</g>
<g>
	<g>
		<rect x="368" y="352" width="16" height="16"/>
	</g>
</g>
<g>
	<g>
		<rect x="400" y="352" width="16" height="16"/>
	</g>
</g>
<g>
	<g>
		<rect x="256" y="368" width="16" height="16"/>
	</g>
</g>
<g>
	<g>
		<rect x="288" y="368" width="16" height="16"/>
	</g>
</g>
<g>
	<g>
		<rect x="320" y="368" width="16" height="16"/>
	</g>
</g>
<g>
	<g>
		<rect x="352" y="368" width="16" height="16"/>
	</g>
</g>
<g>
	<g>
		<rect x="384" y="368" width="16" height="16"/>
	</g>
</g>
<g>
	<g>
		<rect x="416" y="368" width="16" height="16"/>
	</g>
</g>
<g>
	<g>
		<rect x="272" y="384" width="16" height="16"/>
	</g>
</g>
<g>
	<g>
		<rect x="304" y="384" width="16" height="16"/>
	</g>
</g>
<g>
	<g>
		<rect x="336" y="384" width="16" height="16"/>
	</g>
</g>
<g>
	<g>
		<rect x="368" y="384" width="16" height="16"/>
	</g>
</g>
<g>
	<g>
		<rect x="400" y="384" width="16" height="16"/>
	</g>
</g>
<g>
	<g>
		<rect x="256" y="400" width="16" height="16"/>
	</g>
</g>
<g>
	<g>
		<rect x="288" y="400" width="16" height="16"/>
	</g>
</g>
<g>
	<g>
		<rect x="320" y="400" width="16" height="16"/>
	</g>
</g>
<g>
	<g>
		<rect x="352" y="400" width="16" height="16"/>
	</g>
</g>
<g>
	<g>
		<rect x="384" y="400" width="16" height="16"/>
	</g>
</g>
<g>
	<g>
		<rect x="416" y="400" width="16" height="16"/>
	</g>
</g>
<g>
</g>
<g>
</g>
<g>
</g>
<g>
</g>
<g>
</g>
<g>
</g>
<g>
</g>
<g>
</g>
<g>
</g>
<g>
</g>
<g>
</g>
<g>
</g>
<g>
</g>
<g>
</g>
<g>
</g>
</svg>
