<?xml version="1.0" encoding="iso-8859-1"?>
<!-- Generator: Adobe Illustrator 19.0.0, SVG Export Plug-In . SVG Version: 6.00 Build 0)  -->
<svg version="1.1" id="Capa_1" xmlns="http://www.w3.org/2000/svg" xmlns:xlink="http://www.w3.org/1999/xlink" x="0px" y="0px"
	 viewBox="0 0 480 480" style="enable-background:new 0 0 480 480;" xml:space="preserve">
<g>
	<g>
		<path d="M416,0H128c-19.568,0-35.832,14.144-39.264,32.736c-16.224,3-29,15.776-32,32C38.144,68.168,24,84.432,24,104v336
			c0,22.056,17.944,40,40,40h288c19.568,0,35.832-14.144,39.264-32.736c16.224-3,29-15.776,32-32
			C441.856,411.832,456,395.568,456,376V40C456,17.944,438.056,0,416,0z M376,440c0,13.232-10.768,24-24,24H64
			c-13.232,0-24-10.768-24-24V104c0-13.232,10.768-24,24-24h256v48c0,4.424,3.584,8,8,8h48V440z M336,120V91.312L364.688,120H336z
			 M408,408c0,10.416-6.712,19.216-16,22.528V128c0-2.216-0.896-4.216-2.352-5.664l-55.984-55.984C332.216,64.896,330.216,64,328,64
			H73.472C76.784,54.712,85.584,48,96,48h288c13.232,0,24,10.768,24,24V408z M440,376c0,10.416-6.712,19.216-16,22.528V72
			c0-22.056-17.944-40-40-40H105.472c3.312-9.288,12.112-16,22.528-16h288c13.232,0,24,10.768,24,24V376z"/>
	</g>
</g>
<g>
	<g>
		<path d="M336,168H80c-4.416,0-8,3.576-8,8v256c0,4.424,3.584,8,8,8h256c4.416,0,8-3.576,8-8V176C344,171.576,340.416,168,336,168z
			 M136,424H88v-24h48V424z M136,384H88v-24h48V384z M136,344H88v-24h48V344z M136,304H88v-24h48V304z M136,264H88v-24h48V264z
			 M136,224H88v-40h48V224z M184,424h-32v-24h32V424z M184,384h-32v-24h32V384z M184,344h-32v-24h32V344z M184,304h-32v-24h32V304z
			 M184,264h-32v-24h32V264z M184,224h-32v-40h32V224z M232,424h-32v-24h32V424z M232,384h-32v-24h32V384z M232,344h-32v-24h32V344z
			 M232,304h-32v-24h32V304z M232,264h-32v-24h32V264z M232,224h-32v-40h32V224z M280,424h-32v-24h32V424z M280,384h-32v-24h32V384z
			 M280,344h-32v-24h32V344z M280,304h-32v-24h32V304z M280,264h-32v-24h32V264z M280,224h-32v-40h32V224z M328,424h-32v-24h32V424z
			 M328,384h-32v-24h32V384z M328,344h-32v-24h32V344z M328,304h-32v-24h32V304z M328,264h-32v-24h32V264z M328,224h-32v-40h32V224z
			"/>
	</g>
</g>
<g>
	<g>
		<rect x="120" y="136" width="176" height="16"/>
	</g>
</g>
<g>
	<g>
		<rect x="144" y="104" width="128" height="16"/>
	</g>
</g>
<g>
</g>
<g>
</g>
<g>
</g>
<g>
</g>
<g>
</g>
<g>
</g>
<g>
</g>
<g>
</g>
<g>
</g>
<g>
</g>
<g>
</g>
<g>
</g>
<g>
</g>
<g>
</g>
<g>
</g>
</svg>
