<?xml version="1.0" encoding="iso-8859-1"?>
<!-- Generator: Adobe Illustrator 19.0.0, SVG Export Plug-In . SVG Version: 6.00 Build 0)  -->
<svg version="1.1" id="Capa_1" xmlns="http://www.w3.org/2000/svg" xmlns:xlink="http://www.w3.org/1999/xlink" x="0px" y="0px"
	 viewBox="0 0 512 512" style="enable-background:new 0 0 512 512;" xml:space="preserve">
<g>
	<g>
		<path d="M512,117.333V10.667C512,4.771,507.229,0,501.333,0H10.667C4.771,0,0,4.771,0,10.667v106.667
			C0,123.229,4.771,128,10.667,128h174.13L7.021,192.646l0.03,0.083C2.956,194.219,0,198.053,0,202.667v106.667
			C0,315.229,4.771,320,10.667,320h174.13L7.021,384.646l0.03,0.083C2.956,386.219,0,390.053,0,394.667v106.667
			C0,507.229,4.771,512,10.667,512h490.667c5.896,0,10.667-4.771,10.667-10.667V394.667c0-5.896-4.771-10.667-10.667-10.667H311.052
			l193.656-64.552l-0.04-0.12c4.233-1.413,7.332-5.283,7.332-9.995V202.667c0-5.896-4.771-10.667-10.667-10.667H311.052
			l193.656-64.552l-0.04-0.12C508.901,125.915,512,122.046,512,117.333z M64,106.667H21.333V21.333H64V106.667z M448,405.333h42.667
			v85.333H448V405.333z M320,416v-10.667h42.667v32c0,5.896,4.771,10.667,10.667,10.667c5.896,0,10.667-4.771,10.667-10.667v-32
			h42.667v85.333H21.333v-85.333h21.333V416c0,5.896,4.771,10.667,10.667,10.667C59.229,426.667,64,421.896,64,416v-10.667h42.667
			v32c0,5.896,4.771,10.667,10.667,10.667c5.896,0,10.667-4.771,10.667-10.667v-32h42.667V416c0,5.896,4.771,10.667,10.667,10.667
			c5.896,0,10.667-4.771,10.667-10.667v-10.667h42.667v32c0,5.896,4.771,10.667,10.667,10.667c5.896,0,10.667-4.771,10.667-10.667
			v-32h42.667V416c0,5.896,4.771,10.667,10.667,10.667C315.229,426.667,320,421.896,320,416z M243.615,384H71.203l176-64h188.411
			L243.615,384z M320,213.333V224c0,5.896,4.771,10.667,10.667,10.667c5.896,0,10.667-4.771,10.667-10.667v-10.667H384v32
			c0,5.896,4.771,10.667,10.667,10.667s10.667-4.771,10.667-10.667v-32H448V224c0,5.896,4.771,10.667,10.667,10.667
			s10.667-4.771,10.667-10.667v-10.667h21.333v85.333H21.333v-85.333H64V224c0,5.896,4.771,10.667,10.667,10.667
			c5.896,0,10.667-4.771,10.667-10.667v-10.667H128v32c0,5.896,4.771,10.667,10.667,10.667c5.896,0,10.667-4.771,10.667-10.667v-32
			H192V224c0,5.896,4.771,10.667,10.667,10.667c5.896,0,10.667-4.771,10.667-10.667v-10.667H256v32
			c0,5.896,4.771,10.667,10.667,10.667c5.896,0,10.667-4.771,10.667-10.667v-32H320z M243.615,192H71.203l176-64h188.411
			L243.615,192z M490.667,106.667H85.333V21.333H128V32c0,5.896,4.771,10.667,10.667,10.667c5.896,0,10.667-4.771,10.667-10.667
			V21.333H192v32C192,59.229,196.771,64,202.667,64c5.896,0,10.667-4.771,10.667-10.667v-32H256V32
			c0,5.896,4.771,10.667,10.667,10.667c5.896,0,10.667-4.771,10.667-10.667V21.333H320v32C320,59.229,324.771,64,330.667,64
			c5.896,0,10.667-4.771,10.667-10.667v-32H384V32c0,5.896,4.771,10.667,10.667,10.667S405.333,37.896,405.333,32V21.333H448v32
			C448,59.229,452.771,64,458.667,64s10.667-4.771,10.667-10.667v-32h21.333V106.667z"/>
	</g>
</g>
<g>
</g>
<g>
</g>
<g>
</g>
<g>
</g>
<g>
</g>
<g>
</g>
<g>
</g>
<g>
</g>
<g>
</g>
<g>
</g>
<g>
</g>
<g>
</g>
<g>
</g>
<g>
</g>
<g>
</g>
</svg>
