<?xml version="1.0" encoding="iso-8859-1"?>
<!-- Generator: Adobe Illustrator 19.0.0, SVG Export Plug-In . SVG Version: 6.00 Build 0)  -->
<svg version="1.1" id="Capa_1" xmlns="http://www.w3.org/2000/svg" xmlns:xlink="http://www.w3.org/1999/xlink" x="0px" y="0px"
	 viewBox="0 0 480 480" style="enable-background:new 0 0 480 480;" xml:space="preserve">
<g>
	<g>
		<path d="M360,0H120C97.944,0,80,17.944,80,40v400c0,22.056,17.944,40,40,40h240c22.056,0,40-17.944,40-40V40
			C400,17.944,382.056,0,360,0z M384,440c0,13.232-10.768,24-24,24H120c-13.232,0-24-10.768-24-24v-8h288V440z M384,416H96V64h288
			V416z M384,48H96v-8c0-13.232,10.768-24,24-24h240c13.232,0,24,10.768,24,24V48z"/>
	</g>
</g>
<g>
	<g>
		<rect x="160" y="280" width="112" height="16"/>
	</g>
</g>
<g>
	<g>
		<rect x="160" y="312" width="72" height="16"/>
	</g>
</g>
<g>
	<g>
		<rect x="160" y="344" width="152" height="16"/>
	</g>
</g>
<g>
	<g>
		<rect x="160" y="376" width="176" height="16"/>
	</g>
</g>
<g>
	<g>
		<rect x="112" y="280" width="32" height="16"/>
	</g>
</g>
<g>
	<g>
		<rect x="112" y="312" width="32" height="16"/>
	</g>
</g>
<g>
	<g>
		<rect x="112" y="344" width="32" height="16"/>
	</g>
</g>
<g>
	<g>
		<rect x="112" y="376" width="32" height="16"/>
	</g>
</g>
<g>
	<g>
		<path d="M360,80H120c-4.424,0-8,3.584-8,8v160c0,4.416,3.576,8,8,8h240c4.424,0,8-3.584,8-8V88C368,83.584,364.424,80,360,80z
			 M352,240H128v-35.872l44.848,19.224c1.008,0.44,2.08,0.648,3.152,0.648c1.792,0,3.552-0.6,5-1.752l35.432-28.344l43.136,28.752
			c2.992,1.992,6.928,1.752,9.64-0.584l50.976-43.688L352,203.848V240z M352,183.352l-27-21.6c-3.016-2.408-7.296-2.336-10.2,0.168
			l-51.4,44.056l-42.96-28.64c-2.896-1.928-6.704-1.768-9.44,0.408l-36.256,29L128,186.728V161.44l38.688,6.448
			c1.824,0.304,3.672-0.032,5.28-0.944l50.176-28.672l35.704,42.848c1.448,1.728,3.536,2.768,5.792,2.872
			C263.76,184,263.88,184,264,184c2.12,0,4.16-0.84,5.656-2.344l52.976-52.976L352,134.56V183.352z M352,118.24l-30.432-6.088
			c-2.624-0.52-5.336,0.296-7.224,2.184l-49.808,49.808l-34.392-41.272c-2.488-2.976-6.752-3.752-10.12-1.824l-53.52,30.584
			L128,145.224V96h224V118.24z"/>
	</g>
</g>
<g>
	<g>
		<rect x="352" y="376" width="16" height="16"/>
	</g>
</g>
<g>
	<g>
		<rect x="248" y="312" width="16" height="16"/>
	</g>
</g>
<g>
</g>
<g>
</g>
<g>
</g>
<g>
</g>
<g>
</g>
<g>
</g>
<g>
</g>
<g>
</g>
<g>
</g>
<g>
</g>
<g>
</g>
<g>
</g>
<g>
</g>
<g>
</g>
<g>
</g>
</svg>
