<?xml version="1.0" encoding="iso-8859-1"?>
<!-- Generator: Adobe Illustrator 19.0.0, SVG Export Plug-In . SVG Version: 6.00 Build 0)  -->
<svg version="1.1" id="Capa_1" xmlns="http://www.w3.org/2000/svg" xmlns:xlink="http://www.w3.org/1999/xlink" x="0px" y="0px"
	 viewBox="0 0 480 480" style="enable-background:new 0 0 480 480;" xml:space="preserve">
<g>
	<g>
		<path d="M368,224c4.424,0,8-3.584,8-8v-48c0-4.416-3.576-8-8-8h-24.808c-3.464-16.976-17.768-29.88-35.304-31.608
			C295.08,114.664,288,96.928,288,78.056V8c0-4.416-3.576-8-8-8h-80c-4.424,0-8,3.584-8,8v70.056
			c0,18.864-7.08,36.608-19.888,50.336c-17.536,1.728-31.848,14.632-35.304,31.608H112c-4.424,0-8,3.584-8,8v48c0,4.416,3.576,8,8,8
			h24v40h-24c-4.424,0-8,3.584-8,8v48c0,4.416,3.576,8,8,8h27.392c5.688,12.952,18.064,22.168,32.72,23.608
			C184.912,365.336,192,383.08,192,401.944V472c0,4.416,3.576,8,8,8h80c4.424,0,8-3.584,8-8v-70.056
			c0-18.864,7.08-36.608,19.888-50.336c14.656-1.44,27.04-10.656,32.72-23.608H368c4.424,0,8-3.584,8-8v-48c0-4.416-3.576-8-8-8h-24
			v-40H368z M344,176h16v32h-16V176z M136,312h-16v-32h16V312z M136,208h-16v-32h16V208z M208,78.056V16h64v62.056
			c0,18.048,5.288,35.28,15.112,49.944h-94.224C202.712,113.336,208,96.104,208,78.056z M272,401.944V464h-64v-62.056
			c0-18.048-5.288-35.28-15.112-49.944h94.224C277.288,366.664,272,383.896,272,401.944z M328,216v56v40c0,13.232-10.768,24-24,24
			H176c-13.232,0-24-10.768-24-24v-40v-56v-48c0-13.232,10.768-24,24-24h128c13.232,0,24,10.768,24,24V216z M360,280v32h-16v-32H360
			z"/>
	</g>
</g>
<g>
	<g>
		<path d="M285.656,186.344l-24-24c-3.128-3.128-8.184-3.128-11.312,0L240,172.688l-10.344-10.344
			c-3.128-3.128-8.184-3.128-11.312,0l-24,24c-3.128,3.128-3.128,8.184,0,11.312l40,40c1.56,1.56,3.608,2.344,5.656,2.344
			c2.048,0,4.096-0.784,5.656-2.344l40-40C288.784,194.528,288.784,189.472,285.656,186.344z M240,220.688L211.312,192L224,179.312
			l10.344,10.344c3.128,3.128,8.184,3.128,11.312,0L256,179.312L268.688,192L240,220.688z"/>
	</g>
</g>
<g>
	<g>
		<rect x="200" y="304" width="16" height="16"/>
	</g>
</g>
<g>
	<g>
		<rect x="232" y="304" width="16" height="16"/>
	</g>
</g>
<g>
	<g>
		<rect x="264" y="304" width="16" height="16"/>
	</g>
</g>
<g>
	<g>
		
			<rect x="222.103" y="263.987" transform="matrix(0.4472 -0.8944 0.8944 0.4472 -110.6093 365.0048)" width="35.775" height="15.999"/>
	</g>
</g>
<g>
	<g>
		<rect x="184" y="264" width="24" height="16"/>
	</g>
</g>
<g>
	<g>
		<rect x="272" y="264" width="24" height="16"/>
	</g>
</g>
<g>
</g>
<g>
</g>
<g>
</g>
<g>
</g>
<g>
</g>
<g>
</g>
<g>
</g>
<g>
</g>
<g>
</g>
<g>
</g>
<g>
</g>
<g>
</g>
<g>
</g>
<g>
</g>
<g>
</g>
</svg>
