<?xml version="1.0" encoding="iso-8859-1"?>
<!-- Generator: Adobe Illustrator 19.0.0, SVG Export Plug-In . SVG Version: 6.00 Build 0)  -->
<svg version="1.1" id="Capa_1" xmlns="http://www.w3.org/2000/svg" xmlns:xlink="http://www.w3.org/1999/xlink" x="0px" y="0px"
	 viewBox="0 0 469.333 469.333" style="enable-background:new 0 0 469.333 469.333;" xml:space="preserve">
<g>
	<g>
		<g>
			<path d="M234.667,64c-64.698,0-117.333,52.635-117.333,117.333c0,5.896,4.771,10.667,10.667,10.667h213.333
				c5.896,0,10.667-4.771,10.667-10.667C352,116.635,299.365,64,234.667,64z M323.135,153.24l2.695-1.557
				c1.991,6.104,3.513,12.414,4.242,18.984h-84.74v-32c0-5.896-4.771-10.667-10.667-10.667S224,132.771,224,138.667v32h-84.74
				c0.729-6.569,2.25-12.879,4.241-18.983l2.697,1.556c1.677,0.969,3.51,1.427,5.323,1.427c3.688,0,7.271-1.917,9.25-5.333
				c2.948-5.104,1.198-11.625-3.906-14.573l-4.294-2.478c5.625-9.375,12.693-17.701,21.066-24.647l3.79,6.563
				c1.979,3.427,5.563,5.333,9.25,5.333c1.813,0,3.646-0.458,5.323-1.427c5.104-2.948,6.854-9.469,3.906-14.573l-4.346-7.526
				c9.97-5.06,20.855-8.366,32.44-9.667V96c0,5.896,4.771,10.667,10.667,10.667s10.667-4.771,10.667-10.667v-9.661
				c11.68,1.311,22.65,4.659,32.685,9.789l-4.414,7.112c-3.104,5-1.573,11.583,3.438,14.688c1.75,1.083,3.698,1.604,5.615,1.604
				c3.563,0,7.052-1.792,9.073-5.042l4.163-6.707c8.293,6.915,15.288,15.194,20.87,24.497l-4.293,2.48
				c-5.104,2.948-6.854,9.479-3.906,14.573c1.979,3.427,5.563,5.333,9.25,5.333C319.625,154.667,321.458,154.208,323.135,153.24z"/>
			<path d="M426.667,0h-384C19.135,0,0,19.135,0,42.667v384c0,23.531,19.135,42.667,42.667,42.667h384
				c23.531,0,42.667-19.135,42.667-42.667v-384C469.333,19.135,450.198,0,426.667,0z M448,426.667
				c0,11.76-9.573,21.333-21.333,21.333h-384c-11.76,0-21.333-9.573-21.333-21.333V384H448V426.667z M448,362.667H21.333v-320
				c0-11.76,9.573-21.333,21.333-21.333h384c11.76,0,21.333,9.573,21.333,21.333V362.667z"/>
		</g>
	</g>
</g>
<g>
</g>
<g>
</g>
<g>
</g>
<g>
</g>
<g>
</g>
<g>
</g>
<g>
</g>
<g>
</g>
<g>
</g>
<g>
</g>
<g>
</g>
<g>
</g>
<g>
</g>
<g>
</g>
<g>
</g>
</svg>
