<?xml version="1.0" encoding="iso-8859-1"?>
<!-- Generator: Adobe Illustrator 19.0.0, SVG Export Plug-In . SVG Version: 6.00 Build 0)  -->
<svg version="1.1" id="Capa_1" xmlns="http://www.w3.org/2000/svg" xmlns:xlink="http://www.w3.org/1999/xlink" x="0px" y="0px"
	 viewBox="0 0 512 512" style="enable-background:new 0 0 512 512;" xml:space="preserve">
<g>
	<g>
		<g>
			<path d="M160,330.667h10.667V352c0,5.896,4.771,10.667,10.667,10.667c5.896,0,10.667-4.771,10.667-10.667v10.667
				c0,5.896,4.771,10.667,10.667,10.667c5.896,0,10.667-4.771,10.667-10.667v-32h85.333v32c0,5.896,4.771,10.667,10.667,10.667
				c5.896,0,10.667-4.771,10.667-10.667V352c0,5.896,4.771,10.667,10.667,10.667c5.896,0,10.667-4.771,10.667-10.667v-21.333H352
				c5.896,0,10.667-4.771,10.667-10.667s-4.771-10.667-10.667-10.667h-10.667V288c0-5.896-4.771-10.667-10.667-10.667
				c-5.896,0-10.667,4.771-10.667,10.667v-10.667c0-5.896-4.771-10.667-10.667-10.667c-5.896,0-10.667,4.771-10.667,10.667v32
				h-85.333v-32c0-5.896-4.771-10.667-10.667-10.667c-5.896,0-10.667,4.771-10.667,10.667V288c0-5.896-4.771-10.667-10.667-10.667
				c-5.896,0-10.667,4.771-10.667,10.667v21.333H160c-5.896,0-10.667,4.771-10.667,10.667S154.104,330.667,160,330.667z"/>
			<path d="M426.667,106.667v-64C426.667,19.135,407.531,0,384,0H128c-23.531,0-42.667,19.135-42.667,42.667v64
				c0,19.013,12.577,34.965,29.786,40.464l-7.911,7.911c-14.104,14.104-21.875,32.854-21.875,52.802v261.49
				C85.333,492.865,104.469,512,128,512h256c23.531,0,42.667-19.135,42.667-42.667v-261.49c0-19.948-7.771-38.698-21.875-52.802
				l-7.911-7.911C414.09,141.632,426.667,125.68,426.667,106.667z M298.667,21.333h42.667V128h-42.667V21.333z M234.667,21.333
				h42.667V128h-42.667V21.333z M170.667,21.333h42.667V128h-42.667V21.333z M106.667,106.667v-64
				c0-11.76,9.573-21.333,21.333-21.333h21.333V128H128C116.24,128,106.667,118.427,106.667,106.667z M405.333,469.333
				c0,11.76-9.573,21.333-21.333,21.333H128c-11.76,0-21.333-9.573-21.333-21.333v-42.667h298.667V469.333z M405.333,405.333
				H106.667V234.667h298.667V405.333z M405.333,207.844v5.49H106.667v-5.49c0-14.25,5.552-27.646,15.625-37.719l20.792-20.792
				h225.833l20.792,20.792C399.781,180.198,405.333,193.594,405.333,207.844z M405.333,106.667c0,11.76-9.573,21.333-21.333,21.333
				h-21.333V21.333H384c11.76,0,21.333,9.573,21.333,21.333V106.667z"/>
		</g>
	</g>
</g>
<g>
</g>
<g>
</g>
<g>
</g>
<g>
</g>
<g>
</g>
<g>
</g>
<g>
</g>
<g>
</g>
<g>
</g>
<g>
</g>
<g>
</g>
<g>
</g>
<g>
</g>
<g>
</g>
<g>
</g>
</svg>
