<?xml version="1.0" encoding="iso-8859-1"?>
<!-- Generator: Adobe Illustrator 19.0.0, SVG Export Plug-In . SVG Version: 6.00 Build 0)  -->
<svg version="1.1" id="Capa_1" xmlns="http://www.w3.org/2000/svg" xmlns:xlink="http://www.w3.org/1999/xlink" x="0px" y="0px"
	 viewBox="0 0 480 480" style="enable-background:new 0 0 480 480;" xml:space="preserve">
<g>
	<g>
		<path d="M80,32c-26.472,0-48,21.528-48,48s21.528,48,48,48s48-21.528,48-48S106.472,32,80,32z M80,112c-17.648,0-32-14.352-32-32
			s14.352-32,32-32s32,14.352,32,32S97.648,112,80,112z"/>
	</g>
</g>
<g>
	<g>
		<path d="M320,152c-17.648,0-32,14.352-32,32v8H160v-8c0-17.648-14.352-32-32-32s-32,14.352-32,32v112H64v-8
			c0-17.648-14.352-32-32-32S0,270.352,0,288v184c0,4.424,3.584,8,8,8h48c4.416,0,8-3.576,8-8V312h32v160c0,4.424,3.584,8,8,8h48
			c4.416,0,8-3.576,8-8V312h32v160c0,4.424,3.584,8,8,8h48c4.416,0,8-3.576,8-8V288c0-17.648-14.352-32-32-32s-32,14.352-32,32v8
			h-32v-88h128v264c0,4.424,3.584,8,8,8h48c4.416,0,8-3.576,8-8V184C352,166.352,337.648,152,320,152z M48,296H32v16h16v152H16V288
			c0-8.824,7.176-16,16-16s16,7.176,16,16V296z M144,464h-32V312h32V464z M144,192h-16v16h16v88h-32V184c0-8.824,7.176-16,16-16
			c8.824,0,16,7.176,16,16V192z M208,288c0-8.824,7.176-16,16-16c8.824,0,16,7.176,16,16v176h-32V288z M336,464h-32V184
			c0-8.824,7.176-16,16-16c8.824,0,16,7.176,16,16V464z"/>
	</g>
</g>
<g>
	<g>
		<rect x="72" width="16" height="16"/>
	</g>
</g>
<g>
	<g>
		<rect x="72" y="144" width="16" height="16"/>
	</g>
</g>
<g>
	<g>
		<rect x="144" y="72" width="16" height="16"/>
	</g>
</g>
<g>
	<g>
		<rect y="72" width="16" height="16"/>
	</g>
</g>
<g>
	<g>
		<rect x="122.907" y="122.923" transform="matrix(0.707 -0.7072 0.7072 0.707 -54.2345 130.938)" width="16" height="16"/>
	</g>
</g>
<g>
	<g>
		<rect x="21.092" y="21.087" transform="matrix(0.707 -0.7072 0.7072 0.707 -12.0469 29.0959)" width="16" height="16"/>
	</g>
</g>
<g>
	<g>
		<rect x="21.089" y="122.907" transform="matrix(0.7072 -0.707 0.707 0.7072 -84.0349 58.8946)" width="16" height="16"/>
	</g>
</g>
<g>
	<g>
		<rect x="122.909" y="21.084" transform="matrix(0.7072 -0.707 0.707 0.7072 17.7671 101.0691)" width="16" height="16"/>
	</g>
</g>
<g>
	<g>
		<path d="M431.624,5.568C430.568,2.256,427.488,0,424,0c-3.488,0-6.568,2.256-7.624,5.568C414.4,11.784,368,158.672,368,256
			c0,86.952,16.824,108.776,48,111.616V480h16V367.616c31.176-2.832,48-24.664,48-111.616C480,158.672,433.6,11.784,431.624,5.568z
			 M432,351.752v-52.44l21.656-21.656l-11.312-11.312L432,276.688V200h-16v44.688l-10.344-10.344l-11.312,11.312L416,267.312v84.44
			c-16.816-1.536-32-12.8-32-95.752c0-71.16,26.544-172.952,40-219.968C437.456,83.048,464,184.848,464,256
			C464,338.952,448.816,350.216,432,351.752z"/>
	</g>
</g>
<g>
	<g>
		<path d="M334.856,48.584C329.472,20.84,304.832,0,276,0c-28.832,0-53.472,20.84-58.856,48.584C198.344,51.848,184,68.28,184,88
			c0,22.056,17.944,40,40,40h104c22.056,0,40-17.944,40-40C368,68.28,353.656,51.848,334.856,48.584z M328,112H224
			c-13.232,0-24-10.768-24-24s10.768-24,23.32-24.024c2.144,0.224,4.32-0.416,5.992-1.8c1.672-1.384,2.704-3.392,2.872-5.544
			C233.912,33.84,253.16,16,276,16c22.84,0,42.088,17.84,43.824,40.632c0.168,2.216,1.296,4.264,3.048,5.656
			c1.528,1.216,3.528,1.84,5.416,1.712C341.392,64.16,352,74.856,352,88C352,101.232,341.232,112,328,112z"/>
	</g>
</g>
<g>
</g>
<g>
</g>
<g>
</g>
<g>
</g>
<g>
</g>
<g>
</g>
<g>
</g>
<g>
</g>
<g>
</g>
<g>
</g>
<g>
</g>
<g>
</g>
<g>
</g>
<g>
</g>
<g>
</g>
</svg>
