<?xml version="1.0" encoding="iso-8859-1"?>
<!-- Generator: Adobe Illustrator 19.0.0, SVG Export Plug-In . SVG Version: 6.00 Build 0)  -->
<svg version="1.1" id="Capa_1" xmlns="http://www.w3.org/2000/svg" xmlns:xlink="http://www.w3.org/1999/xlink" x="0px" y="0px"
	 viewBox="0 0 480 480" style="enable-background:new 0 0 480 480;" xml:space="preserve">
<g>
	<g>
		<path d="M415.416,183.808l28.16-76.016c9.224-24.904,5.816-51.696-9.36-73.496C419.04,12.496,395.112,0,368.552,0H111.448
			C84.888,0,60.96,12.496,45.792,34.296c-15.168,21.8-18.592,48.584-9.36,73.496l28.16,76.016C22.88,216.488,0,258.96,0,304
			c0,97.048,107.664,176,240,176s240-78.952,240-176C480,258.96,457.12,216.488,415.416,183.808z M240,464
			c-123.512,0-224-71.776-224-160c0-41.528,22.336-80.952,62.896-110.992c2.856-2.12,3.976-5.864,2.744-9.208l-30.208-81.576
			c-7.376-19.92-4.648-41.352,7.496-58.792C71.056,26,90.2,16,111.448,16H368.56c21.24,0,40.392,10,52.52,27.44
			c12.144,17.44,14.864,38.864,7.496,58.792L398.368,183.8c-1.232,3.344-0.12,7.096,2.744,9.208
			C441.664,223.048,464,262.472,464,304C464,392.224,363.512,464,240,464z"/>
	</g>
</g>
<g>
	<g>
		<path d="M441.76,269.232l-15.032,5.472c2.624,7.224,4.296,14.632,4.952,22.008l15.936-1.424
			C446.832,286.528,444.864,277.768,441.76,269.232z"/>
	</g>
</g>
<g>
	<g>
		<path d="M431.672,311.28c-3.064,34.016-27.992,66.736-68.392,89.768l7.92,13.904c45.016-25.672,72.856-62.928,76.408-102.232
			L431.672,311.28z"/>
	</g>
</g>
<g>
	<g>
		<path d="M394.808,61.728C388.76,53,379.184,48,368.552,48H111.448c-10.632,0-20.2,5-26.264,13.728
			c-3.56,5.128-8.792,15.76-3.736,29.392l20.856,56.328c8.096,21.864,29.2,36.552,52.52,36.552h170.352
			c23.312,0,44.424-14.688,52.504-36.544l20.864-56.336C403.6,77.488,398.376,66.856,394.808,61.728z M383.56,85.552l-20.864,56.344
			C356.904,157.504,341.832,168,325.176,168H154.824c-16.656,0-31.728-10.496-37.52-26.12L96.448,85.552
			c-2.4-6.472-0.304-11.56,1.872-14.704c2.176-3.12,6.208-6.848,13.128-6.848H368.56c6.912,0,10.952,3.728,13.128,6.848
			C383.864,73.992,385.96,79.08,383.56,85.552z"/>
	</g>
</g>
<g>
	<g>
		<path d="M240,248c-48.52,0-88,39.48-88,88c0,48.52,39.48,88,88,88s88-39.48,88-88C328,287.48,288.52,248,240,248z M240,408
			c-39.704,0-72-32.296-72-72c0-39.704,32.296-72,72-72s72,32.296,72,72C312,375.704,279.704,408,240,408z"/>
	</g>
</g>
<g>
	<g>
		<path d="M240,280c-30.872,0-56,25.128-56,56s25.128,56,56,56s56-25.128,56-56S270.872,280,240,280z M240,376
			c-22.056,0-40-17.944-40-40c0-22.056,17.944-40,40-40c22.056,0,40,17.944,40,40C280,358.056,262.056,376,240,376z"/>
	</g>
</g>
<g>
	<g>
		<rect x="200" y="216" width="16" height="16"/>
	</g>
</g>
<g>
	<g>
		<rect x="232" y="216" width="16" height="16"/>
	</g>
</g>
<g>
	<g>
		<rect x="264" y="216" width="16" height="16"/>
	</g>
</g>
<g>
</g>
<g>
</g>
<g>
</g>
<g>
</g>
<g>
</g>
<g>
</g>
<g>
</g>
<g>
</g>
<g>
</g>
<g>
</g>
<g>
</g>
<g>
</g>
<g>
</g>
<g>
</g>
<g>
</g>
</svg>
