<?xml version="1.0" encoding="iso-8859-1"?>
<!-- Generator: Adobe Illustrator 19.0.0, SVG Export Plug-In . SVG Version: 6.00 Build 0)  -->
<svg version="1.1" id="Capa_1" xmlns="http://www.w3.org/2000/svg" xmlns:xlink="http://www.w3.org/1999/xlink" x="0px" y="0px"
	 viewBox="0 0 480 480" style="enable-background:new 0 0 480 480;" xml:space="preserve">
<g>
	<g>
		<path d="M424,120h-56v-16c0-30.872-25.128-56-56-56V8c0-4.424-3.576-8-8-8H64c-4.424,0-8,3.576-8,8v40C25.128,48,0,73.128,0,104
			v320c0,30.872,25.128,56,56,56h256c30.872,0,56-25.128,56-56v-16h56c30.872,0,56-25.128,56-56V176
			C480,145.128,454.872,120,424,120z M352,128v48v176v48v24c0,22.056-17.944,40-40,40H56c-22.056,0-40-17.944-40-40V104
			c0-22.056,17.944-40,40-40h8c4.424,0,8-3.576,8-8V16h224v40c0,4.424,3.576,8,8,8h8c22.056,0,40,17.944,40,40V128z M368,184h48v160
			h-48V184z M464,352c0,22.056-17.944,40-40,40h-56v-32h56c4.424,0,8-3.576,8-8V176c0-4.424-3.576-8-8-8h-56v-32h56
			c22.056,0,40,17.944,40,40V352z"/>
	</g>
</g>
<g>
	<g>
		<path d="M136,240c-57.344,0-104,46.656-104,104s46.656,104,104,104s104-46.656,104-104S193.344,240,136,240z M68.416,287.728
			L116.688,336h-68.28C50.064,317.736,57.296,301.072,68.416,287.728z M48.408,352h68.28l-48.272,48.272
			C57.288,386.928,50.064,370.264,48.408,352z M128,431.592c-18.264-1.656-34.928-8.888-48.272-20.008L128,363.312V431.592z
			 M128,324.688l-48.272-48.272c13.336-11.128,30.008-18.352,48.272-20.008V324.688z M223.592,336h-68.28l48.272-48.272
			C214.712,301.064,221.936,317.736,223.592,336z M144,256.408c18.264,1.656,34.928,8.888,48.272,20.008L144,324.688V256.408z
			 M144,431.592v-68.28l48.272,48.272C178.936,422.712,162.264,429.936,144,431.592z M203.584,400.272L155.312,352h68.28
			C221.936,370.264,214.704,386.928,203.584,400.272z"/>
	</g>
</g>
<g>
	<g>
		<path d="M331.328,368.016c-5.16-5.176-12.04-8.016-19.352-8.016h-31.952c-7.312,0-14.184,2.84-19.352,8.016
			c-8.592,8.592-10.472,22.008-4.568,32.632l18.92,34.064c4.288,7.728,12.136,12.344,20.976,12.344s16.688-4.616,20.976-12.344
			l18.92-34.064C341.792,390.024,339.92,376.608,331.328,368.016z M321.912,392.88l-18.92,34.064
			c-2.064,3.712-5.576,4.112-6.992,4.112s-4.928-0.4-6.992-4.112l-18.92-34.064c-2.448-4.416-1.672-9.984,1.896-13.552
			c2.152-2.152,5-3.328,8.04-3.328h31.952c3.04,0,5.888,1.176,8.04,3.328C323.584,382.896,324.36,388.472,321.912,392.88z"/>
	</g>
</g>
<g>
	<g>
		<path d="M331.328,264.016c-5.16-5.176-12.04-8.016-19.352-8.016h-31.952c-7.312,0-14.184,2.84-19.352,8.016
			c-8.592,8.592-10.472,22.008-4.568,32.632l18.92,34.064c4.288,7.728,12.136,12.344,20.976,12.344s16.688-4.616,20.976-12.344
			l18.92-34.064C341.792,286.024,339.92,272.608,331.328,264.016z M321.912,288.88l-18.92,34.064
			c-2.064,3.712-5.576,4.112-6.992,4.112s-4.928-0.4-6.992-4.112l-18.92-34.064c-2.448-4.416-1.672-9.984,1.896-13.552
			c2.152-2.152,5-3.328,8.04-3.328h31.952c3.04,0,5.888,1.176,8.04,3.328C323.584,278.896,324.36,284.472,321.912,288.88z"/>
	</g>
</g>
<g>
	<g>
		<path d="M64,88c-13.232,0-24,10.768-24,24s10.768,24,24,24s24-10.768,24-24S77.232,88,64,88z M64,120c-4.416,0-8-3.584-8-8
			s3.584-8,8-8s8,3.584,8,8S68.416,120,64,120z"/>
	</g>
</g>
<g>
	<g>
		<path d="M128,88c-13.232,0-24,10.768-24,24s10.768,24,24,24s24-10.768,24-24S141.232,88,128,88z M128,120c-4.416,0-8-3.584-8-8
			s3.584-8,8-8s8,3.584,8,8S132.416,120,128,120z"/>
	</g>
</g>
<g>
	<g>
		<path d="M192,88c-13.232,0-24,10.768-24,24s10.768,24,24,24s24-10.768,24-24S205.232,88,192,88z M192,120c-4.416,0-8-3.584-8-8
			s3.584-8,8-8s8,3.584,8,8S196.416,120,192,120z"/>
	</g>
</g>
<g>
	<g>
		<path d="M64,152c-13.232,0-24,10.768-24,24s10.768,24,24,24s24-10.768,24-24S77.232,152,64,152z M64,184c-4.416,0-8-3.584-8-8
			s3.584-8,8-8s8,3.584,8,8S68.416,184,64,184z"/>
	</g>
</g>
<g>
	<g>
		<path d="M128,152c-13.232,0-24,10.768-24,24s10.768,24,24,24s24-10.768,24-24S141.232,152,128,152z M128,184c-4.416,0-8-3.584-8-8
			s3.584-8,8-8s8,3.584,8,8S132.416,184,128,184z"/>
	</g>
</g>
<g>
	<g>
		<path d="M192,152c-13.232,0-24,10.768-24,24s10.768,24,24,24s24-10.768,24-24S205.232,152,192,152z M192,184c-4.416,0-8-3.584-8-8
			s3.584-8,8-8s8,3.584,8,8S196.416,184,192,184z"/>
	</g>
</g>
<g>
	<g>
		<path d="M312,80c-44.112,0-80,35.888-80,80s35.888,80,80,80c4.424,0,8-3.576,8-8V88C320,83.576,316.424,80,312,80z
			 M261.496,120.808L292.688,152H248.56C250.024,140.336,254.616,129.656,261.496,120.808z M248.56,168h44.128l-31.192,31.192
			C254.616,190.344,250.024,179.664,248.56,168z M304,223.496c-11.664-1.456-22.36-6.088-31.208-12.976L304,179.312V223.496z
			 M304,140.688l-31.208-31.208c8.856-6.888,19.544-11.512,31.208-12.976V140.688z"/>
	</g>
</g>
<g>
	<g>
		<rect x="224" y="48" width="56" height="16"/>
	</g>
</g>
<g>
	<g>
		<rect x="192" y="48" width="16" height="16"/>
	</g>
</g>
<g>
	<g>
		<rect x="160" y="48" width="16" height="16"/>
	</g>
</g>
<g>
	<g>
		<rect x="128" y="48" width="16" height="16"/>
	</g>
</g>
<g>
</g>
<g>
</g>
<g>
</g>
<g>
</g>
<g>
</g>
<g>
</g>
<g>
</g>
<g>
</g>
<g>
</g>
<g>
</g>
<g>
</g>
<g>
</g>
<g>
</g>
<g>
</g>
<g>
</g>
</svg>
