<?xml version="1.0" encoding="iso-8859-1"?>
<!-- Generator: Adobe Illustrator 19.0.0, SVG Export Plug-In . SVG Version: 6.00 Build 0)  -->
<svg version="1.1" id="Capa_1" xmlns="http://www.w3.org/2000/svg" xmlns:xlink="http://www.w3.org/1999/xlink" x="0px" y="0px"
	 viewBox="0 0 480 480" style="enable-background:new 0 0 480 480;" xml:space="preserve">
<g>
	<g>
		<path d="M472,248h-8.248c0.08-2.664,0.248-5.352,0.248-8c0-106.168-61.992-144-120-144c-27.04,0-50.912,7.712-70.216,22.344
			C281.976,78.256,317.52,48,360,48V32c-52.136,0-95.32,38.616-102.752,88.72C237.44,104.528,212.472,96,184,96
			c-53.008,0-92.832,29.104-110.184,80H56c-30.872,0-56,25.128-56,56v40c0,30.872,25.128,56,56,56h21.408
			C99.264,401.064,140.688,448,184,448c18.344,0,36.136-8.008,52.864-23.816c15.216-14.36,39.048-14.368,54.264,0.008
			C307.864,439.992,325.656,448,344,448c43.312,0,84.736-46.936,106.592-120H472c4.424,0,8-3.576,8-8v-64
			C480,251.576,476.424,248,472,248z M82.52,206.872l5.24-20.936c0.168-0.664,0.232-1.344,0.2-2.016
			C102.504,138.168,137.392,112,184,112c30.232,0,55.824,10.888,74,31.496c3.048,3.456,8.952,3.456,12,0
			C288.176,122.888,313.768,112,344,112c65.128,0,104,47.848,104,128c0,2.656-0.048,5.32-0.136,8H80.136
			c-0.088-2.68-0.136-5.344-0.136-8C80,228.448,80.896,217.08,82.52,206.872z M344,432c-14.128,0-28.216-6.536-41.88-19.44
			c-10.688-10.104-24.4-15.144-38.12-15.144c-13.712,0-27.432,5.048-38.12,15.136C212.216,425.464,198.128,432,184,432
			c-34.688,0-70.128-41.368-89.936-104h339.872C414.128,390.632,378.688,432,344,432z M464,312h-19.336H83.336H56
			c-22.056,0-40-17.944-40-40v-40c0-22.056,17.944-40,40-40h13.768l-2.904,11.656c-0.232,1.416-0.32,2.912-0.52,4.344H60
			c-15.44,0-28,12.56-28,28s12.56,28,28,28h4v32h16v-32h24v24h16v-24h24v24h16v-24h24v24h16v-24h24v32h16v-32h24v24h16v-24h24v24h16
			v-24h24v24h16v-24h24v32h16v-32h24v24h16v-24h15.504H464V312z M64.248,248H60c-6.616,0-12-5.384-12-12c0-6.616,5.384-12,12-12
			h4.624C64.264,229.288,64,234.616,64,240C64,242.648,64.168,245.336,64.248,248z"/>
	</g>
</g>
<g>
	<g>
		<rect x="408" y="216" width="16" height="16"/>
	</g>
</g>
<g>
	<g>
		<rect x="376" y="216" width="16" height="16"/>
	</g>
</g>
<g>
	<g>
		<rect x="344" y="216" width="16" height="16"/>
	</g>
</g>
<g>
</g>
<g>
</g>
<g>
</g>
<g>
</g>
<g>
</g>
<g>
</g>
<g>
</g>
<g>
</g>
<g>
</g>
<g>
</g>
<g>
</g>
<g>
</g>
<g>
</g>
<g>
</g>
<g>
</g>
</svg>
