<?xml version="1.0" encoding="iso-8859-1"?>
<!-- Generator: Adobe Illustrator 19.0.0, SVG Export Plug-In . SVG Version: 6.00 Build 0)  -->
<svg version="1.1" id="Capa_1" xmlns="http://www.w3.org/2000/svg" xmlns:xlink="http://www.w3.org/1999/xlink" x="0px" y="0px"
	 viewBox="0 0 511.984 511.984" style="enable-background:new 0 0 511.984 511.984;" xml:space="preserve">
<g>
	<g>
		<path d="M502.617,457.359l-4.831-4.831c-0.671-0.93-1.451-1.71-2.38-2.38l-81.503-81.503c4.049-4.674,6.505-10.423,6.505-16.661
			c0-6.875-2.667-13.344-7.542-18.208c-9.299-9.279-24.954-9.432-34.857-1.013L179.233,133.986
			c4.052-4.674,6.509-10.427,6.509-16.668c0-6.875-2.667-13.344-7.542-18.208c-9.297-9.277-24.948-9.432-34.85-1.017L54.617,9.359
			C42.159-3.12,21.825-3.12,9.367,9.359c-12.479,12.479-12.479,32.771,0,45.25l88.714,88.714
			c-4.049,4.674-6.505,10.423-6.505,16.661c0,6.875,2.667,13.344,7.542,18.208c4.875,4.865,11.333,7.552,18.208,7.552
			c6.238,0,11.982-2.471,16.661-6.516l198.76,198.76c-4.049,4.674-6.505,10.423-6.505,16.661c0,6.875,2.667,13.344,7.542,18.208
			c4.875,4.865,11.333,7.552,18.208,7.552c6.236,0,11.975-2.47,16.656-6.512l52.297,52.292c0.001,0.001,0.005,0.005,0.005,0.005
			l36.417,36.413c6.042,6.042,14.083,9.375,22.625,9.375c8.542,0,16.583-3.333,22.625-9.375
			C515.096,490.13,515.096,469.839,502.617,457.359z M24.45,39.526c-4.167-4.156-4.167-10.927,0-15.083
			c4.167-4.167,10.917-4.167,15.083,0l18.208,18.208H27.575L24.45,39.526z M48.909,63.984h30.167l21.333,21.333H70.242
			L48.909,63.984z M91.575,106.651h30.167l6.25,6.25l-15.083,15.083L91.575,106.651z M120.45,163.109
			c-1.458,1.479-4.792,1.479-6.25,0c-1.479-1.469-1.479-4.781,0-6.25l42.667-42.667c0.729-0.74,1.938-1.104,3.125-1.104
			s2.396,0.365,3.125,1.104c1.479,1.469,1.479,4.781,0,6.25L120.45,163.109z M149.325,164.401l15.078-15.078l198.25,198.25
			l-15.078,15.078L149.325,164.401z M355.117,397.776c-1.458,1.479-4.792,1.479-6.25,0c-1.479-1.469-1.479-4.781,0-6.25
			l42.667-42.667c0.729-0.74,1.938-1.104,3.125-1.104s2.396,0.365,3.125,1.104c1.479,1.469,1.479,4.781,0,6.25L355.117,397.776z
			 M383.987,399.073l15.089-15.089l21.333,21.333h-30.176L383.987,399.073z M411.569,426.651h30.173l21.333,21.333h-30.171
			L411.569,426.651z M487.534,487.526c-4.042,4.021-11.042,4.021-15.083,0l-18.211-18.208h30.169l3.125,3.125
			C491.701,476.599,491.701,483.37,487.534,487.526z"/>
	</g>
</g>
<g>
</g>
<g>
</g>
<g>
</g>
<g>
</g>
<g>
</g>
<g>
</g>
<g>
</g>
<g>
</g>
<g>
</g>
<g>
</g>
<g>
</g>
<g>
</g>
<g>
</g>
<g>
</g>
<g>
</g>
</svg>
