<?xml version="1.0" encoding="iso-8859-1"?>
<!-- Generator: Adobe Illustrator 19.0.0, SVG Export Plug-In . SVG Version: 6.00 Build 0)  -->
<svg version="1.1" id="Capa_1" xmlns="http://www.w3.org/2000/svg" xmlns:xlink="http://www.w3.org/1999/xlink" x="0px" y="0px"
	 viewBox="0 0 480 480" style="enable-background:new 0 0 480 480;" xml:space="preserve">
<g>
	<g>
		<path d="M456,120h-18.4l-30.088-82.736C406.368,34.104,403.368,32,400,32h-48h-1.472c0.896-2.512,1.472-5.184,1.472-8
			c0-13.232-10.768-24-24-24s-24,10.768-24,24c0,2.816,0.576,5.488,1.472,8H272c-3.608,0-6.768,2.416-7.72,5.896L241.888,120H237.6
			l-30.088-82.736C206.368,34.104,203.368,32,200,32h-48h-1.472c0.896-2.512,1.472-5.184,1.472-8c0-13.232-10.768-24-24-24
			s-24,10.768-24,24c0,2.816,0.576,5.488,1.472,8H72c-3.608,0-6.768,2.416-7.72,5.896L41.888,120H24c-4.424,0-8,3.576-8,8v32
			c0,4.424,3.576,8,8,8h16v88c0,37,28.048,67.56,64,71.552V472c0,4.424,3.576,8,8,8h48h48c4.424,0,8-3.576,8-8v-92l48-36v128
			c0,4.424,3.576,8,8,8h48h48c4.424,0,8-3.576,8-8V327.552C411.952,323.56,440,293,440,256v-88h16c4.424,0,8-3.576,8-8v-32
			C464,123.576,460.424,120,456,120z M394.4,48l26.176,72h-38.472l-3.928-14.4L362.48,48H394.4z M328,16c4.416,0,8,3.584,8,8
			s-3.584,8-8,8c-4.416,0-8-3.584-8-8S323.584,16,328,16z M278.112,48h67.784l3.928,14.4L365.52,120H258.48L278.112,48z M194.4,48
			l26.176,72h-38.472l-3.928-14.4L162.48,48H194.4z M128,16c4.416,0,8,3.584,8,8s-3.584,8-8,8s-8-3.584-8-8S123.584,16,128,16z
			 M78.112,48h67.784l3.928,14.4L165.52,120H58.48L78.112,48z M208,312c-4.424,0-8,3.576-8,8v144h-32v-88h-16v88h-32V320
			c0-4.424-3.576-8-8-8c-30.872,0-56-25.128-56-56v-88h16v88c0,22.056,17.944,40,40,40h124.688l-16,16H208z M296,248
			c0,6.352-3.752,11.808-9.128,14.384C282.536,255.992,280,248.288,280,240c0-22.056,17.944-40,40-40c22.056,0,40,17.944,40,40
			c0,22.056-17.944,40-40,40c-7.808,0-15.048-2.336-21.208-6.224C306.76,267.952,312,258.608,312,248H296z M376,240
			c0-30.872-25.128-56-56-56s-56,25.128-56,56c0,15.216,6.12,29.008,16,39.112V280c0.272,0,0.528-0.072,0.8-0.08
			c0.032,0.032,0.056,0.056,0.088,0.08H280h-10.744h-70.144C209.52,269.824,216,255.664,216,240c0-30.872-25.128-56-56-56
			s-56,25.128-56,56c0,15.664,6.48,29.824,16.888,40H112c-13.232,0-24-10.768-24-24v-88h304v88c0,13.232-10.768,24-24,24h-8.888
			C369.52,269.824,376,255.664,376,240z M176.976,276.08C171.8,278.528,166.088,280,160,280c-22.056,0-40-17.944-40-40
			c0-22.056,17.944-40,40-40c22.056,0,40,17.944,40,40c0,9.032-3.12,17.28-8.192,23.984C183.08,263.88,176,256.752,176,248h-16
			C160,260.192,166.928,270.68,176.976,276.08z M424,256c0,30.872-25.128,56-56,56c-4.424,0-8,3.576-8,8v144h-32v-88h-16v88h-32V328
			c0-3.032-1.712-5.8-4.424-7.16c-2.712-1.336-5.952-1.072-8.376,0.76L216,360v-20.688l36.28-36.28
			c4.536-4.536,10.56-7.032,16.976-7.032H280h88c22.056,0,40-17.944,40-40v-88h16V256z M448,152H32v-16h16h128h56h16h128h56h16V152z
			"/>
	</g>
</g>
<g>
</g>
<g>
</g>
<g>
</g>
<g>
</g>
<g>
</g>
<g>
</g>
<g>
</g>
<g>
</g>
<g>
</g>
<g>
</g>
<g>
</g>
<g>
</g>
<g>
</g>
<g>
</g>
<g>
</g>
</svg>
