<?xml version="1.0" encoding="iso-8859-1"?>
<!-- Generator: Adobe Illustrator 19.0.0, SVG Export Plug-In . SVG Version: 6.00 Build 0)  -->
<svg version="1.1" id="Capa_1" xmlns="http://www.w3.org/2000/svg" xmlns:xlink="http://www.w3.org/1999/xlink" x="0px" y="0px"
	 viewBox="0 0 480 480" style="enable-background:new 0 0 480 480;" xml:space="preserve">
<g>
	<g>
		<path d="M375.272,121.248c-2.376-11.144-10.64-21.336-23.272-29.952V58.224c0-1.76-0.576-3.464-1.648-4.856
			c-2.888-3.776-6.04-7.336-9.312-10.776l0.144-0.136c-0.792-0.832-1.688-1.552-2.504-2.36c-1.12-1.112-2.288-2.176-3.448-3.248
			c-2.56-2.368-5.192-4.64-7.928-6.792c-1.648-1.304-3.312-2.6-5.032-3.824c-1.504-1.08-3.024-2.128-4.576-3.144
			c-2.488-1.64-5.04-3.184-7.64-4.664c-1.352-0.768-2.712-1.512-4.096-2.232c-2.84-1.488-5.736-2.872-8.688-4.168
			c-1.288-0.56-2.584-1.104-3.896-1.632c-0.848-0.344-1.672-0.736-2.536-1.064c-0.408-0.152-0.824-0.224-1.24-0.304
			C273.928,3.232,257.16,0,240,0c-35.376,0-69.248,13.168-94.52,36.192C140.176,33.592,134.296,32,128,32c-22.056,0-40,17.944-40,40
			c0,15.776,9.168,29.416,22.712,35.856c-2.92,4.272-4.992,8.744-5.984,13.392C95.064,124.352,88,133.32,88,144
			c0,10.712,7.104,19.704,16.816,22.776l36.072,277.64C143.144,464.704,160.232,480,180.64,480h118.72
			c20.408,0,37.504-15.296,39.736-35.432l36.088-277.784C384.896,163.704,392,154.712,392,144
			C392,133.32,384.936,124.352,375.272,121.248z M296,29.128c0.488,0.24,0.984,0.456,1.464,0.696c2.656,1.36,5.24,2.832,7.768,4.368
			c1.016,0.616,2.048,1.208,3.048,1.856c2.832,1.84,5.56,3.808,8.216,5.864c0.6,0.464,1.224,0.904,1.808,1.376
			c3.016,2.44,5.912,5.024,8.672,7.744c0.184,0.184,0.384,0.352,0.568,0.536c2.984,2.984,5.816,6.12,8.456,9.416v21.184
			c-8.84-4.072-18.888-7.536-29.848-10.32c-1.952-0.504-4.008-0.936-6.024-1.4c-1.384-0.312-2.72-0.664-4.128-0.952V29.128z M240,16
			c13.776,0,27.264,2.32,40,6.536v44.192C267.392,64.96,253.984,64,240,64c-26.704,0-51.288,3.504-72.088,9.528
			C167.936,73.016,168,72.512,168,72c0-9.912-3.76-18.888-9.76-25.88C180.36,26.904,209.552,16,240,16z M156.408,94.312
			C177.368,85.8,206.2,80,240,80c17.144,0,32.96,1.528,47.184,4.104c6.104,1.096,11.928,2.416,17.488,3.904
			c1.872,0.504,3.744,1.008,5.536,1.56c0.648,0.192,1.264,0.408,1.904,0.608c2.096,0.664,4.16,1.344,6.136,2.056
			c0.392,0.144,0.776,0.288,1.16,0.432c2.2,0.816,4.344,1.656,6.384,2.528c0.192,0.08,0.384,0.16,0.576,0.248
			c2.248,0.968,4.408,1.968,6.448,3c0.008,0.008,0.024,0.008,0.032,0.016c12.776,6.424,21.504,13.952,25.184,21.544H121.968
			c1.768-3.64,4.736-7.264,8.712-10.76c1.512-1.336,3.168-2.656,4.968-3.936c0.76-0.544,1.624-1.064,2.44-1.592
			c1.2-0.792,2.408-1.576,3.712-2.336c1.16-0.68,2.408-1.336,3.648-2c1.032-0.544,2.088-1.088,3.168-1.616
			c1.392-0.68,2.808-1.344,4.288-1.992C154.04,95.272,155.224,94.792,156.408,94.312z M104,72c0-13.232,10.768-24,24-24
			s24,10.768,24,24c0,2.424-0.392,4.84-1.176,7.224c-11.36,4.536-20.872,9.896-28.368,15.968C111.736,92.68,104,83.216,104,72z
			 M323.216,442.656C321.856,454.824,311.608,464,299.36,464H180.64c-12.248,0-22.496-9.176-23.872-21.496L146.048,360h187.904
			L323.216,442.656z M336.024,344H143.968l-13.512-104h219.08L336.024,344z M351.616,224H128.384l-7.272-56h237.792L351.616,224z
			 M368,152H112c-4.408,0-8-3.592-8-8s3.592-8,8-8h256c4.408,0,8,3.592,8,8S372.408,152,368,152z"/>
	</g>
</g>
<g>
	<g>
		<rect x="152" y="256" width="16" height="16"/>
	</g>
</g>
<g>
	<g>
		<rect x="184" y="256" width="16" height="16"/>
	</g>
</g>
<g>
	<g>
		<rect x="216" y="256" width="16" height="16"/>
	</g>
</g>
<g>
	<g>
		<rect x="248" y="256" width="16" height="16"/>
	</g>
</g>
<g>
	<g>
		<rect x="280" y="256" width="16" height="16"/>
	</g>
</g>
<g>
	<g>
		<rect x="312" y="256" width="16" height="16"/>
	</g>
</g>
<g>
</g>
<g>
</g>
<g>
</g>
<g>
</g>
<g>
</g>
<g>
</g>
<g>
</g>
<g>
</g>
<g>
</g>
<g>
</g>
<g>
</g>
<g>
</g>
<g>
</g>
<g>
</g>
<g>
</g>
</svg>
